<svg xmlns="http://www.w3.org/2000/svg" xmlns:xlink="http://www.w3.org/1999/xlink" width="1098.963" height="618.253" viewBox="0 0 1098.963 618.253">
  <style>

    #arco-i{
      animation: 3s infinite destello;
      animation-delay: 0.4s;
    }
    #arco-m{
      animation: 3s infinite destello;
      animation-delay: 0.8s;
    }
    #arco-f{
      animation: 3s infinite destello;
      animation-delay: 1.2s;
    }
    #iluminado{
      animation: 7s infinite movimiento;
    }

    @keyframes destello{
    0%{
      opacity: 0;
    }
    50%{
      opacity: 0.5;
    }
    100%{
      opacity: 0;
    }
    }
  @keyframes movimiento{
      0%{
        transform: translateY(0);
      }
      50%{
        transform: translateY(-50px);
      }
      100%{
        transform: translateY(0px);
      }
      }

  </style>
  <defs>
    <clipPath id="clip-path">
      <rect id="Rectángulo_498" data-name="Rectángulo 498" width="1098.683" height="618.092" fill="none"/>
    </clipPath>
    <linearGradient id="linear-gradient" x1="0.5" y1="1.003" x2="0.5" y2="0.001" gradientUnits="objectBoundingBox">
      <stop offset="0" stop-color="#fff"/>
      <stop offset="0.12" stop-color="#fafcff"/>
      <stop offset="0.248" stop-color="#edf6ff"/>
      <stop offset="0.379" stop-color="#d8ecff"/>
      <stop offset="0.513" stop-color="#badeff"/>
      <stop offset="0.648" stop-color="#94ccff"/>
      <stop offset="0.715" stop-color="#7fc2ff"/>
    </linearGradient>
    <linearGradient id="linear-gradient-2" x1="0.5" y1="1.424" x2="0.5" y2="0.132" gradientUnits="objectBoundingBox">
      <stop offset="0" stop-color="#ccdeff"/>
      <stop offset="0.213" stop-color="#c7daff"/>
      <stop offset="0.452" stop-color="#b9d2ff"/>
      <stop offset="0.703" stop-color="#a3c3ff"/>
      <stop offset="0.961" stop-color="#84aeff"/>
      <stop offset="1" stop-color="#7fabff"/>
    </linearGradient>
    <clipPath id="clip-path-2">
      <rect id="Rectángulo_499" data-name="Rectángulo 499" width="538.606" height="408.435" fill="none"/>
    </clipPath>
  </defs>
  <g id="landscape-lvl" transform="translate(0 -0.129)">
    <g id="Grupo_15912" data-name="Grupo 15912" transform="translate(0.28 0.129)" clip-path="url(#clip-path)">
      <rect id="Rectángulo_497" data-name="Rectángulo 497" width="1106.679" height="652.326" fill="url(#linear-gradient)"/>
      <path id="Trazado_10500" data-name="Trazado 10500" d="M1412.227,534.221c-10.99-8.331-18.271-19.491-35.221-23.114-19.217-4.109-38.685-6.772-57.436-13.692-10.445-3.856-18.7-9.008-27.7-14.344-8.963-5.313-17.388-6.507-27.818-8.8-12.872-2.828-24.417-5.7-35.073-12.559-5.9-3.8-11.6-11.215-18.193-14.123-8.334-3.677-14.966-1.179-22.921-6.811-3.542-2.509-5.6-6.325-10.293-7.755-3.681-1.122-8.2.831-11.626-.8-2.083-.992-4.525-6.379-6.644-8.168-2.832-2.393-4.957-2.442-8.227-4.655-10.324-6.983-12.9-.675-22.9,3.75-10.962,4.847-12.782,11.755-23.67,16.748-13.838,6.346-29.087,13.58-37.051,22.037-8.271,8.781-28.3,9.266-40.139,14.984-26.632,12.873-41.544,14.5-72.042,21.159-15.5,3.383-33.27-.207-48.673,1.361-15.321,1.555-30.493-1.71-45.165,2.3-35.3,9.652-72.168,24.51-112,22.026l-50,21.1,703.44,25.677" transform="translate(-299.372 -178.087)" opacity="0.7" fill="url(#linear-gradient-2)"/>
      <path id="Trazado_10501" data-name="Trazado 10501" d="M-5.363,612.63c20.466,4.826,25.2-2.849,41.78-8.422,12.793-4.3,25.538-1.993,38.786-.477,19.686,2.252,23.52-1.738,41.326-3.35,16.989-1.539,34.581.5,51.651-.092,18.626-.647,30.881-6.117,47.518-8.906,17.839-2.991,28.126.64,43.844-8.242,3.71-2.1,15.063-12.322,18.087-12.567,11.881-.957,8.228,5.538,16.476,8.991,18.287,7.661,30.876,7.471,49.682,6.63,13.708-.613,32.476,3.283,47.518.115,9.116-1.924,12.448-7.576,22.723-8.943,7.343-.977,17.572.559,24.791,1.765,15.448,2.576,24.788,7.9,41.319,8.815,17.364.964,33.21-.053,49.634,3.486,28.3,6.1,68.474,10.157,99.12,4.934,18.885-3.223,27.646-9.963,47.516-8.854,19.155,1.073,27.518-1.967,45.452-4.9,13.833-2.257,27.041-3.171,41.329-6.964,13.928-3.695,28.333-9.517,43.378-8.954,17.717.666,35,5.4,53.715,5.38,15.423-.012,31.429-.25,45.394,3.576,60.574,16.608,127.251,12.37,192.194,15.819L1102,704.309-11.566,730.753" transform="translate(4.666 -242.391)" fill="#a9d0de"/>
      <path id="Trazado_10502" data-name="Trazado 10502" d="M440.025,645.169c34.759,2.862,75.179-3.581,107.092-11.9,34.953-9.116,64.556,5.609,98.745-1.726,38.414-8.242,63.846-8.55,100.973,2.559,34.589,10.352,61.651,15.683,97.095,6.171,17.521-4.7,34.312-9.356,53.052-9.206,21.492.172,27.774-3.54,47.349-9.21,33.034-9.565,68.736,1.933,102.913.485,34.016-1.444,66.826,7.577,100.86,10.493,36.2,3.1,72.424-.008,109.095-.008,11.2,0,26.246-1.449,34.991,1.763l2.057,91.679L437.972,758" transform="translate(-187.567 -264.353)" fill="#6b9eb5"/>
      <path id="Trazado_10503" data-name="Trazado 10503" d="M.489,663.127c18.8,1.006,42.753-3.884,61.031-4.663,16.468-.7,31.509,5.187,47.342,6.66,36.951,3.442,57.574-20.051,92.626-23.9,32.814-3.6,64.965,20.752,96.685,13.268,20.936-4.938,23.181-9.247,45.447-3.524,16.293,4.185,28.333,6.112,46.777,5.338,36.31-1.523,62.368,11.426,93.65,27.229,39.914,20.169,78.78,38.688,122.313,52.591-33.432.279-66.388-4.718-100.024-3.657-50.805,1.6-101.359,8.839-152.424,10.527C246.675,746.547,108.34,755.977.489,755.977" transform="translate(-0.489 -274.121)" fill="#508098"/>
      <path id="Trazado_10504" data-name="Trazado 10504" d="M-1.586,716.216c35.8,17.841,114.8-.047,151.6,5.143,17,2.4,31.579,13.78,49.4,17.535,16.824,3.543,34.006,10,51.457,10.675,31.829,1.224,74.008,1.386,104.977-3.486,34.756-5.465,57.4-24.647,94.79-23.05,64.6,2.747,131.338,21.569,190.862-5.591,19.833-9.047,22.708-6.515,45.733-.889,17.444,4.266,32.437-2.095,49.409,1.724,30.618,6.889,71.64,17.576,101.368,7,9.5-3.38,17.836-10.687,27.852-13.165,4.839-1.2,12.231.314,16.925-.944,4.167-1.114,10.558-5.959,14.925-6.988,22.134-5.209,46.413,2.2,69.469-5.26,20.219-6.546,39.227-18.738,61.8-18.15,10.9.286,23.331,6.079,34.944,7.092,12.8,1.122,25.558-2.214,37.05,3.529l2.061,223.906H-4.364" transform="translate(1.586 -291.179)" fill="#31526b"/>
    </g>
    <g id="Grupo_15913" data-name="Grupo 15913" transform="translate(0 209.947)" clip-path="url(#clip-path-2)">
      <path id="Trazado_10505" data-name="Trazado 10505" d="M596.664,686.308l22.925,27.136L647.7,776.436l10.561,51.251-22.508-40.244-11.72-8.65-8.8-20.2-9.247-34.915Z" transform="translate(-255.147 -503.373)" fill="#83827a"/>
      <path id="Trazado_10506" data-name="Trazado 10506" d="M615.817,925.5c3.271-.1,24.184-12.192,24.184-12.192L643.842,878l.1-21.458-11.72-8.65Z" transform="translate(-263.338 -572.468)" fill="#4c4652"/>
      <path id="Trazado_10507" data-name="Trazado 10507" d="M607.627,856.407l-3.6-10.532-7.368-159.568,18.566,72.287,8.8,20.2Z" transform="translate(-255.147 -503.373)" fill="#3c3544"/>
      <path id="Trazado_10508" data-name="Trazado 10508" d="M684.536,901.78l-26.467,17.993L662.007,863Z" transform="translate(-281.406 -578.931)" fill="#403c44"/>
      <path id="Trazado_10509" data-name="Trazado 10509" d="M788.338,934.792l2.387,5.819-16.97,47.662L753.46,999.2l-57.066,12.783-87.781-28.276-19.232-50.98,10.3-48.929,24.53-16.951,63.6,8.381,24.4,27.251L766.8,928.816Z" transform="translate(-252.033 -580.576)" fill="#4c4652"/>
      <path id="Trazado_10510" data-name="Trazado 10510" d="M867.014,954.866l-50.2-27.943-15.1-12.062-13.293-1.069-15.053,13.715,35.972,20.271Z" transform="translate(-330.709 -600.65)" fill="#8d8e7c"/>
      <path id="Trazado_10511" data-name="Trazado 10511" d="M743.408,876.875l17.149,31.154,15.054-13.715-.98-8.075-13.805-18Z" transform="translate(-317.899 -581.173)" fill="#7a7677"/>
      <path id="Trazado_10512" data-name="Trazado 10512" d="M650.246,859.014l53.324,9.43,17.416-8.631-6.824-6.423-34.034-4.861Z" transform="translate(-278.06 -572.742)" fill="#8d8e7c"/>
      <path id="Trazado_10513" data-name="Trazado 10513" d="M708.568,937.754l-53.207,9.569L622.614,978.7l-.784,46.984,88.44,16.617,34.269-84.278Z" transform="translate(-265.909 -610.897)" fill="#413c47"/>
      <path id="Trazado_10514" data-name="Trazado 10514" d="M589.447,911.547l19.91,11.905L621.949,952l-4.636,27.509s14.133,1.918,13.447,5.065.4,13.283.4,13.283l-12.854,40.267-42.162,27.867-4.5-45.218,1.2-63.373Z" transform="translate(-244.45 -599.69)" fill="#3c3544"/>
      <path id="Trazado_10515" data-name="Trazado 10515" d="M573.752,957.407c3.632-1.867,19.32,5.391,19.32,5.391l17.184-39.341-19.909-11.905Z" transform="translate(-245.35 -599.693)" fill="#83827a"/>
      <path id="Trazado_10516" data-name="Trazado 10516" d="M607.506,971.689l7.961,7.492L637.284,960.9l-12.592-28.548Z" transform="translate(-259.784 -608.586)" fill="#7a7677"/>
      <path id="Trazado_10517" data-name="Trazado 10517" d="M621.415,1000.51l11.219,17.707,5.964-8.483,4.636-27.508Z" transform="translate(-265.732 -629.914)" fill="#8d8e7c"/>
      <path id="Trazado_10518" data-name="Trazado 10518" d="M660.425,1035.355l-19.411,3.417,5.964-8.483,12.235,1.3Z" transform="translate(-274.113 -650.468)" fill="#8d8e7c"/>
      <path id="Trazado_10519" data-name="Trazado 10519" d="M611.673,1026.281,572.4,1042.937l20.09-41.859,7.961,7.492Z" transform="translate(-244.772 -637.976)" fill="#4c4652"/>
      <path id="Trazado_10520" data-name="Trazado 10520" d="M572.4,1038.91l.772-47.25,19.32,5.391Z" transform="translate(-244.772 -633.949)" fill="#433e49"/>
      <path id="Trazado_10521" data-name="Trazado 10521" d="M576.153,1108.11l13.6-12.936,23.525-50.068L602.2,1092.587l-5.331,18.582-18.793,11.939Z" transform="translate(-246.376 -656.803)" fill="#2f2a35"/>
      <path id="Trazado_10522" data-name="Trazado 10522" d="M165.986,936.919,138.627,887.5,92.735,871.611,56.551,890.144,20.368,964.278,49.492,978.4l103.257-.882Z" transform="translate(-8.71 -582.613)" fill="#403c44"/>
      <path id="Trazado_10523" data-name="Trazado 10523" d="M49.492,992.237l43.243-54.71L56.551,903.986,20.368,978.122Z" transform="translate(-8.71 -596.457)" fill="#83827a"/>
      <path id="Trazado_10524" data-name="Trazado 10524" d="M119.767,923.683l28.242-25.6-28.242-26.476L83.583,890.144Z" transform="translate(-35.742 -582.613)" fill="#908e82"/>
      <path id="Trazado_10525" data-name="Trazado 10525" d="M175.042,898.087l40.6,12.355L192.691,887.5,146.8,871.611Z" transform="translate(-62.775 -582.613)" fill="#8d8e7c"/>
      <path id="Trazado_10526" data-name="Trazado 10526" d="M489.122,472.247s-21.181,1.985-36.4,7.94c0,0-17.872,20.521-31.11,25.154,0,0-11.913,8.606-27.8,17.872,0,0-31.77,20.517-35.741,28.461l-15.225,19.858,125.1.659,3.971-18.532,11-49.068Z" transform="translate(-146.608 -411.836)" fill="#8d8e7c"/>
      <path id="Trazado_10527" data-name="Trazado 10527" d="M438.744,657.454c-1.986,0-150.249,6.619-150.249,6.619l31.2-19.3,126.381-1.008Z" transform="translate(-123.367 -485.181)" fill="#908e82"/>
      <path id="Trazado_10528" data-name="Trazado 10528" d="M422.1,742.8l-15.883,5.958-10.593,26.475-47.655-7.279.661,25.814-72.81,38.389-27.8-83.4,23.26-75.89,151.305-7.512Z" transform="translate(-106.058 -494.416)" fill="#83827a"/>
      <path id="Trazado_10529" data-name="Trazado 10529" d="M215.653,930.211l42.36-35.741-27.8-83.4-23.828,63.54Z" transform="translate(-88.256 -556.725)" fill="#7a7677"/>
      <path id="Trazado_10530" data-name="Trazado 10530" d="M591.855,484.824l-1.324-9.929-7.943-2.648L561.41,572.191l29.784,19.857Z" transform="translate(-240.072 -411.836)" fill="#4c4652"/>
      <path id="Trazado_10531" data-name="Trazado 10531" d="M589.383,675.325l-38.388-16.547,5.956-11.918,29.784,19.857Z" transform="translate(-235.618 -486.504)" fill="#45404c"/>
      <path id="Trazado_10532" data-name="Trazado 10532" d="M573.5,782.849c-.662-1.985-21.843-39.052-21.843-39.052l-.661-76.116,38.388,16.548-.66,72.146Z" transform="translate(-235.618 -495.407)" fill="#4c4652"/>
      <path id="Trazado_10533" data-name="Trazado 10533" d="M486.072,901.269v42.365H386.787L468.2,867.513l13.237-66.85,21.842,39.052Z" transform="translate(-165.399 -552.274)" fill="#413a49"/>
      <path id="Trazado_10534" data-name="Trazado 10534" d="M220.264,945.616c0-1.984,1.323-19.857,1.323-19.857l42.36-35.741,72.81-38.391,46.992-18.533,10.594-26.472,15.883-5.958s-11.6,65.317-10.938,66.638-83.712,76.333-83.712,76.333Z" transform="translate(-94.19 -552.274)" fill="#4c4652"/>
      <path id="Trazado_10535" data-name="Trazado 10535" d="M470.29,851.889l-47.655-7.28.531,27.368Z" transform="translate(-180.729 -571.066)" fill="#433e49"/>
      <path id="Trazado_10536" data-name="Trazado 10536" d="M267.353,994.528l45.009-35.742,103.257-42.362,83.4-14.565-66.189,34.419-14.562,18.536-33.1,13.234-56.923,13.239Z" transform="translate(-114.326 -595.548)" fill="#83827a"/>
      <path id="Trazado_10537" data-name="Trazado 10537" d="M655.725,1010.867c0-5.3-18.534-39.714-18.534-39.714l-56.92-7.942-34.7-1.217L531.01,980.53Z" transform="translate(-227.072 -621.263)" fill="#4c4652"/>
      <path id="Trazado_10538" data-name="Trazado 10538" d="M542.978,1024.714l-17.21,5.3-258.418,4.078,117.817-26.477,33.1-13.236Z" transform="translate(-114.325 -635.11)" fill="#3c3544"/>
      <path id="Trazado_10539" data-name="Trazado 10539" d="M620.273,901.674l27.8,43.687-91.62-9.158Z" transform="translate(-237.952 -595.468)" fill="#403c44"/>
      <path id="Trazado_10540" data-name="Trazado 10540" d="M543.594,936.279l-17.21-19.858,83.4-14.561Z" transform="translate(-225.094 -595.548)" fill="#8d8e7c"/>
      <path id="Trazado_10541" data-name="Trazado 10541" d="M678.161,1010.548l-32.652-25.928-74.9-30.73L510.1,943.325,558.114,968.3l10.566,13.442,24.008,9.6,41.3,9.605Z" transform="translate(-218.131 -613.279)" fill="#83827a"/>
      <path id="Trazado_10542" data-name="Trazado 10542" d="M454.386,1022.4c0-3.842,13.444-28.807,13.444-28.807l41.295-5.764,25.168-.879,10.566,13.442Z" transform="translate(-194.306 -631.936)" fill="#4c4652"/>
      <path id="Trazado_10543" data-name="Trazado 10543" d="M454.386,1032.447l12.486,3.841,187.467,2.961-85.469-19.2-24.008-9.605Z" transform="translate(-194.306 -641.979)" fill="#3c3544"/>
      <path id="Trazado_10544" data-name="Trazado 10544" d="M498.039,943.19l-20.165,31.692,66.463-6.643Z" transform="translate(-204.35 -613.222)" fill="#403c44"/>
      <path id="Trazado_10545" data-name="Trazado 10545" d="M375.316,670.239l-6.912-2.593-55.311,21.6-12.1,24.2-12.964,67.407,36.3,101.978,60.493,20.744,57.037-13.832,19.011-29.384-12.1-74.321-32.84-27.652L383.094,695.3Z" transform="translate(-123.17 -495.393)" fill="#4c4652"/>
      <path id="Trazado_10546" data-name="Trazado 10546" d="M440.526,672.177l34.572,57.9,14.69,17.286,1.729,15.556-15.555,18.148L450.9,739.588Z" transform="translate(-188.379 -497.33)" fill="#8d8e7c"/>
      <path id="Trazado_10547" data-name="Trazado 10547" d="M539.592,867.87l-37.16-19.01,15.555-18.148,9.507.863,21.6,15.557Z" transform="translate(-214.852 -565.124)" fill="#7a7677"/>
      <path id="Trazado_10548" data-name="Trazado 10548" d="M580.316,942.36l-12.961-62.223,9.506-20.738,7.778,7.779,6.915,39.754Z" transform="translate(-242.614 -577.391)" fill="#8d8e7c"/>
      <path id="Trazado_10549" data-name="Trazado 10549" d="M410.75,831.428l-9.33,62.763-35.648,39.536-55.092,2.592L288.035,833.155l97.654-43.206Z" transform="translate(-123.17 -547.692)" fill="#413c47"/>
      <path id="Trazado_10550" data-name="Trazado 10550" d="M404.234,1027.362l-14.68-22.934-33.942-13.759-32.11,6.419s-2.753-16.512-6.421-15.6-15.6,0-15.6,0L254.7,998.006l-31.191,50.457,53.208,3.667,74.307-3.667Z" transform="translate(-95.577 -629.584)" fill="#3c3544"/>
      <path id="Trazado_10551" data-name="Trazado 10551" d="M441.055,1065.632c2.061-4.326-7.013-22.473-7.013-22.473l45.541-21.561,14.68,22.934Z" transform="translate(-185.606 -646.75)" fill="#83827a"/>
      <path id="Trazado_10552" data-name="Trazado 10552" d="M427.262,1032.882l-9.075-9.074,20.675-26.247L472.8,1011.32Z" transform="translate(-178.826 -636.472)" fill="#7a7677"/>
      <path id="Trazado_10553" data-name="Trazado 10553" d="M402.371,1023.8,381.2,1011.272l9.739-7.3,32.11-6.419Z" transform="translate(-163.01 -636.47)" fill="#8d8e7c"/>
      <path id="Trazado_10554" data-name="Trazado 10554" d="M384.514,981.521l-3.32,22.9,9.739-7.3-1.96-14.309Z" transform="translate(-163.007 -629.613)" fill="#8d8e7c"/>
      <path id="Trazado_10555" data-name="Trazado 10555" d="M367.642,1021.52,349.5,1068.187l48.394-25.062-9.075-9.074Z" transform="translate(-149.452 -646.718)" fill="#4c4652"/>
      <path id="Trazado_10556" data-name="Trazado 10556" d="M349.492,1084.326l55.406-2.589-7.013-22.473Z" transform="translate(-149.451 -662.857)" fill="#433e49"/>
      <path id="Trazado_10557" data-name="Trazado 10557" d="M241.179,1067.322l14.689-16.417,57.9-29.385-55.309,14.688-21.608,6.916L223.518,1065.6Z" transform="translate(-95.581 -646.718)" fill="#2f2a35"/>
      <path id="Trazado_10558" data-name="Trazado 10558" d="M517.534,798.086H505.543L499,791.545l-25.075,17.442-23.983,44.155-7.087,3.817-18.533,35.43-19.626,38.7,14.718,57.238s70.866,33.255,72.5,33.8,66.971-8.258,66.971-8.258l54.589-35.9-17.444-73.047-4.911-52.875-38.155-27.8-7.084-10.36Z" transform="translate(-173.058 -548.375)" fill="#4c4652"/>
      <path id="Trazado_10559" data-name="Trazado 10559" d="M585.515,853.593c1.633,0,43.609-4.906,43.609-4.906l7.63,4.906-20.169,5.449-16.9,25.077-16.9,39.793Z" transform="translate(-249.214 -572.81)" fill="#8d8e7c"/>
      <path id="Trazado_10560" data-name="Trazado 10560" d="M616.462,826.782l-22.351,3.273-17.989,3.812h27.8l19.625,1.091-2.724-5.721Z" transform="translate(-246.363 -563.443)" fill="#8d8e7c"/>
      <path id="Trazado_10561" data-name="Trazado 10561" d="M698.417,899.981l7.9-2.723,4.908,52.875,18.264,73.048-55.409,35.9.624-10.822,31.616-23.443,4.088-12.535-13.078-38.7s-3.817,10.081-3.817,8.718-2.179-29.706-2.179-29.706Z" transform="translate(-288.251 -593.58)" fill="#8d8e7c"/>
      <path id="Trazado_10562" data-name="Trazado 10562" d="M753.576,1109.113,734.5,1098.208l-4.089,12.535Z" transform="translate(-312.339 -679.511)" fill="#7a7677"/>
      <path id="Trazado_10563" data-name="Trazado 10563" d="M672.944,1153.44l-.853-11.671,33.379-22.877,23.169-1.632Z" transform="translate(-287.402 -687.658)" fill="#554f5b"/>
      <path id="Trazado_10564" data-name="Trazado 10564" d="M491.912,1126.387l-16.722-26.193-48.963-22.773-21.534-42.07,14.718,57.238Z" transform="translate(-173.056 -652.632)" fill="#403c44"/>
      <path id="Trazado_10565" data-name="Trazado 10565" d="M527.859,1148.64l82.555,6.55.853,11.671-66.686,7.971Z" transform="translate(-225.725 -701.077)" fill="#443f49"/>
      <path id="Trazado_10566" data-name="Trazado 10566" d="M677.072,857.258l30.525,22.9-7.9,2.723Z" transform="translate(-289.532 -576.475)" fill="#a8a896"/>
      <path id="Trazado_10567" data-name="Trazado 10567" d="M563.461,1049.844,546.38,1028.78l-70.6,3.415-16.511,18.218-24.482,47.824-3.416,31.316,124.686,1.707,12.526-35.868Z" transform="translate(-184.465 -649.822)" fill="#4c4652"/>
      <path id="Trazado_10568" data-name="Trazado 10568" d="M632.871,1047.574l-.567-18.788,17.081,21.063Z" transform="translate(-270.388 -649.825)" fill="#a8a896"/>
      <path id="Trazado_10569" data-name="Trazado 10569" d="M579.581,1108.867l30.744-47.253,16.514,2.275,5.123,45.549-12.526,35.868H590.969l-2.279-21.068Z" transform="translate(-247.842 -663.863)" fill="#8d8e7c"/>
      <path id="Trazado_10570" data-name="Trazado 10570" d="M434.79,1147.577l81.7-3.417-23.914,15.374-31.6,19.642-29.606-.281Z" transform="translate(-184.466 -699.161)" fill="#403c44"/>
      <path id="Trazado_10571" data-name="Trazado 10571" d="M481.108,1179.172c13.664-6.833,56.364-35.012,56.364-35.012l9.108,15.37,2.28,21.068Z" transform="translate(-205.733 -699.161)" fill="#433f47"/>
      <path id="Trazado_10572" data-name="Trazado 10572" d="M500.006,1038.739l76.291,8.828-.567-18.788-70.6,3.415Z" transform="translate(-213.814 -649.822)" fill="#45404c"/>
      <path id="Trazado_10573" data-name="Trazado 10573" d="M595.922,1173.012l17.935,4.271-18.364-6.262Z" transform="translate(-254.647 -710.648)" fill="#433f47"/>
      <path id="Trazado_10574" data-name="Trazado 10574" d="M74.6,939.463l67.915,2.761,59.632-15.462,25.4-20.428,20.982-36.994,1.105-7.732-163.439,39.2L64.66,904.122l-3.312,26.5Z" transform="translate(-26.234 -578.335)" fill="#3c3544"/>
      <path id="Trazado_10575" data-name="Trazado 10575" d="M69.894,906.624c2.209-.549,37,2.762,37,2.762l44.724-5.521s52.454-12.7,54.11-13.805,46.383-32.578,46.383-32.578l-16.565-5.521-60.185,8.283L82.043,890.611,67.134,900Z" transform="translate(-28.708 -574.21)" fill="#83827a"/>
      <path id="Trazado_10576" data-name="Trazado 10576" d="M332.96,857.481l-71.78,9.384-4.971-6.624,60.186-8.281Z" transform="translate(-109.561 -574.21)" fill="#8d8e7c"/>
      <path id="Trazado_10577" data-name="Trazado 10577" d="M180.327,873.053l-71.78,42.52-38.653-2.761-2.76-6.627L82.043,896.8l93.313-30.366Z" transform="translate(-28.708 -580.398)" fill="#7a7677"/>
      <path id="Trazado_10578" data-name="Trazado 10578" d="M142.512,973.985l8.836-34.786-46.935,6.074-37-2.762-2.76-6.627-3.312,26.5L74.6,971.225Z" transform="translate(-26.233 -610.097)" fill="#322d3a"/>
      <path id="Trazado_10579" data-name="Trazado 10579" d="M307.82,926.761l.827-32.577,46.383-32.578v5.521l-20.43,39.2Z" transform="translate(-131.631 -578.334)" fill="#4b4454"/>
      <path id="Trazado_10580" data-name="Trazado 10580" d="M284.185,968.45l15.463-20.43,11.595-4.418,11.043,3.314,9.387,6.627-2.208,2.208-2.208,10.49-12.7,2.208-18.221,6.075Z" transform="translate(-121.524 -613.398)" fill="#4b4454"/>
      <path id="Trazado_10581" data-name="Trazado 10581" d="M315.823,956.506l24.154.69,2.208-2.208-9.387-6.627-4.554-1.38-19.464,4.141Z" transform="translate(-132.042 -614.843)" fill="#8d8e7c"/>
      <path id="Trazado_10582" data-name="Trazado 10582" d="M359.431,973.668l3.313-1.656,1.1-11.042-2.208,2.208Z" transform="translate(-153.701 -620.825)" fill="#5b5466"/>
      <path id="Trazado_10583" data-name="Trazado 10583" d="M305.306,959.6l-8.973,19.461-12.147-6.075,14.08-18.774Z" transform="translate(-121.525 -617.934)" fill="#322d3a"/>
      <path id="Trazado_10584" data-name="Trazado 10584" d="M384.976,954.424h-4.263L378.39,952.1l-8.914,6.2-8.528,15.692-2.518,1.358-6.586,12.592-6.976,13.758,5.232,20.342s25.188,11.821,25.77,12.014,23.8-2.934,23.8-2.934l19.4-12.759-6.2-25.965L411.133,973.6l-13.562-9.88-2.518-3.68Z" transform="translate(-147.473 -617.031)" fill="#322d3a"/>
      <path id="Trazado_10585" data-name="Trazado 10585" d="M409.14,974.151c.581,0,15.5-1.744,15.5-1.744l2.712,1.744-7.168,1.936L414.174,985l-6,14.142Z" transform="translate(-174.543 -625.716)" fill="#8d8e7c"/>
      <path id="Trazado_10586" data-name="Trazado 10586" d="M420.139,964.623l-7.943,1.162-6.4,1.355h9.883l6.974.39-.968-2.036Z" transform="translate(-173.53 -622.387)" fill="#8d8e7c"/>
      <path id="Trazado_10587" data-name="Trazado 10587" d="M449.271,990.638l2.809-.973,1.743,18.793,6.492,25.966-19.694,12.757.222-3.845L452.08,1035l1.453-4.456-4.648-13.757s-1.358,3.585-1.358,3.1-.773-10.56-.773-10.56Z" transform="translate(-188.42 -633.096)" fill="#83827a"/>
      <path id="Trazado_10588" data-name="Trazado 10588" d="M468.876,1064.974l-6.783-3.877-1.453,4.456Z" transform="translate(-196.981 -663.642)" fill="#7a7677"/>
      <path id="Trazado_10589" data-name="Trazado 10589" d="M440.217,1080.735l-.3-4.15,11.864-8.128,8.235-.579Z" transform="translate(-188.117 -666.541)" fill="#3c3544"/>
      <path id="Trazado_10590" data-name="Trazado 10590" d="M375.874,1071.106l-5.945-9.31-17.4-8.094-7.653-14.953,5.232,20.342Z" transform="translate(-147.477 -654.085)" fill="#3c3544"/>
      <path id="Trazado_10591" data-name="Trazado 10591" d="M388.646,1079.02l29.345,2.328.3,4.15-23.7,2.832Z" transform="translate(-166.194 -671.306)" fill="#35313a"/>
      <path id="Trazado_10592" data-name="Trazado 10592" d="M231.353,1054.345c1.675,0,70.856,1.674,70.856,1.674L277.1,1034.259l-79.224-33.476-2.232,9.487Z" transform="translate(-83.663 -637.85)" fill="#322d3a"/>
      <path id="Trazado_10593" data-name="Trazado 10593" d="M375.339,1046.6l9.484,29.569-21.759-.557-25.107-21.759Z" transform="translate(-144.518 -657.442)" fill="#3c3544"/>
      <path id="Trazado_10594" data-name="Trazado 10594" d="M414.983,1024.18l3.347,23.99-5.579,18.412-9.484-29.569Z" transform="translate(-172.446 -647.855)" fill="#3c3544"/>
      <path id="Trazado_10595" data-name="Trazado 10595" d="M199.546,983.282l79.224,33.475,35.707-4.465,13.39-15.622-14.286-12.322-15.842-9.994-15.622-13.39-12.275-1.118L207.357,977.7Z" transform="translate(-85.331 -620.345)" fill="#8d8e7c"/>
      <path id="Trazado_10596" data-name="Trazado 10596" d="M333.519,974.859l-35.078,5.915h41.588Z" transform="translate(-127.62 -626.764)" fill="#322d3a"/>
      <path id="Trazado_10597" data-name="Trazado 10597" d="M324.41,961.8l-20.953,6.758-5.011,6.632,35.078-5.915Z" transform="translate(-127.623 -621.18)" fill="#83827a"/>
      <path id="Trazado_10598" data-name="Trazado 10598" d="M287.238,1052.591l-19.457-50.031,1.853,14.825Z" transform="translate(-114.509 -638.61)" fill="#8d8e7c"/>
      <path id="Trazado_10599" data-name="Trazado 10599" d="M-17.728,1083.4l65.785,9.267,39.841-3.706,44.474-1.853,10.192-35.209-17.6-35.207-29.649,23.163-45.4,12.969-64.858-23.164-55.592-28.724,3.706,20.385Z" transform="translate(30.164 -637.915)" fill="#322d3a"/>
      <path id="Trazado_10600" data-name="Trazado 10600" d="M-70.541,978.789c7.412,1.853,64.858,33.356,64.858,33.356l55.592,18.533,45.4-12.972,29.649-23.163-1.853-14.825L64.735,949.14l-88.947,12.97Z" transform="translate(30.165 -615.766)" fill="#83827a"/>
      <path id="Trazado_10601" data-name="Trazado 10601" d="M138.516,1081.9l-1.852,39.838,84.315-5.56-37.061-47.253Z" transform="translate(-58.441 -666.987)" fill="#3c3544"/>
      <path id="Trazado_10602" data-name="Trazado 10602" d="M256.279,1098.872l-37.061-47.253,29.649-23.163,17.6,35.208Z" transform="translate(-93.743 -649.683)" fill="#7a7677"/>
      <path id="Trazado_10603" data-name="Trazado 10603" d="M118.8,1137.579l-25.136-19.96-57.663-23.661-46.573-8.128,36.963,19.22,8.132,10.349,18.482,7.4,31.788,7.39Z" transform="translate(4.519 -674.218)" fill="#83827a"/>
      <path id="Trazado_10604" data-name="Trazado 10604" d="M-53.468,1146.7c0-2.959,10.351-22.181,10.351-22.181l31.789-4.432,19.378-.679,8.132,10.349Z" transform="translate(22.864 -688.577)" fill="#4c4652"/>
      <path id="Trazado_10605" data-name="Trazado 10605" d="M-53.468,1154.432l9.611,2.956,144.316,2.281-65.8-14.785-18.482-7.4Z" transform="translate(22.864 -696.309)" fill="#3c3544"/>
      <path id="Trazado_10606" data-name="Trazado 10606" d="M-19.861,1085.72l-15.523,24.394L15.783,1105Z" transform="translate(15.131 -674.171)" fill="#403c44"/>
      <path id="Trazado_10607" data-name="Trazado 10607" d="M170.055,893.775a12.151,12.151,0,0,1,.212,2.04s2.217,60.84,2.438,61.645l.958.125-.559-62.523-.32-1.389Z" transform="translate(-72.719 -592.047)" fill="#212023"/>
      <path id="Trazado_10608" data-name="Trazado 10608" d="M168.195,886.831a7.635,7.635,0,0,1,4.465,6.216s.18.444-.636.771c0,0-.537.07-.9-.728,0,0-.741-3.739-2.656-4.574,0,0,2.181,2.379,2.343,4.847a1.476,1.476,0,0,1-.347,1.256.911.911,0,0,1-.877.093s-.354-.1-.359-.976c0,0-.491-3.37-1.852-4.24a9.439,9.439,0,0,1,1.431,3.509,4.407,4.407,0,0,1-.127,1.55,1.264,1.264,0,0,1-.64.423s-.65.209-.859-.923c0,0,.238-2.341-1.094-3.53a3.858,3.858,0,0,1,.757,3.465s-.507.713-.893.057c0,0-.229-.115-.267-1.545a1.924,1.924,0,0,0-1.36-1.353,2.316,2.316,0,0,1-2.111-1.841s-.35-2.207,2.507-3.248a9.424,9.424,0,0,1,3.92-.381,7.726,7.726,0,0,1,2.447.436S172.838,887.823,168.195,886.831Z" transform="translate(-69.358 -588.589)" fill="#faab77"/>
      <path id="Trazado_10609" data-name="Trazado 10609" d="M158.655,884.179l-2.2,4.78c1.7.687,3.061,1.162,3.734,1.387a2.626,2.626,0,0,0,1.67-4.98C160.87,885.039,159.781,884.635,158.655,884.179Z" transform="translate(-66.903 -587.987)" fill="#faab77"/>
      <path id="Trazado_10610" data-name="Trazado 10610" d="M145.748,872.74s-17.334-1.641-26.322-15.794l-.572,7.693s10.682,13.786,24.575,13.865Z" transform="translate(-50.825 -576.342)" fill="#8e8f9b"/>
      <path id="Trazado_10611" data-name="Trazado 10611" d="M134.512,954.859c-.067,0-.133,0-.2,0a3.4,3.4,0,0,1-3.134-3.593,81.288,81.288,0,0,0,3.3-30.292c-.776-9.182-6.525-20.139-8.606-29.043a3.508,3.508,0,0,1,2.311-4.236,3.219,3.219,0,0,1,3.9,2.552c2.157,9.236,7.283,20.409,8.091,29.757a101.185,101.185,0,0,1-2.591,31.461A3.338,3.338,0,0,1,134.512,954.859Z" transform="translate(-53.777 -589.455)" fill="#f7b18f"/>
      <path id="Trazado_10612" data-name="Trazado 10612" d="M141.494,995.561a6.38,6.38,0,0,1-6.983,2.985,17.208,17.208,0,0,0-.126,3.7s16.2.751,19.594-1.114c0,0,1.494-1.767-2.248-2.633C151.732,998.5,142.98,995.7,141.494,995.561Z" transform="translate(-57.446 -635.617)" fill="#212023"/>
      <path id="Trazado_10613" data-name="Trazado 10613" d="M68.048,948.416c-.054-.039-.106-.078-.159-.12a3.4,3.4,0,0,1-.274-4.76,49.655,49.655,0,0,0,23.39-18.8c5.016-7.731,4.98-23.016,8.8-31.326a3.506,3.506,0,0,1,4.423-1.93,3.217,3.217,0,0,1,1.515,4.4c-3.959,8.621-4.927,24.619-10.017,32.5-9.342,14.456-22.588,18.523-23.165,19.239a3.336,3.336,0,0,1-4.512.8Z" transform="translate(-28.554 -591.017)" fill="#f7b18f"/>
      <path id="Trazado_10614" data-name="Trazado 10614" d="M72.167,985.688a6.379,6.379,0,0,1-7.346-1.923,17.183,17.183,0,0,0-2.37,2.85s12.341,10.527,16.163,11.133c0,0,2.264-.481-.163-3.458C78.448,994.288,73.258,986.7,72.167,985.688Z" transform="translate(-26.705 -630.573)" fill="#212023"/>
      <path id="Trazado_10615" data-name="Trazado 10615" d="M115.382,781.736c5.991-1.539,9.582,1.946,11.73,7.619.076.2.152.4.229.6.369.149.547.825,1.095.921,1.177.2,2.051,1.213,1.608,1.524a16.87,16.87,0,0,1-1.652.61c1.259,4.27,1.162,8.027-4.62,9.71a8.167,8.167,0,0,1-1.687.295l.186,3.178a3.263,3.263,0,0,1-2.538,3.341,3.343,3.343,0,0,1-.545.08,3.215,3.215,0,0,1-3.458-2.988l-.377-6.451a18.259,18.259,0,0,1-3.735-5.844C108.866,787.707,111.089,782.839,115.382,781.736Z" transform="translate(-47.212 -544.024)" fill="#faab77"/>
      <path id="Trazado_10616" data-name="Trazado 10616" d="M130.313,802.26c.078.563,1.117.881,2.323.71s2.118-.766,2.041-1.33-1.117-.881-2.323-.71S130.235,801.695,130.313,802.26Z" transform="translate(-55.723 -552.369)" fill="#f72b65" opacity="0.3"/>
      <path id="Trazado_10617" data-name="Trazado 10617" d="M150.874,790.206a7.644,7.644,0,0,1,3.533-6.791s.315-.36.973.22c0,0,.3.449-.243,1.133,0,0-3,2.347-2.884,4.434,0,0,1.139-3.02,3.269-4.277a1.473,1.473,0,0,1,1.278-.256.91.91,0,0,1,.478.741s.069.363-.708.761c0,0-2.787,1.957-2.949,3.565a9.448,9.448,0,0,1,2.485-2.862,4.4,4.4,0,0,1,1.441-.586,1.263,1.263,0,0,1,.666.381s.48.485-.436,1.183c0,0-2.2.844-2.657,2.569a3.859,3.859,0,0,1,2.751-2.239s.865.132.453.773c0,0,0,.256-1.259.935a1.924,1.924,0,0,0-.59,1.826,2.315,2.315,0,0,1-.691,2.715s-1.813,1.308-4.03-.773a9.418,9.418,0,0,1-2.108-3.327,7.722,7.722,0,0,1-.715-2.381S149.666,785.616,150.874,790.206Z" transform="translate(-63.687 -544.851)" fill="#faab77"/>
      <path id="Trazado_10618" data-name="Trazado 10618" d="M110.191,862.13c.175,4.249,3.785,1.072,8.572.875l-.011-.266c4.788-.2,9.818,2.782,9.642-1.468l.292-28.27c-.175-4.248-6.31-10.978-11.1-10.78l-.361.014c-4.789.2-8.528,3.8-8.352,8.052Z" transform="translate(-46.556 -561.491)" fill="#9091a7"/>
      <path id="Trazado_10619" data-name="Trazado 10619" d="M119.315,780.621c.523,2.243,3.663,3.428,7.017,2.645s5.646-3.234,5.123-5.476-3.663-3.43-7.017-2.646S118.792,778.377,119.315,780.621Z" transform="translate(-50.99 -541.258)" fill="#644b37"/>
      <path id="Trazado_10620" data-name="Trazado 10620" d="M120.739,771.941c.523,2.242,3.091,3.563,5.74,2.944s4.367-2.937,3.845-5.18-3.091-3.562-5.74-2.944S120.216,769.695,120.739,771.941Z" transform="translate(-51.591 -537.711)" fill="#644b37"/>
      <path id="Trazado_10621" data-name="Trazado 10621" d="M128.969,782.731a3.748,3.748,0,1,0,2.889-3.893A3.451,3.451,0,0,0,128.969,782.731Z" transform="translate(-55.12 -542.892)" fill="#644b37"/>
      <path id="Trazado_10622" data-name="Trazado 10622" d="M107.244,786.89c.523,2.243,3.663,3.428,7.017,2.645s5.645-3.234,5.122-5.476-3.663-3.43-7.017-2.648S106.72,784.646,107.244,786.89Z" transform="translate(-45.828 -543.939)" fill="#644b37"/>
      <path id="Trazado_10623" data-name="Trazado 10623" d="M105.7,785.735a2.7,2.7,0,1,0,2.3-2.8,2.553,2.553,0,0,0-2.3,2.8Z" transform="translate(-45.195 -544.681)" fill="#644b37"/>
      <path id="Trazado_10624" data-name="Trazado 10624" d="M104.073,790.528a2.7,2.7,0,1,0,2.3-2.8,2.551,2.551,0,0,0-2.3,2.8Z" transform="translate(-44.499 -546.731)" fill="#644b37"/>
      <path id="Trazado_10625" data-name="Trazado 10625" d="M105.634,795.537a2.7,2.7,0,1,0,2.3-2.8,2.552,2.552,0,0,0-2.3,2.8Z" transform="translate(-45.166 -548.872)" fill="#644b37"/>
      <path id="Trazado_10626" data-name="Trazado 10626" d="M109.11,778.82c.721,1.619,3.8,1.846,6.865.508s4.973-3.737,4.25-5.357-3.8-1.847-6.869-.507S108.387,777.2,109.11,778.82Z" transform="translate(-46.592 -540.269)" fill="#644b37"/>
      <path id="Trazado_10627" data-name="Trazado 10627" d="M115.824,792.234s-.855,2.836.061,4.6c0,0-2.034-1.5-3.29-.385,0,0-2.09,1.145,1.674,3.562a8.872,8.872,0,0,1-2.6,2.583s-4.07-3-4.457-5.384S112.337,791.729,115.824,792.234Z" transform="translate(-45.839 -548.646)" fill="#644b37"/>
      <path id="Trazado_10628" data-name="Trazado 10628" d="M119.346,800.484s-2.352-.576-2.355.5c0,0-.381,1.132,2.067,1.879,0,0-1.781-1.259-1.557-1.861C117.5,801,117.532,800.413,119.346,800.484Z" transform="translate(-50.019 -552.131)" fill="#f72b65" opacity="0.3"/>
      <path id="Trazado_10629" data-name="Trazado 10629" d="M141.279,816.3c1.618-6.171.484-15.06.172-17.2a2.625,2.625,0,1,0-5.2.754c.824,5.677,1.068,15.111-1.024,17.343a.566.566,0,0,1-.559.219l-.14-.007c-6.01-.164-15.588-1.047-18.057-2.5a2.624,2.624,0,1,0-2.659,4.522c4.487,2.637,17.73,3.14,20.514,3.218a5.75,5.75,0,0,0,4.731-1.867,10.368,10.368,0,0,0,2.219-4.484Z" transform="translate(-48.085 -550.643)" fill="#faab77"/>
      <path id="Trazado_10630" data-name="Trazado 10630" d="M134.87,794.908a.928.928,0,1,0-.2,1.224.88.88,0,0,0,.2-1.224Z" transform="translate(-56.943 -549.63)" fill="#644b37"/>
      <path id="Trazado_10631" data-name="Trazado 10631" d="M125.985,826.2s2.248-4.941-7.741-5.1c0,0-4.887-3.205-5.633,6.614Z" transform="translate(-48.155 -560.797)" fill="#9091a7"/>
      <path id="Trazado_10632" data-name="Trazado 10632" d="M135.976,803.944c.646,5.682,1.215,12.67-.657,14.684-.183.2-.44.434-.7.413l-.035.14c-6.01-.135-14.3-1.168-16.835-2.5-2.966-1.555-3.991.437-4.719,1.689a2.623,2.623,0,0,0,.95,3.588c4.5,2.615,17.88,3.853,20.663,3.918a6.535,6.535,0,0,0,5-2.129,10.933,10.933,0,0,0,2.368-4.59c1.064-4.137.579-12.845.25-16.57Z" transform="translate(-48.182 -553.098)" fill="#a7a9bc"/>
      <path id="Trazado_10633" data-name="Trazado 10633" d="M114.346,880.126l-3.671,2.2s-1.865,9.325,4.961,8.863c0,0,11.461-4.61,12.787-9.6Z" transform="translate(-47.228 -586.254)" fill="#9091a7"/>
      <path id="Trazado_10634" data-name="Trazado 10634" d="M103.728,858.77a3.453,3.453,0,0,1-3.307,3.592l-6.036.249a3.451,3.451,0,0,1-3.592-3.307l-1.122-27.161a3.452,3.452,0,0,1,3.307-3.592l6.038-.252a3.454,3.454,0,0,1,3.592,3.308Z" transform="translate(-38.344 -564.09)" fill="#3f383e"/>
      <path id="Trazado_10635" data-name="Trazado 10635" d="M102.9,859.949l-6.036.25a3.452,3.452,0,0,1-3.592-3.307L92.151,829.73a3.451,3.451,0,0,1,.057-.776,3.451,3.451,0,0,0-2.538,3.47l1.122,27.162a3.451,3.451,0,0,0,3.592,3.307l6.036-.249a3.453,3.453,0,0,0,3.249-2.815A3.472,3.472,0,0,1,102.9,859.949Z" transform="translate(-38.344 -564.372)" fill="#3f383e" opacity="0.2"/>
      <path id="Trazado_10636" data-name="Trazado 10636" d="M88.212,850.125a1.943,1.943,0,0,1-1.861,2.021h0a1.943,1.943,0,0,1-2.02-1.86L83.62,833.04a1.941,1.941,0,0,1,1.86-2.02h0a1.943,1.943,0,0,1,2.02,1.86Z" transform="translate(-35.757 -565.255)" fill="#3f383e"/>
      <path id="Trazado_10637" data-name="Trazado 10637" d="M74.764,940.674l5.562,5.91s25.561-11.243,26.89-37.643c0,0,7.326,12.338,2.29,41.928l8.675-2.99s3.8-21.527,1.53-31.374l-6.271-25.356-18.252,2.193s1.569,22.094-3.014,32.572C92.176,925.909,90.464,931.319,74.764,940.674Z" transform="translate(-31.971 -590.968)" fill="#3f383e"/>
      <path id="Trazado_10638" data-name="Trazado 10638" d="M138.688,806.5a3.962,3.962,0,0,0-3.242,3.155s4.29-1.545,3.7-2.3" transform="translate(-57.92 -554.77)" fill="#fff"/>
      <path id="Trazado_10639" data-name="Trazado 10639" d="M127.1,799.127a.954.954,0,1,1-1.907.069c-.019-.527.894-1.656.894-1.656S127.077,798.6,127.1,799.127Z" transform="translate(-53.534 -550.938)" fill="#fff"/>
      <path id="Trazado_10640" data-name="Trazado 10640" d="M105.644,788.306,123.86,775.8a6.516,6.516,0,0,1,2.354,5.643L106.551,790.2Z" transform="translate(-45.176 -541.642)" fill="#3c3544"/>
      <path id="Trazado_10641" data-name="Trazado 10641" d="M100.654,812.118c.255-.868,2.856-14.469,2.856-14.469l.907,1.9-.851,13.9Z" transform="translate(-43.042 -550.985)" fill="#7a7677"/>
      <path id="Trazado_10642" data-name="Trazado 10642" d="M95.62,811.651c.254-.869,5.737-14,5.737-14l-3.07,16.484Z" transform="translate(-40.889 -550.985)" fill="#4b4454"/>
      <path id="Trazado_10643" data-name="Trazado 10643" d="M137.7,795.279c-.643,0-1.545-1.635-1.9-2.338-.619-1.217-1.227-2.734-.612-3.048l.543-.276.129-.01c.642,0,1.543,1.635,1.9,2.338a11.16,11.16,0,0,1,.744,1.8c.151.51.252,1.057-.133,1.253l-.541.276Zm-2.092-4.83a9.927,9.927,0,0,0,2.092,4.115l.252-.129a9.94,9.94,0,0,0-2.092-4.114Z" transform="translate(-57.699 -547.546)" fill="#3f383e"/>
      <path id="Trazado_10644" data-name="Trazado 10644" d="M122.413,797.653l-.286-.623c.307-.141,7.515-3.444,8.085-3.657l.24.642C130.015,794.179,125,796.466,122.413,797.653Z" transform="translate(-52.224 -549.156)" fill="#3f383e"/>
      <path id="Trazado_10645" data-name="Trazado 10645" d="M528.3,1056.489a8.927,8.927,0,0,0-2.931-2.753c-.115.791-.661,1.488-.8,2.254a8.624,8.624,0,0,0-2.073-3.669c-1,1.173-1.234,2.69-1.946,4.039-.4-1.133-1.151-2.387-2.73-2.312-.432,1.58-1.934,2.9-2.862,4.086a7.825,7.825,0,0,0-1.238-2.618c-.543.639-1.431,1.12-1.794,1.959a15.821,15.821,0,0,1-.7-2.576c-1.311,1.32-1.545,3.405-2.793,4.761-.515-.97-1.579-5.609-3.606-5.037-1.061.3-2.186,4.563-2.515,5.542-.411-1.5-.846-3.44-2.413-4.335a10.319,10.319,0,0,1-2.175,2c-.859-1.656-1.359-3.4-2.931-4.7-1.73.835-1.723,3.135-2.524,4.636-.667-1.729-1.66-4.02-3.515-4.938-.581,1.233-.519,2.592-1.427,3.514a5.562,5.562,0,0,0-2.964-3.135c-1.272,1.356-1.293,3.46-2.142,4.791-.22-.813-.955-1.31-1.347-1.889a34.691,34.691,0,0,0-2.162,3.513,4.694,4.694,0,0,0-1.527-3.289,21.482,21.482,0,0,0-1.792,4.092c-.076-1.057-.794-1.58-1.431-2.3a11.564,11.564,0,0,0-1.444,2.3,3.9,3.9,0,0,0-2.056-2.817c-1.126,1.458-1.431,3.3-2.321,4.9-.965-1.214-1.1-2.6-2.362-3.441a7,7,0,0,1-2.134,2.935c-.859-1.726-.524-4.045-.881-5.9-1.46.977-3.24,3.7-3.229,5.292a20.262,20.262,0,0,1-3.606-6.1c-.9,1.6-1.7,3.491-3.156,4.832a3.34,3.34,0,0,0-1.42-3.205c-2.468,2.069-1.936,4.9-2.889,7.368.283-.85.087-3.326-1.7-2.813-.521.152-.946,2.319-1.149,2.809a8.209,8.209,0,0,0-2.438-3.434c0,1.58-1.077,3.827-2.862,4.107-.569-1.073-1.11-2.152-1.606-3.248-2.113,1.774-1.421,4-4.209,3.663-2.253-.27-2.948-3.091-4.324.687-.458-1.881-.536-3.988-1.431-5.707-.99,1.1-1.27,2.471-1.856,3.695-.34-.343-.661-.687-.96-1.016a2.543,2.543,0,0,0-1.047,1.233,7.723,7.723,0,0,1-.532-1.033,7.767,7.767,0,0,0-1.7,2.141c-1.025-1.107-2.127-2.281-2.747-2.325a2.037,2.037,0,0,0-1.713.656,3.069,3.069,0,0,0-2.747-.472.945.945,0,0,0-.149.087c-.354-.943-.813-1.729-1.579-1.954-3.051-.9-6.95,2.443-7.395,4.161a2.3,2.3,0,0,0-.458-.531c-.026.039-.054.08-.082.119a12.1,12.1,0,0,0-3.4-3.75c-.421.809-1.328,1.592-1.576,2.4-2.3-1.374-2.11-3.54-4.023-5.124-1.139,1.624-1.234,3.613-1.82,5.388-1.752-3.569-2.64-.9-5.51-.65-3.549.317-2.67-1.782-5.36-3.457-.632,1.034-1.32,2.053-2.045,3.066a4.223,4.223,0,0,1-3.649-3.878,8.312,8.312,0,0,0-3.106,3.24c-.258-.462-.8-2.509-1.465-2.651-2.281-.485-2.529,1.853-2.17,2.655-1.215-2.333-.537-5-3.682-6.955a2.9,2.9,0,0,0-1.808,3.028c-1.851-1.266-2.876-3.055-4.022-4.563a18.969,18.969,0,0,1-4.6,5.761c.014-1.5-2.253-4.073-4.113-5-.458,1.753-.031,3.941-1.124,5.571a7.134,7.134,0,0,1-2.718-2.77c-1.611.789-1.778,2.1-3.01,3.248-1.133-1.512-1.521-3.252-2.957-4.629a3.955,3.955,0,0,0-2.617,2.659c-.29-.764-1.331-1.529-1.841-2.175-.808.683-1.723,1.176-1.818,2.175a18.1,18.1,0,0,0-2.284-3.863,4.079,4.079,0,0,0-1.946,3.105,32.5,32.5,0,0,0-2.754-3.32c-.5.55-1.431,1.017-1.714,1.785-1.083-1.256-1.109-3.243-2.73-4.522a6.316,6.316,0,0,0-3.778,2.96c-1.158-.87-1.078-2.154-1.818-3.32-2.364.866-3.628,3.03-4.478,4.662-1.021-1.415-1.012-3.587-3.215-4.375-2,1.224-2.642,2.872-3.734,4.436a12.67,12.67,0,0,1-2.77-1.893c-1.995.845-2.549,2.676-3.073,4.093-.42-.923-1.851-4.951-3.205-5.232-2.581-.539-3.939,3.84-4.594,4.757-1.589-1.28-1.889-3.248-3.557-4.495a12.167,12.167,0,0,1-.889,2.43c-.465-.792-1.595-1.246-2.29-1.849a6.719,6.719,0,0,0-1.576,2.473c-1.182-1.12-3.1-2.367-3.647-3.858a3.481,3.481,0,0,0-3.479,2.183c-.9-1.272-1.207-2.707-2.477-3.814a7.935,7.935,0,0,0-2.64,3.464c-.177-.724-.872-1.382-1.019-2.128-1.78.585-2.82,1.848-3.909,2.751a8.641,8.641,0,0,0-1.6-2.394,7.864,7.864,0,0,0-2.26,3.514,6.778,6.778,0,0,1-1.018-1.091,10.079,10.079,0,0,0-1.636-.819c-.651.8-1.414,1.532-1.449,2.47-.413-.422-1.47-.965-1.876-1.635-.2.359-1.416,1.1-1.614,1.348-.931-1.166-1.426-2.38-2.742-3.3-.856,2.226-2.8,8.892-6.824,3.916-.383.744-1.274,1.441-1.613,2.2a8.033,8.033,0,0,1-2.727-2.477c-1.326.984-2.182,3.014-3.091,4.225a9.985,9.985,0,0,1-3.323-3.385c-.191.473-1.154,1.251-1.361,1.91a12.4,12.4,0,0,1-2.654-2.252c-.213.489-1.278,1.333-1.475,1.971-.644-.607-2.09-1.411-2.642-1.971-.515.687-1.466,1.326-1.448,2.258-.172-.413-1.078-1.222-1.283-1.839a8.778,8.778,0,0,0-2.286,2.883c-.687-1.512-1.043-3.123-1.832-4.564-1.972,2.3-4.791,4.818-5.474,7.387a6.431,6.431,0,0,0-2.219-2.14c-.179.848-.7,1.465-.515,2.4-.274-.5-.965-1-1.265-1.492a4.579,4.579,0,0,0-1.488,2.6,16.757,16.757,0,0,1-1.953-2.392,7.6,7.6,0,0,0-2.988,3.03,6.173,6.173,0,0,0-1.357-2.2c-.528,1-1.271,1.964-1.678,2.971-.2-.161-.389-.324-.607-.48-1.569-1.128-2.983-1.76-3.782-3.2-.465-.838-.332-1.711-1.013-2.468-1.076,1.087-2.077,2.211-2.05,3.5a5.23,5.23,0,0,1-2.828-4.922c-1.562,2.071-2.211,4.247-3.283,6.411-.229-1.317-.927-2.518-.817-3.908a5.711,5.711,0,0,0-4.768,1.374,9.834,9.834,0,0,0-2.3-5.749c-1.354,1.744-1.75,3.988-3.1,5.6a10.189,10.189,0,0,0-2.466-5.171c-1.369,1.576-1.549,3.377-2.84,4.952-.823-.887-.967-2.412-2.239-3.118-.752,1.459-2.538,2.68-3.428,4.133,0-1.238.057-2.823-1.357-3.7-1.539,1.145-1.767,2.956-2.217,4.365-.794-.813-1.454-3.127-3.01-3.622-2.181-.694-2.908,1.112-4.1,2.2a8.424,8.424,0,0,1-3.315-2.839,2.2,2.2,0,0,1-3.123-1.54,23.947,23.947,0,0,0-1.809,2.395,19.7,19.7,0,0,1-3.763-6.806c-1.03,1.717-2.461,3.343-3.086,5.13-.687-1.616-1.475-3.282-2.084-4.92.505,1.946-2.835,3.558-3.061,5.544a11.1,11.1,0,0,0-1.723-2.184c-1.126,1.054-1.473,3.174-4.064,3.056-.111-1.217.458-2.839-1-3.734-.217.52-.916,1.048-1.124,1.556a27.667,27.667,0,0,1-2.407-3.19c.14,1.663-1.573,3.492-2.984,4.751-1.12-1.277-.967-2.88-1.793-4.165a5.256,5.256,0,0,0-2.322,2.064,15.4,15.4,0,0,0-2.151-2.437c-.5,1.007-1.328,2.134-1.362,3.245.057-3.119-2.959-6.1-6.8-7.924a12.59,12.59,0,0,0-1.166,4.8c-.2-.389-.99-1.252-1.2-1.647-.75.884-3.823,5.6-4.612,1.9a7.722,7.722,0,0,0-3.3,1.8c.191-2.282-1.841-3.137-3.757-4.906a7.35,7.35,0,0,0-2.838,3.654c-1.145-1-1.364-2.347-1.955-3.444a7.83,7.83,0,0,0-2.9,3.892.741.741,0,0,1-.562,0,5.874,5.874,0,0,0-1.334-3.32,9.283,9.283,0,0,0-1.519,5.209c-2.675-.213-4.2-2.171-6.206-3.187-1.438-.728-3.431-1.127-4.407-1.979a5.446,5.446,0,0,1,.65,4.134c-1.754-1.17-2.422-3.346-4.672-4.178-.711,1.338-.687,2.791-1.165,4.178-1.263-1.233-1-3.166-2.073-4.6-.515,1.078-.219,2.7.048,3.92-2.5-.959-4.677-2.122-5.108-4.087a21.668,21.668,0,0,0-.754,4.927,23.648,23.648,0,0,1-2.061-4.757c-1.983,1.488,2.136,7.468-.927,8.365-3.487,1.021-4.506-7.2-5.864-7.949-1.5,1.695-.515,4.162-.737,6.067-2.682-1.221-.492-4.46-2.313-6.135-2.244,1.291-1.207,3.643-2.5,5.3-1.364-.846-.843-2.76-2.257-3.769a12.2,12.2,0,0,0-.393,3.72c-.647-1.374-.243-3.625-2-4.55-.943,1.239-.421,2.968-.422,4.338-.357-1.48-.256-3.568-2.064-4.6-1.739.83-2.118,2.6-2.129,4.154-.153-1.056-.567-2.223-1.636-2.252-1.782-.049-2.11,1.652-2.124,3.054a2.862,2.862,0,0,0-1.236-1.96,5.778,5.778,0,0,1-.412,2.654c-.708-1.157-1.16-2.658-2.322-3.5-1.039,1.368-.339,3.283-.491,4.781-1.149-1.274-1.655-3.091-3.308-4.1-.039,1.643.458,3.32.22,4.98-2.236-.836-2.13-2.62-3.736-3.8-1.225.948-.338,2.322.074,3.5-1.285-1.015-2.208-2.182-3.491-3.193a14.4,14.4,0,0,1,.992,3.063c-1.2-.859-1.73-3.452-4.055-3.347-2.8.125-1.158,2.553-1.423,3.725-1.968-1.094-2.139-2.835-4.011-3.871-.061,1.149.505,2.292.65,3.452-.62-1.019-1.863-4.4-4.064-4.164-2.4.254-2.747,4.215-3.231,5.468-1.014-1.2-1.358-3.049-2.66-4.221A2.949,2.949,0,0,0,0,1059.054V1101H528.3Z" transform="translate(0 -659.101)" fill="#1e1b23"/>
      <path id="Trazado_10646" data-name="Trazado 10646" d="M827.668,1009.738c-.235-4.426-.6-8.918-.082-13.29.515-4.309,2.123-8.492,3.171-12.75.468-1.9,1.116-3.819,1.48-5.734a39.141,39.141,0,0,0,5.353-6.16,13.283,13.283,0,0,0,9.3-6.833.122.122,0,0,0-.191-.147,40.561,40.561,0,0,1-4.733,3.975,22.211,22.211,0,0,1-3.457,1.781,12.361,12.361,0,0,0,2.877-7.155.2.2,0,0,0-.385-.053,25.757,25.757,0,0,1-4.773,8.235c-1.185,1.428-2.565,2.82-3.732,4.327.014-.276.028-.551.023-.826-.106-4.918.2-9.64,2.28-14.186a12.879,12.879,0,0,0,.6-2.8l-.641-.127c-1.632,3.663-3.528,7.324-3.479,11.407.057,4.407-.074,8.72-1.431,12.974-.965,3.027-1.7,6.124-2.537,9.19a2.071,2.071,0,0,1-.536-1.348c-.183-3.34-.252-6.687-.556-10.017-.327-3.6-.9-7.177-1.3-10.77a8.883,8.883,0,0,1,.11-2.683c.75-3.875,1.663-7.723,2.347-11.608a14.015,14.015,0,0,1,5.209-8.959,14.608,14.608,0,0,0,2.315-3.061c-.251-.229-.192-.18-.442-.412-1.4.986-1.536,3.516-4.277,3.464-.736,1.17-1.674,2.663-2.887,4.6-.22-2.344-.755-4.2-.466-5.922.374-2.221,1.431-4.332,2.147-6.505.28-.85.436-1.74.648-2.612l-.5-.04c-.547,1.076-1.048,2.175-1.644,3.225a14.359,14.359,0,0,0-1.234,11.209,8.01,8.01,0,0,1,.107,3.377c-.79,4.359-1.749,8.692-2.568,13.047a9.6,9.6,0,0,0-.121,3.263,110.3,110.3,0,0,1,1.105,17.721c0,5.42.043,10.841.313,16.255.115,2.308.057,4.619.057,6.929a43.108,43.108,0,0,1-1.916-4.479,35.805,35.805,0,0,1-2.856-13.47,32.722,32.722,0,0,0-1.567-8.081,25.028,25.028,0,0,1-.593-7.83c.128-2.118,1.091-4.178,1.506-6.3a35.489,35.489,0,0,0-.451-13.751,11.468,11.468,0,0,0-.65-1.76l-.572.147c.272,1.894.619,3.783.8,5.687a45.061,45.061,0,0,1,.267,5.865c-.069,1.859-.446,3.705-.687,5.558l-.659-.057c-.377-4.033-.754-8.067-1.179-12.6a9.511,9.511,0,0,0-.482,2.138c.233,3.733.562,7.459.8,11.19.094,1.483.023,2.976.027,4.465-.658-.136-.85-.289-.932-.486a35.964,35.964,0,0,1-2.695-13.857c0-.835-.142-1.671-.223-2.506l-.5-.057q-.277.756-.556,1.51c-.34-.057-.257-.043-.6-.1q0-6.944-.006-13.885a1.755,1.755,0,0,0-.761,1.185c-.2,2.518-.417,5.043-.515,7.568-.153,3.969,1.255,7.646,2.3,11.4a14.527,14.527,0,0,1-5.244-4.913c-1.46-2.377-2.141-5.112-3.481-7.541-.08-.148-.35-.09-.331.089.5,4.993,3.687,12.1,9.242,13.054.2.744.374,1.488.515,2.243a43.177,43.177,0,0,0,1.939,5.92c.582,1.689,1.259,3.348,1.793,5.048a44.027,44.027,0,0,1,1.11,4.335c.4,1.956.761,3.921,1.045,5.9.385,2.677.59,5.388,1.04,8.049-1.54-2.175-4.587-3.295-6.793-4.778a16.861,16.861,0,0,1-2.862-2.431c-.828-4.712,1.2-10.209-1.232-14.585a.329.329,0,0,0-.608.164c-.03,2.636.481,5.248.487,7.906a16.966,16.966,0,0,0,.825,5.918c-3.106-3.613-4.522-8.2-6.374-12.783-.074-.187-.4-.189-.385.052a24.694,24.694,0,0,0,4.967,12.628,13.259,13.259,0,0,0,.867,1.015c-1.774-.4-3.553-.359-5.419-.773-3.083-.683-5.24-2.787-8-4.109a.338.338,0,0,0-.406.528,15.193,15.193,0,0,0,6.582,4.439c2.623.912,5.416.641,8.146.806,3.492,3.164,8.112,4.712,10.766,8.837.007.009.019.01.026.02.7,2.74,1.652,5.431,2.265,8.188h4.857C827.734,1010.86,827.7,1010.3,827.668,1009.738Z" transform="translate(-339.977 -610.014)" fill="#1e1b23"/>
      <path id="Trazado_10647" data-name="Trazado 10647" d="M862,1032.889c-.038-.29-.464-.406-.549-.073-.494,1.913-.616,3.882-1.03,5.813a13.971,13.971,0,0,1-1.541,4.019,7.828,7.828,0,0,0-.563-4.084c-1.08-2.789-.774-5.546-1.273-8.447-.042-.24-.414-.221-.469,0a15.411,15.411,0,0,0-.216,6.313c.485,2.594,1.96,4.594,1.769,7.394,0,.008.008.013.008.021-.572.847-1.213,1.677-1.922,2.547a15.386,15.386,0,0,0-3.223,5.334h1.068c1.66-3.24,4.656-5.5,6.353-8.872A17.785,17.785,0,0,0,862,1032.889Z" transform="translate(-364.758 -650.319)" fill="#1e1b23"/>
      <path id="Trazado_10648" data-name="Trazado 10648" d="M902.724,1057.852a32.043,32.043,0,0,1,3.094-2.327c-.177-.264-.115-.168-.289-.432l-4.045,2.03-.291-.31,3.969-5.878-.533-.349a24.718,24.718,0,0,0-2.6,3.645,32.538,32.538,0,0,1-3.81,6.325h1.766C900.885,1059.644,901.793,1058.734,902.724,1057.852Z" transform="translate(-384.097 -659.147)" fill="#1e1b23"/>
      <path id="Trazado_10649" data-name="Trazado 10649" d="M898.675,1001.352c-3.394,1.552-6.736,2.783-10.22,4.1a15.083,15.083,0,0,0-2.224,1.03,79.224,79.224,0,0,0,5.495-7.952c1.492-2.436,1.741-5.234,1.991-7.976l-.679-.172-1.905,7.228c-.338-.057-.2-.034-.541-.094q.572-4.945,1.153-9.893l-.559-.115a4.956,4.956,0,0,0-.6,1.32,41.962,41.962,0,0,0-.772,7.379c.2,4.059-2.044,6.856-4.413,9.88-.239-.535-.377-.844-.469-1.046l-10.461,15.225a2.847,2.847,0,0,1-.1-1.68c.607-4.036,1.135-8.086,1.862-12.1a14.582,14.582,0,0,1,1.549-4.155c1.081-2.019,2.557-3.853,3.524-5.913.9-1.914,1.717-3.963.987-6.244-.515,1.391-.97,3.434-1.483,4.824-.47-.12-.143-.172-.614-.294.773-4.061,1.342-8.678,2.143-12.892-.907,1.049-3.113,10.663-3.384,13.13a11.5,11.5,0,0,1-2.185,6.537,11.812,11.812,0,0,0-1.639,4.244c-1.212,6.5-1.975,13.077-3.325,19.545-.41,1.961-.836,3.92-1.262,5.879h1.895c.045-.261.084-.522.13-.783a27.135,27.135,0,0,1,2.7-8.674,73.115,73.115,0,0,1,8.745-12.578c.08-.092.158-.184.238-.275,4.55-3.1,11.083-2.7,14.721-7.087a.254.254,0,0,0-.3-.4Z" transform="translate(-372.267 -629.737)" fill="#1e1b23"/>
      <path id="Trazado_10650" data-name="Trazado 10650" d="M892.866,1043.464c.057-.157-.172-.229-.256-.108-1.813,2.592-3.185,5-3.332,8.177a57.947,57.947,0,0,1-.552,5.9h1.585c.057-.515.091-1.03.117-1.546.094-1.829-.215-3.7-.034-5.517C890.637,1047.917,892.03,1045.753,892.866,1043.464Z" transform="translate(-380.04 -656.029)" fill="#1e1b23"/>
      <path id="Trazado_10651" data-name="Trazado 10651" d="M42.859,1040.424c.286-5.389.735-10.858.1-16.181-.63-5.245-2.585-10.338-3.861-15.523-.569-2.312-1.358-4.648-1.8-6.983a47.687,47.687,0,0,1-6.517-7.5,16.174,16.174,0,0,1-11.322-8.319.148.148,0,0,1,.229-.179,49.487,49.487,0,0,0,5.762,4.839,27.069,27.069,0,0,0,4.209,2.168c-1.923-2.621-3.438-5.35-3.5-8.708a.24.24,0,0,1,.469-.063A31.359,31.359,0,0,0,32.438,994c1.442,1.738,3.123,3.434,4.543,5.266-.017-.337-.034-.671-.028-1.006.129-5.987-.244-11.734-2.777-17.271a15.7,15.7,0,0,1-.731-3.406l.781-.154c1.987,4.459,4.293,8.916,4.236,13.887-.07,5.364.089,10.616,1.74,15.794,1.175,3.686,2.069,7.457,3.091,11.188a2.519,2.519,0,0,0,.653-1.642c.223-4.064.307-8.141.677-12.192.4-4.381,1.1-8.737,1.577-13.112a10.788,10.788,0,0,0-.135-3.266c-.916-4.717-2.024-9.4-2.854-14.132a17.062,17.062,0,0,0-6.341-10.907c-1.191-.948-1.9-2.458-2.818-3.726.306-.283.233-.22.538-.5,1.7,1.2,1.87,4.281,5.209,4.217.9,1.425,2.038,3.242,3.515,5.595.268-2.853.919-5.11.567-7.212-.458-2.7-1.741-5.274-2.613-7.92-.343-1.034-.531-2.118-.789-3.181l.611-.048c.666,1.31,1.276,2.649,2,3.925a17.483,17.483,0,0,1,1.5,13.647,9.754,9.754,0,0,0-.131,4.112c.963,5.307,2.13,10.581,3.127,15.883a11.7,11.7,0,0,1,.147,3.968,134.223,134.223,0,0,0-1.346,21.573c0,6.6-.053,13.2-.38,19.791-.139,2.809-.073,5.622-.071,8.435a52.385,52.385,0,0,0,2.332-5.453,43.591,43.591,0,0,0,3.476-16.4c.043-3.448,1.042-6.576,1.908-9.838a30.451,30.451,0,0,0,.722-9.532c-.155-2.581-1.328-5.089-1.832-7.67-1.1-5.6-.537-11.191.549-16.741a14.057,14.057,0,0,1,.791-2.142c.234.057.466.12.7.178-.331,2.306-.753,4.605-.973,6.926a54.871,54.871,0,0,0-.325,7.14c.084,2.262.544,4.51.84,6.766l.8-.072c.458-4.91.916-9.821,1.435-15.34a11.476,11.476,0,0,1,.587,2.6c-.286,4.544-.687,9.08-.969,13.623-.114,1.805-.029,3.622-.034,5.434.8-.165,1.034-.351,1.135-.591a43.786,43.786,0,0,0,3.281-16.87c.006-1.017.172-2.035.271-3.052l.6-.069.676,1.838c.415-.068.314-.053.726-.12q.007-8.454.008-16.9a2.134,2.134,0,0,1,.926,1.442c.249,3.068.507,6.139.63,9.215.186,4.832-1.528,9.31-2.795,13.874a17.707,17.707,0,0,0,6.385-5.981c1.774-2.894,2.607-6.222,4.236-9.181.1-.179.426-.11.4.109-.613,6.078-4.489,14.733-11.252,15.892-.239.9-.458,1.815-.63,2.731a52.666,52.666,0,0,1-2.36,7.207c-.709,2.056-1.53,4.076-2.183,6.146a53.473,53.473,0,0,0-1.351,5.277c-.49,2.381-.927,4.774-1.272,7.177-.468,3.263-.719,6.56-1.266,9.8,1.875-2.65,5.585-4.011,8.27-5.816a20.521,20.521,0,0,0,3.484-2.96c1.009-5.736-1.461-12.429,1.5-17.756a.4.4,0,0,1,.741.2c.038,3.21-.586,6.391-.592,9.625a20.655,20.655,0,0,1-1,7.2c3.782-4.4,5.509-9.986,7.76-15.563.09-.229.49-.229.468.063A30.066,30.066,0,0,1,66.7,1019.4a15.986,15.986,0,0,1-1.055,1.236c2.157-.489,4.325-.437,6.6-.942,3.753-.831,6.378-3.392,9.738-5a.411.411,0,0,1,.495.643,18.487,18.487,0,0,1-8.013,5.4c-3.193,1.11-6.593.781-9.918.982-4.246,3.852-9.876,5.736-13.107,10.761-.009.01-.023.013-.031.025-.848,3.336-2.011,6.612-2.758,9.969H42.737C42.778,1041.786,42.822,1041.1,42.859,1040.424Z" transform="translate(-8.314 -616.248)" fill="#1e1b23"/>
      <path id="Trazado_10652" data-name="Trazado 10652" d="M39.9,1068.611c.045-.354.565-.5.669-.09.6,2.329.75,4.726,1.256,7.077a17,17,0,0,0,1.877,4.893,9.536,9.536,0,0,1,.687-4.972c1.316-3.4.943-6.754,1.55-10.283.052-.293.5-.27.572,0a18.764,18.764,0,0,1,.263,7.686c-.59,3.158-2.387,5.592-2.154,9,0,.01-.009.016-.009.026.7,1.03,1.477,2.041,2.34,3.1,1.729,2.13,3.245,4.1,3.924,6.494h-1.3c-2.02-3.945-5.667-6.7-7.734-10.8A21.649,21.649,0,0,1,39.9,1068.61Z" transform="translate(-16.987 -665.321)" fill="#1e1b23"/>
      <path id="Trazado_10653" data-name="Trazado 10653" d="M-8.261,1098.993a39.076,39.076,0,0,0-3.766-2.833c.215-.321.138-.2.351-.525l4.922,2.472c.188-.2.166-.176.355-.377l-4.831-7.155.649-.424a30.387,30.387,0,0,1,3.17,4.438,39.628,39.628,0,0,0,4.636,7.7H-4.924C-6.022,1101.174-7.126,1100.069-8.261,1098.993Z" transform="translate(5.143 -676.065)" fill="#1e1b23"/>
      <path id="Trazado_10654" data-name="Trazado 10654" d="M-22.336,1030.206c4.132,1.889,8.2,3.388,12.443,4.992a18.426,18.426,0,0,1,2.707,1.256,96.637,96.637,0,0,1-6.691-9.68c-1.816-2.966-2.118-6.373-2.423-9.71l.827-.212,2.32,8.8c.411-.073.247-.042.658-.114q-.7-6.021-1.4-12.044l.681-.137a6.015,6.015,0,0,1,.727,1.607c.391,2.991,1.088,6.007.94,8.983-.242,4.941,2.489,8.346,5.373,12.028.291-.652.458-1.03.572-1.274l12.736,18.533a3.465,3.465,0,0,0,.119-2.045c-.739-4.914-1.382-9.845-2.267-14.734a17.744,17.744,0,0,0-1.889-5.058c-1.316-2.461-3.113-4.69-4.289-7.2-1.1-2.331-2.089-4.824-1.2-7.6.624,1.693,1.18,4.178,1.805,5.872.572-.146.175-.21.747-.357-.94-4.944-1.633-10.565-2.609-15.7,1.1,1.278,3.79,12.982,4.121,15.985.057,2.8.677,4.771,2.66,7.956a14.394,14.394,0,0,1,1.995,5.167c1.476,7.91,2.4,15.92,4.048,23.794.5,2.388,1.018,4.772,1.536,7.158H9.6c-.054-.318-.1-.635-.158-.954a33,33,0,0,0-3.289-10.56A89.1,89.1,0,0,0-4.494,1039.65c-.1-.111-.193-.224-.29-.335-5.539-3.771-13.492-3.287-17.922-8.628a.309.309,0,0,1-.015-.395.309.309,0,0,1,.385-.087Z" transform="translate(9.744 -640.259)" fill="#1e1b23"/>
      <path id="Trazado_10655" data-name="Trazado 10655" d="M6.883,1081.486c-.073-.191.207-.279.311-.132,2.208,3.155,3.878,6.088,4.058,9.955a70.428,70.428,0,0,0,.671,7.185H9.993c-.066-.626-.111-1.256-.143-1.882-.114-2.227.261-4.5.041-6.716C9.6,1086.907,7.9,1084.268,6.883,1081.486Z" transform="translate(-2.938 -672.272)" fill="#1e1b23"/>
      <path id="Trazado_10656" data-name="Trazado 10656" d="M170.874,1053.8a55.7,55.7,0,0,0,.057-9.5c-.369-3.079-1.518-6.07-2.267-9.114-.334-1.357-.8-2.73-1.058-4.1a27.944,27.944,0,0,1-3.826-4.4,9.492,9.492,0,0,1-6.648-4.884.087.087,0,0,1,.136-.105,29,29,0,0,0,3.383,2.841,15.857,15.857,0,0,0,2.471,1.273,8.841,8.841,0,0,1-2.056-5.112.141.141,0,0,1,.275-.037,18.41,18.41,0,0,0,3.413,5.883c.847,1.021,1.832,2.016,2.667,3.091-.01-.2-.02-.393-.016-.59a22.483,22.483,0,0,0-1.631-10.14,9.27,9.27,0,0,1-.429-2l.458-.091c1.167,2.619,2.522,5.236,2.487,8.155a28.755,28.755,0,0,0,1.022,9.272c.69,2.164,1.215,4.379,1.814,6.569a1.484,1.484,0,0,0,.383-.964c.131-2.387.18-4.78.4-7.16.234-2.572.643-5.13.926-7.7a6.344,6.344,0,0,0-.079-1.918c-.536-2.77-1.189-5.52-1.676-8.3a10.011,10.011,0,0,0-3.72-6.4,10.475,10.475,0,0,1-1.654-2.189c.179-.165.137-.129.316-.294,1,.705,1.1,2.513,3.058,2.476.527.836,1.2,1.9,2.064,3.285a18.207,18.207,0,0,0,.333-4.232,32.785,32.785,0,0,0-1.535-4.651c-.2-.607-.311-1.244-.463-1.868l.359-.028c.391.769.749,1.556,1.176,2.3a10.267,10.267,0,0,1,.882,8.013,5.724,5.724,0,0,0-.077,2.414c.565,3.116,1.251,6.213,1.836,9.326a6.864,6.864,0,0,1,.087,2.329,78.732,78.732,0,0,0-.79,12.667c0,3.874-.031,7.75-.223,11.619-.081,1.649-.043,3.3-.042,4.952a30.718,30.718,0,0,0,1.37-3.2,25.6,25.6,0,0,0,2.041-9.629,23.4,23.4,0,0,1,1.12-5.776,17.885,17.885,0,0,0,.424-5.6,35.85,35.85,0,0,0-1.076-4.5,25.359,25.359,0,0,1,.322-9.83,8.293,8.293,0,0,1,.464-1.259l.411.1c-.195,1.355-.442,2.7-.572,4.064a32.292,32.292,0,0,0-.191,4.192c.049,1.328.319,2.648.494,3.973l.47-.042c.27-2.883.539-5.766.843-9.006a6.832,6.832,0,0,1,.343,1.528c-.167,2.668-.4,5.331-.569,8-.068,1.06-.017,2.127-.019,3.191.469-.1.607-.207.666-.348a25.714,25.714,0,0,0,1.927-9.9c0-.6.1-1.2.159-1.792l.355-.041.4,1.08.426-.071q0-4.964.005-9.925a1.252,1.252,0,0,1,.543.847c.146,1.8.3,3.606.369,5.411.109,2.837-.9,5.466-1.641,8.146a10.39,10.39,0,0,0,3.749-3.512c1.043-1.7,1.531-3.653,2.488-5.391.057-.105.25-.064.236.065-.359,3.568-2.633,8.65-6.606,9.33-.14.531-.267,1.065-.369,1.6a30.986,30.986,0,0,1-1.386,4.232c-.416,1.207-.9,2.393-1.282,3.609a31.414,31.414,0,0,0-.793,3.1c-.286,1.4-.544,2.8-.747,4.214-.274,1.914-.421,3.852-.744,5.754,1.1-1.556,3.279-2.355,4.855-3.416a12,12,0,0,0,2.046-1.737c.592-3.368-.859-7.3.881-10.426a.235.235,0,0,1,.434.115c.022,1.885-.343,3.752-.347,5.651a12.119,12.119,0,0,1-.59,4.23c2.22-2.582,3.234-5.864,4.556-9.138.053-.134.286-.135.275.038a17.65,17.65,0,0,1-3.549,9.026,9.324,9.324,0,0,1-.619.726c1.267-.286,2.54-.256,3.874-.552,2.2-.488,3.745-1.992,5.718-2.937a.241.241,0,0,1,.29.377,10.868,10.868,0,0,1-4.707,3.173c-1.875.652-3.871.458-5.823.576-2.494,2.261-5.8,3.368-7.7,6.316-.005.006-.014.007-.018.014-.5,1.959-1.181,3.882-1.619,5.853H170.8C170.826,1054.6,170.852,1054.2,170.874,1053.8Z" transform="translate(-67.189 -637.881)" fill="#1e1b23"/>
      <path id="Trazado_10657" data-name="Trazado 10657" d="M169.139,1070.357c.027-.208.332-.291.393-.053.353,1.367.44,2.775.738,4.155a9.964,9.964,0,0,0,1.1,2.873,5.6,5.6,0,0,1,.4-2.919c.772-1.994.554-3.965.911-6.038.03-.172.3-.159.335,0a11.011,11.011,0,0,1,.155,4.513c-.346,1.854-1.4,3.283-1.264,5.285,0,.006-.006.009-.006.015.409.605.868,1.2,1.374,1.82a11.019,11.019,0,0,1,2.3,3.813h-.764c-1.186-2.316-3.328-3.933-4.541-6.34A12.718,12.718,0,0,1,169.139,1070.357Z" transform="translate(-72.282 -666.7)" fill="#1e1b23"/>
      <path id="Trazado_10658" data-name="Trazado 10658" d="M140.86,1088.19a22.772,22.772,0,0,0-2.212-1.664c.127-.188.081-.12.207-.308l2.892,1.451c.11-.115.1-.1.208-.221l-2.837-4.2.381-.249a17.684,17.684,0,0,1,1.861,2.605,23.262,23.262,0,0,0,2.724,4.522h-1.264C142.174,1089.472,141.526,1088.826,140.86,1088.19Z" transform="translate(-59.289 -673.007)" fill="#1e1b23"/>
      <path id="Trazado_10659" data-name="Trazado 10659" d="M132.6,1047.8c2.426,1.109,4.815,1.988,7.306,2.932a10.748,10.748,0,0,1,1.589.737,56.892,56.892,0,0,1-3.928-5.684,12.755,12.755,0,0,1-1.424-5.7l.485-.125,1.362,5.167.386-.068q-.41-3.535-.824-7.072l.4-.081a3.506,3.506,0,0,1,.427.944,29.98,29.98,0,0,1,.552,5.274c-.142,2.9,1.462,4.9,3.155,7.062.172-.382.27-.6.335-.747,2.518,3.663,5,7.269,7.478,10.881a2.036,2.036,0,0,0,.069-1.2c-.434-2.885-.811-5.781-1.331-8.651a10.406,10.406,0,0,0-1.108-2.97c-.772-1.444-1.828-2.754-2.518-4.226a5.944,5.944,0,0,1-.706-4.465c.367.994.693,2.455,1.06,3.448.337-.085.1-.123.439-.21-.552-2.9-.959-6.2-1.532-9.215.648.75,2.225,7.622,2.418,9.387a8.217,8.217,0,0,0,1.562,4.672,8.444,8.444,0,0,1,1.171,3.033c.867,4.644,1.412,9.348,2.377,13.971.293,1.4.6,2.8.9,4.2h-1.354c-.032-.187-.057-.373-.093-.559a19.377,19.377,0,0,0-1.931-6.2,52.323,52.323,0,0,0-6.251-8.991l-.172-.2c-3.252-2.214-7.922-1.929-10.523-5.065a.181.181,0,0,1,.219-.283Z" transform="translate(-56.587 -651.983)" fill="#1e1b23"/>
      <path id="Trazado_10660" data-name="Trazado 10660" d="M149.752,1077.909c-.043-.115.121-.164.183-.078a10.78,10.78,0,0,1,2.382,5.846,41.337,41.337,0,0,0,.394,4.218h-1.133c-.039-.367-.065-.737-.084-1.1-.068-1.307.153-2.645.024-3.944C151.345,1081.092,150.349,1079.546,149.752,1077.909Z" transform="translate(-64.034 -670.779)" fill="#1e1b23"/>
      <path id="Trazado_10661" data-name="Trazado 10661" d="M364.334,1041.124a40.311,40.311,0,0,1,17.77,5.181,29.923,29.923,0,0,1,2.583,4.688l.779-.157a31.642,31.642,0,0,0-1.851-3.613c.115.073.229.147.343.222.546.978.833,1.56.833,1.56l1.045-.054c-.064-.109-.129-.215-.193-.322l.2.146c.211,1.034.391,2.078.533,3.13l1.018,1.852s0-.089-.01-.252c.012.057.023.115.035.172l.8-.51s-.254-1.079-.5-2.846q.361.319.719.652a25.28,25.28,0,0,0,.374,3.313h.69c-.188-.908-.324-1.806-.417-2.69.281.279.56.563.835.859l.472-.67s-.289-.306-.835-.813l.871.142c.005-.1.013-.2.019-.3l.165-.035s-.018-.956.108-2.476c1.245-8.06,5.3-8.6,5.3-8.6a3.428,3.428,0,0,1,3.835,1.922c-1.005-3.943-4.187-2.663-4.187-2.663a8.778,8.778,0,0,0-3.977,3.491c1.377-5.357,4.5-11.7,11.553-13.8,0,0-3.158-.909-6.721,2.82,0,0-5.184,5.015-6.486,14.95a19.183,19.183,0,0,0-.6,4.443c-.138-.126-.291-.264-.458-.411a33.521,33.521,0,0,1,5.122-19.308c-5.09,6.468-5.838,14.117-5.715,18.8-.247-.209-.515-.431-.808-.663-.057-.51-.114-1.059-.159-1.642l.12-.1s-.057-.107-.149-.3c-.47-6.621.192-17.171,7.92-22.975,0,0-3.32.114-5.921,5.495,0,0-3.059,5.807-2.976,15.1-1.428-4.016-3.107-11.647,2.232-16.636,0,0-2.454.45-3.615,4.19a18.269,18.269,0,0,0-.393,8.157,57.94,57.94,0,0,0-12.826-21.057c-.648-.681,10.235,12.378,13.811,28.3q-.4-.286-.836-.576c-9.851-15.952-17.636-19.289-17.636-19.289-5.225-3.181-9.626-2.078-9.626-2.078,12.6.351,22.188,14.355,25.749,20.4-.141-.086-.283-.172-.428-.256-4.518-6.8-9.978-8.855-9.978-8.855-4.281-1.805-6.566.08-6.566.08,6.939-.835,11.951,3.783,14.971,7.892a32.433,32.433,0,0,0-16.945-4.006Zm21.985,5.3c.052.124.106.248.161.372.009.167.018.333.03.5q-.088-.427-.191-.873Z" transform="translate(-152.888 -645.848)" fill="#1e1b23"/>
      <path id="Trazado_10662" data-name="Trazado 10662" d="M460.674,1048.723c3.008-2.4,7.567-4.772,12.457-2.8,0,0-1.292-1.823-4.765-1.352a17.643,17.643,0,0,0-9.01,4.483c-.122.034-.242.068-.361.1,3.784-3.7,13.523-12.013,22.769-9.788a10.218,10.218,0,0,0-7.419-.382s-6.326.9-16.642,10.575c-.248.085-.49.172-.722.255,5.74-10.887,16.238-18.254,15.632-17.885a43.694,43.694,0,0,0-13.488,12.806,13.769,13.769,0,0,0,1.321-6.017c-.108-2.952-1.808-3.763-1.808-3.763,2.907,4.685.181,9.911-1.65,12.554a25.878,25.878,0,0,0,.805-11.581c-.836-4.43-3.228-5.169-3.228-5.169,4.483,5.75,2.887,13.562,1.241,18.291-.108.125-.172.191-.172.191l.069.094c-.149.415-.3.8-.439,1.164-.258.114-.5.22-.719.323a22.049,22.049,0,0,0-.458-14.812,25.286,25.286,0,0,1-.073,15.069c-.149.074-.286.144-.414.209a14.44,14.44,0,0,0,.44-3.354c1.009-7.491-1.778-12.165-1.778-12.165-1.86-3.417-4.339-3.377-4.339-3.377,4.726,2.919,5.748,8.152,5.7,12.325a6.627,6.627,0,0,0-2.207-3.328s-2.066-1.557-3.575,1.115a2.589,2.589,0,0,1,3.174-.644s2.848,1.2,2.168,7.311c-.207,1.131-.41,1.823-.41,1.823l.115.057c-.015.074-.028.147-.044.22l.662.068c-.5.262-.767.428-.767.428l.211.58q.388-.237.777-.458a20.354,20.354,0,0,1-.833,1.876l.5.136a19.181,19.181,0,0,0,.924-2.339c.217-.115.435-.225.652-.333-.525,1.238-.923,1.974-.923,1.974l.483.529.057-.115-.057.182,1.105-1.148q.467-1.109,1-2.175l.172-.068-.2.2.75.244s.323-.367.916-.973l.291-.1a23.865,23.865,0,0,0-2.061,2.267l.536.268a22.566,22.566,0,0,1,2.8-2.906,30.42,30.42,0,0,1,13.961-.272A24.476,24.476,0,0,0,460.674,1048.723Zm-4.236.549q.062-.179.121-.357c.064-.08.128-.16.19-.24-.109.2-.212.4-.312.6Z" transform="translate(-191.504 -650.671)" fill="#1e1b23"/>
      <path id="Trazado_10663" data-name="Trazado 10663" d="M210.808,1055.434a30.407,30.407,0,0,1,13.852,1.79,22.567,22.567,0,0,1,2.471,3.194l.562-.208a23.878,23.878,0,0,0-1.8-2.478l.279.126c.521.666.8,1.066.8,1.066l.773-.161-.181-.219c.057.029.109.057.163.087.278.744.533,1.5.762,2.27l.973,1.259s-.011-.066-.037-.186c.015.04.03.08.046.122l.538-.474s-.315-.774-.7-2.061c.2.13.409.263.612.4a19.138,19.138,0,0,0,.665,2.427l.515-.08q-.367-.983-.623-1.955.363.262.722.541l.273-.553s-.25-.2-.716-.51l.666,0c-.008-.076-.014-.149-.02-.224l.118-.045s-.125-.711-.208-1.858c-.011-6.152,2.951-7.031,2.951-7.031a2.589,2.589,0,0,1,3.085.987c-1.209-2.823-3.431-1.5-3.431-1.5a6.624,6.624,0,0,0-2.557,3.069c.4-4.154,1.987-9.242,7-11.632,0,0-2.461-.31-4.681,2.884,0,0-3.279,4.343-3.091,11.9a14.446,14.446,0,0,0,.072,3.382c-.117-.078-.247-.164-.388-.254a25.276,25.276,0,0,1,1.567-14.988,22.045,22.045,0,0,0-2.069,14.675q-.314-.192-.68-.4c-.1-.373-.206-.776-.31-1.2l.08-.086s-.057-.072-.148-.208c-1.121-4.88-1.857-12.821,3.225-18.047,0,0-2.458.473-3.772,4.786a25.866,25.866,0,0,0-.458,11.6c-1.533-2.827-3.674-8.318-.274-12.66,0,0-1.778.621-2.207,3.544a13.769,13.769,0,0,0,.659,6.124,43.712,43.712,0,0,0-12.014-14.2c-.563-.433,9.071,8.032,13.592,19.48-.221-.11-.452-.221-.687-.332-9.2-10.74-15.393-12.323-15.393-12.323a10.216,10.216,0,0,0-7.417-.428c9.432-1.205,18.209,8.114,21.568,12.208l-.348-.142a17.653,17.653,0,0,0-8.471-5.437c-3.4-.846-4.884.824-4.884.824,5.075-1.431,9.348,1.428,12.077,4.137a24.483,24.483,0,0,0-13.1-1.01Zm17,1.388c.053.086.108.172.163.259.026.123.053.246.082.369-.078-.207-.159-.413-.244-.631Z" transform="translate(-87.221 -653.953)" fill="#1e1b23"/>
    </g>
    <g id="iluminado">
      <circle id="arco-f" cx="68.685" cy="68.685" r="68.685" transform="translate(270.162 168.334)" fill="#fffed9" opacity="0.25"/>
      <circle id="arco-m" cx="53.19" cy="53.19" r="53.19" transform="translate(285.888 183.598)" fill="#ffffeb" opacity="0.5"/>
      <circle id="arco-i" cx="34.689" cy="34.689" r="34.689" transform="translate(304.389 202.099)" fill="#fff" opacity="0.75"/>
      <g id="logo-nivel">
        <path id="Trazado_10664" data-name="Trazado 10664" d="M592.367,402.67a5.812,5.812,0,0,0,5.805-5.806v-2.773H594.5a5.781,5.781,0,0,0-3.157.941q-.156-.864-.394-1.7l1.11-.639a5.806,5.806,0,0,0,2.125-7.93l-1.387-2.4L589.6,384.2a5.769,5.769,0,0,0-2.264,2.394,17.97,17.97,0,0,0-1.276-1.35l.535-.926a5.806,5.806,0,0,0-2.125-7.93L582.07,375l-1.84,3.186a5.806,5.806,0,0,0,2.125,7.93l1.038.6a15.162,15.162,0,1,1-19.616,0l1.038-.6a5.8,5.8,0,0,0,2.125-7.929h0L565.1,375l-2.4,1.386a5.812,5.812,0,0,0-2.125,7.93l.534.926a18.131,18.131,0,0,0-1.277,1.35,5.768,5.768,0,0,0-2.265-2.395l-3.185-1.838L553,384.76a5.805,5.805,0,0,0,2.126,7.93h0l1.109.638q-.238.84-.394,1.7a5.776,5.776,0,0,0-3.16-.941H549v2.773a5.812,5.812,0,0,0,5.807,5.8h1.282q.215.855.51,1.676a5.763,5.763,0,0,0-3.208.762l-3.186,1.838,1.387,2.4a5.768,5.768,0,0,0,3.525,2.705,5.856,5.856,0,0,0,1.511.2,5.777,5.777,0,0,0,2.895-.781l1.119-.648q.61.63,1.279,1.2a5.765,5.765,0,0,0-2.4,2.268l-1.838,3.185,2.4,1.386a5.769,5.769,0,0,0,2.891.78,5.833,5.833,0,0,0,1.512-.2,5.769,5.769,0,0,0,3.528-2.705l.638-1.108a18.1,18.1,0,0,0,9.877,0l.639,1.11a5.8,5.8,0,0,0,7.927,2.125l2.4-1.389-1.84-3.186a5.768,5.768,0,0,0-2.4-2.268q.668-.568,1.279-1.2l1.12.649a5.771,5.771,0,0,0,2.891.78,5.835,5.835,0,0,0,1.512-.2,5.765,5.765,0,0,0,3.525-2.7l1.386-2.4-3.186-1.839a5.76,5.76,0,0,0-3.205-.763q.294-.82.51-1.676Z" transform="translate(-234.765 -160.304)" fill="#bee75e"/>
        <path id="Trazado_10665" data-name="Trazado 10665" d="M594.809,404.553l-7.792-1.141-3.492-7.057-3.492,7.057-7.795,1.141,5.633,5.5-1.322,7.763,6.974-3.656,6.974,3.656-1.317-7.761Z" transform="translate(-244.703 -169.435)" fill="#ffd321"/>
        <path id="Trazado_10666" data-name="Trazado 10666" d="M610.737,402.67a5.811,5.811,0,0,0,5.8-5.805v-2.773h-3.679a5.772,5.772,0,0,0-3.158.941q-.158-.863-.4-1.7l1.109-.639a5.805,5.805,0,0,0,2.125-7.93l-1.386-2.4-3.186,1.839a5.763,5.763,0,0,0-2.264,2.394,18.124,18.124,0,0,0-1.276-1.35l.535-.926a5.806,5.806,0,0,0-2.125-7.93l-2.4-1.386-1.84,3.186a5.806,5.806,0,0,0,2.125,7.93l1.038.6a15.162,15.162,0,0,1-9.81,26.717h0v2.884h0a18,18,0,0,0,4.938-.687l.639,1.11a5.767,5.767,0,0,0,3.525,2.705,5.837,5.837,0,0,0,1.512.2,5.77,5.77,0,0,0,2.891-.78l2.4-1.386-1.835-3.19a5.767,5.767,0,0,0-2.4-2.268q.668-.568,1.279-1.2l1.12.649a5.771,5.771,0,0,0,2.891.78,5.861,5.861,0,0,0,1.512-.2,5.77,5.77,0,0,0,3.525-2.705l1.386-2.4-3.186-1.839a5.763,5.763,0,0,0-3.205-.763q.294-.82.511-1.676Z" transform="translate(-253.132 -160.304)" fill="#5bc980"/>
        <path id="Trazado_10667" data-name="Trazado 10667" d="M597.606,410.062l5.633-5.5-7.792-1.141-3.495-7.059v17.808l6.974,3.656Z" transform="translate(-253.133 -169.437)" fill="#ffaf00"/>
      </g>
    </g>
  </g>
</svg>
