<svg xmlns="http://www.w3.org/2000/svg" xmlns:xlink="http://www.w3.org/1999/xlink" width="218" height="218" viewBox="0 0 218 218"><defs><clipPath id="a"><rect width="218" height="218" transform="translate(34 545)" fill="#fff"/></clipPath></defs><g transform="translate(-34 -545)" clip-path="url(#a)"><g transform="translate(59.175 536.126)"><path d="M230.825,562.829s-12.215-34.872-36.213-11.249,10.2,83.321-63.557,63.557-43.309,32.435-57.933,42.934-27,15.749-7.5,36.372S43.5,701.943,39,710.942s0,8.624,0,8.624H230.825Z" transform="translate(-37 -493.126)" fill="#38d39f" opacity="0.3"/><g transform="translate(-44.959 80.245) rotate(-11)"><g transform="matrix(-0.545, 0.839, -0.839, -0.545, 136.5, 56.247)" opacity="0.6"><path d="M66.262,0S51.626,25.92,29.592,33.371A45.137,45.137,0,0,0,6.759,50.455,79.4,79.4,0,0,0,0,62.59" transform="translate(15.767 0)" fill="none" stroke="#535461" stroke-miterlimit="10" stroke-width="2"/><path d="M1.983,4.95C4.484,2.5,16.193,0,16.193,0s-2.874,11.6-5.376,14.051a6.265,6.265,0,0,1-8.941,0,6.265,6.265,0,0,1,0-8.941c0-.053.053-.106.106-.16Z" transform="translate(0 62.43)" fill="#38d39f"/><path d="M5.093.076C8.5-.616,19.729,3.642,19.729,3.642S11,11.838,7.595,12.53a6.344,6.344,0,0,1-7.451-5A6.243,6.243,0,0,1,5.093.076Z" transform="translate(3.489 46.281)" fill="#38d39f"/><path d="M8.426.363c3.3,1.118,10.8,10.432,10.8,10.432S7.575,13.456,4.275,12.338A6.337,6.337,0,1,1,8.426.363Z" transform="translate(24.213 23.268)" fill="#38d39f"/><path d="M7.328.09c3.459.585,12.454,8.462,12.454,8.462S8.765,13.129,5.306,12.6A6.335,6.335,0,0,1,7.328.09Z" transform="translate(47.398 10.448)" fill="#38d39f"/><path d="M12.667,13.625C12.667,10.112,6.334,0,6.334,0S0,10.112,0,13.625a6.334,6.334,0,0,0,12.667,0Z" transform="translate(20.291 45.346)" fill="#38d39f"/><path d="M12.308,11.124C11.244,7.771,2.2,0,2.2,0S-.838,11.6.226,14.9a6.329,6.329,0,0,0,12.082-3.779Z" transform="translate(46.304 32.2)" fill="#38d39f"/><path d="M12.593,12.667C12.114,9.208,4.5,0,4.5,0S-.446,10.911.033,14.37a6.338,6.338,0,1,0,12.561-1.7Z" transform="translate(68.851 12.028)" fill="#38d39f"/><path d="M1.983,4.95C4.484,2.5,16.193,0,16.193,0s-2.874,11.6-5.376,14.051a6.265,6.265,0,0,1-8.941,0,6.265,6.265,0,0,1,0-8.941c0-.053.053-.106.106-.16Z" transform="translate(0 62.43)" opacity="0.25"/><path d="M5.093.076C8.5-.616,19.729,3.642,19.729,3.642S11,11.838,7.595,12.53a6.344,6.344,0,0,1-7.451-5A6.243,6.243,0,0,1,5.093.076Z" transform="translate(3.489 46.281)" opacity="0.25"/><path d="M8.426.363c3.3,1.118,10.8,10.432,10.8,10.432S7.575,13.456,4.275,12.338A6.337,6.337,0,1,1,8.426.363Z" transform="translate(24.213 23.268)" opacity="0.25"/><path d="M7.328.09c3.459.585,12.454,8.462,12.454,8.462S8.765,13.129,5.306,12.6A6.335,6.335,0,0,1,7.328.09Z" transform="translate(47.398 10.448)" opacity="0.25"/><path d="M12.667,13.625C12.667,10.112,6.334,0,6.334,0S0,10.112,0,13.625a6.334,6.334,0,0,0,12.667,0Z" transform="translate(20.291 45.346)" opacity="0.25"/><path d="M12.308,11.124C11.244,7.771,2.2,0,2.2,0S-.838,11.6.226,14.9a6.329,6.329,0,0,0,12.082-3.779Z" transform="translate(46.304 32.2)" opacity="0.25"/><path d="M12.593,12.667C12.114,9.208,4.5,0,4.5,0S-.446,10.911.033,14.37a6.338,6.338,0,1,0,12.561-1.7Z" transform="translate(68.851 12.028)" opacity="0.25"/><path d="M35.234,0S32.359,29.645,15.222,45.4A44.7,44.7,0,0,0,1.277,70.254,75.068,75.068,0,0,0,0,84.039" transform="translate(45.998 0.479)" fill="none" stroke="#535461" stroke-miterlimit="10" stroke-width="2"/><path d="M.47,10.272C1.8,7.025,11.434,0,11.434,0s2.076,11.762.8,15.009A6.34,6.34,0,1,1,.47,10.272Z" transform="translate(34.83 84.305)" fill="#38d39f"/><path d="M2.7,2.661C5.577.639,17.5,0,17.5,0s-4.63,11.017-7.5,13.04A6.342,6.342,0,0,1,2.7,2.661Z" transform="translate(30.149 69.988)" fill="#38d39f"/><path d="M5.82.009c3.46-.266,14.1,5.163,14.1,5.163s-9.58,7.132-13.04,7.451A6.329,6.329,0,1,1,5.82.009Z" transform="translate(39.805 42.143)" fill="#38d39f"/><path d="M5.036.131c3.406-.852,14.8,2.714,14.8,2.714s-8.25,8.675-11.6,9.58A6.279,6.279,0,0,1,.3,8.275,6.279,6.279,0,0,1,4.451.344,4.043,4.043,0,0,0,5.036.131Z" transform="translate(55.491 21.051)" fill="#38d39f"/><path d="M12.179,9.9C10.742,6.706.842,0,.842,0S-.861,11.815.576,15.062A6.35,6.35,0,1,0,12.179,9.9Z" transform="translate(48.029 64.453)" fill="#38d39f"/><path d="M13.785,6.067C11.5,3.459,0,0,0,0S1.916,11.815,4.258,14.423a6.336,6.336,0,1,0,9.527-8.356Z" transform="translate(63.561 43.589)" fill="#38d39f"/><path d="M12.508,8.3C10.7,5.322,0,0,0,0S-.105,11.975,1.757,14.956A6.322,6.322,0,1,0,12.508,8.3Z" transform="translate(78.143 15.062)" fill="#38d39f"/><path d="M.47,10.272C1.8,7.025,11.434,0,11.434,0s2.076,11.762.8,15.009A6.34,6.34,0,1,1,.47,10.272Z" transform="translate(34.83 84.305)" fill="#38d39f"/><path d="M2.7,2.661C5.577.639,17.5,0,17.5,0s-4.63,11.017-7.5,13.04A6.342,6.342,0,0,1,2.7,2.661Z" transform="translate(30.149 69.988)" fill="#38d39f"/><path d="M5.82.009c3.46-.266,14.1,5.163,14.1,5.163s-9.58,7.132-13.04,7.451A6.329,6.329,0,1,1,5.82.009Z" transform="translate(39.805 42.143)" fill="#38d39f"/><path d="M5.036.131c3.406-.852,14.8,2.714,14.8,2.714s-8.25,8.675-11.6,9.58A6.279,6.279,0,0,1,.3,8.275,6.279,6.279,0,0,1,4.451.344,4.043,4.043,0,0,0,5.036.131Z" transform="translate(55.491 21.051)" fill="#38d39f"/><path d="M12.179,9.9C10.742,6.706.842,0,.842,0S-.861,11.815.576,15.062A6.35,6.35,0,1,0,12.179,9.9Z" transform="translate(48.029 64.453)" fill="#38d39f"/><path d="M13.785,6.067C11.5,3.459,0,0,0,0S1.916,11.815,4.258,14.423a6.336,6.336,0,1,0,9.527-8.356Z" transform="translate(63.561 43.589)" fill="#38d39f"/></g></g><g transform="translate(238.375 200.711) rotate(150)"><g transform="matrix(0.966, 0.259, -0.259, 0.966, 20.652, 0)" opacity="0.8"><path d="M83.547,9.964s-4.416,1.8-18.444-4.65S49.355-.314,45.72.663s-5.666,1.211-9.535,6.6c0,0-2.735,14.888-5.393,17.194S16.8,23.133,16.8,23.133,3.282,20.007.664,38.1c0,0,1.837,13.638-.664,17.819,0,0,5.041-2.188,13.325,1.329s14.927-3.79,14.927-3.79,2.11-5.432,1.876-8.636,1.094-4.455,5.08-2.892c0,0,1.954,2.774-.821,7.347S29.66,57.247,30.441,60.8s2.97,8.48,10.082,10.942S57.287,74.676,61.9,76.591s5.822,3.2,5.822,3.2-2.853-2.853,3.869-14.967,2.423-17.35,2.423-17.35-3.556-8.519-19.343-7.815c0,0-15.2-.547-6.917-6.995,0,0,5.315,1.094,13.247,3.6S74.638,28.369,76.084,21.14A18.826,18.826,0,0,1,83.547,9.964Z" transform="translate(0)" fill="#38d39f"/><path d="M12,18.913l.078.039C12.7,16.647,5.9,7.347.078,0L0,.039C8.245,10.395,12.5,17.116,12,18.913Z" transform="translate(51.113 51.737)" fill="#444053"/><path d="M16.491,19.773l.039-.078C11.88,13.794,6.057,6.76,1.407,1.563.977,1.055.508.547.117,0L0,.117C.43.664.86,1.172,1.329,1.68,5.94,6.878,11.88,13.872,16.491,19.773Z" transform="translate(34.779 32.121)" fill="#444053"/><path d="M10.785,27.354l.078-.156C2.384,16.608,1.8.156,1.8,0L0,2.032C.039,2.227,2.227,16.686,10.785,27.354Z" transform="translate(24.072 5.001)" fill="#444053"/><path d="M66.041,0s-10,5.2-17.819,3.322-25.361,6.6-25.361,6.6-7.464,3.048-8.949,6.487c0,0-5.119,5.432-5.393,8.206S3.243,34.466,0,34.7" transform="translate(7.659 15.708)" fill="none" stroke="#444053" stroke-miterlimit="10" stroke-width="1"/><path d="M4.5,0S-.539,3.4.047,7.347" transform="translate(67.752 10.706)" fill="none" stroke="#444053" stroke-miterlimit="10" stroke-width="1"/><path d="M7.933,0S.7,2.618,0,12.9" transform="translate(56.584 6.291)" fill="none" stroke="#444053" stroke-miterlimit="10" stroke-width="1"/><path d="M5.069,0A16.17,16.17,0,0,0,.458,15.709" transform="translate(47.802 3.633)" fill="none" stroke="#444053" stroke-miterlimit="10" stroke-width="1"/><path d="M2.191,0s-4.572,9.613-.508,15.865" transform="translate(36.691 6.447)" fill="none" stroke="#444053" stroke-miterlimit="10" stroke-width="1"/><path d="M4.255,4.416S-.943,2.774.151,0" transform="translate(69.563 17.623)" fill="none" stroke="#444053" stroke-miterlimit="10" stroke-width="1"/><path d="M7.151,12.075S.156,9.847,0,0" transform="translate(60.375 19.421)" fill="none" stroke="#444053" stroke-miterlimit="10" stroke-width="1"/><path d="M5.925,14.967S-.444,7.112.025,0" transform="translate(51.87 18.834)" fill="none" stroke="#444053" stroke-miterlimit="10" stroke-width="1"/><path d="M5.583,9.379S-.747,3.361.073,0" transform="translate(41.075 21.335)" fill="none" stroke="#444053" stroke-miterlimit="10" stroke-width="1"/><path d="M6.76.284S.86-.771,0,1.183" transform="translate(36.107 32.54)" fill="none" stroke="#444053" stroke-miterlimit="10" stroke-width="1"/><path d="M0,3.21S3.009-.737,3.751.123" transform="translate(35.17 36.766)" fill="none" stroke="#444053" stroke-miterlimit="10" stroke-width="1"/><path d="M18.288.117S3.361-.977,0,3.517" transform="translate(46.502 42.359)" fill="none" stroke="#444053" stroke-miterlimit="10" stroke-width="1"/><path d="M0,16.92S7,1.915,12.075,0" transform="translate(32.043 43.023)" fill="none" stroke="#444053" stroke-miterlimit="10" stroke-width="1"/><path d="M0,18.132S4.3,4.338,9.613,0" transform="translate(39.39 48.963)" fill="none" stroke="#444053" stroke-miterlimit="10" stroke-width="1"/><path d="M18.132,2.142S6.8-2.7,0,2.181" transform="translate(52.95 51.745)" fill="none" stroke="#444053" stroke-miterlimit="10" stroke-width="0.75"/><path d="M0,12.622S2.579,2.462,6.1,0" transform="translate(49.472 57.404)" fill="none" stroke="#444053" stroke-miterlimit="10" stroke-width="0.75"/><path d="M8.753,1.259S2.384-1.164,0,.712" transform="translate(60.609 63.999)" fill="none" stroke="#444053" stroke-miterlimit="10" stroke-width="0.75"/><path d="M2.423,9.5S2.423.625,0,0" transform="translate(27.276 27.158)" fill="none" stroke="#444053" stroke-miterlimit="10" stroke-width="1"/><path d="M0,.051s9.574-.821,13.99,4.1" transform="translate(10.004 25.153)" fill="none" stroke="#444053" stroke-miterlimit="10" stroke-width="1"/><path d="M8.714,11.411S6.409,2.423,0,0" transform="translate(18.523 35.716)" fill="none" stroke="#444053" stroke-miterlimit="10" stroke-width="1"/><path d="M0,.453A12.6,12.6,0,0,1,12.622,4.087" transform="translate(4.259 34.208)" fill="none" stroke="#444053" stroke-miterlimit="10" stroke-width="1"/><path d="M4.807,11.176S4.181,3.556,0,0" transform="translate(14.888 43.688)" fill="none" stroke="#444053" stroke-miterlimit="10" stroke-width="1"/><path d="M0,0S5.627-.039,6.956,1.8" transform="translate(4.533 46.267)" fill="none" stroke="#444053" stroke-miterlimit="10" stroke-width="1"/></g></g><g transform="translate(75.995 -9.61) rotate(25)"><g transform="matrix(-0.545, 0.839, -0.839, -0.545, 136.5, 56.247)" opacity="0.6"><path d="M66.262,0S51.626,25.92,29.592,33.371A45.137,45.137,0,0,0,6.759,50.455,79.4,79.4,0,0,0,0,62.59" transform="translate(15.767 0)" fill="none" stroke="#535461" stroke-miterlimit="10" stroke-width="2"/><path d="M1.983,4.95C4.484,2.5,16.193,0,16.193,0s-2.874,11.6-5.376,14.051a6.265,6.265,0,0,1-8.941,0,6.265,6.265,0,0,1,0-8.941c0-.053.053-.106.106-.16Z" transform="translate(0 62.43)" fill="#38d39f"/><path d="M5.093.076C8.5-.616,19.729,3.642,19.729,3.642S11,11.838,7.595,12.53a6.344,6.344,0,0,1-7.451-5A6.243,6.243,0,0,1,5.093.076Z" transform="translate(3.489 46.281)" fill="#38d39f"/><path d="M8.426.363c3.3,1.118,10.8,10.432,10.8,10.432S7.575,13.456,4.275,12.338A6.337,6.337,0,1,1,8.426.363Z" transform="translate(24.213 23.268)" fill="#38d39f"/><path d="M7.328.09c3.459.585,12.454,8.462,12.454,8.462S8.765,13.129,5.306,12.6A6.335,6.335,0,0,1,7.328.09Z" transform="translate(47.398 10.448)" fill="#38d39f"/><path d="M12.667,13.625C12.667,10.112,6.334,0,6.334,0S0,10.112,0,13.625a6.334,6.334,0,0,0,12.667,0Z" transform="translate(20.291 45.346)" fill="#38d39f"/><path d="M12.308,11.124C11.244,7.771,2.2,0,2.2,0S-.838,11.6.226,14.9a6.329,6.329,0,0,0,12.082-3.779Z" transform="translate(46.304 32.2)" fill="#38d39f"/><path d="M12.593,12.667C12.114,9.208,4.5,0,4.5,0S-.446,10.911.033,14.37a6.338,6.338,0,1,0,12.561-1.7Z" transform="translate(68.851 12.028)" fill="#38d39f"/><path d="M1.983,4.95C4.484,2.5,16.193,0,16.193,0s-2.874,11.6-5.376,14.051a6.265,6.265,0,0,1-8.941,0,6.265,6.265,0,0,1,0-8.941c0-.053.053-.106.106-.16Z" transform="translate(0 62.43)" opacity="0.25"/><path d="M5.093.076C8.5-.616,19.729,3.642,19.729,3.642S11,11.838,7.595,12.53a6.344,6.344,0,0,1-7.451-5A6.243,6.243,0,0,1,5.093.076Z" transform="translate(3.489 46.281)" opacity="0.25"/><path d="M8.426.363c3.3,1.118,10.8,10.432,10.8,10.432S7.575,13.456,4.275,12.338A6.337,6.337,0,1,1,8.426.363Z" transform="translate(24.213 23.268)" opacity="0.25"/><path d="M7.328.09c3.459.585,12.454,8.462,12.454,8.462S8.765,13.129,5.306,12.6A6.335,6.335,0,0,1,7.328.09Z" transform="translate(47.398 10.448)" opacity="0.25"/><path d="M12.667,13.625C12.667,10.112,6.334,0,6.334,0S0,10.112,0,13.625a6.334,6.334,0,0,0,12.667,0Z" transform="translate(20.291 45.346)" opacity="0.25"/><path d="M12.308,11.124C11.244,7.771,2.2,0,2.2,0S-.838,11.6.226,14.9a6.329,6.329,0,0,0,12.082-3.779Z" transform="translate(46.304 32.2)" opacity="0.25"/><path d="M12.593,12.667C12.114,9.208,4.5,0,4.5,0S-.446,10.911.033,14.37a6.338,6.338,0,1,0,12.561-1.7Z" transform="translate(68.851 12.028)" opacity="0.25"/><path d="M35.234,0S32.359,29.645,15.222,45.4A44.7,44.7,0,0,0,1.277,70.254,75.068,75.068,0,0,0,0,84.039" transform="translate(45.998 0.479)" fill="none" stroke="#535461" stroke-miterlimit="10" stroke-width="2"/><path d="M.47,10.272C1.8,7.025,11.434,0,11.434,0s2.076,11.762.8,15.009A6.34,6.34,0,1,1,.47,10.272Z" transform="translate(34.83 84.305)" fill="#38d39f"/><path d="M2.7,2.661C5.577.639,17.5,0,17.5,0s-4.63,11.017-7.5,13.04A6.342,6.342,0,0,1,2.7,2.661Z" transform="translate(30.149 69.988)" fill="#38d39f"/><path d="M5.82.009c3.46-.266,14.1,5.163,14.1,5.163s-9.58,7.132-13.04,7.451A6.329,6.329,0,1,1,5.82.009Z" transform="translate(39.805 42.143)" fill="#38d39f"/><path d="M5.036.131c3.406-.852,14.8,2.714,14.8,2.714s-8.25,8.675-11.6,9.58A6.279,6.279,0,0,1,.3,8.275,6.279,6.279,0,0,1,4.451.344,4.043,4.043,0,0,0,5.036.131Z" transform="translate(55.491 21.051)" fill="#38d39f"/><path d="M12.179,9.9C10.742,6.706.842,0,.842,0S-.861,11.815.576,15.062A6.35,6.35,0,1,0,12.179,9.9Z" transform="translate(48.029 64.453)" fill="#38d39f"/><path d="M13.785,6.067C11.5,3.459,0,0,0,0S1.916,11.815,4.258,14.423a6.336,6.336,0,1,0,9.527-8.356Z" transform="translate(63.561 43.589)" fill="#38d39f"/><path d="M12.508,8.3C10.7,5.322,0,0,0,0S-.105,11.975,1.757,14.956A6.322,6.322,0,1,0,12.508,8.3Z" transform="translate(78.143 15.062)" fill="#38d39f"/><path d="M.47,10.272C1.8,7.025,11.434,0,11.434,0s2.076,11.762.8,15.009A6.34,6.34,0,1,1,.47,10.272Z" transform="translate(34.83 84.305)" fill="#38d39f"/><path d="M2.7,2.661C5.577.639,17.5,0,17.5,0s-4.63,11.017-7.5,13.04A6.342,6.342,0,0,1,2.7,2.661Z" transform="translate(30.149 69.988)" fill="#38d39f"/><path d="M5.82.009c3.46-.266,14.1,5.163,14.1,5.163s-9.58,7.132-13.04,7.451A6.329,6.329,0,1,1,5.82.009Z" transform="translate(39.805 42.143)" fill="#38d39f"/><path d="M5.036.131c3.406-.852,14.8,2.714,14.8,2.714s-8.25,8.675-11.6,9.58A6.279,6.279,0,0,1,.3,8.275,6.279,6.279,0,0,1,4.451.344,4.043,4.043,0,0,0,5.036.131Z" transform="translate(55.491 21.051)" fill="#38d39f"/><path d="M12.179,9.9C10.742,6.706.842,0,.842,0S-.861,11.815.576,15.062A6.35,6.35,0,1,0,12.179,9.9Z" transform="translate(48.029 64.453)" fill="#38d39f"/><path d="M13.785,6.067C11.5,3.459,0,0,0,0S1.916,11.815,4.258,14.423a6.336,6.336,0,1,0,9.527-8.356Z" transform="translate(63.561 43.589)" fill="#38d39f"/></g></g><g transform="translate(-21.886 -231.773)"><ellipse cx="46.5" cy="15" rx="46.5" ry="15" transform="translate(73.711 409.647)" fill="#38d39f" opacity="0.39"/><path d="M96.7,380.634a2.2,2.2,0,0,0,1.137.06c3.338-.409,6.688-.723,10.042-.962q-1.5-.4-2.989-.8c-2.218-.6-4.433-1.221-6.645-1.838-2.553-.713-5.109-1.472-7.672-2.233q2.755,2.653,5.51,5.3A2.2,2.2,0,0,0,96.7,380.634Z" transform="translate(6.671 15.777)" fill="#d88421"/><path d="M109.895,380.319c-3.354.239-6.7.554-10.042.962a1.638,1.638,0,0,1-1.755-.526q-2.753-2.653-5.51-5.3c-2.493-.741-4.993-1.483-7.5-2.191,2.781,3.014,5.786,5.818,8.787,8.618,1.244,1.162,2.135,2.452,3.932,2.668.34.041.682.067,1.025.086,3.383.187,6.876-.623,10.21-1.054q4.539-.586,9.077-1.174Q114,381.4,109.895,380.319Z" transform="translate(4.658 15.189)" fill="#b55d06"/><path d="M142.009,378.141a1.325,1.325,0,0,0-.429-.8,1.346,1.346,0,0,0-.9-.127q-8.385.781-16.7,2.12l-2.947,2.068a2.878,2.878,0,0,1-.921.493,1.713,1.713,0,0,1-.187.026,3.378,3.378,0,0,1-1.17-.123q-1.745-.408-3.488-.834-4.537.588-9.077,1.174c-3.334.431-6.827,1.241-10.21,1.054a32.136,32.136,0,0,1-3.094,12.637,246.083,246.083,0,0,0,48.832-5.492,1.226,1.226,0,0,0,.745-.357,1.193,1.193,0,0,0,.185-.575A29.692,29.692,0,0,0,142.009,378.141Z" transform="translate(7.516 16.632)" fill="#e2e0d3"/><path d="M116.2,372.1l0-.014c1.051-2.91,3.588-4.647,6.1-6.1,2.069-1.2,4.159-2.358,6.259-3.5-1.643.313-3.286.653-4.925,1.062l-20.84,5.194c-.465.115-.94.234-1.424.343.842.138,1.68.309,2.515.481Z" transform="translate(10.634 11.234)" fill="#eac14b"/><path d="M126.518,381.5c-.215-2.776-.69-6.148.272-8.827l-12.308-2.538c-.835-.172-1.673-.343-2.515-.481a10.914,10.914,0,0,1-4.67.258,6.085,6.085,0,0,1-2.124-.973L93,365.567c-1.911-.528-3.823-1.057-5.742-1.553q-7.237-1.866-14.618-3.1a.714.714,0,0,0-.044.078,1.807,1.807,0,0,0-.067.78q.326,5.615.651,11.228a1.162,1.162,0,0,0,1.309,1.279c2.63.418,5.244.959,7.85,1.577,2.463.585,4.916,1.24,7.363,1.929,2.507.708,5.007,1.45,7.5,2.191,2.563.761,5.119,1.52,7.672,2.233,2.213.618,4.427,1.237,6.645,1.838q1.493.4,2.989.8,4.1,1.081,8.225,2.084,1.743.424,3.488.834a3.378,3.378,0,0,0,1.17.123A55.6,55.6,0,0,1,126.518,381.5Z" transform="translate(0.047 10.662)" fill="#d7a83c"/><path d="M92.966,367.55l12.174,3.368c-.821-.555-1.577-1.229-2.408-1.793-5-3.394-9.943-6.85-14.889-10.329L83.17,355.51,73.317,362.2a2.013,2.013,0,0,0-.711.694q7.37,1.23,14.618,3.1C89.143,366.494,91.055,367.023,92.966,367.55Z" transform="translate(0.079 8.679)" fill="#eac14b"/><path d="M106.67,358.631a8.965,8.965,0,0,1-1.939.1c-.079-.005-.159-.01-.238-.018a11.221,11.221,0,0,1-4.208-1.673c-5.171-2.956-10.18-6.267-15.061-9.643-2.691-1.863-5.08-4.114-7.7-6.07a11.019,11.019,0,0,0-1.565-.9,13.6,13.6,0,0,0-.413,4.14c.138,2.382.89,4.833.142,7.1-.046.144-.1.29-.144.436a1.362,1.362,0,0,0-.042.8,1.743,1.743,0,0,0,.733.809L91.59,364.7l7.677,5.493c2.579,1.844,4.653,4.022,8.046,3.73.226-.019.45-.044.674-.064a24.343,24.343,0,0,0,1.1-7.33A14.279,14.279,0,0,0,106.67,358.631Z" transform="translate(1.125 3.147)" fill="#f6f6ec"/><path d="M130.757,362.97q.492-.119.981-.241a1.887,1.887,0,0,0,1.792-2.247q.176-5.474,0-10.952a2.437,2.437,0,0,0-.284-1.289c-.469-.708-1.447-.718-2.318-.588A27.771,27.771,0,0,1,130.757,362.97Z" transform="translate(21.409 5.773)" fill="#cabfab"/><path d="M105.758,356.926a14.54,14.54,0,0,1-4.182-1.683c-5.649-3.055-10.789-6.785-16.216-10.174q-3.9-2.434-7.718-4.981-2.555-1.7-5.082-3.442a2.092,2.092,0,0,0-.089.271c-.615,2.485,2.384,3.779,4.61,4.9a11.019,11.019,0,0,1,1.565.9c2.622,1.956,5.011,4.207,7.7,6.07,4.881,3.376,9.89,6.686,15.061,9.643a11.221,11.221,0,0,0,4.208,1.673c.079.008.159.012.238.018A15.392,15.392,0,0,0,105.758,356.926Z" transform="translate(0 1.76)" fill="#4375ca"/><path d="M99.611,371.216c14.566-1.323,28.846-4.773,43.054-8.264a27.771,27.771,0,0,0,.167-15.316c-.108.016-.216.034-.32.053l-42.983,8.083c-.41.077-.821.153-1.236.215a14.279,14.279,0,0,1,2.419,7.9A24.343,24.343,0,0,1,99.611,371.216Z" transform="translate(9.501 5.79)" fill="#e2e0d3"/><path d="M132.416,366.92q-.109-2.768-.22-5.536c-1.091.215-2.183.413-3.275.608l-9.79,5.031c-1.683.865-3.465,1.825-4.355,3.495a8.838,8.838,0,0,0-.8,3.544,71.994,71.994,0,0,0-.116,8.672,2.044,2.044,0,0,0,1.617-.5q4.953-3.313,9.727-6.887,2.384-1.788,4.722-3.636c1.324-1.047,2.611-1.632,2.537-3.487C132.451,367.79,132.434,367.356,132.416,366.92Z" transform="translate(15.184 10.833)" fill="#e2e0d3"/><path d="M134.583,367.321a5.526,5.526,0,0,0-1.439-.565c.018.436.036.871.052,1.307.074,1.855-1.212,2.44-2.537,3.487q-2.337,1.849-4.722,3.636-4.773,3.571-9.727,6.887a2.044,2.044,0,0,1-1.617.5,71.994,71.994,0,0,1,.116-8.672,8.838,8.838,0,0,1,.8-3.544c.89-1.67,2.672-2.63,4.355-3.495l9.79-5.031c-1.635.291-3.269.575-4.9.887-2.1,1.144-4.189,2.3-6.259,3.5-2.515,1.456-5.052,3.193-6.1,6.1l0,.014c-.962,2.679-.487,6.051-.272,8.827a55.6,55.6,0,0,0,.872,6.393,1.713,1.713,0,0,0,.187-.026,2.878,2.878,0,0,0,.921-.493l2.947-2.068,4.262-2.993,10.362-7.277,2.672-1.877a4.571,4.571,0,0,0,1.862-1.974A3.121,3.121,0,0,0,134.583,367.321Z" transform="translate(14.456 10.996)" fill="#b09718"/><path d="M156.474,350a5.64,5.64,0,0,0-2.881-1.9C142.587,343.8,131.34,340,120.907,334.461a19.816,19.816,0,0,0-4.825-2.084c-6.573-1.487-13.895.539-20.416,1.572q-5.611.892-11.208,1.867c-1.573.275-3.066.383-4.627.513-1.9.16-3.793.912-5.691,1.186a2.153,2.153,0,0,0-1.458.593,1.238,1.238,0,0,0-.168.3q2.524,1.747,5.082,3.442,3.826,2.542,7.718,4.981c5.426,3.39,10.567,7.12,16.216,10.174a14.54,14.54,0,0,0,4.182,1.683,7.327,7.327,0,0,0,.812.105,13.135,13.135,0,0,0,2.893-.241l7.665-1.212c4.033-.637,8.071-1.275,12.054-2.179,1.7-.385,3.386-.817,5.08-1.221a148.225,148.225,0,0,1,22.467-3.543A2.855,2.855,0,0,0,156.474,350Z" transform="translate(0.046 0)" fill="#5e81db"/><path d="M156.864,347.786a6.585,6.585,0,0,0-.421-2.367,148.229,148.229,0,0,0-22.467,3.543c-1.695.4-3.383.835-5.08,1.221-3.983.9-8.02,1.542-12.054,2.179l-7.665,1.212a13.135,13.135,0,0,1-2.893.241,7.335,7.335,0,0,1-.812-.105,15.392,15.392,0,0,1,.1,3.193,8.967,8.967,0,0,0,1.939-.1c.414-.062.826-.138,1.236-.215l42.983-8.083c.1-.019.212-.037.32-.053.871-.13,1.849-.12,2.318.588a2.437,2.437,0,0,1,.284,1.289q.18,5.474,0,10.952a1.887,1.887,0,0,1-1.792,2.247q-.49.121-.981.241c-14.208,3.491-28.488,6.941-43.054,8.264-.224.021-.448.045-.674.064-3.394.292-5.467-1.886-8.046-3.73l-7.677-5.493L77.07,351.885a1.743,1.743,0,0,1-.733-.809,1.362,1.362,0,0,1,.042-.8l-1.189.153a3.372,3.372,0,0,0-1.42.4,1.157,1.157,0,0,0-.556,1.264,1.7,1.7,0,0,0,.711.765l9.037,6.357,4.673,3.286c4.945,3.479,9.886,6.935,14.889,10.329.831.564,1.587,1.238,2.408,1.793a6.087,6.087,0,0,0,2.124.973,10.915,10.915,0,0,0,4.67-.258c.484-.109.959-.228,1.424-.343l20.84-5.194c1.639-.409,3.282-.749,4.925-1.062s3.268-.6,4.9-.887c1.092-.2,2.184-.394,3.275-.608,1.946-.381,3.889-.809,5.827-1.35,1.45-.4,3.058-.99,3.66-2.367a5.2,5.2,0,0,0,.317-1.868Q157.2,354.724,156.864,347.786Z" transform="translate(0.287 4.977)" fill="#4368af"/><path d="M90.692,389.888c1.211,1.441,2.4,2.9,3.589,4.361.791.974,1.759,2.851,2.911,3.42a1.814,1.814,0,0,0,.817.119h.105a32.136,32.136,0,0,0,3.094-12.637c-.343-.019-.685-.045-1.025-.086-1.8-.216-2.688-1.506-3.932-2.668-3-2.8-6.006-5.6-8.787-8.618-2.447-.689-4.9-1.344-7.363-1.929a6.312,6.312,0,0,1-.149,1.262,3.741,3.741,0,0,1-1.341,2.157c.718,2.4,2.706,4.4,4.521,6.235C85.777,384.183,88.27,387.007,90.692,389.888Z" transform="translate(2.282 14.672)" fill="#f8f8ec"/><path d="M134.73,377.373a80.817,80.817,0,0,0-5.619-6.13l-10.362,7.277Z" transform="translate(17.005 14.449)" fill="#d88421"/><path d="M152.493,379.715a6.546,6.546,0,0,0-1.408-2.447c-.279-.35-.571-.689-.856-1.035l-15.981,1.147-4.262,2.993q8.316-1.327,16.7-2.12a1.346,1.346,0,0,1,.9.127,1.325,1.325,0,0,1,.429.8,29.692,29.692,0,0,1,.633,11.262,1.193,1.193,0,0,1-.185.575,1.226,1.226,0,0,1-.745.357,246.083,246.083,0,0,1-48.832,5.492h-.105a1.814,1.814,0,0,1-.817-.119c-1.152-.569-2.12-2.445-2.911-3.42-1.186-1.462-2.378-2.921-3.589-4.361-2.422-2.881-4.915-5.705-7.558-8.385-1.815-1.84-3.8-3.838-4.521-6.235a2.608,2.608,0,0,1-.641.351c-.723.264-1.646.25-2.072.891-.521.783.154,1.79.793,2.482q1.9,2.067,3.772,4.163,4.531,5.068,8.879,10.3,2.963,3.563,5.842,7.2a4.667,4.667,0,0,0,1.989,1.715,4.6,4.6,0,0,0,1.461.167,91.073,91.073,0,0,0,11.257-.7q1.136-.133,2.268-.284c3.47-.467,6.93-1.046,10.4-1.62q12.492-2.071,24.911-4.542a3.338,3.338,0,0,0,3.317-3.632c.279-2.143.515-4.292.73-6.443.083-.839.175-1.68.249-2.52A6.723,6.723,0,0,0,152.493,379.715Z" transform="translate(1.505 15.589)" fill="#b55d06"/><path d="M110.842,398.3a4.26,4.26,0,0,0-1.251-1.26,91.073,91.073,0,0,1-11.257.7,4.6,4.6,0,0,1-1.461-.167,4.667,4.667,0,0,1-1.989-1.715q-2.874-3.635-5.842-7.2c-2.545-1.141-5.022-2.44-7.474-3.778a17.776,17.776,0,0,1-1.143,9.641,17,17,0,0,1-.838,1.725.946.946,0,0,0-.16.437c0,.313.291.536.556.7,4.612,2.893,9.476,5.358,14.334,7.818l10.859,5.5a9.031,9.031,0,0,0,2.646,1.007,3.047,3.047,0,0,0,2.639-.729,4.557,4.557,0,0,0,.89-3.133q.084-2.745.167-5.492A7.191,7.191,0,0,0,110.842,398.3Z" transform="translate(2.582 19.455)" fill="#f6f6ec"/><path d="M80.716,380.121a16.763,16.763,0,0,0-1.8,1.673c-1.614,1.823-1.216,2.414.824,3.54q1.187.656,2.377,1.305c2.452,1.338,4.929,2.637,7.474,3.778Q85.249,385.189,80.716,380.121Z" transform="translate(2.03 17.706)" fill="#7a9e1a"/><path d="M113.248,397.6a9.449,9.449,0,0,0-.675-3.429q-1.132.152-2.268.284a4.26,4.26,0,0,1,1.251,1.26,7.191,7.191,0,0,1,.678,4.066q-.084,2.745-.167,5.492a4.557,4.557,0,0,1-.89,3.133,3.047,3.047,0,0,1-2.639.729,9.031,9.031,0,0,1-2.646-1.007l-10.859-5.5c-4.858-2.46-9.722-4.925-14.334-7.818-.265-.167-.56-.39-.556-.7a.946.946,0,0,1,.16-.437,17,17,0,0,0,.838-1.725,5.41,5.41,0,0,0-1.59.343,3,3,0,0,0-2.027,3.108c.256,1.283,1.551,2.042,2.717,2.635q14.052,7.165,28.105,14.328a9.7,9.7,0,0,0,2.158.892,5.352,5.352,0,0,0,1.468.131,19.011,19.011,0,0,0,.823-3.257A57.78,57.78,0,0,0,113.248,397.6Z" transform="translate(1.868 22.042)" fill="#899f32"/><path d="M140.963,390.805a4.456,4.456,0,0,1-2.339.964q-12.418,2.47-24.911,4.542c-3.466.574-6.926,1.152-10.4,1.62a9.449,9.449,0,0,1,.675,3.429,57.78,57.78,0,0,1-.452,12.525,19.011,19.011,0,0,1-.823,3.257c1.949-.083,3.869-1.119,5.668-2.023,6.037-3.034,12.6-4.83,18.949-7.15a120.549,120.549,0,0,0,18.88-8.816,4.469,4.469,0,0,0,1.307-.99,4.594,4.594,0,0,0,.64-3.066q-.082-2.71-.185-5.422a10.625,10.625,0,0,0-.667-3.964c-.86-1.915-2.7-3.09-4.638-4.018-.215,2.151-.451,4.3-.73,6.443A4.425,4.425,0,0,1,140.963,390.805Z" transform="translate(11.124 18.283)" fill="#718814"/><line y1="3.945" x2="22.268" transform="translate(109.844 362.603)" fill="none" stroke="#cabfab" stroke-miterlimit="10" stroke-width="0.326"/><line x1="14.101" y2="2.697" transform="translate(139.202 361.878)" fill="none" stroke="#cabfab" stroke-miterlimit="10" stroke-width="0.326"/><path d="M92.59,358.842l9.844,5.194,11.134-1.719" transform="translate(7.41 9.901)" fill="none" stroke="#cabfab" stroke-miterlimit="10" stroke-width="0.326"/><line x2="15.278" y2="10.654" transform="translate(83.654 351.949)" fill="none" stroke="#cabfab" stroke-miterlimit="10" stroke-width="0.326"/><line x1="9.537" y2="1.896" transform="translate(143.744 359.157)" fill="none" stroke="#cabfab" stroke-miterlimit="10" stroke-width="0.326"/><line y1="4.966" x2="9.201" transform="translate(129.111 380.727)" fill="none" stroke="#cabfab" stroke-miterlimit="10" stroke-width="0.326"/><line y1="1.624" x2="3.114" transform="translate(128.998 386.521)" fill="none" stroke="#cabfab" stroke-miterlimit="10" stroke-width="0.326"/><path d="M91.809,384.323l3.454,3.519,17.269-1.76" transform="translate(7.123 19.247)" fill="none" stroke="#cabfab" stroke-miterlimit="10" stroke-width="0.326"/><line x2="8.691" y2="8.854" transform="translate(84.708 392.969)" fill="none" stroke="#cabfab" stroke-miterlimit="10" stroke-width="0.326"/><line x1="10.306" y2="1.413" transform="translate(139.202 398.564)" fill="none" stroke="#cabfab" stroke-miterlimit="10" stroke-width="0.326"/><line x1="25.288" y2="3.52" transform="translate(124.221 403.571)" fill="none" stroke="#cabfab" stroke-miterlimit="10" stroke-width="0.326"/><line x1="15.003" y1="7.053" transform="translate(98.932 420.262)" fill="none" stroke="#cabfab" stroke-miterlimit="10" stroke-width="0.326"/><line x2="5.586" y2="3.164" transform="translate(84.161 409.898)" fill="none" stroke="#cabfab" stroke-miterlimit="10" stroke-width="0.326"/><line x1="4.547" y1="2.473" transform="translate(109.294 421.316)" fill="none" stroke="#cabfab" stroke-miterlimit="10" stroke-width="0.326"/></g></g></g></svg>