<svg xmlns="http://www.w3.org/2000/svg" xmlns:xlink="http://www.w3.org/1999/xlink" width="218" height="218" viewBox="0 0 218 218"><defs><clipPath id="a"><rect width="218" height="218" transform="translate(34 545)" fill="#fff"/></clipPath></defs><g transform="translate(-34 -545)" clip-path="url(#a)"><g transform="translate(33 -4)"><path d="M37,562.829s12.215-34.872,36.213-11.249-10.2,83.321,63.557,63.557,43.309,32.435,57.933,42.934,27,15.749,7.5,36.372,22.123,7.5,26.623,16.5,0,8.624,0,8.624H37Z" transform="translate(-37 47)" fill="#38d39f" opacity="0.1"/><g transform="translate(8 -17)"><g transform="translate(76.455 557.126) rotate(57)" opacity="0.6"><path d="M200.062,190.69s-14.636-25.92-36.67-33.371a45.137,45.137,0,0,1-22.833-17.085A79.4,79.4,0,0,1,133.8,128.1" transform="translate(-118.033 -87.416)" fill="none" stroke="#535461" stroke-miterlimit="10" stroke-width="2"/><path d="M106.158,109.452c2.5,2.448,14.21,4.95,14.21,4.95s-2.874-11.6-5.376-14.051a6.323,6.323,0,1,0-8.941,8.941c0,.053.053.106.106.16Z" transform="translate(-104.175 -73.558)" fill="#38d39f"/><path d="M115.824,147.544c3.406.692,14.636-3.566,14.636-3.566s-8.729-8.2-12.135-8.888a6.344,6.344,0,0,0-7.451,5,6.243,6.243,0,0,0,4.95,7.451Z" transform="translate(-107.242 -90.627)" fill="#38d39f"/><path d="M158.094,190.534c3.3-1.118,10.8-10.432,10.8-10.432s-11.656-2.661-14.956-1.543a6.337,6.337,0,1,0,4.151,11.975Z" transform="translate(-125.455 -110.891)" fill="#38d39f"/><path d="M200.559,214.87c3.459-.585,12.454-8.462,12.454-8.462S202,201.83,198.537,202.362a6.335,6.335,0,0,0,2.022,12.507Z" transform="translate(-145.833 -122.133)" fill="#38d39f"/><path d="M154.967,129.333c0,3.513-6.333,13.625-6.333,13.625s-6.334-10.112-6.334-13.625a6.334,6.334,0,0,1,12.667,0Z" transform="translate(-122.009 -85.03)" fill="#38d39f"/><path d="M203.483,157.067c-1.064,3.353-10.112,11.124-10.112,11.124s-3.034-11.6-1.969-14.9a6.329,6.329,0,0,1,12.082,3.779Z" transform="translate(-144.871 -97.116)" fill="#38d39f"/><path d="M246.132,192.979c-.479,3.459-8.09,12.667-8.09,12.667s-4.95-10.911-4.471-14.37a6.338,6.338,0,1,1,12.561,1.7Z" transform="translate(-164.688 -114.4)" fill="#38d39f"/><path d="M106.158,109.452c2.5,2.448,14.21,4.95,14.21,4.95s-2.874-11.6-5.376-14.051a6.323,6.323,0,1,0-8.941,8.941c0,.053.053.106.106.16Z" transform="translate(-104.175 -73.558)" opacity="0.25"/><path d="M115.824,147.544c3.406.692,14.636-3.566,14.636-3.566s-8.729-8.2-12.135-8.888a6.344,6.344,0,0,0-7.451,5,6.243,6.243,0,0,0,4.95,7.451Z" transform="translate(-107.242 -90.627)" opacity="0.25"/><path d="M158.094,190.534c3.3-1.118,10.8-10.432,10.8-10.432s-11.656-2.661-14.956-1.543a6.337,6.337,0,1,0,4.151,11.975Z" transform="translate(-125.455 -110.891)" opacity="0.25"/><path d="M200.559,214.87c3.459-.585,12.454-8.462,12.454-8.462S202,201.83,198.537,202.362a6.335,6.335,0,0,0,2.022,12.507Z" transform="translate(-145.833 -122.133)" opacity="0.25"/><path d="M154.967,129.333c0,3.513-6.333,13.625-6.333,13.625s-6.334-10.112-6.334-13.625a6.334,6.334,0,0,1,12.667,0Z" transform="translate(-122.009 -85.03)" opacity="0.25"/><path d="M203.483,157.067c-1.064,3.353-10.112,11.124-10.112,11.124s-3.034-11.6-1.969-14.9a6.329,6.329,0,0,1,12.082,3.779Z" transform="translate(-144.871 -97.116)" opacity="0.25"/><path d="M246.132,192.979c-.479,3.459-8.09,12.667-8.09,12.667s-4.95-10.911-4.471-14.37a6.338,6.338,0,1,1,12.561,1.7Z" transform="translate(-164.688 -114.4)" opacity="0.25"/><path d="M225.834,170.939s-2.874-29.645-20.012-45.4a44.7,44.7,0,0,1-13.944-24.855A75.068,75.068,0,0,1,190.6,86.9" transform="translate(-144.602 -68.144)" fill="none" stroke="#535461" stroke-miterlimit="10" stroke-width="2"/><path d="M170.087,60.356c1.331,3.247,10.964,10.272,10.964,10.272s2.076-11.762.8-15.009a6.34,6.34,0,1,0-11.762,4.737Z" transform="translate(-134.787 -51.659)" fill="#38d39f"/><path d="M163.524,99.059c2.874,2.022,14.8,2.661,14.8,2.661s-4.63-11.017-7.5-13.04a6.342,6.342,0,0,0-7.292,10.378Z" transform="translate(-130.673 -68.434)" fill="#38d39f"/><path d="M184.785,155.391c3.46.266,14.1-5.163,14.1-5.163s-9.58-7.132-13.04-7.451a6.329,6.329,0,1,0-1.064,12.614Z" transform="translate(-139.159 -94.269)" fill="#38d39f"/><path d="M213.474,194.831c3.406.852,14.8-2.714,14.8-2.714s-8.25-8.675-11.6-9.58a6.329,6.329,0,0,0-3.779,12.082,4.043,4.043,0,0,1,.586.213Z" transform="translate(-152.946 -112.74)" fill="#38d39f"/><path d="M206.6,98.147c-1.437,3.193-11.337,9.9-11.337,9.9s-1.7-11.815-.266-15.062a6.35,6.35,0,1,1,11.6,5.163Z" transform="translate(-146.388 -69.225)" fill="#38d39f"/><path d="M237.385,143.173c-2.289,2.608-13.785,6.067-13.785,6.067s1.916-11.815,4.258-14.423a6.336,6.336,0,1,1,9.527,8.356Z" transform="translate(-160.039 -89.555)" fill="#38d39f"/><path d="M263.506,193.29c-1.81,2.98-12.507,8.3-12.507,8.3s-.106-11.975,1.756-14.956a6.322,6.322,0,1,1,10.751,6.653Z" transform="translate(-172.855 -113.381)" fill="#38d39f"/><path d="M170.087,60.356c1.331,3.247,10.964,10.272,10.964,10.272s2.076-11.762.8-15.009a6.34,6.34,0,1,0-11.762,4.737Z" transform="translate(-134.787 -51.659)" fill="#38d39f"/><path d="M163.524,99.059c2.874,2.022,14.8,2.661,14.8,2.661s-4.63-11.017-7.5-13.04a6.342,6.342,0,0,0-7.292,10.378Z" transform="translate(-130.673 -68.434)" fill="#38d39f"/><path d="M184.785,155.391c3.46.266,14.1-5.163,14.1-5.163s-9.58-7.132-13.04-7.451a6.329,6.329,0,1,0-1.064,12.614Z" transform="translate(-139.159 -94.269)" fill="#38d39f"/><path d="M213.474,194.831c3.406.852,14.8-2.714,14.8-2.714s-8.25-8.675-11.6-9.58a6.329,6.329,0,0,0-3.779,12.082,4.043,4.043,0,0,1,.586.213Z" transform="translate(-152.946 -112.74)" fill="#38d39f"/><path d="M206.6,98.147c-1.437,3.193-11.337,9.9-11.337,9.9s-1.7-11.815-.266-15.062a6.35,6.35,0,1,1,11.6,5.163Z" transform="translate(-146.388 -69.225)" fill="#38d39f"/><path d="M237.385,143.173c-2.289,2.608-13.785,6.067-13.785,6.067s1.916-11.815,4.258-14.423a6.336,6.336,0,1,1,9.527,8.356Z" transform="translate(-160.039 -89.555)" fill="#38d39f"/></g><g transform="translate(-1071.077 321.212)"><path d="M1188.416,417.555c-2.357-4.059-4.943-7.973-7.647-11.808q-2-2.837-4.075-5.624c-2.472-3.319-5.005-6.595-7.536-9.866-9.44-12.2-19.327-24.087-27.444-37.188a70.148,70.148,0,0,0-8.876-10.8,6.09,6.09,0,0,0-2.868-2.044c-1.542-.349-3.068.531-4.4,1.376l-.345.215q-2.056,1.3-4.126,2.579c.375-.136.747-.281,1.126-.41,4.733-1.609,8.894,5.091,10.945,8.3,15.933,24.909,33.916,48.446,52.049,71.78.611-.453,1.225-.9,1.821-1.376,1.052-.838,2.174-1.915,2.1-3.258A4.327,4.327,0,0,0,1188.416,417.555Z" fill="#d1a372"/><path d="M1133.457,351.758c-2.051-3.207-6.212-9.907-10.945-8.3-.379.129-.75.274-1.126.41-12.942,8.059-26.1,15.8-39.1,23.774,1.674,2.182,4.136,3.585,6.03,6.054,2.169,2.829,4.187,5.78,6.376,8.594,1.052,1.352,2.14,2.676,3.311,3.934,5.089,5.469,44.558,66.614,45.373,63.771,18-7.328,33.32-19.5,41.407-25.911.246-.177.482-.368.725-.548C1167.373,400.2,1149.39,376.667,1133.457,351.758Z" fill="#b57931"/><path d="M1103.285,349.515c1.007-.717,2.021-1.437,3.048-2.138l-8.2-14.97a3.365,3.365,0,0,0-1.035-1.308,2.7,2.7,0,0,0-1.679-.294q-3.138,14.778-7.083,29.37Z" fill="#f4e2bc"/><path d="M1116.972,342.042a35.33,35.33,0,0,0-10.639,5.335c-1.027.7-2.041,1.421-3.048,2.138l-14.945,10.66q3.959-14.58,7.083-29.37c-.185.014-.371.035-.552.057l-6.119.75q-2.692,8.457-4.619,17.132c-.8,3.635-1.89,7.505-2.142,11.226-.282,4.171,1.336,5.041,5.138,3.1,11.519-5.892,21.832-14.253,33.966-18.671q2.066-1.285,4.126-2.579A17.625,17.625,0,0,0,1116.972,342.042Z" fill="#fbe6a5"/><path d="M1121.095,344.395c-12.134,4.418-22.447,12.779-33.966,18.671-3.8,1.945-5.42,1.075-5.138-3.1.252-3.721,1.338-7.591,2.142-11.226q1.917-8.665,4.619-17.132l-2.351.288-5.145,22.205c-.743,3.207-1.491,6.5-1.045,9.762a8.839,8.839,0,0,0,1.11,3.313,34.081,34.081,0,0,1,3.832-3.3,34.081,34.081,0,0,0-3.832,3.3,9.328,9.328,0,0,0,.672.989C1095,360.193,1108.153,352.454,1121.095,344.395Z" fill="#b87a31"/><path d="M1081.993,368.169c1.674,2.182,58.077,83.342,61.339,81.9-6.541-8.537-51.052-75.112-57.347-83.85C1084.845,366.918,1083.131,367.471,1081.993,368.169Z" fill="#433a4b"/></g></g><g transform="translate(467.612 98.658) rotate(30)"><g transform="matrix(0.966, -0.259, 0.259, 0.966, -122.455, 735.148)" opacity="0.8"><path d="M83.547,69.831s-4.416-1.8-18.444,4.65-15.748,5.627-19.382,4.65-5.666-1.211-9.535-6.6c0,0-2.735-14.888-5.393-17.194S16.8,56.662,16.8,56.662,3.282,59.788.664,41.7c0,0,1.837-13.638-.664-17.819,0,0,5.041,2.188,13.325-1.329s14.927,3.79,14.927,3.79,2.11,5.432,1.876,8.636,1.094,4.455,5.08,2.892c0,0,1.954-2.774-.821-7.347s-4.728-7.972-3.947-11.528,2.97-8.48,10.082-10.942S57.287,5.119,61.9,3.2,67.721,0,67.721,0s-2.853,2.853,3.869,14.967,2.423,17.35,2.423,17.35-3.556,8.519-19.343,7.815c0,0-15.2.547-6.917,6.995,0,0,5.315-1.094,13.247-3.6s13.638,7.894,15.084,15.123A18.826,18.826,0,0,0,83.547,69.831Z" fill="#38d39f"/><path d="M12,.039,12.075,0C12.7,2.306,5.9,11.606.078,18.952L0,18.913C8.245,8.558,12.5,1.837,12,.039Z" transform="translate(51.113 9.105)" fill="#444053"/><path d="M16.491,0l.039.078C11.88,5.979,6.057,13.013,1.407,18.21c-.43.508-.9,1.016-1.29,1.563L0,19.656c.43-.547.86-1.055,1.329-1.563C5.94,12.9,11.88,5.9,16.491,0Z" transform="translate(34.779 27.901)" fill="#444053"/><path d="M10.785,0l.078.156C2.384,10.746,1.8,27.2,1.8,27.354L0,25.322C.039,25.127,2.227,10.668,10.785,0Z" transform="translate(24.072 47.44)" fill="#444053"/><path d="M66.041,34.7s-10-5.2-17.819-3.322-25.361-6.6-25.361-6.6-7.464-3.048-8.949-6.487c0,0-5.119-5.432-5.393-8.206S3.243.234,0,0" transform="translate(7.659 29.386)" fill="none" stroke="#444053" stroke-miterlimit="10" stroke-width="1"/><path d="M4.5,7.347S-.539,3.947.047,0" transform="translate(67.752 61.742)" fill="none" stroke="#444053" stroke-miterlimit="10" stroke-width="1"/><path d="M7.933,12.9S.7,10.277,0,0" transform="translate(56.584 60.609)" fill="none" stroke="#444053" stroke-miterlimit="10" stroke-width="1"/><path d="M5.069,15.709A16.17,16.17,0,0,1,.458,0" transform="translate(47.802 60.453)" fill="none" stroke="#444053" stroke-miterlimit="10" stroke-width="1"/><path d="M2.191,15.865S-2.381,6.252,1.683,0" transform="translate(36.691 57.483)" fill="none" stroke="#444053" stroke-miterlimit="10" stroke-width="1"/><path d="M4.255,0s-5.2,1.641-4.1,4.416" transform="translate(69.563 57.756)" fill="none" stroke="#444053" stroke-miterlimit="10" stroke-width="1"/><path d="M7.151,0S.156,2.227,0,12.075" transform="translate(60.374 48.3)" fill="none" stroke="#444053" stroke-miterlimit="10" stroke-width="1"/><path d="M5.925,0S-.444,7.855.025,14.967" transform="translate(51.87 45.994)" fill="none" stroke="#444053" stroke-miterlimit="10" stroke-width="1"/><path d="M5.583,0S-.747,6.018.073,9.379" transform="translate(41.075 49.081)" fill="none" stroke="#444053" stroke-miterlimit="10" stroke-width="1"/><path d="M6.76.9S.86,1.954,0,0" transform="translate(36.107 46.072)" fill="none" stroke="#444053" stroke-miterlimit="10" stroke-width="1"/><path d="M0,0S3.009,3.947,3.751,3.087" transform="translate(35.17 39.82)" fill="none" stroke="#444053" stroke-miterlimit="10" stroke-width="1"/><path d="M18.288,3.4S3.361,4.494,0,0" transform="translate(46.502 33.919)" fill="none" stroke="#444053" stroke-miterlimit="10" stroke-width="1"/><path d="M0,0s7,15.006,12.075,16.92" transform="translate(32.043 19.851)" fill="none" stroke="#444053" stroke-miterlimit="10" stroke-width="1"/><path d="M0,0S4.3,13.794,9.613,18.132" transform="translate(39.39 12.7)" fill="none" stroke="#444053" stroke-miterlimit="10" stroke-width="1"/><path d="M18.132.039S6.8,4.885,0,0" transform="translate(52.95 25.869)" fill="none" stroke="#444053" stroke-miterlimit="10" stroke-width="0.75"/><path d="M0,0S2.579,10.16,6.1,12.622" transform="translate(49.472 9.769)" fill="none" stroke="#444053" stroke-miterlimit="10" stroke-width="0.75"/><path d="M8.753,0S2.384,2.423,0,.547" transform="translate(60.609 14.537)" fill="none" stroke="#444053" stroke-miterlimit="10" stroke-width="0.75"/><path d="M2.423,0S2.423,8.871,0,9.5" transform="translate(27.276 43.141)" fill="none" stroke="#444053" stroke-miterlimit="10" stroke-width="1"/><path d="M0,4.1S9.574,4.924,13.99,0" transform="translate(10.004 50.488)" fill="none" stroke="#444053" stroke-miterlimit="10" stroke-width="1"/><path d="M8.714,0S6.409,8.988,0,11.411" transform="translate(18.523 32.669)" fill="none" stroke="#444053" stroke-miterlimit="10" stroke-width="1"/><path d="M0,3.634A12.6,12.6,0,0,0,12.622,0" transform="translate(4.259 41.5)" fill="none" stroke="#444053" stroke-miterlimit="10" stroke-width="1"/><path d="M4.806,0S4.181,7.62,0,11.176" transform="translate(14.888 24.931)" fill="none" stroke="#444053" stroke-miterlimit="10" stroke-width="1"/><path d="M0,1.8S5.627,1.837,6.956,0" transform="translate(4.533 31.731)" fill="none" stroke="#444053" stroke-miterlimit="10" stroke-width="1"/></g></g></g></g></svg>