<svg xmlns="http://www.w3.org/2000/svg" xmlns:xlink="http://www.w3.org/1999/xlink" width="218" height="218" viewBox="0 0 218 218"><defs><clipPath id="a"><rect width="218" height="218" transform="translate(34 545)" fill="#fff"/></clipPath></defs><g transform="translate(-34 -545)" clip-path="url(#a)"><g transform="translate(-11.55 520.486)"><path d="M37,700.11s12.215,34.872,36.213,11.249-10.2-83.321,63.557-63.557,43.309-32.435,57.933-42.934,27-15.749,7.5-36.372,22.123-7.5,26.623-16.5,0-8.624,0-8.624H37Z" transform="translate(7.55 -518.425)" fill="#38d39f" opacity="0.3"/><g transform="translate(42.392 37.209)"><g transform="matrix(0.545, -0.839, 0.839, 0.545, 47, 116.932)" opacity="0.6"><path d="M66.262,0S51.626,25.92,29.592,33.371A45.137,45.137,0,0,0,6.759,50.455,79.4,79.4,0,0,0,0,62.59" transform="translate(15.767 0)" fill="none" stroke="#535461" stroke-miterlimit="10" stroke-width="2"/><path d="M1.983,4.95C4.484,2.5,16.193,0,16.193,0s-2.874,11.6-5.376,14.051a6.265,6.265,0,0,1-8.941,0,6.265,6.265,0,0,1,0-8.941c0-.053.053-.106.106-.16Z" transform="translate(0 62.43)" fill="#38d39f"/><path d="M5.093.076C8.5-.616,19.729,3.642,19.729,3.642S11,11.838,7.595,12.53a6.344,6.344,0,0,1-7.451-5A6.243,6.243,0,0,1,5.093.076Z" transform="translate(3.489 46.281)" fill="#38d39f"/><path d="M8.426.363c3.3,1.118,10.8,10.432,10.8,10.432S7.575,13.456,4.275,12.338A6.337,6.337,0,1,1,8.426.363Z" transform="translate(24.213 23.268)" fill="#38d39f"/><path d="M7.328.09c3.459.585,12.454,8.462,12.454,8.462S8.765,13.129,5.306,12.6A6.335,6.335,0,0,1,7.328.09Z" transform="translate(47.398 10.448)" fill="#38d39f"/><path d="M12.667,13.625C12.667,10.112,6.334,0,6.334,0S0,10.112,0,13.625a6.334,6.334,0,0,0,12.667,0Z" transform="translate(20.291 45.346)" fill="#38d39f"/><path d="M12.308,11.124C11.244,7.771,2.2,0,2.2,0S-.838,11.6.226,14.9a6.329,6.329,0,0,0,12.082-3.779Z" transform="translate(46.304 32.2)" fill="#38d39f"/><path d="M12.593,12.667C12.114,9.208,4.5,0,4.5,0S-.446,10.911.033,14.37a6.338,6.338,0,1,0,12.561-1.7Z" transform="translate(68.851 12.028)" fill="#38d39f"/><path d="M1.983,4.95C4.484,2.5,16.193,0,16.193,0s-2.874,11.6-5.376,14.051a6.265,6.265,0,0,1-8.941,0,6.265,6.265,0,0,1,0-8.941c0-.053.053-.106.106-.16Z" transform="translate(0 62.43)" opacity="0.25"/><path d="M5.093.076C8.5-.616,19.729,3.642,19.729,3.642S11,11.838,7.595,12.53a6.344,6.344,0,0,1-7.451-5A6.243,6.243,0,0,1,5.093.076Z" transform="translate(3.489 46.281)" opacity="0.25"/><path d="M8.426.363c3.3,1.118,10.8,10.432,10.8,10.432S7.575,13.456,4.275,12.338A6.337,6.337,0,1,1,8.426.363Z" transform="translate(24.213 23.268)" opacity="0.25"/><path d="M7.328.09c3.459.585,12.454,8.462,12.454,8.462S8.765,13.129,5.306,12.6A6.335,6.335,0,0,1,7.328.09Z" transform="translate(47.398 10.448)" opacity="0.25"/><path d="M12.667,13.625C12.667,10.112,6.334,0,6.334,0S0,10.112,0,13.625a6.334,6.334,0,0,0,12.667,0Z" transform="translate(20.291 45.346)" opacity="0.25"/><path d="M12.308,11.124C11.244,7.771,2.2,0,2.2,0S-.838,11.6.226,14.9a6.329,6.329,0,0,0,12.082-3.779Z" transform="translate(46.304 32.2)" opacity="0.25"/><path d="M12.593,12.667C12.114,9.208,4.5,0,4.5,0S-.446,10.911.033,14.37a6.338,6.338,0,1,0,12.561-1.7Z" transform="translate(68.851 12.028)" opacity="0.25"/><path d="M35.234,0S32.359,29.645,15.222,45.4A44.7,44.7,0,0,0,1.277,70.254,75.068,75.068,0,0,0,0,84.039" transform="translate(45.998 0.479)" fill="none" stroke="#535461" stroke-miterlimit="10" stroke-width="2"/><path d="M.47,10.272C1.8,7.025,11.434,0,11.434,0s2.076,11.762.8,15.009A6.34,6.34,0,1,1,.47,10.272Z" transform="translate(34.83 84.305)" fill="#38d39f"/><path d="M2.7,2.661C5.577.639,17.5,0,17.5,0s-4.63,11.017-7.5,13.04A6.342,6.342,0,0,1,2.7,2.661Z" transform="translate(30.149 69.988)" fill="#38d39f"/><path d="M5.82.009c3.46-.266,14.1,5.163,14.1,5.163s-9.58,7.132-13.04,7.451A6.329,6.329,0,1,1,5.82.009Z" transform="translate(39.805 42.143)" fill="#38d39f"/><path d="M5.036.131c3.406-.852,14.8,2.714,14.8,2.714s-8.25,8.675-11.6,9.58A6.279,6.279,0,0,1,.3,8.275,6.279,6.279,0,0,1,4.451.344,4.043,4.043,0,0,0,5.036.131Z" transform="translate(55.491 21.051)" fill="#38d39f"/><path d="M12.179,9.9C10.742,6.706.842,0,.842,0S-.861,11.815.576,15.062A6.35,6.35,0,1,0,12.179,9.9Z" transform="translate(48.029 64.453)" fill="#38d39f"/><path d="M13.785,6.067C11.5,3.459,0,0,0,0S1.916,11.815,4.258,14.423a6.336,6.336,0,1,0,9.527-8.356Z" transform="translate(63.561 43.589)" fill="#38d39f"/><path d="M12.508,8.3C10.7,5.322,0,0,0,0S-.105,11.975,1.757,14.956A6.322,6.322,0,1,0,12.508,8.3Z" transform="translate(78.143 15.062)" fill="#38d39f"/><path d="M.47,10.272C1.8,7.025,11.434,0,11.434,0s2.076,11.762.8,15.009A6.34,6.34,0,1,1,.47,10.272Z" transform="translate(34.83 84.305)" fill="#38d39f"/><path d="M2.7,2.661C5.577.639,17.5,0,17.5,0s-4.63,11.017-7.5,13.04A6.342,6.342,0,0,1,2.7,2.661Z" transform="translate(30.149 69.988)" fill="#38d39f"/><path d="M5.82.009c3.46-.266,14.1,5.163,14.1,5.163s-9.58,7.132-13.04,7.451A6.329,6.329,0,1,1,5.82.009Z" transform="translate(39.805 42.143)" fill="#38d39f"/><path d="M5.036.131c3.406-.852,14.8,2.714,14.8,2.714s-8.25,8.675-11.6,9.58A6.279,6.279,0,0,1,.3,8.275,6.279,6.279,0,0,1,4.451.344,4.043,4.043,0,0,0,5.036.131Z" transform="translate(55.491 21.051)" fill="#38d39f"/><path d="M12.179,9.9C10.742,6.706.842,0,.842,0S-.861,11.815.576,15.062A6.35,6.35,0,1,0,12.179,9.9Z" transform="translate(48.029 64.453)" fill="#38d39f"/><path d="M13.785,6.067C11.5,3.459,0,0,0,0S1.916,11.815,4.258,14.423a6.336,6.336,0,1,0,9.527-8.356Z" transform="translate(63.561 43.589)" fill="#38d39f"/></g><g transform="translate(19.158 0)"><path d="M1188.416,346.655c-2.357,4.059-4.943,7.973-7.647,11.808q-2,2.837-4.075,5.624c-2.472,3.319-5.005,6.595-7.536,9.866-9.44,12.2-19.327,24.087-27.444,37.188a70.148,70.148,0,0,1-8.876,10.8,6.09,6.09,0,0,1-2.868,2.044c-1.542.349-3.068-.531-4.4-1.376l-.345-.215q-2.056-1.3-4.126-2.579c.375.136.747.281,1.126.41,4.733,1.609,8.894-5.091,10.945-8.3,15.933-24.909,33.916-48.446,52.049-71.78.611.453,1.225.9,1.821,1.376,1.052.838,2.174,1.915,2.1,3.258A4.327,4.327,0,0,1,1188.416,346.655Z" transform="translate(-1080.077 -314.116)" fill="#d1a372"/><path d="M1133.457,441.549c-2.051,3.207-6.212,9.907-10.945,8.3-.379-.129-.75-.274-1.126-.41-12.942-8.059-26.1-15.8-39.1-23.774,1.674-2.182,4.136-3.585,6.03-6.054,2.169-2.829,4.187-5.78,6.376-8.594,1.052-1.352,2.14-2.676,3.311-3.934,5.089-5.469,44.558-66.614,45.373-63.771,18,7.328,33.32,19.5,41.407,25.911.246.177.482.368.725.548C1167.373,393.1,1149.39,416.64,1133.457,441.549Z" transform="translate(-1080.077 -343.214)" fill="#b57931"/><path d="M1103.285,341.448c1.007.717,2.021,1.437,3.048,2.138l-8.2,14.97a3.365,3.365,0,0,1-1.035,1.308,2.7,2.7,0,0,1-1.679.294q-3.138-14.778-7.083-29.37Z" transform="translate(-1080.077 -240.87)" fill="#f4e2bc"/><path d="M1116.972,352.818a35.33,35.33,0,0,1-10.639-5.335c-1.027-.7-2.041-1.421-3.048-2.138l-14.945-10.66q3.959,14.58,7.083,29.37c-.185-.014-.371-.035-.552-.057l-6.119-.75q-2.692-8.457-4.619-17.132c-.8-3.635-1.89-7.505-2.142-11.226-.282-4.171,1.336-5.041,5.138-3.1,11.519,5.892,21.832,14.253,33.966,18.671q2.066,1.285,4.126,2.579A17.625,17.625,0,0,1,1116.972,352.818Z" transform="translate(-1080.077 -244.767)" fill="#fbe6a5"/><path d="M1121.095,355.386c-12.134-4.418-22.447-12.779-33.966-18.671-3.8-1.945-5.42-1.075-5.138,3.1.252,3.721,1.338,7.591,2.142,11.226q1.917,8.665,4.619,17.132l-2.351-.288-5.145-22.205c-.743-3.207-1.491-6.5-1.045-9.762a8.839,8.839,0,0,1,1.11-3.313,34.081,34.081,0,0,0,3.832,3.3,34.081,34.081,0,0,1-3.832-3.3,9.328,9.328,0,0,1,.672-.989C1095,339.588,1108.153,347.327,1121.095,355.386Z" transform="translate(-1080.077 -249.688)" fill="#b87a31"/><path d="M1081.993,448.148c1.674-2.182,58.077-83.342,61.339-81.9-6.541,8.537-51.052,75.112-57.347,83.85C1084.845,449.4,1083.131,448.846,1081.993,448.148Z" transform="translate(-1080.077 -366.224)" fill="#433a4b"/></g></g><g transform="translate(0 50.676) rotate(-30)"><g transform="matrix(0.966, 0.259, -0.259, 0.966, 20.652, 0)" opacity="0.8"><path d="M83.547,9.964s-4.416,1.8-18.444-4.65S49.355-.314,45.72.663s-5.666,1.211-9.535,6.6c0,0-2.735,14.888-5.393,17.194S16.8,23.133,16.8,23.133,3.282,20.007.664,38.1c0,0,1.837,13.638-.664,17.819,0,0,5.041-2.188,13.325,1.329s14.927-3.79,14.927-3.79,2.11-5.432,1.876-8.636,1.094-4.455,5.08-2.892c0,0,1.954,2.774-.821,7.347S29.66,57.247,30.441,60.8s2.97,8.48,10.082,10.942S57.287,74.676,61.9,76.591s5.822,3.2,5.822,3.2-2.853-2.853,3.869-14.967,2.423-17.35,2.423-17.35-3.556-8.519-19.343-7.815c0,0-15.2-.547-6.917-6.995,0,0,5.315,1.094,13.247,3.6S74.638,28.369,76.084,21.14A18.826,18.826,0,0,1,83.547,9.964Z" transform="translate(0)" fill="#38d39f"/><path d="M12,18.913l.078.039C12.7,16.647,5.9,7.347.078,0L0,.039C8.245,10.395,12.5,17.116,12,18.913Z" transform="translate(51.113 51.737)" fill="#444053"/><path d="M16.491,19.773l.039-.078C11.88,13.794,6.057,6.76,1.407,1.563.977,1.055.508.547.117,0L0,.117C.43.664.86,1.172,1.329,1.68,5.94,6.878,11.88,13.872,16.491,19.773Z" transform="translate(34.779 32.121)" fill="#444053"/><path d="M10.785,27.354l.078-.156C2.384,16.608,1.8.156,1.8,0L0,2.032C.039,2.227,2.227,16.686,10.785,27.354Z" transform="translate(24.072 5.001)" fill="#444053"/><path d="M66.041,0s-10,5.2-17.819,3.322-25.361,6.6-25.361,6.6-7.464,3.048-8.949,6.487c0,0-5.119,5.432-5.393,8.206S3.243,34.466,0,34.7" transform="translate(7.659 15.708)" fill="none" stroke="#444053" stroke-miterlimit="10" stroke-width="1"/><path d="M4.5,0S-.539,3.4.047,7.347" transform="translate(67.752 10.706)" fill="none" stroke="#444053" stroke-miterlimit="10" stroke-width="1"/><path d="M7.933,0S.7,2.618,0,12.9" transform="translate(56.584 6.291)" fill="none" stroke="#444053" stroke-miterlimit="10" stroke-width="1"/><path d="M5.069,0A16.17,16.17,0,0,0,.458,15.709" transform="translate(47.802 3.633)" fill="none" stroke="#444053" stroke-miterlimit="10" stroke-width="1"/><path d="M2.191,0s-4.572,9.613-.508,15.865" transform="translate(36.691 6.447)" fill="none" stroke="#444053" stroke-miterlimit="10" stroke-width="1"/><path d="M4.255,4.416S-.943,2.774.151,0" transform="translate(69.563 17.623)" fill="none" stroke="#444053" stroke-miterlimit="10" stroke-width="1"/><path d="M7.151,12.075S.156,9.847,0,0" transform="translate(60.375 19.421)" fill="none" stroke="#444053" stroke-miterlimit="10" stroke-width="1"/><path d="M5.925,14.967S-.444,7.112.025,0" transform="translate(51.87 18.834)" fill="none" stroke="#444053" stroke-miterlimit="10" stroke-width="1"/><path d="M5.583,9.379S-.747,3.361.073,0" transform="translate(41.075 21.335)" fill="none" stroke="#444053" stroke-miterlimit="10" stroke-width="1"/><path d="M6.76.284S.86-.771,0,1.183" transform="translate(36.107 32.54)" fill="none" stroke="#444053" stroke-miterlimit="10" stroke-width="1"/><path d="M0,3.21S3.009-.737,3.751.123" transform="translate(35.17 36.766)" fill="none" stroke="#444053" stroke-miterlimit="10" stroke-width="1"/><path d="M18.288.117S3.361-.977,0,3.517" transform="translate(46.502 42.359)" fill="none" stroke="#444053" stroke-miterlimit="10" stroke-width="1"/><path d="M0,16.92S7,1.915,12.075,0" transform="translate(32.043 43.023)" fill="none" stroke="#444053" stroke-miterlimit="10" stroke-width="1"/><path d="M0,18.132S4.3,4.338,9.613,0" transform="translate(39.39 48.963)" fill="none" stroke="#444053" stroke-miterlimit="10" stroke-width="1"/><path d="M18.132,2.142S6.8-2.7,0,2.181" transform="translate(52.95 51.745)" fill="none" stroke="#444053" stroke-miterlimit="10" stroke-width="0.75"/><path d="M0,12.622S2.579,2.462,6.1,0" transform="translate(49.472 57.404)" fill="none" stroke="#444053" stroke-miterlimit="10" stroke-width="0.75"/><path d="M8.753,1.259S2.384-1.164,0,.712" transform="translate(60.609 63.999)" fill="none" stroke="#444053" stroke-miterlimit="10" stroke-width="0.75"/><path d="M2.423,9.5S2.423.625,0,0" transform="translate(27.276 27.158)" fill="none" stroke="#444053" stroke-miterlimit="10" stroke-width="1"/><path d="M0,.051s9.574-.821,13.99,4.1" transform="translate(10.004 25.153)" fill="none" stroke="#444053" stroke-miterlimit="10" stroke-width="1"/><path d="M8.714,11.411S6.409,2.423,0,0" transform="translate(18.523 35.716)" fill="none" stroke="#444053" stroke-miterlimit="10" stroke-width="1"/><path d="M0,.453A12.6,12.6,0,0,1,12.622,4.087" transform="translate(4.259 34.208)" fill="none" stroke="#444053" stroke-miterlimit="10" stroke-width="1"/><path d="M4.807,11.176S4.181,3.556,0,0" transform="translate(14.888 43.688)" fill="none" stroke="#444053" stroke-miterlimit="10" stroke-width="1"/><path d="M0,0S5.627-.039,6.956,1.8" transform="translate(4.533 46.267)" fill="none" stroke="#444053" stroke-miterlimit="10" stroke-width="1"/></g></g></g></g></svg>