<svg xmlns="http://www.w3.org/2000/svg" width="29.631" height="42.898" viewBox="0 0 29.631 42.898"><g transform="translate(-6.33 -2)"><path d="M21.145,40.291A14.815,14.815,0,1,1,35.961,25.475,14.815,14.815,0,0,1,21.145,40.291Zm0-26.551A11.751,11.751,0,1,0,32.9,25.475,11.751,11.751,0,0,0,21.145,13.739Z" transform="translate(0 4.608)" fill="#fff"/><path d="M17.687,24.7a4.857,4.857,0,1,1,4.857-4.841A4.857,4.857,0,0,1,17.687,24.7Zm0-6.634a1.793,1.793,0,1,0,1.793,1.793A1.793,1.793,0,0,0,17.687,18.07Z" transform="translate(3.459 6.912)" fill="#fff"/><path d="M16.532,29.043A1.532,1.532,0,0,1,15,27.511V20.862a1.532,1.532,0,0,1,3.064,0v6.649A1.532,1.532,0,0,1,16.532,29.043Z" transform="translate(4.613 9.221)" fill="#fff"/><path d="M11.472,20.86h0A1.532,1.532,0,0,1,9.94,19.328l.092-8.135a9.193,9.193,0,1,1,18.385,0v5.344c0,.846-.729,2.792-1.575,2.792s-1.489-1.946-1.489-2.792V11.193a6.128,6.128,0,1,0-12.257,0v8.151a1.532,1.532,0,0,1-1.624,1.517Z" transform="translate(1.921 0)" fill="#fff"/></g></svg>