<svg xmlns="http://www.w3.org/2000/svg" xmlns:xlink="http://www.w3.org/1999/xlink" width="1013.536" height="1166.12" viewBox="0 0 1013.536 1166.12"><defs><clipPath id="a"><path d="M698.042,858.828H479.824s6.651-10.25,6.651-31.584c0-24.661-6.651-31.585-6.651-31.585H698.042v63.169Z" fill="none"/></clipPath><clipPath id="b"><path d="M339.392,1032.323H681.743s-6.651-11.389-6.651-35.081c0-27.392,6.651-35.087,6.651-35.087H339.392v70.168Z" fill="none"/></clipPath><clipPath id="c"><path d="M470.738,1073.815s23.16-25.778,50.432-35.488l15.318-1.869s36.982,13.45,61.64,38.477l-62.013,38.48Z" fill="none"/></clipPath></defs><g transform="translate(-7.042 -110.458)"><path d="M588.142,115.326S321.408,88.185,399.909,162.069,64.5,211.234,195.481,285.537s296.484,109.62,107.332,179.806-113.278,79.931-79.173,145.7S-41.509,674.907,13.908,761.888s672.308,37.784,428.569,129.556,43.872,211.4,181.166,183.126S1102.255,967.241,968.029,920.3s177.791-153.979-8.585-255.252,103.026-96.631-34.371-207.279-171.437-149.263,2.9-187.895S769.385,157.824,636.592,141.1,588.142,115.326,588.142,115.326Z" fill="#38d39f" opacity="0.1"/><ellipse cx="450.5" cy="41.833" rx="450.5" ry="41.833" transform="translate(64.578 1192.913)" fill="#38d39f" opacity="0.1"/><path d="M383.826,954.948c-11.3,6.943-22.6,14.131-32.356,23.2-9.023,8.395-16.471,18.395-23.718,28.316-18.915,25.874-33.1,54.683-45.02,84.34-7.174,17.85-13.623,35.98-20.22,54.043-.308.843.953,1.444,1.264.594,10.922-29.9,21.472-60.031,35.5-88.663a337.277,337.277,0,0,1,24.35-42.06c4.294-6.284,8.848-12.4,13.521-18.4A164.53,164.53,0,0,1,348.4,983.121c10.5-10.928,23.385-19.133,36.217-27.025.769-.477-.027-1.624-.8-1.148Z" fill="#83f2b0"/><path d="M275.963,1108.92c-3.346-1.937,43,17.043,68.06-27.077,3.361-5.919-62.819,12.168-68.06,27.077" fill="#83f2b0"/><path d="M269.928,1129.592c3.746.972-42.593-18.03-29.483-67.045,1.762-6.576,36.214,52.75,29.483,67.045" fill="#83f2b0"/><path d="M284.325,1086.163s.139-.4.363-1.159c2.224-7.489,12.8-49.646-22.183-74.909,0,0-11.071,29,20.984,74.2" fill="#83f2b0"/><path d="M292.212,1067.967s.327.066.934.161c6.035.926,39.793,4.659,55.651-25.087,0,0-23.62-5.509-55.229,24.083" fill="#83f2b0"/><path d="M305.1,1040.268s-.158-.271-.433-.777c-2.737-5.053-16.737-33.776,4.592-57.248,0,0,12.36,19.179-3.838,56.551" fill="#83f2b0"/><path d="M313.825,1026.192s.279.055.795.145c5.132.864,33.847,4.459,47.717-20.692,0,0-20.051-4.981-47.345,19.841" fill="#83f2b0"/><path d="M348.494,983.937s.19.07.557.18c3.625,1.132,24.03,6.565,36.544-10.245,0,0-14.007-5.588-36.191,9.667" fill="#83f2b0"/><path d="M332.472,1000.332s-.1-.235-.278-.682c-1.74-4.446-10.34-29.569,9.656-46.739,0,0,8.229,17.083-8.963,46.241" fill="#83f2b0"/><path d="M358.5,973.562s-.035-.2-.082-.568c-.485-3.664-2.284-24.142,15.937-33.332,0,0,3.011,14.364-15.325,33.094" fill="#83f2b0"/><path d="M376.77,959.293s.107-.16.313-.457c2.042-2.929,14.1-18.727,33.1-13.422,0,0-7.21,12.224-32.5,13.647" fill="#83f2b0"/><path d="M166.552,776.294c-5.1,20.61-9.949,41.49-10.914,62.776-.887,19.715,1.835,39.481,4.682,58.933,7.435,50.759,23.551,99.548,43.21,146.787,11.832,28.424,24.807,56.357,37.54,84.376.587,1.3,2.7.576,2.107-.737-21.077-46.391-42.822-92.62-58.927-141.038a540.469,540.469,0,0,1-19.382-75.33c-2.146-11.987-3.8-24.075-5.2-36.174a263.474,263.474,0,0,1-1.95-27.7c-.261-24.245,5.243-48.066,11.035-71.471.35-1.4-1.847-1.82-2.2-.423Z" fill="#83f2b0"/><path d="M216.13,1073.064c-5.994,1.545,68.207-28.776,47.325-107.251-2.8-10.529-58.067,84.355-47.325,107.251" fill="#83f2b0"/><path d="M232.428,1103.437c5.363-3.094-68.851,27.192-108.867-43.47-5.369-9.491,100.508,19.6,108.867,43.47" fill="#83f2b0"/><path d="M200.148,1037.709s-.293-.616-.886-1.731c-5.861-11.044-41.073-71.032-109.346-60.635,0,0,19.885,45.523,107.188,61.176" fill="#83f2b0"/><path d="M188.742,1008.086s.447-.29,1.238-.869c7.937-5.7,50.663-39.306,35.4-91.058,0,0-33.143,20.2-36.037,89.436" fill="#83f2b0"/><path d="M172.381,962s-.48-.124-1.361-.394c-8.794-2.7-56.991-19.782-58.968-70.508,0,0,35.62,8.034,59.047,68.867" fill="#83f2b0"/><path d="M166.56,936.148s.378-.248,1.064-.723c6.832-4.766,43.648-32.869,31.27-77.14,0,0-28.485,16.8-31.794,75.753" fill="#83f2b0"/><path d="M158.73,849.022s.306-.137.848-.412c5.408-2.774,34.795-19.463,30.222-52.7,0,0-22.254,9.342-30.467,51.645" fill="#83f2b0"/><path d="M158.841,885.719s-.383-.154-1.086-.469c-6.98-3.131-44.968-22.156-41.4-64.189,0,0,28.557,10.269,41.634,62.846" fill="#83f2b0"/><path d="M158.529,825.955s-.264-.186-.731-.558c-4.668-3.642-29.687-25-19.2-55.931,0,0,19.554,13.025,19.625,54.969" fill="#83f2b0"/><path d="M163.377,789.174s-.064-.3-.158-.871c-.957-5.644-4.9-37.2,22.73-52.451,0,0,5.484,22.044-21.793,52.041" fill="#83f2b0"/><path d="M836.205,306.6c-18.084,11.122-36.174,22.616-51.783,37.127-14.453,13.438-26.356,29.45-37.96,45.319-30.275,41.422-52.972,87.516-72.055,134.982-11.479,28.566-21.806,57.583-32.361,86.5-.487,1.339,1.531,2.3,2.029.954,17.471-47.865,34.367-96.079,56.812-141.9a538.726,538.726,0,0,1,38.968-67.323c6.869-10.053,14.156-19.835,21.636-29.448a262.775,262.775,0,0,1,18.022-21.124c16.811-17.488,37.431-30.621,57.962-43.246,1.238-.756-.042-2.594-1.27-1.843Z" fill="#83f2b0"/><path d="M663.577,553.037c-5.358-3.1,68.825,27.271,108.93-43.337,5.375-9.48-100.548,19.472-108.93,43.337" fill="#83f2b0"/><path d="M653.915,586.121c6,1.54-68.165-28.858-47.186-107.316,2.82-10.523,57.957,84.425,47.186,107.316" fill="#83f2b0"/><path d="M676.955,516.6s.222-.634.585-1.844c3.555-11.988,20.481-79.468-35.505-119.887,0,0-17.721,46.4,33.584,118.745" fill="#83f2b0"/><path d="M689.578,487.48s.523.106,1.493.258c9.66,1.489,63.691,7.465,89.073-40.148,0,0-37.8-8.822-88.392,38.54" fill="#83f2b0"/><path d="M710.21,443.148s-.257-.424-.7-1.235c-4.378-8.093-26.784-54.052,7.354-91.619,0,0,19.78,30.693-6.144,90.506" fill="#83f2b0"/><path d="M724.176,420.622s.445.1,1.269.239c8.208,1.383,54.167,7.141,76.37-33.113,0,0-32.088-7.982-75.775,31.752" fill="#83f2b0"/><path d="M779.653,352.992s.31.117.893.29c5.8,1.82,38.463,10.516,58.494-16.4,0,0-22.417-8.934-57.928,15.484" fill="#83f2b0"/><path d="M754.017,379.247s-.164-.38-.445-1.1c-2.788-7.124-16.553-47.332,15.452-74.8,0,0,13.169,27.337-14.347,74.01" fill="#83f2b0"/><path d="M795.677,336.388s-.06-.307-.135-.9c-.764-5.871-3.653-38.643,25.516-53.356,0,0,4.816,23-24.535,52.966" fill="#83f2b0"/><path d="M824.915,313.558s.166-.263.5-.729c3.269-4.7,22.565-29.979,52.971-21.484,0,0-11.537,19.558-52.02,21.842" fill="#83f2b0"/><path d="M945.378,528.623c-20.915,3.647-41.98,7.636-61.84,15.353-18.388,7.143-35.381,17.612-52.028,28.077-43.439,27.293-81.574,61.728-116.853,98.777-21.226,22.3-41.543,45.444-62.043,68.409-.95,1.063.567,2.707,1.526,1.635,33.931-38.009,67.449-76.564,105.248-110.846a540.7,540.7,0,0,1,61.1-48.143c10.1-6.8,20.491-13.194,30.991-19.364a264.014,264.014,0,0,1,24.558-12.961c22.083-10.034,46.092-14.616,69.841-18.756,1.422-.245.922-2.422-.5-2.181Z" fill="#83f2b0"/><path d="M693.872,693.78c-3.834-4.859,53.862,50.787,117.225.007,8.509-6.82-100.609-19.074-117.225-.007" fill="#83f2b0"/><path d="M672.668,720.953c4.995,3.65-52.674-52.017-4.172-117.161,6.5-8.736,22.644,99.871,4.172,117.161" fill="#83f2b0"/><path d="M719.777,664.875s.438-.508,1.218-1.5c7.738-9.823,48.414-66.263,11.336-124.515,0,0-33.625,36.564-12.7,122.749" fill="#83f2b0"/><path d="M742.271,642.484s.445.289,1.292.792c8.422,4.957,56.414,30.483,97.6-4.372,0,0-31.866-22.176-96.38,3.131" fill="#83f2b0"/><path d="M777.822,608.921s-.081-.489-.184-1.407c-1.077-9.138-4.911-60.125,40.7-82.411,0,0,7.039,35.83-39.165,81.826" fill="#83f2b0"/><path d="M799.129,593.155s.38.249,1.092.685c7.122,4.329,47.692,26.662,83.2-2.528,0,0-26.875-19.284-82.147,1.488" fill="#83f2b0"/><path d="M875.679,550.825s.248.219.73.6c4.715,3.832,31.847,23.987,60.4,6.383,0,0-17.526-16.588-59.543-7.026" fill="#83f2b0"/><path d="M842.154,565.74s-.015-.411-.015-1.183c.052-7.647,2.124-50.1,42.016-63.789,0,0,2.132,30.269-40.687,63.461" fill="#83f2b0"/><path d="M896.707,541.32s.062-.3.208-.885c1.455-5.741,10.9-37.25,43.424-40.145,0,0-4.021,23.152-42.363,40.147" fill="#83f2b0"/><path d="M932.311,530.92s.255-.186.735-.5c4.774-3.155,32.058-19.51,57.165-.381,0,0-17.954,13.91-56.414,1.068" fill="#83f2b0"/><path d="M240.576,698.214c18.088,11.124,36.182,22.62,51.781,37.129,14.451,13.438,26.364,29.448,37.965,45.322,30.273,41.414,52.967,87.517,72.052,134.985,11.481,28.566,21.8,57.584,32.36,86.489.493,1.349-1.529,2.312-2.025.956-17.477-47.865-34.36-96.078-56.812-141.9a540.311,540.311,0,0,0-38.968-67.318c-6.872-10.052-14.157-19.832-21.637-29.453a264.3,264.3,0,0,0-18.022-21.118c-16.811-17.482-37.432-30.616-57.967-43.252-1.231-.753.045-2.591,1.273-1.84Z" fill="#83f2b0"/><path d="M413.2,944.649c5.355-3.1-68.826,27.275-108.927-43.337-5.378-9.475,100.543,19.476,108.927,43.337" fill="#83f2b0"/><path d="M422.863,977.737c-5.993,1.551,68.171-28.86,47.19-107.308-2.817-10.531-57.964,84.42-47.19,107.308" fill="#83f2b0"/><path d="M399.821,908.227s-.221-.643-.575-1.85c-3.562-11.992-20.489-79.462,35.5-119.888,0,0,17.724,46.4-33.584,118.757" fill="#83f2b0"/><path d="M387.194,879.1s-.519.109-1.489.256c-9.66,1.493-63.684,7.468-89.066-40.15,0,0,37.8-8.816,88.391,38.54" fill="#83f2b0"/><path d="M366.575,834.767s.258-.427.689-1.238c4.377-8.086,26.792-54.052-7.348-91.622,0,0-19.782,30.7,6.143,90.507" fill="#83f2b0"/><path d="M352.606,812.243s-.446.09-1.271.23c-8.211,1.387-54.164,7.143-76.367-33.111,0,0,32.091-7.974,75.77,31.752" fill="#83f2b0"/><path d="M297.123,744.61s-.307.116-.891.3c-5.8,1.812-38.459,10.508-58.486-16.4,0,0,22.417-8.936,57.919,15.482" fill="#83f2b0"/><path d="M322.765,770.858s.166-.378.449-1.088c2.782-7.12,16.548-47.33-15.454-74.807,0,0-13.172,27.338,14.342,74.006" fill="#83f2b0"/><path d="M281.1,728.012s.06-.319.134-.9c.771-5.869,3.651-38.645-25.511-53.353,0,0-4.818,22.994,24.528,52.962" fill="#83f2b0"/><path d="M251.872,705.174s-.172-.259-.5-.733c-3.269-4.692-22.57-29.972-52.974-21.479,0,0,11.542,19.565,52.019,21.846" fill="#83f2b0"/><path d="M244.428,480.41c18.087,11.115,36.182,22.617,51.784,37.13,14.451,13.435,26.361,29.438,37.958,45.321,30.277,41.411,52.974,87.517,72.06,134.983,11.479,28.563,21.8,57.578,32.36,86.489.488,1.352-1.53,2.315-2.025.956-17.479-47.863-34.37-96.08-56.816-141.9a538.5,538.5,0,0,0-38.97-67.311c-6.87-10.054-14.156-19.835-21.631-29.459A266.7,266.7,0,0,0,301.12,525.5c-16.81-17.485-37.427-30.621-57.958-43.254-1.238-.75.039-2.586,1.266-1.837Z" fill="#5ce576"/><path d="M417.055,726.841c5.357-3.1-68.824,27.277-108.926-43.333-5.378-9.472,100.541,19.471,108.926,43.333" fill="#5ce576"/><path d="M426.715,759.934c-5.99,1.546,68.174-28.863,47.192-107.316-2.82-10.521-57.963,84.428-47.192,107.316" fill="#5ce576"/><path d="M403.673,690.421s-.219-.648-.579-1.848c-3.556-11.993-20.482-79.465,35.5-119.894,0,0,17.725,46.406-33.582,118.755" fill="#5ce576"/><path d="M391.05,661.3s-.516.108-1.489.257c-9.661,1.492-63.688,7.457-89.071-40.15,0,0,37.8-8.816,88.4,38.544" fill="#5ce576"/><path d="M370.43,616.963s.251-.433.689-1.244c4.377-8.086,26.788-54.049-7.348-91.619,0,0-19.786,30.692,6.142,90.508" fill="#5ce576"/><path d="M356.46,594.435s-.445.09-1.273.231c-8.208,1.389-54.167,7.142-76.369-33.111,0,0,32.092-7.971,75.776,31.753" fill="#5ce576"/><path d="M300.978,526.81s-.308.116-.894.29c-5.8,1.809-38.461,10.513-58.486-16.4,0,0,22.418-8.94,57.923,15.475" fill="#5ce576"/><path d="M326.621,553.054s.161-.38.445-1.094c2.788-7.115,16.553-47.326-15.455-74.8,0,0-13.169,27.335,14.344,74.007" fill="#5ce576"/><path d="M284.957,510.206s.057-.318.132-.9c.771-5.869,3.651-38.647-25.51-53.352,0,0-4.816,23,24.525,52.964" fill="#5ce576"/><path d="M255.722,487.366s-.17-.253-.5-.73c-3.271-4.689-22.567-29.969-52.974-21.479,0,0,11.542,19.564,52.022,21.839" fill="#5ce576"/><path d="M490.609,619.454c18.08,11.115,36.175,22.617,51.782,37.128,14.446,13.437,26.359,29.44,37.958,45.322,30.275,41.407,52.973,87.512,72.06,134.983,11.48,28.562,21.8,57.579,32.354,86.49.489,1.352-1.528,2.311-2.023.956-17.477-47.867-34.364-96.08-56.814-141.9a539,539,0,0,0-38.964-67.311c-6.873-10.057-14.161-19.836-21.641-29.459A264.579,264.579,0,0,0,547.3,664.544c-16.81-17.486-37.426-30.624-57.964-43.253-1.231-.75.044-2.588,1.275-1.837Z" fill="#5ce576"/><path d="M663.233,865.885c5.362-3.1-68.82,27.275-108.922-43.338-5.381-9.471,100.541,19.475,108.922,43.338" fill="#5ce576"/><path d="M672.892,898.977c-5.989,1.546,68.171-28.863,47.19-107.315-2.816-10.525-57.957,84.426-47.19,107.315" fill="#5ce576"/><path d="M649.854,829.46s-.221-.646-.576-1.844c-3.562-12-20.488-79.466,35.5-119.9,0,0,17.717,46.406-33.586,118.757" fill="#5ce576"/><path d="M637.232,800.34s-.523.1-1.493.255c-9.66,1.492-63.688,7.459-89.071-40.148,0,0,37.8-8.816,88.391,38.544" fill="#5ce576"/><path d="M616.6,756.005s.257-.431.694-1.243c4.38-8.085,26.786-54.051-7.351-91.621,0,0-19.787,30.694,6.141,90.507" fill="#5ce576"/><path d="M602.635,733.479s-.445.088-1.266.231c-8.216,1.384-54.171,7.14-76.372-33.115,0,0,32.094-7.967,75.774,31.757" fill="#5ce576"/><path d="M547.156,665.851s-.311.117-.891.293c-5.8,1.807-38.464,10.511-58.494-16.4,0,0,22.419-8.941,57.928,15.476" fill="#5ce576"/><path d="M572.794,692.1s.17-.378.45-1.093c2.784-7.115,16.546-47.326-15.458-74.808,0,0-13.169,27.34,14.349,74.011" fill="#5ce576"/><path d="M531.134,649.245s.058-.314.134-.9c.77-5.869,3.653-38.646-25.509-53.351,0,0-4.819,22.995,24.529,52.962" fill="#5ce576"/><path d="M501.9,626.41s-.166-.256-.495-.732c-3.273-4.688-22.574-29.969-52.974-21.477,0,0,11.534,19.562,52.019,21.836" fill="#5ce576"/><path d="M807.237,310.771c-18.085,11.122-36.18,22.623-51.78,37.129-14.449,13.438-26.364,29.448-37.964,45.32-30.273,41.414-52.97,87.519-72.054,134.986-11.482,28.567-21.8,57.582-32.36,86.495-.494,1.343,1.528,2.3,2.022.951,17.48-47.863,34.367-96.081,56.813-141.9a540.043,540.043,0,0,1,38.969-67.313c6.87-10.056,14.16-19.836,21.641-29.456a264.635,264.635,0,0,1,18.022-21.119c16.808-17.484,37.427-30.617,57.962-43.251,1.232-.754-.042-2.59-1.271-1.839Z" fill="#5ce576"/><path d="M634.61,557.2c-5.361-3.1,68.822,27.277,108.925-43.335,5.378-9.475-100.541,19.477-108.925,43.335" fill="#5ce576"/><path d="M624.95,590.294c5.992,1.549-68.172-28.86-47.191-107.31,2.82-10.53,57.959,84.422,47.191,107.31" fill="#5ce576"/><path d="M647.988,520.782s.222-.645.58-1.85c3.561-11.989,20.487-79.461-35.5-119.885,0,0-17.719,46.4,33.586,118.755" fill="#5ce576"/><path d="M660.613,491.657s.523.11,1.493.255c9.659,1.493,63.686,7.47,89.066-40.148,0,0-37.8-8.816-88.387,38.54" fill="#5ce576"/><path d="M681.242,447.322s-.256-.426-.7-1.236c-4.381-8.091-26.789-54.053,7.352-91.623,0,0,19.777,30.7-6.145,90.507" fill="#5ce576"/><path d="M695.209,424.8s.443.085,1.268.226c8.21,1.387,54.168,7.143,76.368-33.111,0,0-32.092-7.973-75.773,31.751" fill="#5ce576"/><path d="M750.688,357.17s.31.113.893.293c5.8,1.813,38.458,10.509,58.488-16.406,0,0-22.419-8.935-57.924,15.482" fill="#5ce576"/><path d="M725.047,383.417s-.166-.38-.445-1.092c-2.785-7.12-16.55-47.326,15.453-74.807,0,0,13.174,27.339-14.348,74.008" fill="#5ce576"/><path d="M766.708,340.569s-.057-.32-.129-.9c-.777-5.871-3.657-38.643,25.505-53.353,0,0,4.821,22.994-24.525,52.962" fill="#5ce576"/><path d="M795.944,317.73s.169-.26.5-.731c3.273-4.693,22.575-29.975,52.976-21.48,0,0-11.539,19.565-52.019,21.842" fill="#5ce576"/><path d="M676.741,1022.381h2.836a3.387,3.387,0,0,0,.894-.714,4.567,4.567,0,0,0,.152-5.626C536.941,835.485,488.2,622.358,472.61,475.348c-16.91-159.444.438-277.689.611-278.861.341-2.171-.858-4.2-2.641-4.554-1.806-.347-3.528,1.148-3.848,3.3-.2,1.193-17.713,120.43-.7,281.014C481.712,624.5,530.845,839.454,675.8,1021.6A3.268,3.268,0,0,0,676.741,1022.381Z" fill="#665a40"/><path d="M546.247,817.079c21.024,16.007,39.784,41.771,34.356,51.86s-32.946.64-53.987-15.351S499.043,821.1,504.47,811.024,525.22,801.1,546.247,817.079Z" fill="#665a40"/><path d="M569.088,803.67c-2.965,30.082,1.72,64.123,11.515,65.269,9.823,1.115,21.046-31.083,24.014-61.171s-3.444-46.653-13.24-47.791C581.551,758.851,572.062,773.58,569.088,803.67Z" fill="#665a40"/><path d="M559.391,837.625c13.38,10.175,25.337,26.576,21.887,32.985-3.467,6.415-20.983.408-34.36-9.756-13.379-10.179-17.551-20.694-14.11-27.094S546.011,827.454,559.391,837.625Z" fill="#665a40"/><path d="M573.926,829.09c-1.881,19.129,1.1,40.8,7.352,41.52s13.374-19.778,15.262-38.913c1.909-19.149-2.175-29.693-8.435-30.4C581.872,800.571,575.815,809.947,573.926,829.09Z" fill="#665a40"/><path d="M504.959,705.307c17.89,16.427,33.1,41.454,27.583,50.052s-29.719-2.489-47.59-18.893c-17.912-16.391-22.745-31.905-17.2-40.507C473.264,687.348,487.06,688.912,504.959,705.307Z" fill="#665a40"/><path d="M526.381,695.33c-4.624,26.911-2.6,58.112,6.161,60.029s20.934-26.118,25.559-53.024c4.6-26.9-.1-42.469-8.845-44.418C540.487,655.99,530.976,668.415,526.381,695.33Z" fill="#665a40"/><path d="M515.477,725.1c11.394,10.425,21.077,26.367,17.54,31.84-3.512,5.473-18.9-1.58-30.273-12.017-11.393-10.444-14.459-20.315-10.951-25.79C495.3,713.678,504.082,714.653,515.477,725.1Z" fill="#665a40"/><path d="M529.087,718.741c-2.926,17.129-1.621,36.974,3.93,38.2,5.583,1.244,13.336-16.611,16.272-33.74s-.071-27.036-5.625-28.259C538.086,693.706,532.024,701.613,529.087,718.741Z" fill="#665a40"/><path d="M475.464,594.333c15.388,15.6,28.115,38.761,22.862,46.187-5.213,7.412-26.435-3.707-41.846-19.307-15.393-15.593-19.17-29.715-13.934-37.131S460.05,578.75,475.464,594.333Z" fill="#665a40"/><path d="M494.944,586.468c-5.083,23.87-4.361,51.881,3.382,54.052,7.759,2.18,19.624-22.327,24.687-46.17s1.4-38.032-6.352-40.2S499.988,562.615,494.944,586.468Z" fill="#665a40"/><path d="M484.156,612.556c9.8,9.933,17.9,24.674,14.56,29.416-3.343,4.711-16.837-2.372-26.625-12.3-9.811-9.921-12.207-18.915-8.886-23.634C466.549,601.316,474.347,602.657,484.156,612.556Z" fill="#665a40"/><path d="M496.551,607.565c-3.234,15.194-2.779,33.018,2.165,34.407,4.943,1.37,12.485-14.2,15.69-29.381,3.233-15.187.908-24.217-4.036-25.6C505.433,585.621,499.782,592.385,496.551,607.565Z" fill="#665a40"/><path d="M463.5,490.978c10.6,17.157,17.666,40.217,11.963,45.4-5.7,5.164-22.024-9.523-32.625-26.692-10.629-17.143-11.516-30.263-5.808-35.426C442.741,469.077,452.875,473.821,463.5,490.978Z" fill="#665a40"/><path d="M481.446,488.826c-8.251,19.406-12.263,43.824-5.982,47.549s20.458-14.627,28.727-34.056,7.482-32.548,1.2-36.281S489.715,469.392,481.446,488.826Z" fill="#665a40"/><path d="M467.937,508.82c6.75,10.914,11.248,25.587,7.6,28.892-3.622,3.283-14.013-6.077-20.759-16.982-6.756-10.922-7.325-19.268-3.7-22.546C454.723,494.893,461.178,497.9,467.937,508.82Z" fill="#665a40"/><path d="M479.361,507.441c-5.256,12.356-7.81,27.9-3.821,30.271s13.031-9.311,18.291-21.678,4.762-20.7.751-23.077C490.588,490.577,484.626,495.084,479.361,507.441Z" fill="#665a40"/><path d="M456.286,392.569c9.1,14.97,15.069,35.05,10.086,39.5-4.962,4.424-19.007-8.493-28.118-23.448s-9.8-26.353-4.813-30.779S447.2,377.6,456.286,392.569Z" fill="#665a40"/><path d="M471.881,390.854c-7.3,16.773-10.91,37.913-5.509,41.213,5.431,3.269,17.838-12.512,25.119-29.287s6.682-28.158,1.281-31.463C487.34,368.035,479.166,374.084,471.881,390.854Z" fill="#665a40"/><path d="M460.029,408.087c5.783,9.526,9.593,22.3,6.413,25.116-3.168,2.834-12.1-5.381-17.881-14.9-5.806-9.53-6.245-16.771-3.069-19.6C448.647,395.9,454.222,398.557,460.029,408.087Z" fill="#665a40"/><path d="M469.93,407c-4.63,10.668-6.936,24.134-3.488,26.2,3.471,2.109,11.356-7.963,15.993-18.625s4.236-17.918.807-20.018C479.787,392.476,474.59,396.324,469.93,407Z" fill="#665a40"/><path d="M455.707,299.546c6.844,13.369,10.793,30.837,6.358,34.185-4.427,3.376-15.585-8.636-22.431-22.019-6.869-13.364-6.837-23.046-2.4-26.4C441.69,281.928,448.836,286.172,455.707,299.546Z" fill="#665a40"/><path d="M468.915,299.32c-7.036,13.611-11.25,31.2-6.85,34.411s15.711-9.176,22.755-22.784c7.061-13.636,7.163-23.323,2.769-26.532S475.981,285.7,468.915,299.32Z" fill="#665a40"/><path d="M458.015,312.957c4.363,8.518,6.876,19.636,4.05,21.744-2.832,2.157-9.913-5.47-14.279-13.989s-4.338-14.672-1.536-16.816C449.089,301.76,453.642,304.443,458.015,312.957Z" fill="#665a40"/><path d="M466.422,312.818c-4.473,8.657-7.145,19.858-4.357,21.883,2.793,2.074,10-5.822,14.483-14.5,4.471-8.652,4.541-14.814,1.75-16.858S470.912,304.147,466.422,312.818Z" fill="#665a40"/><path d="M461.543,221.358c4.615,11.631,6.588,26.286,2.737,28.584-3.827,2.285-12.053-8.671-16.665-20.3s-3.912-19.535-.059-21.828S456.922,209.722,461.543,221.358Z" fill="#665a40"/><path d="M472.309,222.542c-6.7,10.389-11.366,24.314-8.029,27.4,3.36,3.064,13.416-5.883,20.146-16.287,6.685-10.407,7.447-18.3,4.124-21.359C485.215,209.215,479.021,212.127,472.309,222.542Z" fill="#665a40"/><path d="M462.465,232.561c2.942,7.392,4.189,16.717,1.738,18.178-2.43,1.456-7.669-5.512-10.612-12.9-2.92-7.417-2.48-12.449-.024-13.9S459.518,225.157,462.465,232.561Z" fill="#665a40"/><path d="M469.311,233.307c-4.266,6.62-7.221,15.483-5.108,17.432,2.13,1.942,8.55-3.737,12.815-10.362s4.757-11.634,2.622-13.586C477.532,224.821,473.571,226.68,469.311,233.307Z" fill="#665a40"/><path d="M469.464,171.776c2.931,9.867,3.521,21.934.275,23.416-3.261,1.46-9.126-8.181-12.065-18.05s-1.825-16.179,1.429-17.672C462.349,158.006,466.511,161.932,469.464,171.776Z" fill="#665a40"/><path d="M478.045,173.793c-6.1,7.76-10.8,18.569-8.306,21.4,2.5,2.783,11.208-3.471,17.29-11.222,6.105-7.767,7.267-14.081,4.787-16.908C489.339,164.265,484.156,166.03,478.045,173.793Z" fill="#665a40"/><path d="M469.431,180.945c1.881,6.28,2.258,13.938.183,14.882-2.045.927-5.792-5.212-7.665-11.481s-1.173-10.3.9-11.235S467.569,174.671,469.431,180.945Z" fill="#665a40"/><path d="M474.924,182.217c-3.882,4.931-6.868,11.811-5.31,13.61,1.585,1.788,7.149-2.207,11.028-7.149,3.863-4.934,4.617-8.948,3.029-10.74S478.786,177.285,474.924,182.217Z" fill="#665a40"/><rect width="421.157" height="50.982" transform="translate(345.361 1115.438)" fill="#df0031"/><rect width="9.942" height="50.982" transform="translate(385.127 1115.438)" fill="#542c37"/><rect width="9.938" height="50.982" transform="translate(709.582 1115.438)" fill="#542c37"/><rect width="5.543" height="50.982" transform="translate(727.172 1115.438)" fill="#542c37"/><rect width="253.96" height="19.495" transform="translate(425.796 1131.176)" fill="#542c37"/><rect width="421.157" height="24.982" transform="translate(345.361 1141.438)" fill="#df0031" style="mix-blend-mode:multiply;isolation:isolate"/><rect width="332.124" height="25.866" transform="translate(356.659 930.528)" fill="#2f6e85"/><rect width="7.842" height="25.866" transform="translate(388.018 930.528)" fill="#25b1b6"/><rect width="7.844" height="25.866" transform="translate(643.879 930.528)" fill="#25b1b6"/><rect width="4.367" height="25.866" transform="translate(657.755 930.528)" fill="#25b1b6"/><rect width="200.273" height="9.887" transform="translate(420.091 938.518)" fill="#25b1b6"/><rect width="332.124" height="12.679" transform="translate(356.659 943.715)" fill="#2f6e85" opacity="0.5" style="mix-blend-mode:multiply;isolation:isolate"/><rect width="332.123" height="39.16" transform="translate(405.861 710.341)" fill="#542c37"/><rect width="7.842" height="39.16" transform="translate(441.653 710.341)" fill="#e4e0d0"/><rect width="7.843" height="39.16" transform="translate(697.516 710.341)" fill="#e4e0d0"/><rect width="200.272" height="11.081" transform="translate(473.726 724.379)" fill="#e4e0d0"/><rect width="332.123" height="19.191" transform="translate(405.861 730.31)" fill="#542c37" opacity="0.5" style="mix-blend-mode:multiply;isolation:isolate"/><path d="M467.632,781.434v14.225h230.41v63.169H467.632v14.225H715.884v-91.62Z" fill="#542c37"/><path d="M698.042,858.828H479.824s6.651-10.25,6.651-31.584c0-24.661-6.651-31.585-6.651-31.585H698.042v63.169Z" fill="#fff"/><g clip-path="url(#a)"><rect width="224.979" height="3.327" transform="translate(478.162 802.36)" fill="#c7d0ce"/><rect width="224.979" height="3.327" transform="translate(478.162 811.872)" fill="#c7d0ce"/><rect width="224.979" height="3.326" transform="translate(478.162 821.378)" fill="#c7d0ce"/><rect width="224.979" height="3.327" transform="translate(478.162 830.891)" fill="#c7d0ce"/><rect width="224.979" height="3.327" transform="translate(478.162 840.398)" fill="#c7d0ce"/><rect width="224.979" height="3.327" transform="translate(478.162 849.911)" fill="#c7d0ce"/></g><path d="M486.47,827.478H715.884v45.575H467.632V858.828h12.192S486.419,848.646,486.47,827.478Z" fill="#d0d7d7" opacity="0.5" style="mix-blend-mode:multiply;isolation:isolate"/><rect width="6.151" height="38.584" transform="translate(649.208 850.384) rotate(180)" fill="#df0031"/><path d="M629.643,849.941a16.487,16.487,0,1,0,16.49-16.488A16.488,16.488,0,0,0,629.643,849.941Z" fill="#df0031"/><path d="M634.7,849.941a11.43,11.43,0,1,0,11.433-11.429A11.433,11.433,0,0,0,634.7,849.941Z" fill="#f6b5c3"/><rect width="494.305" height="72.042" transform="translate(313.089 1043.393)" fill="#542c37"/><rect width="5.171" height="72.042" transform="translate(379.218 1043.393)" fill="#f5ae00"/><rect width="5.172" height="72.042" transform="translate(390.302 1043.393)" fill="#f5ae00"/><rect width="5.173" height="72.042" transform="translate(541.042 1043.393)" fill="#f5ae00"/><rect width="5.173" height="72.042" transform="translate(552.125 1043.393)" fill="#f5ae00"/><rect width="5.17" height="72.042" transform="translate(702.866 1043.393)" fill="#f5ae00"/><rect width="5.169" height="72.042" transform="translate(713.951 1043.393)" fill="#f5ae00"/><rect width="494.305" height="37.54" transform="translate(313.089 1077.895)" fill="#542c37" opacity="0.35" style="mix-blend-mode:multiply;isolation:isolate"/><path d="M339.392,1032.323H681.743s-6.651-11.389-6.651-35.081c0-27.392,6.651-35.087,6.651-35.087H339.392v70.168Z" fill="#fff"/><path d="M339.392,1032.323H681.743s-11.081-11.389-11.081-35.081c0-27.392,11.081-35.087,11.081-35.087H339.392v70.168Z" fill="none"/><g clip-path="url(#b)"><rect width="349.115" height="2.583" transform="translate(683.405 991.14) rotate(180)" fill="#c7d0ce"/><rect width="349.115" height="2.576" transform="translate(683.405 998.507) rotate(180)" fill="#c7d0ce"/><rect width="349.115" height="2.576" transform="translate(683.405 1005.875) rotate(180)" fill="#c7d0ce"/><rect width="349.115" height="2.583" transform="translate(683.405 1013.249) rotate(180)" fill="#c7d0ce"/><rect width="349.115" height="2.586" transform="translate(683.405 1020.62) rotate(180)" fill="#c7d0ce"/><rect width="349.115" height="2.572" transform="translate(683.405 1027.984) rotate(180)" fill="#c7d0ce"/><rect width="349.115" height="2.572" transform="translate(683.405 968.575) rotate(180)" fill="#c7d0ce"/><rect width="349.115" height="2.583" transform="translate(683.405 975.953) rotate(180)" fill="#c7d0ce"/><rect width="349.115" height="2.579" transform="translate(683.405 983.32) rotate(180)" fill="#c7d0ce"/></g><path d="M693.933,951.716v11.031H339.392v69.575H693.933v11.022H321.544V951.716Z" fill="#2f6e85"/><path d="M339.392,1032.323H681.743s-6.107-10.52-6.6-32.3H339.392Z" fill="#d0d7d7" opacity="0.5" style="mix-blend-mode:multiply;isolation:isolate"/><path d="M339.392,1000.027H321.544v43.317H693.933v-11.022H339.392Z" fill="#d0d7d7" opacity="0.5" style="mix-blend-mode:multiply;isolation:isolate"/><rect width="369.435" height="62.063" transform="translate(386.818 868.43)" fill="#9eff76"/><rect width="107.874" height="62.063" transform="translate(425.238 868.43)" fill="#2f6e85"/><rect width="17.732" height="62.063" transform="translate(550.847 868.43)" fill="#2f6e85"/><rect width="6.648" height="62.063" transform="translate(710.813 868.43)" fill="#2f6e85"/><path d="M501.159,901.865a20.689,20.689,0,1,1-20.69-20.686A20.687,20.687,0,0,1,501.159,901.865Z" fill="#e4e0d0"/><rect width="369.435" height="29.285" transform="translate(386.818 901.207)" fill="#00dd59"/><rect width="369.433" height="35.102" transform="translate(357.025 747.677)" fill="#25b1b6"/><rect width="107.875" height="35.102" transform="translate(395.445 747.677)" fill="#f5ae00"/><rect width="17.731" height="35.102" transform="translate(521.052 747.677)" fill="#f5ae00"/><rect width="6.65" height="35.102" transform="translate(681.018 747.677)" fill="#f5ae00"/><rect width="369.433" height="16.56" transform="translate(357.025 766.22)" fill="#25b1b6"/><path d="M620.651,1201.326c1.8-72.5,15.028-145.756,43.717-208.916,12.321-27.125,25.915-54.093,44.289-75.259,15.275-17.606,33.948-28.644,53.3-36.96,1.332-.576,2.047,2.051.711,2.629-19.813,8.515-38.3,19.946-53.91,37.928-17.648,20.337-30.505,46.929-42.415,72.844-28.678,62.419-41.723,135.71-43.51,207.524-.047,1.768-2.222,2-2.18.21Z" fill="#9dd891"/><path d="M661.025,1034.211c5.5-43.405,33.936-34.363,48.529-33.2-5.254,9.267-17.19,20.028-24.623,28.245-8.288,8.975-14.185,12.03-22.341,8.079" fill="#9dd891"/><path d="M642.628,1010.325c-9.083-8.739-18.292-19.167-23.259-36.687-4.442-16.876-5.108-42.04-5.177-61.536,6.424,6.07,12.07,19.8,18.1,26.926,5.5,6.476,11.236,13.547,14.907,23.612,4.72,14.143,5.431,35.972-4.4,46.038" fill="#9dd891"/><path d="M636.764,1129.916c5.494-43.407,33.931-34.366,48.525-33.206-5.257,9.267-17.193,20.031-24.621,28.244-8.293,8.975-14.187,12.032-22.345,8.082" fill="#9dd891"/><path d="M619.261,1119.468c-9.087-8.738-18.3-19.162-23.264-36.684-4.441-16.878-5.1-42.037-5.172-61.536,6.423,6.072,12.067,19.806,18.091,26.926,5.507,6.479,11.237,13.546,14.909,23.614,4.722,14.14,5.43,35.966-4.4,46.034" fill="#9dd891"/><path d="M687.261,953.373c7.091-13.971,22.03-27.045,31.463-27.589,6.565.033,11.512,3.966,16.924,7.6,5.15,3.447,11.051,4.281,16.146,7.076-15.489,6.464-28.886,29.307-43.819,28.043-5.389-.493-23.957-1.71-21.575-13.834" fill="#9dd891"/><path d="M678.269,934.43c-1.273-16.353-2.58-29.372-.852-46.349,1.894-18.613,5.938-32.415,12.232-48.079.142,7.26-1.851,15.283-1.762,23.09.357,5.066,1.47,8.594,2.466,13.212,1.474,8.595,1.325,15.807.666,25.16-.881,11.542-4.383,34.35-12.627,34.658" fill="#9dd891"/><path d="M761.674,881.955c11.749-40.37,39.438-24.107,57.907-21.057-15.761-3.712-44.741,56.077-57.26,23.393" fill="#9dd891"/><path d="M730.508,1234.131c1.446-72.5,12.023-145.758,34.968-208.916,9.855-27.127,20.726-54.094,35.424-75.262,12.219-17.6,27.155-28.641,42.628-36.957,1.067-.576,1.639,2.049.569,2.627-15.848,8.518-30.634,19.949-43.118,37.932-14.116,20.338-24.4,46.926-33.927,72.842-22.936,62.42-33.371,135.71-34.8,207.523-.039,1.771-1.778,2-1.746.211Z" fill="#2ae8d9"/><path d="M762.8,1067.015c4.4-43.407,27.143-34.363,38.816-33.206-4.2,9.27-13.751,20.029-19.7,28.247-6.627,8.973-11.342,12.029-17.869,8.077" fill="#2ae8d9"/><path d="M748.087,1043.128c-7.264-8.74-14.63-19.168-18.6-36.686-3.555-16.876-4.085-42.038-4.14-61.536,5.138,6.07,9.655,19.8,14.472,26.926,4.4,6.476,8.989,13.548,11.926,23.612,3.775,14.14,4.343,35.969-3.517,46.04" fill="#2ae8d9"/><path d="M743.4,1162.72c4.4-43.407,27.137-34.365,38.811-33.208-4.2,9.271-13.752,20.03-19.691,28.247-6.637,8.976-11.349,12.03-17.875,8.079" fill="#2ae8d9"/><path d="M729.4,1152.272c-7.265-8.74-14.632-19.164-18.6-36.686-3.554-16.876-4.085-42.036-4.137-61.536,5.137,6.072,9.651,19.808,14.469,26.929,4.405,6.474,8.99,13.546,11.926,23.613,3.778,14.138,4.343,35.966-3.519,46.033" fill="#2ae8d9"/><path d="M783.787,986.177c5.671-13.972,17.622-27.044,25.166-27.588,5.251.032,9.208,3.964,13.535,7.6,4.12,3.445,8.839,4.279,12.917,7.074-12.393,6.465-23.107,29.309-35.05,28.042-4.311-.491-19.162-1.707-17.257-13.832" fill="#2ae8d9"/><path d="M776.6,967.236c-1.017-16.358-2.063-29.374-.682-46.352a199.235,199.235,0,0,1,9.783-48.075c.111,7.258-1.479,15.277-1.41,23.088.288,5.062,1.174,8.594,1.973,13.21,1.177,8.6,1.06,15.806.533,25.163-.706,11.542-3.506,34.349-10.1,34.656" fill="#2ae8d9"/><path d="M843.3,914.759c9.4-40.369,31.544-24.107,46.315-21.057-12.609-3.714-35.789,56.078-45.8,23.391" fill="#2ae8d9"/><path d="M191.468,1094.929s-27.052,12.974-27.456,48.484,13.3,63.274,54.331,79.111,88.209,22.961,105.678,12.179c17.475-10.766,30.647-51.187,31.187-76.888s-.347-63.72-26.193-67.32S191.468,1094.929,191.468,1094.929Z" fill="#91a749"/><path d="M314.308,1181.356c6.834-21.436,23.877-65.515,12.381-87.759a29.825,29.825,0,0,0-2.208-3.559c-32.264-2.36-133.013,4.891-133.013,4.891a48.5,48.5,0,0,0-13.786,11.18c-5.615,23.858-11.49,71.013,24.644,85.311C251.4,1210.841,307.478,1202.79,314.308,1181.356Z" fill="#7f9133"/><path d="M165.37,1130.858s-22.156-2.606-24.973,9.564,24.449,18.564,24.449,18.564l-.544-5.525s-16.794-4.136-18.361-9.111,5.7-11.093,18.545-8.18Z" fill="#91a749"/><path d="M268.43,1188.786l.053-.667,8.063-97.523c.074-.141,7.451-13.834,21.97-17.18a30.463,30.463,0,0,1,11.991-.279c21.8,3.686,23.2,12.909,25.338,26.878l.272,1.789c2.415,15.574.092,49.666-10.8,56.417a23.823,23.823,0,0,1-7.274,2.881,69.583,69.583,0,0,1-8.435,1.225,70.3,70.3,0,0,0-8.638,1.25,23.481,23.481,0,0,0-11.5,5.975c-10.7,10.247-20.445,18.708-20.542,18.8Zm8.629-97.983-7.976,96.681c2.139-1.867,10.713-9.42,20.016-18.325a24.047,24.047,0,0,1,11.752-6.112,71.939,71.939,0,0,1,8.706-1.265,69.929,69.929,0,0,0,8.367-1.21,23.214,23.214,0,0,0,7.107-2.814c10.3-6.383,13-40.059,10.544-55.869l-.273-1.8c-2.094-13.726-3.476-22.8-24.886-26.418a30.005,30.005,0,0,0-11.777.279C284.8,1077.141,277.548,1089.915,277.059,1090.8Z" fill="#fff"/><path d="M268.756,1188.141s-63.818,5.428-82.508-13.869-14.438-45.585-10.082-62.048,27.783-25.793,46.342-26.981,55.021,4.23,55.021,4.23Z" fill="#6f6130"/><path d="M269.007,1188.392l-.224.021c-.643.052-64.164,5.223-82.733-13.955-14.076-14.536-17.4-34.92-10.148-62.305,3.621-13.686,20.272-22.1,34.644-25.407a74.264,74.264,0,0,1,11.946-1.775c18.374-1.173,54.713,4.178,55.08,4.235l.255.036-.019.258Zm-58.339-101.117c-14.219,3.277-30.676,11.565-34.241,25.016-7.19,27.188-3.914,47.4,10.02,61.789,17.824,18.4,77.838,14.134,82.057,13.8l8.732-98.177c-3.289-.472-37.2-5.3-54.71-4.186A73.448,73.448,0,0,0,210.668,1087.275Z" fill="#fff"/><path d="M176.166,1112.224c-3.444,13.012-6.809,32.138,1.144,49.126-.034-.243-3.135-35.342,10.644-49.23,18.311-18.448,68.01-10.439,87.832-9.238l1.743-13.409s-36.461-5.41-55.021-4.23S180.525,1095.761,176.166,1112.224Z" fill="#c4ae5b" style="mix-blend-mode:multiply;isolation:isolate"/><path d="M224.176,1207.584l11.225,1.533s38.225,35.784,48.356,29.325,12.022-17.753,12.022-17.753l12.7,3.065s2.01,16.027-6.079,22.391-23.4,13.048-23.4,13.048l-11.433-9.7s-19.671-14.615-20.519-15.054-13.085-12.056-13.085-12.056Z" fill="#8e7c39"/><path d="M224.176,1207.584l2.378,10.321s44.164,50.155,63.028,40.939,21.191-25.125,21.191-25.125l-2.3-9.965s-3.913,22.274-21.14,26.987S224.176,1207.584,224.176,1207.584Z" fill="#8ba84c"/><path d="M221.48,1112.292l-9.1,1.127-3.944,61.622,5.411-3.476Z" fill="#aa9143"/><path d="M275.4,1169.445l1,8.068-67.968-2.473,5.411-3.476Z" fill="#aa9143"/><path d="M219.422,1114.614l-5.572.691-3.1,58.249,3.094-1.988Z" fill="#fff"/><path d="M219.561,1107.934l-5.718,63.631,62.1,2.237,7.3-59.795Z" fill="#c4ae5b"/><path d="M268.756,1188.141l8.034-97.422s11.152-21.119,33.672-17.312,23.07,13.516,25.385,28.436.151,49.442-10.67,56.144c-10.821,6.718-25.066,1-35.888,11.369S268.756,1188.141,268.756,1188.141Z" fill="#c4ae5b"/><path d="M267.979,1188.2s-2.566,1.025-.719,4.466,5.675,10.288,5.675,10.288l4.665-2.623-6.06-11.041A2.419,2.419,0,0,0,267.979,1188.2Z" fill="#fff"/><path d="M506.513,726.947l-39.72-11.431a17.067,17.067,0,0,1-11.678-21.12l1.505-5.221A17.063,17.063,0,0,1,477.739,677.5l38.9,11.2C518.515,702.676,516.307,716.967,506.513,726.947Z" fill="#fdd0a2"/><path d="M516.641,688.694l6.017,1.73c1.818,13.668-1.6,28.313-10.846,38.046l-5.3-1.523C516.307,716.967,518.515,702.676,516.641,688.694Z" fill="#cdf7f5"/><path d="M522.658,690.424l29.284,8.429a17.06,17.06,0,0,1,11.677,21.12l-1.5,5.22A17.06,17.06,0,0,1,541,736.871l-29.187-8.4C521.057,718.737,524.476,704.092,522.658,690.424Z" fill="#fff"/><path d="M549.235,743.984c12.919,3.719,20.557-5.422,24.275-18.338s2.1-24.72-10.812-28.439-24.452,4.3-28.169,17.219S536.316,740.267,549.235,743.984Z" fill="#fff"/><path d="M545.705,742.97c12.915,3.714,20.552-5.425,24.269-18.342s2.108-24.719-10.807-28.437-24.455,4.3-28.171,17.22S532.785,739.249,545.705,742.97Z" fill="#00d6ce"/><path d="M543.077,728.388a2.126,2.126,0,0,0,2.628-1.453l5-17.374a2.121,2.121,0,0,0-1.455-2.629h0a2.121,2.121,0,0,0-2.627,1.455l-5,17.371a2.126,2.126,0,0,0,1.456,2.63Z" fill="#2e1036"/><path d="M536.472,725.152a1.9,1.9,0,0,0,2.347-1.3l4.463-15.507a1.894,1.894,0,0,0-1.3-2.346h0a1.893,1.893,0,0,0-2.346,1.3l-4.464,15.509a1.894,1.894,0,0,0,1.3,2.344Z" fill="#2e1036"/><path d="M532.56,720.147a1.316,1.316,0,0,0,1.625-.9l3.087-10.732a1.311,1.311,0,0,0-.9-1.623h0a1.313,1.313,0,0,0-1.624.9l-3.089,10.729a1.315,1.315,0,0,0,.9,1.625Z" fill="#2e1036"/><path d="M467.014,715.578l-.221-.062a17.067,17.067,0,0,1-11.678-21.12l1.505-5.221A17.063,17.063,0,0,1,477.739,677.5l.218.062a52.52,52.52,0,0,0-10.943,38.019Z" fill="#00d6ce" stroke="#00d6ce" stroke-linecap="round" stroke-linejoin="round" stroke-width="4"/><path d="M537.717,538.327l43.463,1.723,30.905,31.714-3.764,48.148,10.022,31.922s-102.087,19.483-120.249-6.492l18.79-83.867Z" fill="#ff6f00"/><path d="M537.717,538.327s-32.081,4.965-43.1,16.527-29.46,44.069-29.46,44.069l28.819,22.969s-18.629,44.454-26.773,54.836c0,0,33.348,3.891,59.939-6.579C527.143,670.149,521.791,563.627,537.717,538.327Z" fill="#c1272d"/><path d="M581.18,540.05s32.427,2.916,44.394,13.747,37.374,37.817,37.374,37.817l-31.014,28.995s22.37,43.143,31.37,52.981c0,0-32.924,6-60.333-2.746C602.971,670.844,599.222,564.272,581.18,540.05Z" fill="#c1272d"/><path d="M579.615,537.139c0,9.565-8.975,17.311-20.035,17.311h0c-11.061,0-20.03-7.746-20.03-17.311v-16.25c0-9.555,8.969-17.306,20.03-17.306h0c11.06,0,20.035,7.751,20.035,17.306Z" fill="#f8a992"/><path d="M537.717,538.327s-18.642,21.025-23.18,33.634l6.928,1.782-3.273,6.8,8.634,28.921S526.128,563.642,537.717,538.327Z" fill="#f8a992"/><path d="M581.18,540.05s18.643,21.034,23.184,33.634l-6.926,1.789,3.269,6.788-8.638,28.914S592.772,565.368,581.18,540.05Z" fill="#f8a992"/><path d="M488.74,665.589c-18.35-6.953-24.894-19.515-27.153-28.834-7.965-32.832,26.8-73.576,33.845-81.413l25.323,22.784-12.66-11.39,12.674,11.372C508.1,592.248,492,617.7,494.692,628.739c.212.879.718,2.952,6.108,5Z" fill="#f8a992"/><path d="M647.5,658.947,635.553,627.4c3.383-1.28,5.266-2.681,5.591-4.182,1.99-9.184-13.088-32.18-27.86-47.075l23.9-23.793c7.373,7.416,43.828,45.966,36.919,77.978C672.116,639.54,665.893,651.978,647.5,658.947Z" fill="#fac7ab"/><path d="M470.562,548.866s82.636-4.282,95.29,25.125h0c13.215-28.866,95.529-24.233,95.529-24.233l-11.433,39.128-166.484,1.891" fill="#fdfcf2"/><path d="M470.562,548.866l-.59,125.546,77.953,33.38.635-135.055Z" fill="#ed7548"/><path d="M661.385,549.758l-.591,125.547-78.267,32.653.632-135.052Z" fill="#ed7548"/><path d="M566.179,577.035c-.117,0-.221-.009-.337-.009s-.223.012-.339.005v-.007c-12.264-.212-16.938-4.24-16.938-4.24l-.64,135.009s4.679,4.034,16.945,4.236l0,.013c.115,0,.223-.008.338-.01s.219.013.339.013v-.01c12.266-.091,16.982-4.077,16.982-4.077l.632-135.017s-4.71,3.987-16.983,4.083Z" fill="#005d87"/><path d="M565.929,630.107c-.116,0-.222,0-.34-.006s-.219.006-.334.009v-.02c-12.268-.206-16.943-4.237-16.943-4.237l-.041,8.333s4.678,4.033,16.945,4.243v.005c.113.006.222,0,.338,0s.22.011.337.011l0-.015c12.268-.09,16.983-4.076,16.983-4.076l.036-8.332S578.2,630,565.929,630.1Z" fill="#fdcc49"/><path d="M566.052,604.412c-.119,0-.223,0-.336-.012s-.226.006-.341.012v-.019c-12.265-.2-16.946-4.232-16.946-4.232l-.038,8.331s4.679,4.033,16.946,4.24v.012c.114.005.223,0,.337,0s.22.01.338.009v-.011c12.267-.092,16.981-4.081,16.981-4.081l.039-8.334s-4.714,3.982-16.98,4.075Z" fill="#fdcc49"/><path d="M597.313,594.212l48.96-13.966-.336,71.762-46.895,18.424" fill="#fdcc49"/><path d="M672.188,633.846a30.347,30.347,0,0,0-.312-5.767c-.694-4.23-3.414-5.613-6.651-8.145-2.049-1.6-17.512-10.291-19.71-7.4-7.226,9.454,6.71,8.568,11.239,15.368-7.769-.69-28.677-7.946-31.147-1.728-3.738,9.287,16.693,9.139,21.6,14.13-4.157,2.051-21.874-4.593-24.213-.153-4.757,9.069,17.936,11.615,22.8,14.546.653,7.012-14.205-6-16.989,5.044.232,2.936,8.492,5.883,10.582,6.477a31.464,31.464,0,0,0,17.392.211c10.509-3.2,13.346-14.533,14.664-24.257A71.942,71.942,0,0,0,672.188,633.846Z" fill="#fac7ab"/><path d="M463.4,636a28.453,28.453,0,0,1,.453-5.746c.789-4.212,3.531-5.536,6.825-7.993,2.1-1.543,17.756-9.892,19.885-6.936,7,9.62-6.9,8.4-11.6,15.112,7.792-.513,28.858-7.3,31.187-1.013,3.515,9.371-16.9,8.745-21.922,13.626,4.1,2.142,21.977-4.093,24.2.4,4.549,9.183-18.2,11.194-23.122,14.013-.8,6.992,14.346-5.674,16.87,5.438-.3,2.932-8.636,5.688-10.718,6.222a31.455,31.455,0,0,1-17.4-.179c-10.436-3.45-13.014-14.839-14.1-24.6A71.729,71.729,0,0,1,463.4,636Z" fill="#fac7ab"/><path d="M628.26,723.786l39.716-11.431a17.064,17.064,0,0,0,11.678-21.118l-1.5-5.223a17.063,17.063,0,0,0-21.116-11.679l-38.9,11.2C616.258,699.513,618.465,713.806,628.26,723.786Z" fill="#fdd0a2"/><path d="M618.131,685.535l-6.018,1.73c-1.818,13.669,1.6,28.313,10.845,38.046l5.3-1.525C618.465,713.806,616.258,699.513,618.131,685.535Z" fill="#cdf7f5"/><path d="M612.113,687.265l-29.284,8.429a17.062,17.062,0,0,0-11.679,21.117l1.5,5.223a17.065,17.065,0,0,0,21.118,11.679l29.186-8.4C613.714,715.578,610.295,700.934,612.113,687.265Z" fill="#fff"/><path d="M585.536,740.825c-12.917,3.718-20.555-5.424-24.273-18.34s-2.107-24.721,10.812-28.437,24.451,4.3,28.169,17.216S598.456,737.1,585.536,740.825Z" fill="#fff"/><path d="M589.067,739.806c-12.915,3.72-20.553-5.422-24.267-18.337s-2.111-24.721,10.8-28.438,24.456,4.3,28.171,17.218S601.986,736.089,589.067,739.806Z" fill="#00d6ce"/><path d="M591.7,725.228a2.126,2.126,0,0,1-2.629-1.454l-5-17.373a2.123,2.123,0,0,1,1.456-2.63h0a2.12,2.12,0,0,1,2.625,1.455l5,17.374a2.127,2.127,0,0,1-1.454,2.628Z" fill="#2e1036"/><path d="M598.3,721.993a1.9,1.9,0,0,1-2.347-1.3l-4.463-15.509a1.9,1.9,0,0,1,1.3-2.346h0a1.9,1.9,0,0,1,2.347,1.3l4.462,15.507a1.9,1.9,0,0,1-1.3,2.347Z" fill="#2e1036"/><path d="M602.212,716.985a1.312,1.312,0,0,1-1.625-.9L597.5,705.357a1.308,1.308,0,0,1,.9-1.621h0a1.314,1.314,0,0,1,1.626.9l3.088,10.729a1.313,1.313,0,0,1-.9,1.624Z" fill="#2e1036"/><path d="M667.759,712.417l.217-.062a17.064,17.064,0,0,0,11.678-21.118l-1.5-5.223a17.063,17.063,0,0,0-21.116-11.679l-.22.061a52.564,52.564,0,0,1,10.944,38.021Z" fill="#00d6ce" stroke="#00d6ce" stroke-linecap="round" stroke-linejoin="round" stroke-width="4"/><path d="M493.388,426.412V475.7H625.059V426.412a18.076,18.076,0,0,0-18.075-18.078h-95.52A18.078,18.078,0,0,0,493.388,426.412Z" fill="#111028"/><path d="M623.15,491.657H611.832V473.142H623.15a9.255,9.255,0,0,1,9.256,9.257h0A9.256,9.256,0,0,1,623.15,491.657Z" fill="#f7bf94"/><path d="M622.314,478.007h-7.9v9.766h7.9a4.883,4.883,0,1,0,0-9.766Z" fill="#d6915e"/><path d="M495.3,491.657h11.316V473.142H495.3a9.256,9.256,0,0,0-9.259,9.257h0A9.257,9.257,0,0,0,495.3,491.657Z" fill="#f7bf94"/><path d="M496.133,478.007h7.9v9.766h-7.9a4.883,4.883,0,0,1,0-9.766Z" fill="#d6915e"/><path d="M48.333,0H62.046a48.331,48.331,0,0,1,48.331,48.331V77.07A48.331,48.331,0,0,1,62.046,125.4H48.333A48.333,48.333,0,0,1,0,77.067V48.333A48.333,48.333,0,0,1,48.333,0Z" transform="translate(504.036 413.004)" fill="#f7bf94"/><path d="M545.309,465.838a4.081,4.081,0,0,1-2.174-.624,21.1,21.1,0,0,0-21.9,0,4.115,4.115,0,1,1-4.355-6.983,29.1,29.1,0,0,1,30.61,0,4.115,4.115,0,0,1-2.18,7.607Z" fill="#793d1a"/><path d="M532.184,470.239h0a7.05,7.05,0,0,0-7.054,7.049v1.438a7.052,7.052,0,0,0,7.054,7.053h0a7.054,7.054,0,0,0,7.054-7.053v-1.438A7.052,7.052,0,0,0,532.184,470.239Z" fill="#4b4145"/><path d="M540.363,487.982H523.905a2.2,2.2,0,0,1-2.2-2.2h0a2.2,2.2,0,0,1,2.2-2.2h16.458a2.206,2.206,0,0,1,2.208,2.2h0A2.2,2.2,0,0,1,540.363,487.982Z" fill="#e5a16e"/><path d="M599.387,465.838a4.076,4.076,0,0,1-2.173-.624,21.105,21.105,0,0,0-21.9,0,4.114,4.114,0,1,1-4.353-6.983,29.1,29.1,0,0,1,30.613,0,4.115,4.115,0,0,1-2.184,7.607Z" fill="#793d1a"/><path d="M586.263,470.239h0a7.052,7.052,0,0,1,7.055,7.049v1.438a7.054,7.054,0,0,1-7.055,7.053h0a7.054,7.054,0,0,1-7.054-7.053v-1.438A7.051,7.051,0,0,1,586.263,470.239Z" fill="#4b4145"/><path d="M578.082,487.982h16.459a2.2,2.2,0,0,0,2.2-2.2h0a2.2,2.2,0,0,0-2.2-2.2H578.082a2.206,2.206,0,0,0-2.2,2.2h0A2.2,2.2,0,0,0,578.082,487.982Z" fill="#e5a16e"/><rect width="15.936" height="5.929" transform="translate(599.131 470.781)" fill="#907794"/><rect width="12.85" height="5.929" transform="translate(503.38 470.781)" fill="#907794"/><path d="M496.821,439.781V479.67a5.08,5.08,0,1,0,10.161,0V439.781Z" fill="#111028"/><path d="M611.463,439.781V479.67a5.081,5.081,0,1,0,10.162,0V439.781Z" fill="#111028"/><path d="M563.3,478.531H552.9a1.421,1.421,0,1,1,0-2.841h10.4a1.421,1.421,0,1,1,0,2.841Z" fill="#907794"/><path d="M540.932,499.1H528.366a13.025,13.025,0,0,1-13.011-13.011V467.771a13.026,13.026,0,0,1,13.011-13.012h12.566a13.028,13.028,0,0,1,13.014,13.012v18.317A13.027,13.027,0,0,1,540.932,499.1Zm-12.566-41.45a10.132,10.132,0,0,0-10.122,10.122v18.317A10.13,10.13,0,0,0,528.366,496.2h12.566a10.128,10.128,0,0,0,10.122-10.117V467.771a10.131,10.131,0,0,0-10.122-10.122Z" fill="#907794"/><path d="M587.682,499.1H575.119A13.03,13.03,0,0,1,562.1,486.088V467.771a13.031,13.031,0,0,1,13.016-13.012h12.563A13.028,13.028,0,0,1,600.7,467.771v18.317A13.027,13.027,0,0,1,587.682,499.1Zm-12.563-41.45A10.131,10.131,0,0,0,565,467.771v18.317a10.128,10.128,0,0,0,10.12,10.117h12.563A10.13,10.13,0,0,0,597.8,486.088V467.771a10.132,10.132,0,0,0-10.123-10.122Z" fill="#907794"/><path d="M645.046,413c0,14.632-10.08,26.491-22.516,26.491H535.886c-12.434,0-22.512-11.859-22.512-26.491h0c0-14.631,10.078-26.49,22.512-26.49H622.53c12.436,0,22.516,11.859,22.516,26.49Z" fill="#111028"/><path d="M529.262,400.88a13.391,13.391,0,1,1-13.392-13.387A13.392,13.392,0,0,1,529.262,400.88Z" fill="#111028"/><path d="M511.9,411.692a10.919,10.919,0,1,1-10.92-10.918A10.92,10.92,0,0,1,511.9,411.692Z" fill="#111028"/><path d="M508.722,395.074s-4.5-18.638,13.176-26.027c0,0-2.97,17.353,1.066,26.83s-14.751,5.462-14.751,5.462Z" fill="#111028"/><path d="M504.084,405.41s-17.492-7.846-12.522-26.344c0,0,11.91,12.967,21.873,15.573s-4.709,15.011-4.709,15.011Z" fill="#111028"/><path d="M599.265,473.34a2.694,2.694,0,1,0,2.693,2.7A2.7,2.7,0,0,0,599.265,473.34Z" fill="#f2ecf3" opacity="0.54"/><path d="M586.5,493.807a2.834,2.834,0,0,1-2.005-4.841l8.557-8.556a2.836,2.836,0,0,1,4.01,4.012l-8.556,8.558A2.83,2.83,0,0,1,586.5,493.807Z" fill="#f2ecf3" opacity="0.54"/><path d="M547.783,473.34a2.694,2.694,0,1,0,2.7,2.7A2.694,2.694,0,0,0,547.783,473.34Z" fill="#f2ecf3" opacity="0.54"/><path d="M535.021,493.807a2.834,2.834,0,0,1-2.007-4.841l8.559-8.556a2.837,2.837,0,0,1,4.011,4.012l-8.559,8.558A2.824,2.824,0,0,1,535.021,493.807Z" fill="#f2ecf3" opacity="0.54"/><path d="M538.017,504.71h42.414s-.89,19.869-21.111,20.574S538.017,504.71,538.017,504.71Z" fill="#d8365a"/><path d="M559.32,525.284c5.984-.208,10.262-2.1,13.339-4.655-2.376-3.653-7.446-6.188-13.339-6.188-6.119,0-11.369,2.726-13.615,6.614C548.821,523.682,553.185,525.5,559.32,525.284Z" fill="#f27581"/><path d="M579.506,509.686a23.908,23.908,0,0,0,.925-4.976H538.017a26.144,26.144,0,0,0,.887,4.976Z" fill="#faf6db"/><path d="M453.336,985.529s2.539,59.182-6.582,81.5c0,0,11.1-8.391,13.91-30.391,0,0-.144,25.537-5.251,30.391h59.608v-81.5Z" fill="#252926" fill-rule="evenodd"/><path d="M601.312,985.529s-2.542,59.182,6.578,81.5c0,0-11.094-8.391-13.906-30.391,0,0,.141,25.537,5.251,30.391H539.624v-81.5Z" fill="#252926" fill-rule="evenodd"/><path d="M470.738,1073.815s23.16-25.778,50.432-35.488l15.318-1.869s36.982,13.45,61.64,38.477l-62.013,38.48Z" fill="#753e22"/><g clip-path="url(#c)"><path d="M517.275,1052.911a22.046,22.046,0,0,0-8.911,1.422,35.565,35.565,0,0,0-9.147,6.08,51.627,51.627,0,0,0-13.913,19.908h.349a50.9,50.9,0,0,1,13.795-19.682,35.14,35.14,0,0,1,8.789-5.908,22.207,22.207,0,0,1,9.038-1.493A.164.164,0,0,0,517.275,1052.911Z" fill="#9b7d7c"/><path d="M497.118,1064.849c2.463-4.505,6.1-2.1,8.1-1.244a26.381,26.381,0,0,1-4.554,1.884c-1.513.579-2.457.62-3.445-.221" fill="#9b7d7c"/><path d="M495.472,1061.3a9.223,9.223,0,0,1-1.829-5.2,25.872,25.872,0,0,1,1.68-7.03c.663.99.918,2.783,1.484,3.866a8.847,8.847,0,0,1,1.167,3.337c.111,1.794-.647,4.233-2.415,4.85" fill="#9b7d7c"/><path d="M489.978,1074.175c2.466-4.505,6.1-2.092,8.1-1.243a26.282,26.282,0,0,1-4.552,1.891c-1.513.572-2.459.616-3.446-.223" fill="#9b7d7c"/><path d="M487.935,1072.157a9.176,9.176,0,0,1-1.828-5.2,25.767,25.767,0,0,1,1.68-7.026c.662.983.916,2.777,1.482,3.858a8.909,8.909,0,0,1,1.168,3.343c.107,1.791-.645,4.228-2.416,4.85" fill="#9b7d7c"/><path d="M503.953,1057.25c1.536-1.182,4.141-1.878,5.485-1.468a5.294,5.294,0,0,1,2.075,1.678c.587.636,1.383,1.018,1.987,1.581-2.424-.059-5.194,1.79-7.235.907-.736-.326-3.29-1.378-2.485-2.595" fill="#9b7d7c"/><path d="M503.431,1054.72a22.136,22.136,0,0,1,1.69-5.141,16.08,16.08,0,0,1,3.594-4.686c-.262.806-.856,1.591-1.151,2.453a8.034,8.034,0,0,0-.169,1.575,9.1,9.1,0,0,1-.89,2.8c-.574,1.229-1.955,3.563-3.123,3.191" fill="#9b7d7c"/><path d="M517.169,1053.093c3.223-3.864,6.47-.694,8.938.557-2.066-1.19-8.462,3.952-8.938-.268" fill="#9b7d7c"/><path d="M487.92,1027.791a22.134,22.134,0,0,0,7.322,5.278,35.752,35.752,0,0,0,10.779,2.127,51.651,51.651,0,0,0,23.894-4.321l-.241-.245a50.92,50.92,0,0,1-23.657,4.239,35.081,35.081,0,0,1-10.4-2,22.28,22.28,0,0,1-7.465-5.309C488.007,1027.418,487.774,1027.645,487.92,1027.791Z" fill="#9b7d7c"/><path d="M510.636,1033.53c-4.923,1.456-5.806-2.812-6.62-4.825a26.172,26.172,0,0,1,4.559,1.871c1.479.657,2.181,1.286,2.288,2.585" fill="#9b7d7c"/><path d="M509.308,1037.2a9.241,9.241,0,0,1-2.366,4.975,25.82,25.82,0,0,1-6.145,3.8c.224-1.168,1.306-2.62,1.669-3.786a8.854,8.854,0,0,1,1.525-3.193c1.185-1.35,3.44-2.549,5.131-1.74" fill="#9b7d7c"/><path d="M522.274,1031.938c-4.924,1.457-5.8-2.81-6.621-4.823a25.958,25.958,0,0,1,4.559,1.871c1.481.655,2.181,1.291,2.289,2.584" fill="#9b7d7c"/><path d="M522.3,1034.812a9.22,9.22,0,0,1-2.361,4.976,25.958,25.958,0,0,1-6.148,3.805c.225-1.166,1.307-2.618,1.667-3.788a8.892,8.892,0,0,1,1.528-3.192c1.183-1.349,3.438-2.55,5.131-1.741" fill="#9b7d7c"/><path d="M500.434,1034.1c-1.925-.242-4.263-1.583-4.929-2.823a5.32,5.32,0,0,1-.293-2.649c.034-.862-.258-1.7-.292-2.522,1.679,1.747,4.945,2.387,5.775,4.454.3.745,1.363,3.3-.07,3.593" fill="#9b7d7c"/><path d="M499.019,1036.264a21.84,21.84,0,0,1-4.822,2.46,16.021,16.021,0,0,1-5.849.793c.752-.385,1.727-.522,2.541-.931a7.777,7.777,0,0,0,1.233-1,9.037,9.037,0,0,1,2.6-1.362c1.272-.467,3.9-1.15,4.463-.061" fill="#9b7d7c"/><path d="M488.123,1027.74c-5.007.471-5.076-4.066-5.945-6.693.624,2.3,8.783,3.158,6.151,6.491" fill="#9b7d7c"/><path d="M528.573,1006.259a22.1,22.1,0,0,0-7.969-4.234,35.682,35.682,0,0,0-10.966-.644,51.657,51.657,0,0,0-23.089,7.52l.277.21a50.9,50.9,0,0,1,22.859-7.409,34.76,34.76,0,0,1,10.574.574,22.168,22.168,0,0,1,8.12,4.24A.161.161,0,0,0,528.573,1006.259Z" fill="#9b7d7c"/><path d="M505.291,1003.657c4.68-2.111,6.132,2,7.215,3.883a26.361,26.361,0,0,1-4.771-1.24c-1.552-.447-2.335-.978-2.618-2.247" fill="#9b7d7c"/><path d="M506.111,999.837a9.225,9.225,0,0,1,1.668-5.249,25.927,25.927,0,0,1,5.572-4.605c-.064,1.188-.941,2.775-1.14,3.978a8.881,8.881,0,0,1-1.079,3.373c-.988,1.493-3.06,2.99-4.846,2.418" fill="#9b7d7c"/><path d="M493.977,1006.813c4.68-2.115,6.132,2,7.214,3.88a26.547,26.547,0,0,1-4.77-1.234c-1.553-.452-2.336-.984-2.62-2.254" fill="#9b7d7c"/><path d="M493.562,1003.968a9.2,9.2,0,0,1,1.665-5.251,25.967,25.967,0,0,1,5.572-4.6c-.065,1.19-.943,2.775-1.14,3.981a8.8,8.8,0,0,1-1.077,3.366c-.99,1.5-3.064,2.995-4.846,2.424" fill="#9b7d7c"/><path d="M515.322,1001.706c1.941-.02,4.44.992,5.265,2.127a5.34,5.34,0,0,1,.651,2.587c.086.863.489,1.649.632,2.459-1.9-1.505-5.224-1.7-6.324-3.63-.4-.7-1.8-3.082-.423-3.567" fill="#9b7d7c"/><path d="M516.431,999.372a21.744,21.744,0,0,1,4.444-3.091,16.12,16.12,0,0,1,5.687-1.579c-.693.484-1.637.753-2.393,1.264a8.722,8.722,0,0,0-1.085,1.159,8.956,8.956,0,0,1-2.4,1.707c-1.2.631-3.708,1.666-4.412.661" fill="#9b7d7c"/><path d="M528.38,1006.337c4.9-1.141,5.585,3.343,6.8,5.827-.927-2.2-9.128-1.94-6.968-5.593" fill="#9b7d7c"/><path d="M549.169,1020.348a22.044,22.044,0,0,0,2.373-8.707,35.3,35.3,0,0,0-1.77-10.837,51.611,51.611,0,0,0-12.4-20.878l-.146.315a50.9,50.9,0,0,1,12.247,20.677,34.853,34.853,0,0,1,1.762,10.442,22.179,22.179,0,0,1-2.356,8.851A.163.163,0,0,0,549.169,1020.348Z" fill="#9b7d7c"/><path d="M546.6,997.062c3.084,4.1-.6,6.42-2.2,7.891a25.9,25.9,0,0,1,.156-4.926c.1-1.615.448-2.5,1.621-3.05" fill="#9b7d7c"/><path d="M550.5,997.02a9.224,9.224,0,0,1,5.488.477,25.87,25.87,0,0,1,5.717,4.423c-1.173.2-2.912-.3-4.13-.236a8.926,8.926,0,0,1-3.529-.312c-1.675-.64-3.587-2.33-3.423-4.2" fill="#9b7d7c"/><path d="M541.034,986.712c3.091,4.105-.6,6.422-2.2,7.892a26.5,26.5,0,0,1,.16-4.926c.1-1.616.447-2.494,1.62-3.051" fill="#9b7d7c"/><path d="M543.716,985.682a9.169,9.169,0,0,1,5.489.478,25.751,25.751,0,0,1,5.715,4.421c-1.173.2-2.911-.3-4.13-.237a8.894,8.894,0,0,1-3.527-.312c-1.678-.64-3.59-2.33-3.427-4.2" fill="#9b7d7c"/><path d="M550.7,1006.418c.449,1.891.006,4.55-.917,5.6a5.268,5.268,0,0,1-2.385,1.2c-.82.273-1.5.838-2.258,1.163,1.051-2.187.505-5.472,2.151-6.972.594-.539,2.616-2.431,3.393-1.192" fill="#9b7d7c"/><path d="M553.221,1006.986a21.717,21.717,0,0,1,3.993,3.662,16.051,16.051,0,0,1,2.786,5.2c-.62-.571-1.093-1.435-1.757-2.059a8.745,8.745,0,0,0-1.371-.8,8.909,8.909,0,0,1-2.184-1.965c-.886-1.028-2.445-3.247-1.62-4.159" fill="#9b7d7c"/><path d="M549.046,1020.173c2.193,4.53-2.03,6.182-4.192,7.915,1.936-1.388-.109-9.332,3.929-8.03" fill="#9b7d7c"/><path d="M545.751,1062.3a21.979,21.979,0,0,0,2.378-8.7,35.538,35.538,0,0,0-1.774-10.841,51.628,51.628,0,0,0-12.407-20.878l-.142.319a50.916,50.916,0,0,1,12.249,20.677,35.239,35.239,0,0,1,1.765,10.442,22.223,22.223,0,0,1-2.364,8.851A.162.162,0,0,0,545.751,1062.3Z" fill="#9b7d7c"/><path d="M543.179,1039.017c3.092,4.1-.6,6.417-2.2,7.891a25.993,25.993,0,0,1,.159-4.926c.1-1.613.445-2.5,1.618-3.048" fill="#9b7d7c"/><path d="M547.083,1038.978a9.226,9.226,0,0,1,5.49.477,25.675,25.675,0,0,1,5.718,4.426c-1.174.2-2.915-.311-4.133-.24a8.964,8.964,0,0,1-3.527-.311c-1.678-.64-3.587-2.331-3.424-4.2" fill="#9b7d7c"/><path d="M537.62,1028.669c3.087,4.1-.6,6.42-2.205,7.894a26.257,26.257,0,0,1,.159-4.928c.1-1.616.45-2.5,1.619-3.049" fill="#9b7d7c"/><path d="M540.3,1027.641a9.186,9.186,0,0,1,5.488.474,25.633,25.633,0,0,1,5.713,4.426c-1.173.2-2.911-.312-4.13-.24a8.927,8.927,0,0,1-3.526-.312c-1.677-.638-3.591-2.33-3.425-4.2" fill="#9b7d7c"/><path d="M547.285,1048.373c.445,1.891.006,4.554-.919,5.609a5.4,5.4,0,0,1-2.383,1.2c-.821.274-1.5.839-2.257,1.159,1.052-2.187.506-5.471,2.15-6.967.6-.538,2.614-2.434,3.387-1.194" fill="#9b7d7c"/><path d="M549.8,1048.945a21.653,21.653,0,0,1,4,3.659,16.135,16.135,0,0,1,2.788,5.2c-.627-.574-1.1-1.438-1.764-2.059a8.282,8.282,0,0,0-1.367-.805,9.2,9.2,0,0,1-2.19-1.963c-.876-1.03-2.441-3.253-1.615-4.164" fill="#9b7d7c"/><path d="M545.634,1062.133c2.188,4.525-2.035,6.177-4.194,7.912,1.936-1.388-.111-9.338,3.93-8.032" fill="#9b7d7c"/><path d="M523.614,1105.18a22.16,22.16,0,0,0,2.378-8.7,35.547,35.547,0,0,0-1.776-10.841,51.685,51.685,0,0,0-12.408-20.877l-.144.316a50.908,50.908,0,0,1,12.249,20.676,35.024,35.024,0,0,1,1.765,10.446,22.3,22.3,0,0,1-2.358,8.847A.162.162,0,0,0,523.614,1105.18Z" fill="#9b7d7c"/><path d="M521.037,1081.9c3.087,4.1-.6,6.42-2.2,7.89a26.176,26.176,0,0,1,.162-4.926c.1-1.612.446-2.5,1.619-3.049" fill="#9b7d7c"/><path d="M524.951,1081.858a9.153,9.153,0,0,1,5.483.472,25.943,25.943,0,0,1,5.715,4.423c-1.172.2-2.914-.305-4.133-.235a8.858,8.858,0,0,1-3.526-.314c-1.676-.64-3.584-2.327-3.424-4.2" fill="#9b7d7c"/><path d="M515.478,1071.545c3.093,4.108-.6,6.422-2.2,7.89a26.216,26.216,0,0,1,.155-4.924c.1-1.616.449-2.5,1.622-3.051" fill="#9b7d7c"/><path d="M518.163,1070.511a9.228,9.228,0,0,1,5.488.481,25.647,25.647,0,0,1,5.713,4.425c-1.176.2-2.911-.308-4.131-.24a8.873,8.873,0,0,1-3.526-.312c-1.679-.636-3.59-2.329-3.425-4.2" fill="#9b7d7c"/><path d="M525.145,1091.251c.447,1.891.007,4.551-.919,5.6a5.267,5.267,0,0,1-2.383,1.2c-.821.277-1.5.84-2.257,1.159,1.046-2.181.506-5.465,2.151-6.965.594-.54,2.613-2.43,3.389-1.2" fill="#9b7d7c"/><path d="M527.666,1091.819a21.924,21.924,0,0,1,3.994,3.662,16.1,16.1,0,0,1,2.784,5.2c-.619-.572-1.094-1.435-1.76-2.06a8.242,8.242,0,0,0-1.368-.8,9.116,9.116,0,0,1-2.187-1.964c-.881-1.032-2.441-3.251-1.617-4.159" fill="#9b7d7c"/><path d="M523.493,1105.007c2.192,4.531-2.035,6.184-4.191,7.915,1.936-1.39-.115-9.339,3.925-8.031" fill="#9b7d7c"/><path d="M604.259,1087.575a22.166,22.166,0,0,0-6.721,6.023,35.643,35.643,0,0,0-4.393,10.068,51.688,51.688,0,0,0-.907,24.269l.29-.189a50.865,50.865,0,0,1,.938-24.012,34.96,34.96,0,0,1,4.182-9.73,22.247,22.247,0,0,1,6.784-6.152A.163.163,0,0,0,604.259,1087.575Z" fill="#9b7d7c"/><path d="M593.785,1108.532c-.369-5.119,3.987-5.064,6.129-5.429a25.866,25.866,0,0,1-2.807,4.051c-.953,1.3-1.726,1.853-3.014,1.68" fill="#9b7d7c"/><path d="M590.48,1106.448a9.246,9.246,0,0,1-4.35-3.379,25.838,25.838,0,0,1-2.4-6.82c1.1.474,2.282,1.841,3.346,2.446a8.789,8.789,0,0,1,2.788,2.178c1.061,1.444,1.753,3.9.6,5.38" fill="#9b7d7c"/><path d="M592.842,1120.243c-.371-5.124,3.985-5.065,6.129-5.434a26.592,26.592,0,0,1-2.8,4.053c-.961,1.3-1.731,1.851-3.017,1.682" fill="#9b7d7c"/><path d="M590.026,1119.656a9.211,9.211,0,0,1-4.35-3.38,25.813,25.813,0,0,1-2.4-6.819c1.092.472,2.279,1.836,3.343,2.444a8.8,8.8,0,0,1,2.789,2.176c1.065,1.443,1.751,3.9.6,5.382" fill="#9b7d7c"/><path d="M595.412,1098.448c.653-1.831,2.465-3.827,3.816-4.209a5.255,5.255,0,0,1,2.649.286c.841.214,1.718.108,2.527.251-2.067,1.263-3.392,4.32-5.586,4.683-.795.129-3.516.626-3.5-.837" fill="#9b7d7c"/><path d="M593.6,1096.6a21.986,21.986,0,0,1-1.362-5.246,16.085,16.085,0,0,1,.479-5.881c.212.819.143,1.8.363,2.685a8.339,8.339,0,0,0,.712,1.417,8.91,8.91,0,0,1,.771,2.837c.183,1.345.288,4.057-.9,4.371" fill="#9b7d7c"/><path d="M604.27,1087.788c.614-4.993,5.06-4.086,7.812-4.369-2.381.11-4.971,7.9-7.661,4.612" fill="#9b7d7c"/><path d="M506.907,1094.822a22.119,22.119,0,0,0-6.719,6.023,35.545,35.545,0,0,0-4.395,10.068,51.685,51.685,0,0,0-.907,24.269l.292-.189a50.878,50.878,0,0,1,.933-24.012,35.081,35.081,0,0,1,4.187-9.734,22.315,22.315,0,0,1,6.782-6.151A.162.162,0,0,0,506.907,1094.822Z" fill="#9b7d7c"/><path d="M496.433,1115.778c-.367-5.12,3.987-5.064,6.134-5.432a26.5,26.5,0,0,1-2.806,4.052c-.96,1.306-1.732,1.854-3.019,1.68" fill="#9b7d7c"/><path d="M493.13,1113.691a9.21,9.21,0,0,1-4.35-3.374,25.749,25.749,0,0,1-2.4-6.82c1.093.47,2.28,1.839,3.339,2.443a8.852,8.852,0,0,1,2.793,2.175c1.059,1.445,1.751,3.905.6,5.38" fill="#9b7d7c"/><path d="M495.489,1127.488c-.371-5.122,3.989-5.064,6.131-5.433a26.061,26.061,0,0,1-2.8,4.053c-.96,1.3-1.732,1.849-3.017,1.68" fill="#9b7d7c"/><path d="M492.674,1126.9a9.2,9.2,0,0,1-4.349-3.377,25.908,25.908,0,0,1-2.4-6.819c1.093.471,2.28,1.838,3.342,2.441a8.878,8.878,0,0,1,2.793,2.179c1.063,1.445,1.749,3.9.6,5.384" fill="#9b7d7c"/><path d="M498.061,1105.691c.654-1.828,2.464-3.825,3.815-4.21a5.366,5.366,0,0,1,2.651.286c.838.214,1.717.107,2.531.251-2.07,1.267-3.4,4.319-5.6,4.687-.791.127-3.51.622-3.493-.835" fill="#9b7d7c"/><path d="M496.253,1103.846a21.7,21.7,0,0,1-1.367-5.241,16.141,16.141,0,0,1,.48-5.884c.216.82.139,1.8.364,2.686a7.876,7.876,0,0,0,.712,1.419,8.969,8.969,0,0,1,.77,2.837c.183,1.341.285,4.054-.9,4.371" fill="#9b7d7c"/><path d="M506.915,1095.033c.617-4.992,5.061-4.085,7.817-4.371-2.383.116-4.974,7.9-7.661,4.614" fill="#9b7d7c"/><path d="M567.062,1103.7a22.036,22.036,0,0,0-6.725,6.021,35.6,35.6,0,0,0-4.388,10.065,51.662,51.662,0,0,0-.91,24.272l.291-.189a50.825,50.825,0,0,1,.937-24.012,34.987,34.987,0,0,1,4.184-9.734,22.292,22.292,0,0,1,6.782-6.151A.161.161,0,0,0,567.062,1103.7Z" fill="#9b7d7c"/><path d="M556.588,1124.656c-.374-5.12,3.983-5.064,6.131-5.43a26.69,26.69,0,0,1-2.806,4.053c-.96,1.3-1.729,1.85-3.017,1.68" fill="#9b7d7c"/><path d="M553.283,1122.571a9.24,9.24,0,0,1-4.352-3.376,25.629,25.629,0,0,1-2.4-6.823c1.09.474,2.274,1.843,3.34,2.445a8.9,8.9,0,0,1,2.792,2.176c1.059,1.445,1.749,3.906.6,5.381" fill="#9b7d7c"/><path d="M555.64,1136.368c-.366-5.124,3.989-5.066,6.134-5.432a26.2,26.2,0,0,1-2.81,4.05c-.955,1.3-1.725,1.853-3.011,1.683" fill="#9b7d7c"/><path d="M552.829,1135.778a9.216,9.216,0,0,1-4.353-3.381,25.659,25.659,0,0,1-2.4-6.817c1.094.471,2.278,1.838,3.345,2.443a8.87,8.87,0,0,1,2.786,2.175c1.063,1.445,1.751,3.9.6,5.384" fill="#9b7d7c"/><path d="M558.214,1114.569c.65-1.826,2.466-3.825,3.815-4.208a5.267,5.267,0,0,1,2.651.288c.838.214,1.718.1,2.53.249-2.074,1.263-3.4,4.319-5.593,4.687-.791.125-3.513.621-3.494-.838" fill="#9b7d7c"/><path d="M556.407,1112.726a21.648,21.648,0,0,1-1.368-5.245,16.094,16.094,0,0,1,.482-5.878c.213.819.14,1.8.361,2.684a8.037,8.037,0,0,0,.713,1.418,8.992,8.992,0,0,1,.771,2.834c.182,1.346.288,4.058-.9,4.373" fill="#9b7d7c"/><path d="M567.066,1103.912c.621-4.992,5.063-4.084,7.815-4.371-2.378.115-4.971,7.9-7.657,4.615" fill="#9b7d7c"/><path d="M579.468,1088.121a22.061,22.061,0,0,0-8.024-4.129,35.411,35.411,0,0,0-10.976-.5,51.627,51.627,0,0,0-22.987,7.815l.278.207a50.9,50.9,0,0,1,22.766-7.7,34.92,34.92,0,0,1,10.579.439,22.154,22.154,0,0,1,8.17,4.133A.161.161,0,0,0,579.468,1088.121Z" fill="#9b7d7c"/><path d="M556.154,1085.821c4.654-2.177,6.157,1.915,7.264,3.789a26.112,26.112,0,0,1-4.784-1.178c-1.561-.428-2.351-.954-2.65-2.218" fill="#9b7d7c"/><path d="M556.924,1081.99a9.191,9.191,0,0,1,1.6-5.272,25.852,25.852,0,0,1,5.509-4.679c-.046,1.193-.906,2.789-1.091,4a8.838,8.838,0,0,1-1.037,3.383c-.968,1.513-3.018,3.033-4.813,2.483" fill="#9b7d7c"/><path d="M544.882,1089.124c4.65-2.176,6.156,1.914,7.265,3.783a25.927,25.927,0,0,1-4.788-1.173c-1.559-.43-2.35-.952-2.652-2.216" fill="#9b7d7c"/><path d="M544.426,1086.28a9.175,9.175,0,0,1,1.6-5.269,25.908,25.908,0,0,1,5.514-4.677c-.045,1.19-.908,2.785-1.086,3.994a8.908,8.908,0,0,1-1.036,3.381c-.971,1.512-3.023,3.034-4.814,2.484" fill="#9b7d7c"/><path d="M566.158,1083.741c1.941-.048,4.452.931,5.293,2.058a5.275,5.275,0,0,1,.679,2.577c.1.861.515,1.64.668,2.452-1.92-1.481-5.243-1.628-6.371-3.546-.4-.7-1.839-3.059-.468-3.566" fill="#9b7d7c"/><path d="M567.239,1081.389a21.962,21.962,0,0,1,4.4-3.15,16.123,16.123,0,0,1,5.666-1.649c-.69.493-1.625.779-2.376,1.3a8.05,8.05,0,0,0-1.07,1.173,9.066,9.066,0,0,1-2.377,1.736c-1.188.647-3.682,1.714-4.4.721" fill="#9b7d7c"/><path d="M579.274,1088.2c4.883-1.208,5.629,3.27,6.876,5.74-.961-2.184-9.155-1.821-7.046-5.51" fill="#9b7d7c"/><path d="M570.076,1065.2a22.114,22.114,0,0,0,4.442-7.857,35.659,35.659,0,0,0,.933-10.945,51.663,51.663,0,0,0-6.913-23.28l-.214.273a50.914,50.914,0,0,1,6.805,23.05,34.956,34.956,0,0,1-.848,10.554,22.3,22.3,0,0,1-4.456,8A.161.161,0,0,0,570.076,1065.2Z" fill="#9b7d7c"/><path d="M573.288,1042c1.989,4.738-2.156,6.077-4.071,7.11a26.6,26.6,0,0,1,1.361-4.735c.495-1.544,1.049-2.309,2.321-2.558" fill="#9b7d7c"/><path d="M577.086,1042.918a9.193,9.193,0,0,1,5.2,1.8,25.524,25.524,0,0,1,4.458,5.692c-1.182-.1-2.745-1.012-3.948-1.244a8.81,8.81,0,0,1-3.339-1.168c-1.469-1.029-2.91-3.137-2.29-4.907" fill="#9b7d7c"/><path d="M570.433,1030.6c1.992,4.734-2.155,6.074-4.07,7.109a26.271,26.271,0,0,1,1.363-4.738c.491-1.541,1.043-2.308,2.318-2.557" fill="#9b7d7c"/><path d="M573.288,1030.263a9.2,9.2,0,0,1,5.2,1.8,25.685,25.685,0,0,1,4.459,5.694c-1.188-.1-2.747-1.014-3.951-1.245a8.921,8.921,0,0,1-3.339-1.168c-1.468-1.028-2.909-3.138-2.291-4.908" fill="#9b7d7c"/><path d="M574.973,1052.074c-.028,1.943-1.1,4.415-2.261,5.212a5.335,5.335,0,0,1-2.608.577c-.86.065-1.653.449-2.47.571,1.551-1.86,1.83-5.181,3.8-6.229.707-.378,3.126-1.714,3.576-.328" fill="#9b7d7c"/><path d="M577.281,1053.245a21.961,21.961,0,0,1,2.975,4.526,16.2,16.2,0,0,1,1.427,5.725c-.466-.708-.71-1.662-1.2-2.426a8.478,8.478,0,0,0-1.128-1.115,8.881,8.881,0,0,1-1.639-2.442c-.6-1.214-1.573-3.745-.551-4.426" fill="#9b7d7c"/><path d="M570,1065.009c1.016,4.925-3.482,5.493-6,6.644,2.219-.873,2.18-9.078,5.778-6.825" fill="#9b7d7c"/><path d="M593.471,1049.236a22,22,0,0,0,4.441-7.859,35.635,35.635,0,0,0,.937-10.945,51.675,51.675,0,0,0-6.911-23.278l-.219.271a50.89,50.89,0,0,1,6.809,23.046,35.059,35.059,0,0,1-.852,10.557,22.277,22.277,0,0,1-4.457,8A.163.163,0,0,0,593.471,1049.236Z" fill="#9b7d7c"/><path d="M596.683,1026.03c1.991,4.733-2.155,6.077-4.066,7.109a26.254,26.254,0,0,1,1.36-4.738c.491-1.543,1.046-2.308,2.317-2.561" fill="#9b7d7c"/><path d="M600.48,1026.949a9.2,9.2,0,0,1,5.207,1.805,25.723,25.723,0,0,1,4.454,5.689c-1.186-.1-2.748-1.014-3.943-1.243a8.831,8.831,0,0,1-3.341-1.167c-1.473-1.03-2.912-3.138-2.294-4.91" fill="#9b7d7c"/><path d="M593.83,1014.634c1.991,4.732-2.157,6.076-4.073,7.112a27.368,27.368,0,0,1,1.361-4.741c.493-1.539,1.049-2.307,2.322-2.56" fill="#9b7d7c"/><path d="M596.683,1014.289a9.227,9.227,0,0,1,5.205,1.806,25.824,25.824,0,0,1,4.454,5.691c-1.187-.1-2.745-1.01-3.948-1.243a8.865,8.865,0,0,1-3.336-1.167c-1.474-1.032-2.912-3.136-2.293-4.906" fill="#9b7d7c"/><path d="M598.372,1036.1c-.028,1.939-1.106,4.417-2.265,5.21a5.276,5.276,0,0,1-2.6.578c-.858.066-1.657.446-2.475.572,1.556-1.864,1.832-5.18,3.793-6.229.713-.375,3.134-1.718,3.58-.325" fill="#9b7d7c"/><path d="M600.68,1037.272a22.216,22.216,0,0,1,2.975,4.527,16.121,16.121,0,0,1,1.424,5.727c-.468-.7-.71-1.657-1.2-2.426a7.71,7.71,0,0,0-1.128-1.115,9.02,9.02,0,0,1-1.639-2.442c-.6-1.212-1.572-3.747-.546-4.425" fill="#9b7d7c"/><path d="M593.4,1049.039c1.017,4.925-3.483,5.492-6,6.644,2.216-.873,2.177-9.079,5.777-6.825" fill="#9b7d7c"/><path d="M573.905,1011.933a22.206,22.206,0,0,0,4.439-7.858,35.727,35.727,0,0,0,.937-10.946,51.727,51.727,0,0,0-6.915-23.282l-.218.275a50.862,50.862,0,0,1,6.806,23.046,34.943,34.943,0,0,1-.846,10.558,22.273,22.273,0,0,1-4.458,8A.165.165,0,0,0,573.905,1011.933Z" fill="#9b7d7c"/><path d="M577.113,988.725c1.991,4.734-2.158,6.075-4.067,7.11a25.583,25.583,0,0,1,1.362-4.74c.488-1.542,1.043-2.307,2.318-2.557" fill="#9b7d7c"/><path d="M580.913,989.643a9.214,9.214,0,0,1,5.2,1.806,25.708,25.708,0,0,1,4.457,5.69c-1.186-.095-2.747-1.01-3.949-1.243a8.929,8.929,0,0,1-3.338-1.166c-1.471-1.032-2.909-3.138-2.29-4.908" fill="#9b7d7c"/><path d="M574.259,977.328c1.99,4.736-2.158,6.077-4.066,7.11a25.959,25.959,0,0,1,1.358-4.736c.493-1.542,1.044-2.309,2.32-2.559" fill="#9b7d7c"/><path d="M577.111,976.986a9.217,9.217,0,0,1,5.207,1.807,25.552,25.552,0,0,1,4.454,5.69c-1.184-.1-2.742-1.013-3.947-1.242a8.83,8.83,0,0,1-3.337-1.17c-1.472-1.029-2.91-3.136-2.292-4.907" fill="#9b7d7c"/><path d="M578.8,998.8c-.033,1.946-1.111,4.413-2.267,5.212a5.3,5.3,0,0,1-2.6.578c-.866.062-1.661.448-2.478.569,1.557-1.863,1.834-5.178,3.8-6.228.71-.373,3.129-1.716,3.576-.327" fill="#9b7d7c"/><path d="M581.108,999.97a21.72,21.72,0,0,1,2.972,4.528,16.121,16.121,0,0,1,1.427,5.726c-.463-.708-.707-1.66-1.2-2.426a8.316,8.316,0,0,0-1.127-1.118,9.147,9.147,0,0,1-1.642-2.441c-.6-1.211-1.57-3.748-.552-4.428" fill="#9b7d7c"/><path d="M573.829,1011.737c1.013,4.924-3.488,5.492-6.005,6.64,2.22-.87,2.181-9.077,5.78-6.826" fill="#9b7d7c"/><path d="M493.9,990.4a22.089,22.089,0,0,0,4.439-7.861,35.666,35.666,0,0,0,.936-10.941,51.674,51.674,0,0,0-6.914-23.28l-.215.271a50.925,50.925,0,0,1,6.808,23.046,35.1,35.1,0,0,1-.85,10.559,22.3,22.3,0,0,1-4.457,8A.162.162,0,0,0,493.9,990.4Z" fill="#9b7d7c"/><path d="M497.106,967.2c1.991,4.735-2.155,6.076-4.068,7.111a26.33,26.33,0,0,1,1.36-4.736c.491-1.543,1.047-2.312,2.32-2.563" fill="#9b7d7c"/><path d="M500.907,968.114a9.194,9.194,0,0,1,5.2,1.807,25.645,25.645,0,0,1,4.457,5.689c-1.185-.094-2.746-1.011-3.947-1.244a8.9,8.9,0,0,1-3.34-1.164c-1.467-1.034-2.906-3.14-2.29-4.911" fill="#9b7d7c"/><path d="M494.252,955.8c1.989,4.73-2.157,6.073-4.068,7.11a25.961,25.961,0,0,1,1.358-4.741c.493-1.541,1.046-2.309,2.319-2.558" fill="#9b7d7c"/><path d="M497.106,955.458a9.173,9.173,0,0,1,5.2,1.808,25.618,25.618,0,0,1,4.457,5.689c-1.187-.1-2.747-1.011-3.952-1.245a8.841,8.841,0,0,1-3.336-1.169c-1.471-1.028-2.909-3.134-2.29-4.9" fill="#9b7d7c"/><path d="M498.8,977.272c-.034,1.942-1.109,4.416-2.266,5.211a5.306,5.306,0,0,1-2.605.577c-.862.065-1.658.451-2.475.569,1.554-1.857,1.833-5.174,3.8-6.227.71-.373,3.128-1.716,3.579-.325" fill="#9b7d7c"/><path d="M501.1,978.44a22.244,22.244,0,0,1,2.974,4.528A16.17,16.17,0,0,1,505.5,988.7c-.465-.709-.711-1.661-1.207-2.426a8.2,8.2,0,0,0-1.126-1.118,8.937,8.937,0,0,1-1.639-2.441c-.6-1.213-1.573-3.749-.552-4.425" fill="#9b7d7c"/><path d="M493.819,990.206c1.014,4.925-3.483,5.494-6,6.646,2.219-.873,2.178-9.081,5.778-6.827" fill="#9b7d7c"/><path d="M465.962,1089.28a22.108,22.108,0,0,0,4.438-7.861,35.449,35.449,0,0,0,.933-10.941,51.613,51.613,0,0,0-6.909-23.279l-.219.272a50.915,50.915,0,0,1,6.811,23.044,35.176,35.176,0,0,1-.851,10.562,22.287,22.287,0,0,1-4.456,8C465.576,1089.237,465.829,1089.439,465.962,1089.28Z" fill="#9b7d7c"/><path d="M469.174,1066.074c1.988,4.731-2.16,6.072-4.074,7.107a26.5,26.5,0,0,1,1.362-4.738c.49-1.541,1.046-2.306,2.321-2.557" fill="#9b7d7c"/><path d="M472.971,1066.992a9.239,9.239,0,0,1,5.2,1.8,25.9,25.9,0,0,1,4.455,5.7c-1.184-.1-2.747-1.013-3.946-1.248a8.772,8.772,0,0,1-3.342-1.166c-1.468-1.029-2.9-3.134-2.291-4.909" fill="#9b7d7c"/><path d="M466.318,1054.678c1.988,4.736-2.16,6.073-4.072,7.108a26.183,26.183,0,0,1,1.362-4.736c.49-1.542,1.046-2.308,2.317-2.557" fill="#9b7d7c"/><path d="M469.174,1054.336a9.208,9.208,0,0,1,5.2,1.806,25.666,25.666,0,0,1,4.458,5.691c-1.187-.1-2.749-1.014-3.947-1.244a8.827,8.827,0,0,1-3.341-1.17c-1.471-1.024-2.911-3.137-2.3-4.908" fill="#9b7d7c"/><path d="M470.859,1076.151c-.028,1.939-1.108,4.413-2.263,5.208a5.321,5.321,0,0,1-2.6.58c-.863.063-1.663.448-2.476.568,1.554-1.86,1.834-5.177,3.8-6.225.71-.378,3.128-1.718,3.576-.332" fill="#9b7d7c"/><path d="M473.164,1077.319a21.979,21.979,0,0,1,2.973,4.524,16.093,16.093,0,0,1,1.43,5.732c-.463-.712-.712-1.664-1.2-2.433a8.457,8.457,0,0,0-1.128-1.113,9.048,9.048,0,0,1-1.643-2.444c-.6-1.21-1.57-3.747-.548-4.427" fill="#9b7d7c"/><path d="M465.887,1089.085c1.012,4.922-3.487,5.49-6,6.645,2.217-.878,2.178-9.079,5.777-6.825" fill="#9b7d7c"/><path d="M523.171,981.214a22.19,22.19,0,0,0,4.44-7.858,35.444,35.444,0,0,0,.932-10.945,51.606,51.606,0,0,0-6.913-23.28l-.217.271a50.85,50.85,0,0,1,6.81,23.049,34.8,34.8,0,0,1-.85,10.556,22.25,22.25,0,0,1-4.455,8C522.785,981.171,523.038,981.373,523.171,981.214Z" fill="#9b7d7c"/><path d="M526.379,958c1.992,4.737-2.153,6.076-4.068,7.113a26.085,26.085,0,0,1,1.363-4.739c.488-1.542,1.044-2.307,2.318-2.561" fill="#9b7d7c"/><path d="M530.18,958.928a9.167,9.167,0,0,1,5.2,1.8,25.508,25.508,0,0,1,4.457,5.694c-1.183-.1-2.745-1.011-3.941-1.247a8.785,8.785,0,0,1-3.341-1.166c-1.473-1.028-2.912-3.138-2.3-4.91" fill="#9b7d7c"/><path d="M523.526,946.612c1.991,4.733-2.158,6.074-4.072,7.109a26.826,26.826,0,0,1,1.362-4.734c.493-1.548,1.05-2.313,2.322-2.563" fill="#9b7d7c"/><path d="M526.379,946.268a9.2,9.2,0,0,1,5.2,1.8,25.5,25.5,0,0,1,4.459,5.694c-1.183-.1-2.745-1.014-3.945-1.241a8.923,8.923,0,0,1-3.339-1.172c-1.472-1.028-2.91-3.136-2.292-4.908" fill="#9b7d7c"/><path d="M528.069,968.081c-.03,1.944-1.106,4.416-2.265,5.21a5.271,5.271,0,0,1-2.6.579c-.867.065-1.66.447-2.475.572,1.553-1.861,1.829-5.18,3.791-6.23.715-.374,3.13-1.712,3.582-.327" fill="#9b7d7c"/><path d="M530.373,969.253a21.943,21.943,0,0,1,2.977,4.525,16.08,16.08,0,0,1,1.425,5.729c-.464-.708-.711-1.661-1.205-2.428a8.055,8.055,0,0,0-1.127-1.114,9.062,9.062,0,0,1-1.639-2.443c-.6-1.214-1.569-3.751-.547-4.428" fill="#9b7d7c"/><path d="M523.1,981.016c1.008,4.928-3.487,5.491-6.005,6.644,2.217-.872,2.175-9.077,5.775-6.824" fill="#9b7d7c"/></g><path d="M510.878,1042.79l-11.516,98.27-50.17-8.594S444.525,1072.787,510.878,1042.79Z" fill="#080c23"/><path d="M510.878,1042.791l-17.868,24.616,5.066,5.525-6.106.883,2.988,24.282,10.077,1.681Z" fill="#121a3d"/><path d="M542.37,1038.879l11.515,98.268,65.536-23.732S610.86,1065.223,542.37,1038.879Z" fill="#080c23"/><path d="M542.37,1038.879l17.865,24.616-5.065,5.524,6.111.882-2.989,24.282-10.077,1.682Z" fill="#121a3d"/><path d="M417.69,1069.705l1.491-16.809,103.3,41.466,91.714-38.477,5.229,14.192L524.16,1120.7Z" fill="#fff"/><path d="M513.511,1097.164s11.487,12.608,19.989-.187l6.35,90.407-5.607,24.655s-8.964,11.765-20.172,0l-7.285-40.906Z" fill="#4aaf81"/><path d="M409.282,1060.743l104.229,36.422.56,114.875-105.348-24.657Z" fill="#4dce96"/><path d="M533.5,1096.977l94.886-34.368,5.882,115.808L534.243,1212.04Z" fill="#4dce96"/><path d="M523.82,1115.389a15.709,15.709,0,0,1-2.511-.205,17.645,17.645,0,0,1-11.369-7.532l1.908-1.18-.953.59.953-.59c.033.053,3.493,5.489,9.845,6.5,4.957.792,10.378-1.232,16.128-6.026l1.437,1.724C533.9,1113.134,528.72,1115.389,523.82,1115.389Z" fill="#66e2a7"/><path d="M523.262,1121.27a15.622,15.622,0,0,1-2.516-.2,17.65,17.65,0,0,1-11.365-7.529l1.906-1.181-.953.59.953-.592c.035.054,3.492,5.488,9.842,6.506,4.959.8,10.385-1.234,16.131-6.027l1.439,1.723C533.341,1119.016,528.16,1121.27,523.262,1121.27Z" fill="#66e2a7"/><path d="M523.262,1202.334a15.072,15.072,0,0,1-2.516-.2,17.631,17.631,0,0,1-11.365-7.529l1.906-1.181c.035.053,3.492,5.488,9.842,6.5,4.951.792,10.385-1.23,16.131-6.025l1.439,1.722C533.341,1200.085,528.16,1202.334,523.262,1202.334Z" fill="#66e2a7"/><path d="M523.262,1210.555a15.622,15.622,0,0,1-2.516-.2,17.641,17.641,0,0,1-11.365-7.533l1.906-1.181-.953.591.953-.591c.035.057,3.492,5.486,9.842,6.506,4.959.793,10.385-1.235,16.131-6.03l1.439,1.724C533.341,1208.3,528.16,1210.555,523.262,1210.555Z" fill="#66e2a7"/><path d="M544.913,1200.043l-1.528-96.734,79.676-30.522,3.963,105.359Zm.736-95.206,2.231,90.765,76.821-19.156-5.28-98.523Z" fill="#b9f2b6"/><path d="M397.894,1089.166a16.368,16.368,0,0,1,.26-3.316c.454-2.429,2.034-3.192,3.937-4.609,1.21-.891,10.237-5.706,11.467-4,4.04,5.546-3.98,4.848-6.689,8.715,4.494-.294,16.642-4.207,17.982-.584,2.029,5.4-9.738,5.045-12.64,7.86,2.365,1.236,12.674-2.36,13.956.231,2.625,5.3-10.493,6.452-13.333,8.083-.463,4.032,8.273-3.273,9.729,3.134-.167,1.692-4.979,3.281-6.179,3.591a18.173,18.173,0,0,1-10.036-.1c-6.02-1.989-7.508-8.558-8.135-14.189A41.782,41.782,0,0,1,397.894,1089.166Z" fill="#e8e4c4"/><path d="M635.66,1089.166a16.733,16.733,0,0,0-.262-3.316c-.457-2.429-2.033-3.192-3.94-4.609-1.208-.891-10.236-5.706-11.464-4-4.04,5.546,3.98,4.848,6.685,8.715-4.487-.294-16.639-4.207-17.981-.584-2.026,5.4,9.745,5.045,12.644,7.86-2.369,1.236-12.673-2.36-13.959.231-2.626,5.3,10.494,6.452,13.333,8.083.465,4.032-8.273-3.273-9.729,3.134.172,1.692,4.982,3.281,6.18,3.591a18.173,18.173,0,0,0,10.036-.1c6.02-1.989,7.509-8.558,8.131-14.189A41.525,41.525,0,0,0,635.66,1089.166Z" fill="#e8e4c4"/><path d="M458.236,1235.271l-43.249-12.447a18.583,18.583,0,0,1-12.716-23l1.64-5.686a18.576,18.576,0,0,1,22.994-12.715l42.359,12.193C471.3,1208.843,468.9,1224.405,458.236,1235.271Z" fill="#fdd0a2"/><path d="M469.264,1193.62l6.552,1.882c1.978,14.882-1.743,30.828-11.81,41.427l-5.77-1.658C468.9,1224.405,471.3,1208.843,469.264,1193.62Z" fill="#cdf7f5"/><path d="M475.816,1195.5l31.885,9.177a18.579,18.579,0,0,1,12.716,23l-1.636,5.686a18.582,18.582,0,0,1-22.995,12.715l-31.78-9.149C474.073,1226.33,477.794,1210.384,475.816,1195.5Z" fill="#fff"/><path d="M504.753,1253.822c14.068,4.049,22.383-5.906,26.431-19.966s2.294-26.921-11.771-30.969-26.625,4.683-30.672,18.751S490.687,1249.774,504.753,1253.822Z" fill="#2e1036"/><path d="M500.909,1252.715c14.063,4.046,22.379-5.906,26.426-19.969s2.295-26.916-11.767-30.964-26.628,4.681-30.674,18.75S486.842,1248.666,500.909,1252.715Z" fill="#080c23"/><path d="M498.048,1236.837a2.31,2.31,0,0,0,2.861-1.581l5.445-18.915a2.309,2.309,0,0,0-1.585-2.863h0a2.307,2.307,0,0,0-2.86,1.584l-5.446,18.913a2.313,2.313,0,0,0,1.585,2.862Z" fill="#2e1036"/><path d="M490.857,1233.317a2.067,2.067,0,0,0,2.555-1.412l4.859-16.885a2.063,2.063,0,0,0-1.414-2.555h0a2.063,2.063,0,0,0-2.554,1.412l-4.86,16.886a2.061,2.061,0,0,0,1.414,2.554Z" fill="#2e1036"/><path d="M486.6,1227.866a1.432,1.432,0,0,0,1.769-.977l3.362-11.685a1.429,1.429,0,0,0-.977-1.767h0a1.431,1.431,0,0,0-1.769.976l-3.363,11.683a1.432,1.432,0,0,0,.978,1.77Z" fill="#2e1036"/><path d="M415.228,1222.893l-.241-.069a18.583,18.583,0,0,1-12.716-23l1.64-5.686a18.576,18.576,0,0,1,22.994-12.715l.237.067a57.193,57.193,0,0,0-11.914,41.4Z" fill="#080c23"/><path d="M590.8,1231.827l43.243-12.445a18.58,18.58,0,0,0,12.717-22.995l-1.638-5.686a18.579,18.579,0,0,0-22.994-12.718l-42.358,12.194C577.731,1205.4,580.134,1220.959,590.8,1231.827Z" fill="#fdd0a2"/><path d="M579.77,1190.177l-6.553,1.886c-1.978,14.883,1.742,30.83,11.809,41.429l5.774-1.665C580.134,1220.959,577.731,1205.4,579.77,1190.177Z" fill="#cdf7f5"/><path d="M573.217,1192.063l-31.887,9.18a18.576,18.576,0,0,0-12.714,22.991l1.636,5.686a18.581,18.581,0,0,0,22.995,12.718l31.779-9.146C574.959,1222.893,571.239,1206.946,573.217,1192.063Z" fill="#fff"/><path d="M544.28,1250.383c-14.067,4.048-22.381-5.906-26.43-19.971s-2.293-26.916,11.772-30.962,26.625,4.677,30.669,18.745S558.348,1246.33,544.28,1250.383Z" fill="#2e1036"/><path d="M548.125,1249.272c-14.062,4.05-22.379-5.906-26.425-19.968s-2.3-26.917,11.767-30.962,26.627,4.68,30.673,18.745S562.191,1245.224,548.125,1249.272Z" fill="#080c23"/><path d="M550.986,1233.4a2.314,2.314,0,0,1-2.861-1.585l-5.444-18.919a2.313,2.313,0,0,1,1.582-2.862h0a2.316,2.316,0,0,1,2.862,1.587l5.446,18.915a2.321,2.321,0,0,1-1.585,2.864Z" fill="#2e1036"/><path d="M558.178,1229.876a2.066,2.066,0,0,1-2.555-1.409l-4.86-16.888a2.061,2.061,0,0,1,1.412-2.553h0a2.061,2.061,0,0,1,2.557,1.409l4.86,16.887a2.064,2.064,0,0,1-1.414,2.554Z" fill="#2e1036"/><path d="M562.437,1224.422a1.429,1.429,0,0,1-1.771-.974l-3.362-11.684a1.425,1.425,0,0,1,.977-1.767h0a1.43,1.43,0,0,1,1.77.977l3.361,11.68a1.426,1.426,0,0,1-.975,1.768Z" fill="#2e1036"/><path d="M633.806,1219.451l.237-.069a18.58,18.58,0,0,0,12.717-22.995l-1.638-5.686a18.579,18.579,0,0,0-22.994-12.718l-.237.067a57.231,57.231,0,0,1,11.915,41.4Z" fill="#080c23"/><path d="M486.288,975.6a21.618,21.618,0,1,1-21.619-21.62,21.621,21.621,0,0,1,21.619,21.62" fill="#dcaa84" fill-rule="evenodd"/><path d="M480.234,975.6a13.449,13.449,0,1,1-13.448-13.45,13.445,13.445,0,0,1,13.448,13.45" fill="#c08965" fill-rule="evenodd"/><path d="M609.443,975.6a21.618,21.618,0,1,1-21.618-21.62,21.62,21.62,0,0,1,21.618,21.62" fill="#dcaa84" fill-rule="evenodd"/><path d="M601.277,975.6a13.451,13.451,0,1,1-13.452-13.45,13.448,13.448,0,0,1,13.452,13.45" fill="#c08965" fill-rule="evenodd"/><path d="M541.712,1039.432a15.88,15.88,0,1,1-15.879-15.878,15.88,15.88,0,0,1,15.879,15.878" fill="#dcaa84" fill-rule="evenodd"/><path d="M593.888,973.673a66.612,66.612,0,1,1-66.614-66.61,66.614,66.614,0,0,1,66.614,66.61" fill="#eec09b" fill-rule="evenodd"/><path d="M513.772,981.905a10.3,10.3,0,1,1-10.3-10.3,10.3,10.3,0,0,1,10.3,10.3" fill="#231f20" fill-rule="evenodd"/><path d="M510.758,978.588a5.072,5.072,0,1,1-5.073-5.07,5.071,5.071,0,0,1,5.073,5.07" fill="#fff" fill-rule="evenodd"/><path d="M560.094,981.905a10.3,10.3,0,1,1-10.3-10.3,10.3,10.3,0,0,1,10.3,10.3" fill="#231f20" fill-rule="evenodd"/><path d="M557.08,978.588a5.07,5.07,0,1,1-5.071-5.07,5.069,5.069,0,0,1,5.071,5.07" fill="#fff" fill-rule="evenodd"/><path d="M502.505,1006.622c0,4.025-4.18,7.284-9.335,7.284s-9.337-3.259-9.337-7.284,4.177-7.285,9.337-7.285,9.335,3.264,9.335,7.285" fill="#dcaa84" fill-rule="evenodd"/><path d="M571.495,1006.622c0,4.025-4.182,7.284-9.341,7.284s-9.336-3.259-9.336-7.284,4.18-7.285,9.336-7.285,9.341,3.264,9.341,7.285" fill="#dcaa84" fill-rule="evenodd"/><path d="M538.857,1012.222a23.048,23.048,0,0,1-2.377,7.419c-1.567,2.878-4.121,5.5-8.2,5.5s-6.627-2.626-8.2-5.515a23.068,23.068,0,0,1-2.372-7.408,31.671,31.671,0,0,0,21.152,0" fill="#412100" fill-rule="evenodd"/><path d="M536.48,1019.641c-1.567,2.878-4.121,5.5-8.2,5.5s-6.627-2.626-8.2-5.515a11.681,11.681,0,0,1,16.4.011" fill="#a63d37" fill-rule="evenodd"/><path d="M525.065,877.6c-85.8,0-75.86,84.55-75.86,84.55h51.288l11.222-37.486-4.4,37.486,17.749-39.63,17.746,39.63-4.4-37.486,11.221,37.486h51.289s9.937-84.55-75.858-84.55" fill="#252926" fill-rule="evenodd"/><path d="M502.508,1004.15A20.492,20.492,0,1,1,523,983.658a20.514,20.514,0,0,1-20.49,20.492m0-38.7a18.21,18.21,0,1,0,18.208,18.21,18.232,18.232,0,0,0-18.208-18.21" fill="#423b3d"/><path d="M553.885,1004.15a20.492,20.492,0,1,1,20.491-20.492,20.514,20.514,0,0,1-20.491,20.492m0-38.7a18.21,18.21,0,1,0,18.21,18.21,18.231,18.231,0,0,0-18.21-18.21" fill="#423b3d"/><path d="M522.534,984.234l-1.306-1.153c5.812-6.57,14.128-1.254,14.211-1.2l-.952,1.463C534.2,983.156,527.34,978.8,522.534,984.234Z" fill="#423b3d"/></g></svg>