<svg xmlns="http://www.w3.org/2000/svg" width="583.843" height="592.862" viewBox="0 0 583.843 592.862"><g transform="translate(-204.295 -47.573)"><path d="M684.088,421.2s33.219-3.5,33.219-33.219c0,0,1.542,33.425,33.425,33.425,0,0-33.322,2.262-33.322,33.322C717.41,454.723,711.65,421.2,684.088,421.2Z" fill="#95efcc"/><path d="M263.488,135.8s33.219-3.5,33.219-33.219c0,0,1.543,33.425,33.425,33.425,0,0-33.322,2.263-33.322,33.322C296.81,169.325,291.051,135.8,263.488,135.8Z" fill="#95efcc"/><path d="M204.295,258.247s20.217-2.128,20.217-20.217c0,0,.939,20.343,20.342,20.343,0,0-20.28,1.377-20.28,20.279C224.574,278.652,221.069,258.247,204.295,258.247Z" fill="#8dfccd"/><path d="M290.1,436.193s19.954-2.1,19.954-19.955c0,0,.927,20.078,20.079,20.078,0,0-20.017,1.359-20.017,20.017C310.115,456.333,306.656,436.193,290.1,436.193Z" fill="#b0ead1"/><path d="M684.088,91.423S695.14,90.26,695.14,80.371c0,0,.513,11.121,11.121,11.121,0,0-11.087.753-11.087,11.086C695.174,102.578,693.258,91.423,684.088,91.423Z" fill="#95efcc"/><path d="M434.077,612.485s27.693-2.915,27.693-27.693c0,0,1.286,27.865,27.864,27.865,0,0-27.778,1.886-27.778,27.778C461.856,640.435,457.054,612.485,434.077,612.485Z" fill="#a6edce"/><path d="M509.286,58.625s11.052-1.163,11.052-11.052c0,0,.513,11.12,11.121,11.12,0,0-11.087.753-11.087,11.087C520.372,69.78,518.456,58.625,509.286,58.625Z" fill="#79f2be"/><path d="M614.011,258.29s11.052-1.163,11.052-11.052c0,0,.513,11.12,11.121,11.12,0,0-11.087.753-11.087,11.087C625.1,269.445,623.181,258.29,614.011,258.29Z" fill="#79f2be"/><path d="M439.683,236.083s11.052-1.164,11.052-11.053c0,0,.513,11.121,11.121,11.121,0,0-11.087.753-11.087,11.087C450.769,247.238,448.853,236.083,439.683,236.083Z" fill="#95efcc"/><path d="M505.459,421.28s14.867-1.565,14.867-14.867c0,0,.691,14.959,14.959,14.959,0,0-14.913,1.013-14.913,14.913C520.372,436.285,517.795,421.28,505.459,421.28Z" fill="#95efcc"/><path d="M765.965,258.29s11.052-1.163,11.052-11.052c0,0,.514,11.12,11.121,11.12,0,0-11.086.753-11.086,11.087C777.052,269.445,775.135,258.29,765.965,258.29Z" fill="#95efcc"/><path d="M661.915,601.459s11.052-1.164,11.052-11.053c0,0,.513,11.121,11.121,11.121,0,0-11.087.753-11.087,11.087C673,612.614,671.085,601.459,661.915,601.459Z" fill="#95efcc"/></g></svg>