<svg xmlns="http://www.w3.org/2000/svg" width="937.033" height="831.953" viewBox="0 0 937.033 831.953"><g transform="translate(-34.268 -70.112)"><path d="M375.25,78.829S750.27,53.436,717,89.329s22.61,34.5,62.918,87-99.792,58.974-12.493,81.235,165.582,61.01,131.69,109.132,114.6,88.735,30.605,116.426S635.357,562.322,686.545,583.649s201.3,29.1,131.491,50.126S286.95,674.384,319.6,644.343s-262.1,31.6-215.22-46.468S78.275,483.592,51.771,449.952s104-113.255,150.5-107.2,74.772-111.116-36.114-174.022S362.25,69.83,375.25,78.829Z" fill="#79e2ce" opacity="0.2"/><ellipse cx="114.745" cy="26.675" rx="114.745" ry="26.675" transform="translate(34.268 811.052)" fill="#79e2ce" opacity="0.4"/><ellipse cx="204.526" cy="26.675" rx="204.526" ry="26.675" transform="translate(319.601 728.386)" fill="#79e2ce" opacity="0.4"/><ellipse cx="218.263" cy="26.675" rx="218.263" ry="26.675" transform="translate(524.128 848.715)" fill="#79e2ce" opacity="0.4"/><rect width="17.832" height="147.61" transform="translate(500.495 475.597)" fill="#434344"/><rect width="40.289" height="21.136" transform="translate(489.267 623.208)" fill="#434344"/><rect width="17.832" height="117.23" transform="translate(500.495 643.025)" fill="#434344"/><path d="M505.447,638.729l-167.1,121.526h13.21L505.447,648.306h9.907L666.27,760.255h14.2l-162.145-120.2Z" fill="#434344"/><path d="M426.522,701.639l79.915,30.875,8.589-3.3,73.31-29.722,8.256,3.632-85.035,36.654L419.919,707.75" fill="#434344"/><rect width="509.877" height="10.567" transform="translate(248.857 125.222)" fill="#616062"/><rect width="509.877" height="10.568" transform="translate(248.857 472.548)" fill="#616062"/><rect width="496.335" height="344.002" transform="translate(256.785 133.828)" fill="#e2e5df"/><path d="M562.247,132.157a11.556,11.556,0,0,1-11.558,11.558H456.573a11.556,11.556,0,0,1-11.557-11.558h0A11.558,11.558,0,0,1,456.573,120.6h94.116a11.558,11.558,0,0,1,11.558,11.559Z" fill="#fff"/><path d="M550.689,147.182H456.573a15.026,15.026,0,0,1,0-30.051h94.116a15.026,15.026,0,1,1,0,30.051Zm-94.116-23.116a8.09,8.09,0,0,0,0,16.18h94.116a8.09,8.09,0,1,0,0-16.18Z" fill="#616062"/><path d="M91.354,823.226c8.577-7.776,17.147-15.561,17.147-15.561a167.341,167.341,0,0,0,35.724,6l-.77,15.923S136.2,849.406,107.183,848.7,82.783,831.008,91.354,823.226Z" fill="#231f20"/><path d="M214.622,823.226c8.574,7.782,13.19,24.759-15.828,25.471s-36.275-19.105-36.275-19.105l-.765-15.828c.068-.005.135-.011.2-.011,21.742-1.071,35.516-6.088,35.516-6.088S206.048,815.45,214.622,823.226Z" fill="#231f20"/><path d="M207.383,652.74l-9.909,154.751s-13.774,5.563-35.516,6.752l-5.607-226.394L145.873,804.276l-1.648,9.876a152.335,152.335,0,0,1-35.724-6.661L103.432,652.74,101.142,548.4H210.8L207.383,652.74" fill="#ccc"/><path d="M101.332,544.418c3.641,5.077,23.27,8.176,44.983,9.036,6.636.26,13.458.311,20.071.139,22.139-.53,42.051-3.5,44.985-9.175,0,0-.176-3.723-.441-9.747-4.113,5.239-23.3,8-44.544,8.517-6.622.162-13.446.1-20.071-.148-21.053-.837-40.153-3.788-44.607-8.588C101.483,540.627,101.332,544.418,101.332,544.418Z" fill="#404041"/><path d="M148.9,544.844v6.91c0,.949.516,1.727,1.172,1.755,4.155.192,8.4.237,12.539.122.664-.016,1.188-.8,1.188-1.758v-6.9c0-.979-.551-1.765-1.228-1.75-4.114.1-8.313.057-12.43-.125C149.462,543.066,148.9,543.857,148.9,544.844Z" fill="none" stroke="#d0d2d3" stroke-miterlimit="10" stroke-width="1.663"/><line x1="6.118" transform="translate(157.685 548.395)" fill="none" stroke="#d0d2d3" stroke-miterlimit="10" stroke-width="0.831"/><path d="M97.192,542.562c-36.544-48.331-56.619-86.71-40.307-140.46,8.627-28.425,36.907-55.038,36.907-55.038l24.355,28.3c-2.625,1.978-72.489,42.718-10.479,137.187Z" fill="#e6e7e8"/><path d="M319.361,424.338a15.078,15.078,0,0,1-9.168-3.112,15.778,15.778,0,0,1-3.078-21.827l25.616-34.814a15.133,15.133,0,0,1,21.435-3.134,15.777,15.777,0,0,1,3.079,21.828l-25.614,34.812A15.2,15.2,0,0,1,319.361,424.338Z" fill="#f7cdb9"/><path d="M267.934,492.939a23.052,23.052,0,0,1-21.247-14.085l-47.38-99,23.175-35.51L267.388,448.36l51.745-66.973,26.455,21.267-59.43,81.291A23.07,23.07,0,0,1,267.934,492.939Z" fill="#eeefef"/><path d="M334.065,379.735a2.214,2.214,0,0,1-1.289-.411,2.333,2.333,0,0,1-.574-3.2c.1-.117,83.861-120.5,83.861-120.5a1.436,1.436,0,0,1,2.028-.353,1.5,1.5,0,0,1,.351,2.046L335.926,378.741A2.255,2.255,0,0,1,334.065,379.735Z" fill="#231f20"/><path d="M326.942,384.4a5.129,5.129,0,0,1-4.995-4.153c-.17-.856-1.539-8.513,3.44-13.949,3.479-3.794,8.791-5.236,15.777-4.282a5.184,5.184,0,0,1,4.381,5.842,5.119,5.119,0,0,1-5.738,4.461c-3.428-.468-5.893-.085-6.953,1.07-1.262,1.381-1.01,4.259-.9,4.768a5.121,5.121,0,0,1-5.008,6.243Z" fill="#f7cdb9"/><path d="M181.363,334.2h-9.537l-10.7-.008L144,334.184h-9.992l.923-3.575,1.059-4.114a1.683,1.683,0,0,1,.022-.667v-.02c.238-1.08,1.557-3.034,8.07-3.193.516-.009,1.073-.009,1.661,0,2.264.041,4.986-.1,7.884-.265,1.783-.116,3.632-.241,5.492-.338,3.189-.189,6.388-.309,9.283-.189.606.03,1.2.064,1.779.116q1.277.092,2.428.284h.013a14.348,14.348,0,0,1,3.56,1,5.064,5.064,0,0,1,3.2,3.308l1.394,5.4Z" fill="#5a9eba"/><path d="M217.456,424.52c-.381,7.646-.493,18.013-.437,29.323.2,35.339,2.062,79.935,2.062,79.935a6.109,6.109,0,0,1-.428.5c-11.829,12.478-113.915,13.728-124.7.249a4.9,4.9,0,0,1-.507-.753s3.107-64.791,3.512-96.9c.09-6.36.057-11.449-.113-14.482-.645-11.26-4.675-39.586-5.964-56.451-.27-3.667-.417-6.789-.376-9.08a9.926,9.926,0,0,1,6.315-9.238L137.3,332.989l40.884.52,36.775,8.065a9.675,9.675,0,0,1,7.348,8.54,82.7,82.7,0,0,1-.031,11.4C221.425,378.6,218.309,407.654,217.456,424.52Z" fill="#77bad7"/><path d="M186.154,335.261l-7.973-1.752-40.886-.526-40.478,14.69A9.942,9.942,0,0,0,90.5,356.94c-.25,12.858,5.535,51.962,6.331,65.716.511,8.745-.234,34.447-1.154,58.991C135.851,441.771,162.563,387.934,186.154,335.261Z" fill="#60a8c6"/><path d="M181.363,334.2s-14.115,16.655-23.483,15.978a7.047,7.047,0,0,1-1.153-.178,30.054,30.054,0,0,1-4.859-1.671l-.966-.444c-.6-.287-1.195-.6-1.766-.9-.354-.188-.694-.378-1.028-.58-.552-.317-1.09-.643-1.621-.984-.013-.009,0-.009,0-.009a1.456,1.456,0,0,0-.145-.1c-.282-.18-.56-.37-.839-.558a48.173,48.173,0,0,1-3.878-2.921c-.226-.2-.453-.39-.7-.592-.913-.774-1.742-1.532-2.487-2.262a53.278,53.278,0,0,1-4.4-4.758l-.01-.012a.011.011,0,0,0-.012-.011.024.024,0,0,1-.011-.018,18.543,18.543,0,0,0,5.205-4.178c.081-.1.172-.191.267-.3.259-.287.519-.6.79-.931a31.21,31.21,0,0,0,3.157-4.715,11.02,11.02,0,0,0,.655-1.449,12.755,12.755,0,0,0,.416-1.214c2.605-8.716,1.317-25.652,1.317-25.652l23.721-3.544s-.134,9.389-.01,17.858c0,.381.01.763.018,1.144s.011.792.024,1.183c.008.346.008.7.032,1.037.01.644.03,1.267.052,1.873.009.3.021.61.029.908,0,.064.01.128.01.178,0,.181.013.359.024.539.03.826.072,1.6.122,2.307.029.5.071.962.113,1.385a9.032,9.032,0,0,0,.231,1.322C171.9,328.864,181.363,334.2,181.363,334.2Z" fill="#fbb97c"/><path d="M169.834,319.232c-.466.868-.944,1.735-1.435,2.591-2.325,4.2-4.764,8.319-7.276,12.371q-3.182,5.1-6.525,10.1c-.9,1.351-1.819,2.694-2.73,4.04l-.966-.444c-.6-.287-1.195-.6-1.766-.9-.354-.188-.694-.378-1.028-.58-.552-.329-1.09-.657-1.621-.993a1.456,1.456,0,0,0-.145-.1c-.282-.18-.56-.37-.839-.558-1.393-.954-2.692-1.947-3.878-2.921-.226-.2-.453-.39-.7-.592-.9-.774-1.732-1.532-2.487-2.262a53.278,53.278,0,0,1-4.4-4.758l-.01-.012a.011.011,0,0,0-.012-.011.024.024,0,0,1-.011-.018,18.543,18.543,0,0,0,5.205-4.178c.081-.1.172-.191.267-.3.259-.287.519-.6.79-.931a31.21,31.21,0,0,0,3.157-4.715,11.02,11.02,0,0,0,.655-1.449,12.755,12.755,0,0,0,.416-1.214c2.605-8.716,1.317-25.652,1.317-25.652l23.721-3.544s-.134,9.389-.01,17.858c.01.381.01.763.018,1.144s.011.792.024,1.183c.008.346.022.7.032,1.037.01.644.03,1.267.052,1.873.009.3.021.61.029.908,0,.064.01.128.01.178.013.181.013.359.024.539C169.742,317.751,169.784,318.522,169.834,319.232Z" fill="#e29f64"/><path d="M169.947,320.617c-.037-.423-.076-.889-.11-1.385a331.45,331.45,0,0,1-17.969,29.091c1.562.686,3.138,1.627,4.864,1.679,10.364.3,24.631-15.793,24.631-15.793S170.673,328.18,169.947,320.617Z" fill="#fbb97c"/><path d="M152.988,303.947c1.132.066,2.291.111,3.472.124C155.779,304.046,154.584,304,152.988,303.947Z" fill="#fcbf7d"/><path d="M157.09,304.081v.009s-.121,0-.358-.009C156.842,304.081,156.969,304.09,157.09,304.081Z" fill="#4b361b"/><path d="M134.007,334.176l1.98-7.681s7.4,8.567,13.121,12.257,8.779,11.448,8.779,11.448C154.409,350.313,145.076,350.511,134.007,334.176Z" fill="#5a9eba"/><path d="M181.363,334.2a.036.036,0,0,1-.012.023c-4.091,6.523-8.233,10.425-11.869,12.752-6.627,4.216-11.592,3.223-11.592,3.223a.027.027,0,0,1,.012-.02c.009-.032.04-.1.08-.222.5-1.333,3.17-7.878,8.28-11.175,0,0,.031-.024.1-.064a44.74,44.74,0,0,0,5.6-4.517c.872-.811,1.721-1.639,2.524-2.431l.175-.179q.687-.7,1.3-1.331c.115-.119.217-.235.321-.34,1.434-1.512,2.5-2.707,2.919-3.182.07-.074.125-.138.186-.212l1.394,5.4Z" fill="#5a9eba"/><path d="M134.011,332.983,96.059,346.515a10,10,0,0,0-6.445,9.3c-.255,12.906,5.655,52.134,6.467,65.926.328,5.587-.9,32.261-2.76,66.736a571.933,571.933,0,0,0,40.69-49.423Z" fill="#e6e7e8"/><path d="M93.321,488.481c-4.3,79.38-11.994,200.138-11.994,200.138,3.013,5.64,25.583,8.733,52.684,9.642v-259.2A571.933,571.933,0,0,1,93.321,488.481Z" fill="#eeefef"/><path d="M235.754,686.524c-3.831,5.194-27.037,8.72-55.943,13.042l1.554-366.012,34.128,4.314a9.794,9.794,0,0,1,7.467,8.631c1.18,10.281-3.8,53.108-4.923,75.207C216.412,453.615,235.754,686.524,235.754,686.524Z" fill="#eeefef"/><path d="M149.1,338.752s-1.307,3.211-2.615,6.66c0,0-.013,0,0,.009-.177.444-.354.889-.517,1.334-.575,1.511-1.114,3-1.516,4.208A70.638,70.638,0,0,1,134.016,334.2a.024.024,0,0,1-.011-.018l.851-3.555,1.153-4.8v-.02c.924,1.13,1.922,2.251,2.946,3.341.177.191.345.38.522.561,1.549,1.629,3.106,3.162,4.52,4.474,2.711,2.556,4.847,4.344,5.085,4.544A.1.1,0,0,1,149.1,338.752Z" fill="#77bad7"/><path d="M181.363,334.2a.036.036,0,0,1-.012.023,70.643,70.643,0,0,1-10.428,16.768c-.384-1.154-.9-2.556-1.441-4.016-.153-.414-.324-.837-.477-1.247-.053-.148-.115-.287-.156-.434-1.321-3.4-2.587-6.513-2.587-6.513s.031-.024.1-.064c.467-.36,2.718-2.072,5.469-4.517.856-.75,1.747-1.563,2.652-2.431l.175-.179c.438-.423.884-.858,1.318-1.313.116-.1.23-.22.343-.337,1-1.025,1.977-2.1,2.877-3.2.07-.074.125-.138.186-.212l1.394,5.4Z" fill="#77bad7"/><path d="M163.773,346.348a24.554,24.554,0,0,0-12.175,0l-1.252,3.365,3.322,5.919h7.97l3.385-5.919Z" fill="#003d61"/><path d="M151.6,346.348l-4.084-3.6-1.544,4,4.376,2.965Z" fill="#003050"/><path d="M163.773,346.348l4.266-3.1,1.6,4.136-4.617,2.331" fill="#003050"/><path d="M161.638,355.632h-7.97l-3.5,55.449c4.694-7.362,9.585-14.728,13.554-22.582Z" fill="#003050"/><path d="M163.725,388.5c-3.969,7.854-8.86,15.22-13.554,22.582l-5.3,83.977,12.814,17.5,12.813-17.5Z" fill="#003d61"/><path d="M134.011,332.983c0,1.193-15.434,29.014-15.434,29.014l7.716,8.009-10.222,9.845,15.951,68.509c.635-1.1,1.295-2.2,1.985-3.308Z" fill="#f1f1f2"/><path d="M134.007,445.052c-.69,1.107-1.35,2.2-1.985,3.308l1.985,8.521Z" fill="#fff"/><path d="M181.365,332.983C181.373,334.176,196.8,362,196.8,362l-7.715,8.009,10.222,9.845-17.934,77.03Z" fill="#fff"/><path d="M196.107,231.9a11.791,11.791,0,0,1,1.4-.012c8.042.433,14.01,9.088,13.328,19.333s-7.756,18.2-15.8,17.769a11.592,11.592,0,0,1-1.386-.162Z" fill="#f8bc91"/><path d="M110.488,237.067a11.081,11.081,0,0,0-1.385.157c-7.908,1.392-12.531,10.686-10.334,20.759s10.393,17.1,18.3,15.711a11.119,11.119,0,0,0,1.35-.326Z" fill="#f8bc91"/><path d="M117.068,273.694a11.119,11.119,0,0,0,1.35-.326l-7.93-36.3a11.081,11.081,0,0,0-1.385.157,11.342,11.342,0,0,0-4.722,2.005c.136.45.275.907.421,1.374a139.185,139.185,0,0,1,5.108,21.749,93.147,93.147,0,0,0,2.139,11.137A11.983,11.983,0,0,0,117.068,273.694Z" fill="#d19066"/><path d="M109.866,242.625c-3.183-51.522,17.552-58.948,42.633-59.667s44.772,1.764,48.191,57.069c1.758,28.514,1.8,74.61-43.606,75.909S111.629,271.138,109.866,242.625Z" fill="#f8bc91"/><path d="M146.154,241.574c.079,3.331-1.706,6.084-3.989,6.151s-4.2-2.585-4.28-5.915,1.705-6.084,3.989-6.149S146.072,238.243,146.154,241.574Z" fill="#d19066"/><path d="M146.121,240.165c.079,3.331-1.706,6.082-3.989,6.148s-4.2-2.581-4.28-5.913,1.7-6.083,3.986-6.149S146.038,236.834,146.121,240.165Z" fill="#1e1c3c"/><path d="M144.643,237.8a1.747,1.747,0,0,1-1.615,1.852,1.81,1.81,0,1,1,1.615-1.852Z" fill="#fff"/><path d="M128.576,229.413" fill="#c58251"/><path d="M126.718,233.207s6.182-12.05,20.922-8.192c0,0-7.3-5.7-13.171-3.4S126.718,233.207,126.718,233.207Z" fill="#d19066"/><path d="M147.956,226.318a1.143,1.143,0,0,1-1.146-.178c-4.377-3.465-8.229-4.591-11.443-3.345a.1.1,0,0,0-.031.011c-5.557,2.177-7.7,10.771-7.719,10.86a1.23,1.23,0,0,1-1.508.958,1.359,1.359,0,0,1-.881-1.639c.1-.406,2.478-10.047,9.271-12.706l.028-.01c4.033-1.566,8.657-.321,13.739,3.7a1.416,1.416,0,0,1,.269,1.875A1.229,1.229,0,0,1,147.956,226.318Z" fill="#964d15"/><path d="M173.529,241.574c-.077,3.331,1.707,6.084,3.989,6.151s4.2-2.585,4.28-5.915-1.705-6.084-3.988-6.149S173.612,238.243,173.529,241.574Z" fill="#d19066"/><path d="M173.563,240.165c-.077,3.331,1.707,6.082,3.989,6.148s4.2-2.581,4.279-5.913-1.7-6.083-3.986-6.149S173.647,236.834,173.563,240.165Z" fill="#1e1c3c"/><path d="M175.043,237.8a1.665,1.665,0,1,0,1.7-1.754A1.727,1.727,0,0,0,175.043,237.8Z" fill="#fff"/><path d="M187.941,233.207s-6.18-12.05-20.923-8.192c0,0,7.3-5.7,13.174-3.4S187.941,233.207,187.941,233.207Z" fill="#d19066"/><path d="M166.7,226.318a1.14,1.14,0,0,0,1.145-.178c4.379-3.465,8.231-4.591,11.445-3.345a.115.115,0,0,1,.031.011c5.555,2.177,7.7,10.771,7.719,10.86a1.23,1.23,0,0,0,1.506.958,1.361,1.361,0,0,0,.884-1.639c-.1-.406-2.482-10.047-9.272-12.706l-.027-.01c-4.035-1.566-8.659-.321-13.742,3.7a1.416,1.416,0,0,0-.268,1.875A1.233,1.233,0,0,0,166.7,226.318Z" fill="#964d15"/><path d="M118.365,211.307s2.3-13.91,11.932-18.986c0,0,21.645,21.5,38.242,23.98L154.2,202.109s31.245,27.668,51.129,16.372,13.935-26.16,13.935-26.16a9.992,9.992,0,0,1-10.354,5.076s3.6-34.477-42.757-28.663c0,0-39.177-12.661-51.387,11.881a7.847,7.847,0,0,0-.861,5.091s-22.12,20.607-2.961,51.856l3.247,24.859s2.547-42.639,3.985-50.525" fill="#071e2b"/><path d="M162.309,291.266c-8.41,0-15.224-6.366-15.224-14.229h30.446C177.531,284.9,170.716,291.266,162.309,291.266Z" fill="#f9f9f9"/><path d="M162.309,297.521c1.38,0,2.5,1.457,2.5,3.255h-5C159.807,298.978,160.929,297.521,162.309,297.521Z" fill="#e0a35f"/><path d="M158.8,265.926c0,2.521,1.566,4.558,3.5,4.558h0c1.932,0,3.5-2.037,3.5-4.558v-11.95c0-2.517-1.572-4.558-3.5-4.558h0c-1.938,0-3.5,2.041-3.5,4.558Z" fill="#e0a35f"/><path d="M157.714,261.369c-1.933,0-3.5,2.042-3.5,4.556h0c0,2.522,1.571,4.559,3.5,4.559H166.9c1.935,0,3.5-2.037,3.5-4.559h0c0-2.514-1.568-4.556-3.5-4.556Z" fill="#e0a35f"/><path d="M142.893,314.425c3.152,4.148,8.211,8.723,11.514,10.493,1.706.9,4.849,1.12,6.694,1.028,2.06-.112,4.125-.224,6.194-.313,1.653-.088,11.41-7.079,12.394-7.9,2.124-1.774,4.025-5.86,4.331-9.126.514-5.451,2.734-20.934,1.046-25.154-.878-2.206-4.284-7.99-10.428-10.261-5.945-2.2-11.7.523-11.7.523a76.451,76.451,0,0,0-8.534-.911c-2.371-.083-4.325.271-8.008,2.492-2.581,1.55-4.362,4.54-5.057,9.523C141.037,286.975,139.623,310.144,142.893,314.425Zm13.957-11.486c-6.987-3.145-12.546-9.726-12.546-15.858,0-5.718,6.161-6.455,13.384-7.929a26.926,26.926,0,0,0,4.9-2.27,22.509,22.509,0,0,0,4.722,2.346c7.047,1.552,13.047,1.33,13.047,6.947,0,5.277-5.044,12.685-11.656,15.909-7.328,3.567-2-6.875-3.323-6.621-.831.161-5.594.229-6.448.229C157.894,295.692,161.378,304.979,156.85,302.939Z" fill="#3b2f18"/><g style="mix-blend-mode:overlay;isolation:isolate"><path d="M824.4,313.39s7.577-5.229,2.344-12.809c5.233,7.58,12.811,2.34,12.811,2.34-7.578,5.24-2.34,12.815-2.34,12.815S831.974,308.161,824.4,313.39Z" fill="#fff" fill-rule="evenodd"/><path d="M861.976,317.684s-5,3.451-1.547,8.464c-3.452-5.013-8.465-1.554-8.465-1.554,5.013-3.459,1.549-8.465,1.549-8.465S856.977,321.135,861.976,317.684Z" fill="#fff" fill-rule="evenodd"/><path d="M800.192,318.413s-3.941,2.721-1.219,6.676c-2.722-3.955-6.676-1.225-6.676-1.225,3.954-2.73,1.221-6.676,1.221-6.676S796.251,321.134,800.192,318.413Z" fill="#fff" fill-rule="evenodd"/><path d="M807.8,252.115l-1.165-2.278-2.127-1.246,2.127-1.246,1.165-2.278,1.164,2.278,2.128,1.246-2.128,1.246Z" fill="#fff"/><path d="M778.436,291.6l-1.3-1.269-1.732-.32,1.187-1.389.3-1.855,1.3,1.27,1.732.319-1.186,1.39Z" fill="#fff"/><path d="M767.133,260.563l-1.36-.6-1.447.283.559-1.456-.264-1.548,1.359.6,1.448-.283-.559,1.456Z" fill="#fff"/><path d="M866.724,313.53l-2.879-1.033-2.943.791.965-3.079-.738-3.152,2.878,1.035,2.944-.792-.967,3.08Z" fill="#fff"/><path d="M886.769,320.017l-.073-1.161-.647-.936,1.085-.078.876-.693.072,1.161.647.936-1.085.079Z" fill="#fff"/><path d="M879.12,297.475l-1.977-.933-2.133.357.87-2.115-.332-2.284,1.976.933,2.135-.356-.873,2.115Z" fill="#fff"/><path d="M881.667,255.265l-.3-.59-.551-.323.551-.322.3-.59.3.59.55.322-.55.323Z" fill="#fff"/><path d="M800.11,341.578l0-2.352-1.186-1.977,2.2,0,1.849-1.271,0,2.351,1.188,1.979-2.2,0Z" fill="#fff"/><path d="M861.524,347.615l-1.5-1.163-1.849-.117,1.087-1.6.109-1.977,1.5,1.163,1.849.116-1.087,1.6Z" fill="#fff"/><path d="M847.354,326.475l-1.518-1.211-1.891-.143,1.131-1.626.135-2.022,1.52,1.21,1.889.142-1.132,1.626Z" fill="#fff"/><path d="M769.007,347.615l-.022-2.026-1.04-1.695,1.894-.024,1.582-1.113.022,2.027,1.041,1.694-1.894.024Z" fill="#fff"/><path d="M894.292,358.946l-1.673-.125-1.474.859.119-1.791-.8-1.576,1.672.127,1.474-.86-.118,1.791Z" fill="#fff"/><path d="M831.906,273.62l-1.164-2.278-2.129-1.246,2.129-1.246,1.164-2.278,1.164,2.278L835.2,270.1l-2.129,1.246Z" fill="#fff"/><path d="M802.544,313.108l-1.3-1.269-1.732-.319,1.185-1.389.3-1.855,1.3,1.27,1.733.319-1.186,1.39Z" fill="#fff"/><path d="M791.24,282.067l-1.36-.6-1.446.282.559-1.456-.266-1.548,1.362.6,1.445-.283-.557,1.456Z" fill="#fff"/><path d="M890.831,335.036,887.952,334l-2.945.79.967-3.079-.74-3.15,2.879,1.032,2.943-.791-.965,3.079Z" fill="#fff"/><path d="M910.877,341.523l-.073-1.164-.647-.935,1.085-.078.874-.692.073,1.161.648.936-1.085.079Z" fill="#fff"/><path d="M903.228,318.98l-1.977-.932-2.133.356.869-2.115-.332-2.283,1.977.931,2.134-.356-.87,2.117Z" fill="#fff"/><path d="M905.774,276.769l-.3-.59-.552-.323.552-.322.3-.59.3.59.551.322-.551.323Z" fill="#fff"/><path d="M824.217,363.083v-2.351l-1.187-1.979,2.2,0,1.848-1.27,0,2.35,1.185,1.979-2.2,0Z" fill="#fff"/><path d="M885.632,369.121l-1.5-1.165-1.848-.116,1.089-1.6.106-1.978,1.5,1.165,1.848.115-1.088,1.6Z" fill="#fff"/><path d="M871.464,347.98l-1.519-1.211-1.891-.143L869.185,345l.132-2.024,1.519,1.211,1.891.143-1.132,1.625Z" fill="#fff"/><path d="M793.114,369.121l-.022-2.028-1.04-1.693,1.894-.025,1.583-1.114.023,2.028,1.041,1.693-1.9.025Z" fill="#fff"/><path d="M918.4,380.451l-1.672-.126-1.473.859.117-1.79-.8-1.577,1.673.127,1.473-.859-.118,1.79Z" fill="#fff"/></g><rect width="408.039" height="273.743" transform="translate(531.878 604.976)" fill="#ad755c"/><rect width="470.806" height="7.102" transform="translate(500.495 597.875)" fill="#965d47" opacity="0.7"/><path d="M971.3,597.875H500.5l21.814-14.2H938.476Z" fill="#ad755c"/><path d="M531.878,604.976l408.039,183.2v-183.2Z" fill="#965d47" opacity="0.7"/><path d="M565.759,498.354l-4.118-7.13,16.649-9.614,24.03,41.622-16.649,9.611-7.148-12.377" fill="#e7e8ea"/><rect width="9.008" height="20.454" transform="translate(555.839 470.955) rotate(-30.001)" fill="#e7e8ea"/><rect width="14.118" height="4.91" transform="translate(551.171 467.981) rotate(-29.997)" fill="#e7e8ea"/><rect width="7.06" height="12.28" transform="translate(590.938 529.802) rotate(-30.001)" fill="#e7e8ea"/><rect width="43.053" height="4.975" transform="translate(581.98 545.474)" fill="#e7e8ea"/><path d="M563.882,518.544a25.873,25.873,0,1,0,40.223,31.9h9.663a34.5,34.5,0,1,1-53.912-39.889" fill="#e7e8ea"/><path d="M591.405,570.265V581.5H572.555V570.265" fill="#e7e8ea"/><rect width="52.912" height="6.596" transform="translate(555.524 581.502)" fill="#e7e8ea"/><path d="M585.328,509.169A12.772,12.772,0,1,1,572.555,496.4,12.774,12.774,0,0,1,585.328,509.169Z" fill="#8397b7"/><path d="M579.723,509.169A7.168,7.168,0,1,1,572.555,502,7.167,7.167,0,0,1,579.723,509.169Z" fill="#e7e8ea"/><path d="M673.892,542.976c-.156-5.705-3.789-10.429-8.609-11.624v-3.3H649.935v3.286c-4.846,1.172-8.5,5.912-8.659,11.635v34.45a12.852,12.852,0,0,0,12.852,12.853h6.964a12.853,12.853,0,0,0,12.851-12.853v-34.45Z" fill="#a2ffef"/><path d="M643.022,556.764v22.715h.023a11.457,11.457,0,0,0,11.43,9.373h6.269a11.458,11.458,0,0,0,11.43-9.373h.02V556.764Z" fill="#00b9e6"/><path d="M672.194,556.764c0,1.381-6.531,2.5-14.585,2.5s-14.587-1.117-14.587-2.5,6.532-2.5,14.587-2.5S672.194,555.384,672.194,556.764Z" fill="#00cafb"/><path d="M645.024,546.9v32.311s.713,4.729,3.661,6.428c0,0-2.5-2.235-2.5-7.053V546.9Z" fill="#bffff2" opacity="0.3"/><rect width="17.477" height="5.768" transform="translate(648.87 522.287)" fill="#007191"/><path d="M663.107,527.563c-.087.174-.159.333-.224.492h3.464v-5.768h-3.211A5.792,5.792,0,0,1,663.107,527.563Z" opacity="0.1"/><g opacity="0.5"><path d="M654.543,568.888a1.923,1.923,0,1,1-1.923-1.919A1.921,1.921,0,0,1,654.543,568.888Z" fill="#a2ffef"/><path d="M662.343,562.828a1.922,1.922,0,1,1-1.92-1.922A1.923,1.923,0,0,1,662.343,562.828Z" fill="#a2ffef"/><path d="M658.5,575.561a1.018,1.018,0,1,1-1.017-1.015A1.018,1.018,0,0,1,658.5,575.561Z" fill="#a2ffef"/><path d="M662.258,582.262a1.017,1.017,0,1,1-1.016-1.018A1.017,1.017,0,0,1,662.258,582.262Z" fill="#a2ffef"/><path d="M661.722,570.812a1.016,1.016,0,1,1-1.017-1.019A1.018,1.018,0,0,1,661.722,570.812Z" fill="#a2ffef"/></g><path d="M889.4,585.744H763.253c-8.708,0-15.77-9.149-15.77-20.435s7.062-20.439,15.77-20.439H889.406l3.221-4.376H763.253c-10.561,0-19.151,11.133-19.151,24.815s8.59,24.816,19.151,24.816H884.737l7.919.046Z" fill="#310000"/><path d="M883.518,565.309c0-11.983,3.549-17.243,3.666-17.415l2.222-3.024H763.253c-8.708,0-15.77,9.154-15.77,20.439s7.062,20.435,15.77,20.435H889.4l-2.186-2.972C887.067,582.552,883.518,577.292,883.518,565.309Z" fill="#f4ebe6"/><path d="M883.518,565.309v-.069H747.483v.069c0,11.286,7.062,20.435,15.77,20.435H889.4l-2.186-2.972C887.067,582.552,883.518,577.292,883.518,565.309Z" fill="#fff"/><path d="M750.732,565.309c0-11.285,7.063-20.439,15.775-20.439h-3.254c-8.708,0-15.77,9.154-15.77,20.439s7.062,20.435,15.77,20.435h3.254C757.795,585.744,750.732,576.595,750.732,565.309Z" fill="#dacdc4"/><path d="M889.372,518.035H797.017a15.773,15.773,0,0,1,0-31.547h92.357l3.218-3.376H797.017a19.151,19.151,0,1,0,0,38.3h87.688l7.922.036Z" fill="#ec0000"/><path d="M883.485,502.262c0-9.249,3.551-13.309,3.667-13.439l2.222-2.335H797.017a15.773,15.773,0,0,0,0,31.547h92.355l-2.188-2.3C887.036,515.572,883.485,511.511,883.485,502.262Z" fill="#f4ebe6"/><path d="M883.485,502.262v-.052H781.245v.054a15.772,15.772,0,0,0,15.772,15.771h92.355l-2.188-2.3C887.036,515.572,883.485,511.511,883.485,502.262Z" fill="#fff"/><path d="M784.5,502.264a15.775,15.775,0,0,1,15.773-15.776h-3.253a15.773,15.773,0,0,0,0,31.547h3.253A15.773,15.773,0,0,1,784.5,502.264Z" fill="#dacdc4"/><path d="M781.355,537.415a3.664,3.664,0,0,0,1.7-.494,4.031,4.031,0,0,0,1.8-2.4,7.877,7.877,0,0,0,1.415-2.748,2.787,2.787,0,0,0-.095-1.664,6.485,6.485,0,0,0,.345-1.568,4.341,4.341,0,0,0-2.343-4.023,5.174,5.174,0,0,0-2.39-.677,3.723,3.723,0,0,0-.827.091,12,12,0,0,0-3.438-3.033,9.944,9.944,0,0,1,1.452-.118h81.909a9.856,9.856,0,0,1,0,19.712H778.976c-.2,0-.4-.019-.6-.031A12.062,12.062,0,0,0,781.355,537.415Z" fill="#ff8000"/><path d="M783.38,530.953a11.533,11.533,0,0,0-2.587-7.241h78.765c4.27,0,7.743,3.108,7.743,6.926s-3.473,6.925-7.743,6.925H781.27A11.5,11.5,0,0,0,783.38,530.953Z" fill="#fff"/><path d="M780.793,523.712h78.765c4.153,0,7.54,2.94,7.726,6.611H783.35A11.569,11.569,0,0,0,780.793,523.712Z" fill="#efe2d8"/><path d="M862.656,530.633a8.133,8.133,0,0,0-3.974-6.921h.876c4.27,0,7.743,3.108,7.743,6.926s-3.473,6.925-7.743,6.925h-.893A8.129,8.129,0,0,0,862.656,530.633Z" fill="#dacdc4"/><path d="M759.939,480.033a3.693,3.693,0,0,0,1.7-.5,4.016,4.016,0,0,0,1.8-2.4,7.879,7.879,0,0,0,1.414-2.745,2.805,2.805,0,0,0-.093-1.665,6.61,6.61,0,0,0,.346-1.57,4.347,4.347,0,0,0-2.346-4.023,5.2,5.2,0,0,0-2.389-.677,3.844,3.844,0,0,0-.827.091,11.979,11.979,0,0,0-3.439-3.029,9.57,9.57,0,0,1,1.453-.121H839.47a9.857,9.857,0,1,1,0,19.713H757.561c-.2,0-.4-.021-.6-.032A11.98,11.98,0,0,0,759.939,480.033Z" fill="#1a7270"/><path d="M761.966,473.572a11.522,11.522,0,0,0-2.588-7.24h78.764c4.27,0,7.745,3.107,7.745,6.923s-3.475,6.925-7.745,6.925H759.853A11.484,11.484,0,0,0,761.966,473.572Z" fill="#fff"/><path d="M759.378,466.332h78.764c4.153,0,7.541,2.936,7.727,6.608H761.936A11.547,11.547,0,0,0,759.378,466.332Z" fill="#f4ebe6"/><path d="M841.241,473.249a8.126,8.126,0,0,0-3.974-6.917h.875c4.27,0,7.745,3.107,7.745,6.923s-3.475,6.925-7.745,6.925h-.892A8.134,8.134,0,0,0,841.241,473.249Z" fill="#dacdc4"/><path d="M475.834,284.017h2.747l3.8,10.963h-3.064l-.659-2.144h-2.92l-.652,2.144h-3.071Zm2.345,6.809-.97-3.4-1.022,3.4Z" fill="#848484"/><path d="M355.541,247.506h2.748l3.8,10.967h-3.055l-.667-2.148h-2.919l-.645,2.148h-3.079Zm2.35,6.811-.974-3.4-1.024,3.4Z" fill="#848484"/><path d="M393.2,286.876h2.748l3.8,10.971h-3.062l-.662-2.147h-2.919l-.652,2.147h-3.07Zm2.346,6.812-.974-3.4-1.021,3.4Z" fill="#848484"/><path d="M456.8,204.164h2.747l3.794,10.972h-3.055l-.663-2.15H456.7l-.652,2.15h-3.072Zm2.346,6.813-.974-3.4-1.021,3.4Z" fill="#848484"/><path d="M580.157,306.168a6.113,6.113,0,0,1-4.065,1.486,8.4,8.4,0,0,1-3.071-.568,7.4,7.4,0,0,1-2.559-1.659,8.21,8.21,0,0,1-1.74-2.672,9.441,9.441,0,0,1-.656-3.605,8.1,8.1,0,0,1,2.447-5.847,8.44,8.44,0,0,1,2.686-1.741,8.624,8.624,0,0,1,3.334-.638,9.2,9.2,0,0,1,2.134.243,7.666,7.666,0,0,1,1.9.722,7.5,7.5,0,0,1,1.566,1.138,5.814,5.814,0,0,1,1.137,1.5L579.9,297.1a3.759,3.759,0,0,0-1.457-1.564,3.927,3.927,0,0,0-2.068-.6,3.376,3.376,0,0,0-1.49.328,3.442,3.442,0,0,0-1.163.9,4.355,4.355,0,0,0-.768,1.383,5.7,5.7,0,0,0,0,3.518,4.087,4.087,0,0,0,.781,1.36,3.423,3.423,0,0,0,1.194.883,3.718,3.718,0,0,0,1.557.314,4.621,4.621,0,0,0,3.484-1.624h-2.855v-3.253H583.9v8.781h-3.739Z" fill="#848484"/><path d="M438.172,270.386a6.127,6.127,0,0,1-4.068,1.49,8.365,8.365,0,0,1-3.067-.571,7.2,7.2,0,0,1-2.555-1.663,8.035,8.035,0,0,1-1.745-2.668,9.378,9.378,0,0,1-.651-3.605,8.039,8.039,0,0,1,2.443-5.841,8.425,8.425,0,0,1,2.681-1.747,8.7,8.7,0,0,1,3.335-.638,9.433,9.433,0,0,1,2.14.24,7.627,7.627,0,0,1,3.465,1.862,5.73,5.73,0,0,1,1.135,1.5l-3.37,2.575a3.83,3.83,0,0,0-1.464-1.571,3.945,3.945,0,0,0-2.069-.586,3.368,3.368,0,0,0-1.484.326,3.47,3.47,0,0,0-1.165.9,4.522,4.522,0,0,0-.769,1.386,5.8,5.8,0,0,0,0,3.517,4.263,4.263,0,0,0,.784,1.362,3.4,3.4,0,0,0,1.194.881,3.738,3.738,0,0,0,1.559.314,4.62,4.62,0,0,0,3.482-1.626h-2.854v-3.252h6.782v8.785h-3.739Z" fill="#848484"/><path d="M595.915,269.712a1.508,1.508,0,0,0,.157.088c.079.036.179.077.294.117a3.368,3.368,0,0,0,.416.11,2.338,2.338,0,0,0,.484.048,1.285,1.285,0,0,0,.6-.123.793.793,0,0,0,.353-.387,2.306,2.306,0,0,0,.153-.7c.023-.283.034-.632.034-1.037V263.51h2.335v4.323a13.267,13.267,0,0,1-.107,1.767,3.31,3.31,0,0,1-.465,1.36,2.347,2.347,0,0,1-1.053.874,4.551,4.551,0,0,1-1.848.308,3.178,3.178,0,0,1-1.841-.522Z" fill="#848484"/><path d="M670.789,201.345c.026.016.081.045.158.085a2.205,2.205,0,0,0,.3.116,3.21,3.21,0,0,0,.409.111,2.706,2.706,0,0,0,.49.05,1.256,1.256,0,0,0,.6-.123.8.8,0,0,0,.349-.385,2.142,2.142,0,0,0,.154-.7c.022-.284.039-.633.039-1.039v-4.322h2.331v4.322a13.088,13.088,0,0,1-.106,1.768,3.208,3.208,0,0,1-.467,1.358,2.339,2.339,0,0,1-1.044.876,4.6,4.6,0,0,1-1.853.31,3.148,3.148,0,0,1-1.84-.526Z" fill="#848484"/><path d="M672.708,279.611a1.666,1.666,0,0,0,.154.084,2.195,2.195,0,0,0,.3.119,3.834,3.834,0,0,0,.414.11,2.324,2.324,0,0,0,.484.05,1.272,1.272,0,0,0,.6-.125.808.808,0,0,0,.35-.387,2.5,2.5,0,0,0,.151-.693c.024-.286.038-.628.038-1.039v-4.323h2.332v4.323a14.252,14.252,0,0,1-.1,1.769,3.33,3.33,0,0,1-.471,1.36,2.362,2.362,0,0,1-1.05.874,4.569,4.569,0,0,1-1.85.312,3.173,3.173,0,0,1-1.841-.528Z" fill="#848484"/><path d="M296.681,269.712c.025.016.076.046.155.088s.18.077.3.117a3.234,3.234,0,0,0,.416.11,2.345,2.345,0,0,0,.484.048,1.279,1.279,0,0,0,.6-.123.761.761,0,0,0,.347-.387,2.08,2.08,0,0,0,.158-.7c.025-.283.035-.632.035-1.037V263.51h2.335v4.323a12.607,12.607,0,0,1-.109,1.767,3.31,3.31,0,0,1-.464,1.36,2.352,2.352,0,0,1-1.053.874,4.556,4.556,0,0,1-1.847.308,3.172,3.172,0,0,1-1.841-.522Z" fill="#848484"/><path d="M531.552,336.967,519.14,307.8l8.01-3.407,4.717,11.1,4.158-14.873,9.034-3.847-5.04,17.576,18.2,11.279-9.2,3.915-11.795-7.643-1.238,3.246,3.579,8.423Z" fill="#848484"/><path d="M618.828,308.627a4.37,4.37,0,0,1-1-.042,4.616,4.616,0,0,1-1.009-.3,4.159,4.159,0,0,1-2.354-2.437,4.3,4.3,0,0,1-.27-1.613,4.3,4.3,0,0,1,2.624-3.884,4.321,4.321,0,0,1,1.639-.348,4.253,4.253,0,0,1,1.744.352,4.022,4.022,0,0,1,1.478,1.028,4.315,4.315,0,0,1,.861,1.437,4.366,4.366,0,0,1-.068,3.2,4.213,4.213,0,0,1-2.088,2.179l.648,1.792-2.005-.845Zm-1.184-2.239a1.733,1.733,0,0,0,.428.126l-.7-1.957,2.009.844.23.656a2.587,2.587,0,0,0,.4-.456,3.084,3.084,0,0,0,.289-.541,2.942,2.942,0,0,0,.211-.811,2.153,2.153,0,0,0-.059-.8,1.757,1.757,0,0,0-.372-.694,1.873,1.873,0,0,0-.716-.506,1.813,1.813,0,0,0-.877-.152,1.924,1.924,0,0,0-.762.24,2.3,2.3,0,0,0-.6.524,3.129,3.129,0,0,0-.422.717,2.849,2.849,0,0,0-.215.81,2.192,2.192,0,0,0,.058.8,1.722,1.722,0,0,0,.364.691A1.9,1.9,0,0,0,617.644,306.388Z" fill="#848484"/><path d="M705.581,206.859l2.324-8.176,3.755,1.068a2.526,2.526,0,0,1,1.04.563,2.991,2.991,0,0,1,.993,1.965,2.723,2.723,0,0,1-.086,1.088,3.008,3.008,0,0,1-.688,1.243,2.778,2.778,0,0,1-1.154.764l.872,3.5-2.533-.724-.718-2.92-.847-.24-.711,2.511Zm3.514-3.829,1.419.4a.522.522,0,0,0,.452-.122,1.031,1.031,0,0,0,.359-.6.955.955,0,0,0-.016-.708.624.624,0,0,0-.352-.344l-1.362-.385Z" fill="#848484"/><path d="M640.848,270.428l-4.371,7.3-2-1.2,1.708-2.856L633.74,272.2l-1.711,2.86-2.006-1.2,4.369-7.3,2,1.2-1.612,2.688,2.444,1.468,1.612-2.694Z" fill="#848484"/><path d="M514.643,264.681h2.146l-2.578,6.3h-1.852l-.852-2.4-.852,2.4H508.8l-2.579-6.3h2.146l1.522,4.223.393-1.351-1.12-2.872h1.808l.537,1.838.541-1.838h1.805l-1.127,2.872.4,1.351Z" fill="#848484"/><path d="M643.1,226.649a6.2,6.2,0,0,0-.739-.381,6.661,6.661,0,0,0-.726-.271,2.581,2.581,0,0,0-.786-.127,1,1,0,0,0-.492.1.324.324,0,0,0-.189.319.366.366,0,0,0,.108.276,1,1,0,0,0,.313.2,3.057,3.057,0,0,0,.494.174c.2.057.422.125.666.2a9.28,9.28,0,0,1,1.058.395,3.275,3.275,0,0,1,.811.511,2.016,2.016,0,0,1,.516.713,2.508,2.508,0,0,1,.176,1.018,2.67,2.67,0,0,1-.279,1.288,2.251,2.251,0,0,1-.742.83,3.043,3.043,0,0,1-1.043.45,5.082,5.082,0,0,1-1.167.137,6.477,6.477,0,0,1-.955-.072,7.454,7.454,0,0,1-.979-.2,8.6,8.6,0,0,1-.938-.314,5.99,5.99,0,0,1-.827-.4l1-2.052a6.971,6.971,0,0,0,.877.472,6.284,6.284,0,0,0,.864.323,3.521,3.521,0,0,0,.995.143.944.944,0,0,0,.529-.1.31.31,0,0,0,.152-.266.393.393,0,0,0-.152-.306,1.379,1.379,0,0,0-.414-.224c-.175-.062-.38-.128-.607-.191s-.47-.139-.724-.227a6.1,6.1,0,0,1-.966-.414,2.7,2.7,0,0,1-.676-.5,1.852,1.852,0,0,1-.386-.642,2.587,2.587,0,0,1-.126-.828,2.867,2.867,0,0,1,.257-1.245,2.6,2.6,0,0,1,.7-.9,3.188,3.188,0,0,1,1.009-.546,3.876,3.876,0,0,1,1.205-.187,4.456,4.456,0,0,1,.909.092,7.739,7.739,0,0,1,.86.227c.277.1.534.191.773.3s.448.211.646.306Z" fill="#848484"/><path d="M504.279,326.6a5.919,5.919,0,0,1-1.295.477,6.227,6.227,0,0,1-1.441.161,5.685,5.685,0,0,1-2.413-.5,5.876,5.876,0,0,1-1.862-1.334,6.138,6.138,0,0,1-1.2-1.9,5.9,5.9,0,0,1-.432-2.2,5.779,5.779,0,0,1,.447-2.223,5.971,5.971,0,0,1,3.134-3.2,5.778,5.778,0,0,1,2.395-.485,5.531,5.531,0,0,1,2.414.515,5.992,5.992,0,0,1,1.862,1.358,6.149,6.149,0,0,1,1.613,4.1,5.806,5.806,0,0,1-1.479,3.865l1.771,1.925H504.8Zm-2.7-2.208a2.472,2.472,0,0,0,.606-.062l-1.923-2.11h3l.636.708a3.472,3.472,0,0,0,.271-.787,4.769,4.769,0,0,0,.078-.839,3.9,3.9,0,0,0-.165-1.142,2.915,2.915,0,0,0-.5-.98,2.482,2.482,0,0,0-.838-.684,2.53,2.53,0,0,0-1.175-.257,2.483,2.483,0,0,0-1.2.273,2.546,2.546,0,0,0-.834.708,2.85,2.85,0,0,0-.477.984,4,4,0,0,0,0,2.272,2.97,2.97,0,0,0,.493.981,2.424,2.424,0,0,0,.83.684A2.628,2.628,0,0,0,501.579,324.389Z" fill="#848484"/><path d="M337.524,223.83l-4.83-10.635,4.884-2.218a3.581,3.581,0,0,1,1.586-.328,4.154,4.154,0,0,1,1.515.322,4.358,4.358,0,0,1,1.272.847,3.955,3.955,0,0,1,.884,1.215,4.237,4.237,0,0,1,.381,1.917,3.9,3.9,0,0,1-.53,1.822l4.021,2.889-3.29,1.5-3.358-2.414-1.1.5,1.484,3.265Zm.284-7.137,1.842-.839a.7.7,0,0,0,.363-.526,1.461,1.461,0,0,0-.146-.945,1.346,1.346,0,0,0-.652-.723.838.838,0,0,0-.677-.049l-1.765.8Z" fill="#848484"/><path d="M395.781,213.38l8.323,12.164-3.342,2.284-3.256-4.76-4.077,2.791,3.258,4.76-3.341,2.282-8.323-12.161,3.342-2.284,3.069,4.487,4.082-2.786-3.077-4.49Z" fill="#848484"/><path d="M697.917,224.433l4.855-1.413-1.679,15.958-4.2,1.221-3.509-4.861-.342,5.982-4.2,1.224-9.981-12.561,4.854-1.415,6.229,8.564.005-3.32-4.442-5.763,4.091-1.193,2.435,3.817.005-4.53,4.095-1.191-.656,7.254,1.785,2.8Z" fill="#848484"/><path d="M358.328,184.8a8.965,8.965,0,0,0-1.146.042,8.726,8.726,0,0,0-1.049.171,3.439,3.439,0,0,0-1.022.377,1.419,1.419,0,0,0-.53.449.46.46,0,0,0-.006.513.521.521,0,0,0,.314.257,1.451,1.451,0,0,0,.5.026,6.045,6.045,0,0,0,.718-.127c.269-.066.581-.136.935-.205a11.662,11.662,0,0,1,1.527-.244,4.613,4.613,0,0,1,1.314.064,2.7,2.7,0,0,1,1.1.5,3.555,3.555,0,0,1,.9,1.1,3.648,3.648,0,0,1,.534,1.728,3.142,3.142,0,0,1-.329,1.5,4.2,4.2,0,0,1-.941,1.241,6.994,6.994,0,0,1-1.308.954,9.134,9.134,0,0,1-1.188.558,12,12,0,0,1-2.637.674,8.266,8.266,0,0,1-1.268.073l-.182-3.127a9.526,9.526,0,0,0,1.361-.033,8.371,8.371,0,0,0,1.256-.2,4.875,4.875,0,0,0,1.282-.491,1.41,1.41,0,0,0,.57-.486.426.426,0,0,0-.005-.422.517.517,0,0,0-.388-.264,1.938,1.938,0,0,0-.642.01c-.253.044-.538.106-.85.183s-.658.149-1.02.212a8.642,8.642,0,0,1-1.44.165,3.666,3.666,0,0,1-1.146-.152,2.457,2.457,0,0,1-.894-.5,3.46,3.46,0,0,1-.709-.9,3.931,3.931,0,0,1-.534-1.666,3.511,3.511,0,0,1,.236-1.546,4.331,4.331,0,0,1,.837-1.335,5.293,5.293,0,0,1,1.316-1.034,6.316,6.316,0,0,1,1.152-.506,9.994,9.994,0,0,1,1.175-.308,11.358,11.358,0,0,1,1.129-.159c.355-.037.684-.057.977-.074Z" fill="#848484"/></g></svg>