<svg xmlns="http://www.w3.org/2000/svg" xmlns:xlink="http://www.w3.org/1999/xlink" width="170.218" height="170.277" viewBox="0 0 170.218 170.277"><defs><linearGradient id="a" x1="-3.256" y1="-2.028" x2="-3.256" y2="-2.016" gradientUnits="objectBoundingBox"><stop offset="0" stop-color="#81b4e0"/><stop offset="1" stop-color="#0c5a94"/></linearGradient><linearGradient id="b" x1="-0.878" y1="6.103" x2="-0.878" y2="6.818" gradientUnits="objectBoundingBox"><stop offset="0" stop-color="#f06b59"/><stop offset="1" stop-color="#df2227"/></linearGradient><linearGradient id="c" x1="-1.592" y1="5.279" x2="-1.285" y2="4.842" gradientUnits="objectBoundingBox"><stop offset="0" stop-color="#388b41"/><stop offset="1" stop-color="#4cb749"/></linearGradient><linearGradient id="d" x1="-1.558" y1="5.663" x2="-1.965" y2="4.932" gradientUnits="objectBoundingBox"><stop offset="0" stop-color="#e4b022"/><stop offset="0.3" stop-color="#fcd209"/></linearGradient><linearGradient id="e" x1="-5.159" y1="10.542" x2="-5.159" y2="9.555" gradientUnits="objectBoundingBox"><stop offset="0" stop-opacity="0.149"/><stop offset="0.3" stop-opacity="0.059"/><stop offset="1" stop-opacity="0.031"/></linearGradient><linearGradient id="f" x1="-4.368" y1="9.785" x2="-5.491" y2="10.485" xlink:href="#e"/><linearGradient id="g" x1="-2.183" y1="46.309" x2="-2.105" y2="42.151" xlink:href="#e"/></defs><g transform="translate(0 -0.25)"><circle cx="83.805" cy="83.805" r="83.805" transform="translate(1.509 1.908)" fill="#fff"/><path d="M138.644,100.95a53.331,53.331,0,1,0-106.661,0H47.22a38.093,38.093,0,1,1,76.186,0" fill="rgba(0,0,0,0.1)"/><circle cx="28.951" cy="28.951" r="28.951" transform="translate(60.172 67.428)" fill="rgba(0,0,0,0.1)"/><circle cx="31.236" cy="31.236" r="31.236" transform="translate(54.078 54.476)" fill="url(#a)"/><path d="M161.5,47.619a85.329,85.329,0,0,0-147.039-9.9L48.745,97.141A38.093,38.093,0,0,1,84.552,47.619" fill="url(#b)"/><path d="M14.461,37.716a85.33,85.33,0,0,0,64,132.565l35.809-60.948A38.1,38.1,0,0,1,48.745,97.144" fill="url(#c)"/><path d="M78.457,170.28A85.326,85.326,0,0,0,161.5,47.62H84.552a38.094,38.094,0,0,1,29.712,61.712" fill="url(#d)"/><path d="M14.461,37.716,48.745,97.142a38.093,38.093,0,0,1,1.523-25.9L15.984,35.43" fill="url(#e)"/><path d="M78.457,170.28l35.809-60.948a38.1,38.1,0,0,1-22.1,12.951l-15.238,48" fill="url(#f)"/><path d="M161.5,47.619H84.552A38.094,38.094,0,0,1,114.264,62.1l48.759-12.189" fill="url(#g)"/></g></svg>