<svg xmlns="http://www.w3.org/2000/svg" width="1920.424" height="1083" viewBox="0 0 1920.424 1083"><g transform="translate(0.424)"><rect width="1920" height="1080" transform="translate(0)" fill="#12293d"/><g opacity="0.8"><path d="M1057.525,645.566c-1.106-17.7-33.18-12.166-42.029-4.424-22.12,21.014,2.212,49.771,19.909,61.937,5.53,3.318,24.332,21.014,28.756,21.014,9.954,1.106,21.014-14.378,27.65-23.226,12.166-15.484,21.014-46.453,6.636-64.149-13.272-16.59-34.286-4.424-39.816,8.848" fill="#ef2a00" stroke="#fff" stroke-miterlimit="10" stroke-width="2.212"/><path d="M1402.6,683.171c-8.848-12.167-24.332,0-26.544,13.272-3.318,18.8,19.908,37.6,38.711,34.286,48.664-9.954,9.954-77.421-11.06-49.77" fill="#ef2a00" stroke="#fff" stroke-miterlimit="10" stroke-width="2.212"/><path d="M1692.376,732.941c-1.106-25.438-59.725,22.12-8.849,38.71,40.923,12.167,36.5-51.982,7.743-39.816" fill="#ef2a00" stroke="#fff" stroke-miterlimit="10" stroke-width="2.212"/><path d="M975.68,887.783c-11.06-33.181-101.753-1.106-78.527,49.77-12.166-4.424-28.756-8.848-39.816-1.106-14.378,11.06-5.53,32.075,12.166,23.226-11.06,16.591,8.848,37.605,17.7,17.7-1.106,15.484,7.742,29.862,22.12,15.484,8.848-8.848,7.742-25.438,4.424-36.5,14.379,12.167,37.605,5.53,50.877-5.53,16.59-12.166,17.7-26.544,17.7-45.346,14.378,2.212,32.074,6.636,42.029-7.742,14.378-18.8-11.061-29.863-23.227-16.59,27.651-19.909-5.53-42.029-13.272-17.7,6.636-19.908-13.272-26.544-18.8-4.424-2.212,9.954,3.318,18.8,6.636,27.651" fill="#ef8e98" stroke="#fff" stroke-miterlimit="10" stroke-width="2.212"/><path d="M462.4,786.366c-6.636-19.909-34.287-18.8-40.923,2.212-8.848,28.756,29.863,43.134,43.135,63.042,11.06-17.7,48.664-39.816,44.24-64.148-4.424-27.651-38.71-19.909-47.558,0" fill="#ef2a00" stroke="#fff" stroke-miterlimit="10" stroke-width="2.212"/><path d="M532.169,630.082c-17.7,4.424-30.968,27.65-22.12,44.24,13.272,25.439,40.923,13.273,61.937,17.7,11.06,2.212,19.908,15.484,28.756,3.318,5.53-7.742-3.318-25.439-5.53-32.075-6.636-15.484-7.742-48.664-25.438-55.3-18.8-6.636-30.969,16.59-37.6,21.014" fill="#ef2a00" stroke="#fff" stroke-miterlimit="10" stroke-width="2.212"/><path d="M529.957,627.87c-11.06-14.378-9.954-26.544-7.742-44.24,16.59,8.848,21.015,29.862,8.848,43.134" fill="none" stroke="#fff" stroke-miterlimit="10" stroke-width="2.212"/><path d="M528.851,626.764c-11.06-13.272-26.544-22.12-44.24-11.06,12.166,13.272,29.862,23.226,44.24,13.272" fill="none" stroke="#fff" stroke-miterlimit="10" stroke-width="2.212"/><path d="M1639.287,874.511c-8.848,37.6,29.862,88.48,65.255,97.329,44.24,13.272,92.905-9.955,118.343-48.665,8.848-13.272,15.484-36.5,16.59-51.982-63.043,12.166-138.251,3.318-197.976,3.318" fill="#f60000" stroke="#fff" stroke-miterlimit="10" stroke-width="2.212"/><path d="M1608.319,874.511c11.06,90.692,88.481,172.537,181.386,122.767,39.816-21.014,90.692-74.1,90.692-122.767-6.636,1.106-28.756-2.212-33.18,1.106-6.636,3.318-8.848,21.014-12.166,28.756-9.954,23.226-25.438,43.134-46.452,54.194-45.347,24.333-95.117,22.121-128.3-19.908-13.272-16.59-26.544-39.816-25.438-61.936-8.848,2.212-22.12,1.106-27.65-1.106" fill="#248800" stroke="#fff" stroke-miterlimit="10" stroke-width="2.212"/><path d="M1679.1,511.739c14.379,24.332,25.439,54.194,44.241,75.209,6.636-28.757,21.014-56.407,28.756-86.269-22.12,2.212-50.876,13.272-70.785,9.954" fill="#a7e500" stroke="#fff" stroke-miterlimit="10" stroke-width="2.212"/><path d="M1076.595,633.484c-3.271-17.983-27.795-24.524-40.873-9.809-21.256,24.524,14.715,68.668,37.6,75.206,19.621,6.539,55.588-34.331,50.685-60.491-4.9-29.43-39.238-21.254-47.414-4.906" fill="none" stroke="#fff" stroke-linecap="round" stroke-linejoin="round" stroke-width="6.636"/><path d="M270.177,370.507c-.79-12.626-23.675-8.68-29.988-3.157-15.782,14.994,1.578,35.511,14.2,44.192,3.946,2.368,17.361,14.994,20.517,14.994,7.1.79,14.994-10.259,19.729-16.572,8.681-11.048,14.994-33.144,4.736-45.77-9.471-11.836-24.465-3.157-28.41,6.313" fill="#efa400" stroke="#fff" stroke-miterlimit="10" stroke-width="2.212"/><path d="M283.782,361.887c-2.333-12.831-19.831-17.5-29.162-7-15.167,17.5,10.5,48.994,26.829,53.66,14,4.665,39.662-24.5,36.163-43.161-3.5-21-28-15.165-33.83-3.5" fill="none" stroke="#fff" stroke-linecap="round" stroke-linejoin="round" stroke-width="6.636"/><path d="M1233.178,168.635c-3.137-10.5-21.671-2.687-25.916,3.211-10.375,15.738,8.289,29.647,20.638,34.5,3.794,1.224,17.584,9.248,20.243,8.63,6.148-.724,10.644-11.591,13.4-17.844,5.159-11.02,6.156-30.9-4.971-39.539-10.306-8.13-21.256,2.128-22.729,10.89" fill="#ef2a00" stroke="#fff" stroke-miterlimit="10" stroke-width="2.212"/><path d="M1242.968,158.7c-4.481-10.368-20.157-10.878-25.972-.194-9.369,17.732,18.452,39.276,33.143,40.013,12.722,1.195,28.659-28.432,22.051-43.492-7.065-17.03-26.587-7.31-29.222,3.673" fill="none" stroke="#fff" stroke-linecap="round" stroke-linejoin="round" stroke-width="6.636"/><path d="M1824.894,771.836c-3.137-10.5-21.671-2.687-25.916,3.21-10.375,15.739,8.289,29.648,20.639,34.5,3.793,1.225,17.583,9.249,20.242,8.631,6.148-.723,10.644-11.591,13.4-17.844,5.159-11.02,6.157-30.9-4.97-39.539-10.307-8.131-21.257,2.128-22.73,10.89" fill="#ef2a00" stroke="#fff" stroke-miterlimit="10" stroke-width="2.212"/><path d="M1834.684,761.9c-4.48-10.367-20.157-10.877-25.972-.193-9.369,17.732,18.452,39.275,33.144,40.013,12.721,1.2,28.659-28.432,22.051-43.492-7.066-17.03-26.588-7.31-29.223,3.672" fill="none" stroke="#fff" stroke-linecap="round" stroke-linejoin="round" stroke-width="6.636"/><path d="M746.88,731.129c-2.012-6.734-13.9-1.724-16.623,2.058-6.656,10.095,5.316,19.016,13.238,22.127,2.432.786,11.278,5.932,12.982,5.536,3.945-.462,6.828-7.435,8.6-11.444,3.309-7.07,3.948-19.818-3.187-25.363-6.612-5.214-13.635,1.368-14.579,6.986" fill="#47c6ff" stroke="#fff" stroke-miterlimit="10" stroke-width="2.212"/><path d="M753.159,724.754c-2.873-6.649-12.928-6.975-16.659-.123C730.49,736,748.336,749.823,757.758,750.3c8.159.767,18.383-18.239,14.145-27.9-4.532-10.922-17.052-4.689-18.744,2.355" fill="none" stroke="#fff" stroke-linecap="round" stroke-linejoin="round" stroke-width="6.636"/><path d="M29.563,995.656c-2.011-6.734-13.9-1.724-16.623,2.058-6.655,10.1,5.316,19.016,13.238,22.127,2.432.786,11.278,5.932,12.982,5.536,3.945-.462,6.829-7.435,8.6-11.444,3.309-7.07,3.948-19.818-3.186-25.363-6.613-5.214-13.636,1.367-14.58,6.986" fill="#ef2a00" stroke="#fff" stroke-miterlimit="10" stroke-width="2.212"/><path d="M35.842,989.281c-2.873-6.649-12.928-6.975-16.659-.123-6.01,11.373,11.836,25.192,21.258,25.665,8.159.767,18.384-18.239,14.145-27.9-4.532-10.922-17.052-4.689-18.744,2.355" fill="none" stroke="#fff" stroke-linecap="round" stroke-linejoin="round" stroke-width="6.636"/><path d="M919.844,821.364c-2.011-6.734-13.9-1.724-16.623,2.058-6.655,10.1,5.316,19.016,13.238,22.127,2.432.786,11.278,5.932,12.982,5.537,3.945-.463,6.829-7.436,8.6-11.445,3.309-7.07,3.949-19.818-3.186-25.363-6.613-5.214-13.636,1.368-14.58,6.986" fill="#ef2a00" stroke="#fff" stroke-miterlimit="10" stroke-width="2.212"/><path d="M926.123,814.989c-2.873-6.649-12.928-6.975-16.659-.123-6.01,11.373,11.836,25.192,21.258,25.665,8.159.767,18.383-18.238,14.145-27.9-4.532-10.922-17.052-4.689-18.744,2.355" fill="none" stroke="#fff" stroke-linecap="round" stroke-linejoin="round" stroke-width="6.636"/><path d="M972.929,98.069c-2.011-6.733-13.9-1.724-16.623,2.059-6.655,10.094,5.317,19.016,13.238,22.126,2.432.787,11.278,5.932,12.983,5.537,3.944-.462,6.828-7.436,8.6-11.445,3.31-7.07,3.949-19.817-3.186-25.363-6.612-5.214-13.635,1.368-14.579,6.986" fill="#ef2a00" stroke="#fff" stroke-miterlimit="10" stroke-width="2.212"/><path d="M979.209,91.694c-2.873-6.649-12.929-6.975-16.66-.123-6.009,11.373,11.836,25.192,21.259,25.665,8.159.767,18.383-18.238,14.144-27.9-4.532-10.921-17.052-4.689-18.743,2.355" fill="none" stroke="#fff" stroke-linecap="round" stroke-linejoin="round" stroke-width="6.636"/><path d="M700.864,333.639c-2.011-6.734-13.9-1.724-16.622,2.058-6.656,10.1,5.316,19.016,13.237,22.127,2.433.786,11.279,5.932,12.983,5.536,3.944-.462,6.828-7.435,8.6-11.444,3.31-7.07,3.949-19.818-3.186-25.363-6.612-5.215-13.635,1.368-14.579,6.986" fill="#ef2a00" stroke="#fff" stroke-miterlimit="10" stroke-width="2.212"/><path d="M707.144,327.264c-2.873-6.649-12.929-6.975-16.659-.123-6.01,11.373,11.835,25.192,21.258,25.665,8.159.767,18.383-18.239,14.145-27.9-4.532-10.922-17.053-4.69-18.744,2.355" fill="none" stroke="#fff" stroke-linecap="round" stroke-linejoin="round" stroke-width="6.636"/><path d="M476.348,779.371c-3.271-28.614-41.691-22.073-46.6,2.45C423.212,813.7,464.9,822.7,477.982,845.585c6.54-26.976,48.23-31.882,46.6-65.4-.819-31.063-43.326-26.159-46.6-.816" fill="none" stroke="#fff" stroke-linecap="round" stroke-linejoin="round" stroke-width="6.636"/><path d="M994.336,874.375c-41.166-17.12-112.464,22.405-73.522,69.9,35.344,42.529,116.434-25.285,77.391-66.652a11.041,11.041,0,0,0-4.589-4.245" fill="none" stroke="#fff" stroke-linecap="round" stroke-linejoin="round" stroke-width="6.636"/><path d="M999.918,877.9c-1.782-10.823-1.647-33.632,9-39.829,11.916-8.632,28.391,3.661,16.92,15,16.164-13.218,28.559,8.081,10.239,18.322,21.1-.138,21.783,17.532,5,23.628-9.383,3.77-23.082,1.579-31.369-1.5" fill="none" stroke="#fff" stroke-linecap="round" stroke-linejoin="round" stroke-width="6.636"/><path d="M915.607,932.907c-10.445-6.06-29.281-9.073-41.37-4.859-24.452,10.136-9.278,41.541,3.735,26.061-5.171,15.855,16.337,35.1,20.342,15.544-2.463,15.411,10.585,27.158,21.611,13.115,6.506-7.74,2.841-23.252,2.5-32.087" fill="none" stroke="#fff" stroke-linecap="round" stroke-linejoin="round" stroke-width="6.636"/><path d="M888.175,945.2c6.405-1.609,13.8-3.938,20.926-4.555" fill="none" stroke="#fff" stroke-linecap="round" stroke-linejoin="round" stroke-width="6.636"/><path d="M899.786,954.964c2.98-2.158,4.967-3.6,7.946-5.755" fill="none" stroke="#fff" stroke-linecap="round" stroke-linejoin="round" stroke-width="6.636"/><path d="M1019.472,881.905c4.692-1.882,8.391-3.046,13.082-4.932" fill="none" stroke="#fff" stroke-linecap="round" stroke-linejoin="round" stroke-width="6.636"/><path d="M1013.272,871.255c3.254-3.869,5.514-7.02,8.768-10.889" fill="none" stroke="#fff" stroke-linecap="round" stroke-linejoin="round" stroke-width="6.636"/><path d="M925.914,917.872c-1.3-24.795,31.059-24.011,44.86-27.949" fill="none" stroke="#fff" stroke-linecap="round" stroke-linejoin="round" stroke-width="6.636"/><path d="M1685.368,501.772c18.392,12.261,29.428,58.857,50.274,76.024,14.715-14.715,29.428-63.763,30.655-80.929" fill="none" stroke="#fff" stroke-linecap="round" stroke-linejoin="round" stroke-width="6.636"/><path d="M1415.6,672.621c0-6.54-8.177-11.444-17.986-3.269-19.619,17.983,6.541,45.777,26.16,44.143,60.494-4.9,8.174-88.286-8.174-42.509" fill="none" stroke="#fff" stroke-linecap="round" stroke-linejoin="round" stroke-width="6.636"/><path d="M1415.6,669.352c-4.9-21.255-8.177-45.779,4.906-63.762" fill="none" stroke="#fff" stroke-linecap="round" stroke-linejoin="round" stroke-width="6.636"/><path d="M1708.255,726.574c6.541-19.62-17.984-19.62-21.254,0-3.268,16.349,14.715,31.064,31.063,29.428,45.781-8.174,6.541-67.031-11.444-31.063" fill="none" stroke="#fff" stroke-linecap="round" stroke-linejoin="round" stroke-width="6.636"/><path d="M1711.573,724.986c-2.435-32.751.883-62.612,27.8-80.11" fill="none" stroke="#fff" stroke-linecap="round" stroke-linejoin="round" stroke-width="6.636"/><path d="M1623.237,867.175H1893" fill="none" stroke="#fff" stroke-linecap="round" stroke-linejoin="round" stroke-width="6.636"/><path d="M1621.6,867.175c-3.271,58.856,47.413,124.253,103,137.333,75.207,16.348,137.333-37.6,161.858-106.27,3.271-11.445,8.176-22.889,4.9-31.063" fill="none" stroke="#fff" stroke-linecap="round" stroke-linejoin="round" stroke-width="6.636"/><path d="M1649.4,872.078c3.268,130.795,199.46,122.621,204.363-4.9" fill="none" stroke="#fff" stroke-linecap="round" stroke-linejoin="round" stroke-width="6.636"/><path d="M1685.364,908.047a77.436,77.436,0,0,1,16.35-16.35" fill="none" stroke="#fff" stroke-linecap="round" stroke-linejoin="round" stroke-width="6.636"/><path d="M1736.046,911.318a144.922,144.922,0,0,1-13.078,27.793" fill="none" stroke="#fff" stroke-linecap="round" stroke-linejoin="round" stroke-width="6.636"/><path d="M1775.285,912.953c1.636,6.539,1.636,14.713,1.636,22.887" fill="none" stroke="#fff" stroke-linecap="round" stroke-linejoin="round" stroke-width="6.636"/><path d="M1807.982,894.967c4.906,4.906,9.809,11.445,14.715,16.351" fill="none" stroke="#fff" stroke-linecap="round" stroke-linejoin="round" stroke-width="6.636"/><path d="M1829.238,883.523q2.453,4.905,4.9,9.811" fill="none" stroke="#fff" stroke-linecap="round" stroke-linejoin="round" stroke-width="6.636"/><path d="M1700.076,917.857c3.273-4.9,8.177-8.174,11.447-13.08" fill="none" stroke="#fff" stroke-linecap="round" stroke-linejoin="round" stroke-width="6.636"/><path d="M539.025,622.756c-14.92,2.912-23.5,31.69-18.341,44.882,8.584,24.133,46.123,18.1,65.712,25.887,34.723,12.581,31.626-16.5,21.556-41.637-9.1-20.162-2.221-57.642-35.271-55.063-13.918,1.428-25.653,14.042-31.413,24.2" fill="none" stroke="#fff" stroke-linecap="round" stroke-linejoin="round" stroke-width="6.636"/><path d="M539.025,622.756c-14.676,4.156-30.809.852-40.18-14.1,16.921-5.885,31.079-6.067,40.695,10.123" fill="none" stroke="#fff" stroke-linecap="round" stroke-linejoin="round" stroke-width="6.636"/><path d="M542.269,619.54c-6.885-15.433-8.584-24.134-6.765-41.268l1.241-.242h0c17.345,9.519,20.5,25.682,6.283,38.782" fill="none" stroke="#fff" stroke-linecap="round" stroke-linejoin="round" stroke-width="6.636"/><path d="M537.42,647.59c1.213,6.216,4.914,11.947,10.616,14.708" fill="none" stroke="#fff" stroke-linecap="round" stroke-linejoin="round" stroke-width="6.636"/><path d="M559.373,627.817a45.08,45.08,0,0,1,7.157,10.219" fill="none" stroke="#fff" stroke-linecap="round" stroke-linejoin="round" stroke-width="6.636"/><path d="M577.566,615.231c.728,3.728,2.455,5.975,5.671,9.217" fill="none" stroke="#fff" stroke-linecap="round" stroke-linejoin="round" stroke-width="6.636"/><path d="M557.8,646.194a13.682,13.682,0,0,0,5.428,7.974" fill="none" stroke="#fff" stroke-linecap="round" stroke-linejoin="round" stroke-width="6.636"/><path d="M582.087,658.229c1.97,3.488,5.187,6.73,7.157,10.219" fill="none" stroke="#fff" stroke-linecap="round" stroke-linejoin="round" stroke-width="6.636"/><path d="M588.877,640.126c.486,2.486,2.214,4.728,3.943,6.973" fill="none" stroke="#fff" stroke-linecap="round" stroke-linejoin="round" stroke-width="6.636"/><path d="M570.352,670.843c1.731,2.246,4.458,3,5.944,4" fill="none" stroke="#fff" stroke-linecap="round" stroke-linejoin="round" stroke-width="6.636"/><path d="M600.919,668.748c.485,2.488,1.214,6.218,2.943,8.46" fill="none" stroke="#fff" stroke-linecap="round" stroke-linejoin="round" stroke-width="6.636"/><path d="M554.434,675.243c.243,1.244.243,1.244,1.485,1" fill="none" stroke="#fff" stroke-linecap="round" stroke-linejoin="round" stroke-width="6.636"/><path d="M1277.288,321.1a17,17,0,1,1-17-17A17,17,0,0,1,1277.288,321.1Z" fill="#b89dff" stroke="#fff" stroke-linecap="round" stroke-linejoin="round" stroke-width="6.636"/><path d="M1334.611,300.009a20.4,20.4,0,1,1-20.4-20.4A20.4,20.4,0,0,1,1334.611,300.009Z" fill="#b89dff" stroke="#fff" stroke-linecap="round" stroke-linejoin="round" stroke-width="6.636"/><path d="M1340.3,342.728a26.068,26.068,0,1,1-26.065-26.067A26.068,26.068,0,0,1,1340.3,342.728Z" fill="#b85ea4" stroke="#fff" stroke-linecap="round" stroke-linejoin="round" stroke-width="6.636"/><path d="M1364.236,330.743a20.4,20.4,0,1,1-20.4-20.4A20.4,20.4,0,0,1,1364.236,330.743Z" fill="#b85ea4" stroke="#fff" stroke-linecap="round" stroke-linejoin="round" stroke-width="6.636"/><path d="M1295.7,359.47a22.669,22.669,0,1,1-22.669-22.668A22.667,22.667,0,0,1,1295.7,359.47Z" fill="#b85ea4" stroke="#fff" stroke-linecap="round" stroke-linejoin="round" stroke-width="6.636"/><path d="M1319.9,320.062a23.8,23.8,0,1,1-23.8-23.8A23.8,23.8,0,0,1,1319.9,320.062Z" fill="#b89dff" stroke="#fff" stroke-linecap="round" stroke-linejoin="round" stroke-width="6.636"/><path d="M1369.29,369.3a26.07,26.07,0,1,1-26.068-26.071A26.069,26.069,0,0,1,1369.29,369.3Z" fill="#b85ea4" stroke="#fff" stroke-linecap="round" stroke-linejoin="round" stroke-width="6.636"/><path d="M1324.432,388.071a19.268,19.268,0,1,1-19.268-19.271A19.268,19.268,0,0,1,1324.432,388.071Z" fill="#b89dff" stroke="#fff" stroke-linecap="round" stroke-linejoin="round" stroke-width="6.636"/><path d="M1279.092,385.8a14.734,14.734,0,1,1-14.732-14.733A14.731,14.731,0,0,1,1279.092,385.8Z" fill="#b89dff" stroke="#fff" stroke-linecap="round" stroke-linejoin="round" stroke-width="6.636"/><path d="M1323.8,317.773c24.934-18.135,36.273-70.274,11.334-88.41" fill="none" stroke="#fff" stroke-linecap="round" stroke-linejoin="round" stroke-width="6.636"/><path d="M1297.231,410.738A14.735,14.735,0,1,1,1282.494,396,14.735,14.735,0,0,1,1297.231,410.738Z" fill="#b85ea4" stroke="#fff" stroke-linecap="round" stroke-linejoin="round" stroke-width="6.636"/><path d="M1263.226,415.272a17,17,0,1,1-17-17A17,17,0,0,1,1263.226,415.272Z" fill="#b85ea4" stroke="#fff" stroke-linecap="round" stroke-linejoin="round" stroke-width="6.636"/><path d="M1251.267,662.365a19.907,19.907,0,1,1-19.908-19.907A19.908,19.908,0,0,1,1251.267,662.365Z" fill="none" stroke="#fff" stroke-linecap="round" stroke-linejoin="round" stroke-width="6.636"/><circle cx="23.225" cy="23.225" r="23.225" transform="translate(929.433 499.789)" fill="none" stroke="#fff" stroke-linecap="round" stroke-linejoin="round" stroke-width="6.636"/><circle cx="8.295" cy="8.295" r="8.295" transform="translate(969.247 738.675)" fill="none" stroke="#fff" stroke-linecap="round" stroke-linejoin="round" stroke-width="6.636"/><path d="M650.732,554.534a11.612,11.612,0,1,1-11.612-11.613A11.613,11.613,0,0,1,650.732,554.534Z" fill="none" stroke="#fff" stroke-linecap="round" stroke-linejoin="round" stroke-width="6.636"/><path d="M477.006,713.017a18.249,18.249,0,1,1-18.248-18.248A18.247,18.247,0,0,1,477.006,713.017Z" fill="#95ec5e" stroke="#fff" stroke-linecap="round" stroke-linejoin="round" stroke-width="6.636"/><circle cx="11.612" cy="11.612" r="11.612" transform="translate(1022.333 771.855)" fill="#95ec5e" stroke="#fff" stroke-linecap="round" stroke-linejoin="round" stroke-width="6.636"/><path d="M775.49,942.923a24.884,24.884,0,1,1-24.884-24.883A24.884,24.884,0,0,1,775.49,942.923Z" fill="#95ec5e" stroke="#fff" stroke-linecap="round" stroke-linejoin="round" stroke-width="6.636"/><path d="M1389.12,872.876a24.884,24.884,0,1,1-24.883-24.883A24.883,24.883,0,0,1,1389.12,872.876Z" fill="#4f95cc" stroke="#fff" stroke-linecap="round" stroke-linejoin="round" stroke-width="6.636"/><circle cx="13.272" cy="13.272" r="13.272" transform="translate(1526.649 330.578)" fill="#4f95cc" stroke="#fff" stroke-linecap="round" stroke-linejoin="round" stroke-width="6.636"/><circle cx="41.473" cy="41.473" r="41.473" transform="translate(1058.241 285.786) rotate(-45)" fill="#4f95cc" stroke="#fff" stroke-linecap="round" stroke-linejoin="round" stroke-width="6.636"/><circle cx="21.566" cy="21.566" r="21.566" transform="matrix(0.134, -0.991, 0.991, 0.134, 568.411, 310.908)" fill="#4f95cc" stroke="#fff" stroke-linecap="round" stroke-linejoin="round" stroke-width="6.636"/><circle cx="21.566" cy="21.566" r="21.566" transform="translate(119.873 761.9)" fill="#ff958b" stroke="#fff" stroke-linecap="round" stroke-linejoin="round" stroke-width="6.636"/><circle cx="24.883" cy="24.883" r="24.883" transform="translate(1594.592 453.59) rotate(-76.718)" fill="#ff958b" stroke="#fff" stroke-linecap="round" stroke-linejoin="round" stroke-width="6.636"/><path d="M1480.2,435.09a14.93,14.93,0,1,1-14.931-14.93A14.929,14.929,0,0,1,1480.2,435.09Z" fill="#ff958b" stroke="#fff" stroke-linecap="round" stroke-linejoin="round" stroke-width="6.636"/><path d="M1284.445,741.993a19.907,19.907,0,1,1-19.906-19.907A19.907,19.907,0,0,1,1284.445,741.993Z" fill="#ff958b" stroke="#fff" stroke-linecap="round" stroke-linejoin="round" stroke-width="6.636"/><path d="M853.122,473.246a13.272,13.272,0,1,1-13.272-13.272A13.271,13.271,0,0,1,853.122,473.246Z" fill="#ff958b" stroke="#fff" stroke-linecap="round" stroke-linejoin="round" stroke-width="6.636"/><path d="M255.906,667.341a11.613,11.613,0,1,1-11.613-11.612A11.613,11.613,0,0,1,255.906,667.341Z" fill="#c09dff" stroke="#fff" stroke-linecap="round" stroke-linejoin="round" stroke-width="6.636"/><path d="M153.053,926.135a24.884,24.884,0,1,1-24.885-24.884A24.885,24.885,0,0,1,153.053,926.135Z" fill="#c09dff" stroke="#fff" stroke-linecap="round" stroke-linejoin="round" stroke-width="6.636"/><circle cx="14.931" cy="14.931" r="14.931" transform="translate(1231.359 566.146)" fill="#c09dff" stroke="#fff" stroke-linecap="round" stroke-linejoin="round" stroke-width="6.636"/><path d="M425.117,416.842a13.271,13.271,0,1,1-13.272-13.272A13.27,13.27,0,0,1,425.117,416.842Z" fill="#c09dff" stroke="#fff" stroke-linecap="round" stroke-linejoin="round" stroke-width="6.636"/><circle cx="9.954" cy="9.954" r="9.954" transform="translate(1171.639 360.438)" fill="#c09dff" stroke="#fff" stroke-linecap="round" stroke-linejoin="round" stroke-width="6.636"/><circle cx="34.837" cy="34.837" r="34.837" transform="translate(1466.928 148.094)" fill="#c09dff" stroke="#fff" stroke-linecap="round" stroke-linejoin="round" stroke-width="6.636"/><path d="M1536.6,597.235l10.365,21,23.177,3.368-16.77,16.347,3.958,23.084-20.729-10.9-20.729,10.9,3.957-23.084-16.769-16.347,23.176-3.368Z" fill="#c09d15" stroke="#fff" stroke-linecap="round" stroke-linejoin="round" stroke-width="6.636"/><path d="M1009.063,509.014l8.99,18.216,20.1,2.921-14.547,14.18,3.435,20.021-17.98-9.453-17.98,9.453,3.435-20.021-14.547-14.18,20.1-2.921Z" fill="#c09d15" stroke="#fff" stroke-linecap="round" stroke-linejoin="round" stroke-width="6.636"/><path d="M531.29,376.244l2.181,4.418,4.876.708-3.529,3.439.834,4.856-4.361-2.292-4.361,2.292.834-4.856-3.529-3.439,4.875-.708Z" fill="#c04815" stroke="#fff" stroke-linecap="round" stroke-linejoin="round" stroke-width="6.636"/><path d="M1158.366,911.326l10.365,21,23.179,3.368-16.771,16.348,3.959,23.084-20.731-10.9-20.731,10.9,3.96-23.084L1124.823,935.7,1148,932.329Z" fill="#c04815" stroke="#fff" stroke-linecap="round" stroke-linejoin="round" stroke-width="6.636"/><path d="M962.613,956.319l6.243,12.65L982.817,971l-10.1,9.846,2.385,13.905-12.487-6.565-12.487,6.565,2.385-13.905L942.409,971l13.961-2.028Z" fill="#c04815" stroke="#fff" stroke-linecap="round" stroke-linejoin="round" stroke-width="6.636"/><path d="M239.318,722.646,245,734.166l12.714,1.848-9.2,8.968,2.171,12.662-11.371-5.978-11.371,5.978,2.171-12.662-9.2-8.968,12.714-1.848Z" fill="#ffff15" stroke="#fff" stroke-linecap="round" stroke-linejoin="round" stroke-width="6.636"/><path d="M239.318,838.781l2.758,5.588,6.167.9-4.463,4.348,1.054,6.141-5.516-2.9-5.516,2.9,1.054-6.141-4.463-4.348,6.167-.9Z" fill="#ffff15" stroke="#fff" stroke-linecap="round" stroke-linejoin="round" stroke-width="6.636"/><path d="M1427.114,317.865l5.686,11.521,12.715,1.848-9.2,8.968,2.171,12.663-11.371-5.979-11.371,5.979,2.171-12.663-9.2-8.968,12.715-1.848Z" fill="#ffff15" stroke="#fff" stroke-linecap="round" stroke-linejoin="round" stroke-width="6.636"/><path d="M1795.4,550.2l12.488,25.3,27.922,4.058L1815.6,599.253l4.77,27.81L1795.4,613.932l-24.974,13.131,4.77-27.81-20.206-19.694,27.922-4.058Z" fill="#ffff15" stroke="#fff" stroke-linecap="round" stroke-linejoin="round" stroke-width="6.636"/><path d="M1593.007,759.721l5.517,11.177,12.333,1.792-8.924,8.7,2.106,12.284-11.032-5.8-11.032,5.8,2.106-12.284-8.924-8.7,12.333-1.792Z" fill="#ffff15" stroke="#fff" stroke-linecap="round" stroke-linejoin="round" stroke-width="6.636"/><path d="M592.82,879.781l14.5,29.374,32.414,4.709-23.455,22.863,5.537,32.284L592.82,953.77l-28.992,15.242,5.536-32.284-23.455-22.863,32.413-4.709Z" fill="#ffff15" stroke="#fff" stroke-linecap="round" stroke-linejoin="round" stroke-width="6.636"/><path d="M1529.969,899.24l3.517,7.124,7.861,1.143-5.688,5.545,1.342,7.829-7.031-3.7-7.031,3.7,1.341-7.829-5.688-5.545,7.861-1.143Z" fill="#ffff15" stroke="#fff" stroke-linecap="round" stroke-linejoin="round" stroke-width="6.636"/><path d="M1166.687,817.542l8.99,18.215,20.1,2.921-14.545,14.179,3.432,20.021-17.979-9.453-17.979,9.453,3.432-20.021L1137.6,838.677l20.1-2.921Z" fill="#ffff15" stroke="#fff" stroke-linecap="round" stroke-linejoin="round" stroke-width="6.636"/><path d="M826.579,675.552l6.244,12.652,13.961,2.028-10.1,9.848,2.386,13.905-12.488-6.567-12.488,6.567,2.386-13.905-10.1-9.848,13.961-2.028Z" fill="#ffff15" stroke="#fff" stroke-linecap="round" stroke-linejoin="round" stroke-width="6.636"/><path d="M836.534,84.917l11.742,23.791,26.255,3.816-19,18.518,4.484,26.149-23.483-12.346-23.483,12.346,4.484-26.149-19-18.518,26.255-3.816Z" fill="#ffff15" stroke="#fff" stroke-linecap="round" stroke-linejoin="round" stroke-width="6.636"/><circle cx="3.318" cy="3.318" r="3.318" transform="translate(1367.392 828.257)" fill="#fff" stroke="#fff" stroke-miterlimit="10" stroke-width="2.212"/></g><ellipse cx="184.329" cy="35.267" rx="184.329" ry="35.267" transform="translate(1461 905.966)" fill="#231f20" opacity="0.6"/><path d="M124.34,1079.579S277.7,1072.738,277.7,926.224,158.83,713.864,277.7,595c0,0-125.991,57.009-153.355,198.393S.06,936.885.06,936.885v142.694Z" fill="#6d6d6d" opacity="0.25"/><path d="M239.07,1083s142.878-280.13,0-423.009c0,0,78.458,102.831,0,181.289S-4.2,870.925-.358,1083Z" fill="#6d6d6d" opacity="0.25"/><path d="M604.634,162.356c7.568,15.892,21.947,31.784,34.812,43.893,0-5.3,0-26.487,3.784-30.271,6.054-4.541,24.217.757,31.028-2.271-6.054-14.378-20.433-33.3-32.541-43.893-8.325,9.082-28,28.758-37.839,31.028" fill="#ffa800" stroke="#fff" stroke-miterlimit="10" stroke-width="1.514"/><path d="M675.015,100.3c13.622,12.108,21.946,30.271,35.568,42.38,3.028-5.3,2.271-17.406,6.055-21.947,6.054-6.811,14.378-2.27,21.946-3.784C735.557,101.057,720.422,76.083,706.8,67c-4.54,6.811-23.46,34.055-28.757,31.784" fill="#50a800" stroke="#fff" stroke-miterlimit="10" stroke-width="1.514"/><path d="M724.962,50.353A212.215,212.215,0,0,0,755.99,87.435c.757-7.568-.757-16.649-2.27-24.217,9.838.757,21.19,3.784,30.271-1.514-6.054-13.622-25.731-28-36.325-38.6-9.082,8.325-15.136,20.433-24.974,28" fill="#ffa800" stroke="#fff" stroke-miterlimit="10" stroke-width="1.514"/><path d="M500.2,230.466c6.054,17.406,13.622,42.379,24.217,57.515,2.27-5.3,4.54-27.244,10.595-29.514,4.54-2.271,19.676,8.324,24.973,9.838,1.514-9.082-14.378-46.92-21.946-53.731-6.811-6.811-12.109-.757-21.19,5.3-5.3,3.027-9.838,7.568-15.892,9.081" fill="#ff5900" stroke="#fff" stroke-miterlimit="10" stroke-width="1.514"/><path d="M418.467,266.034c7.568,17.406,9.081,42.38,20.433,57.516,6.054-9.082,10.6-20.433,15.892-30.271,8.325,4.54,18.92,7.567,26.487,12.865-1.513-17.406-8.324-47.677-20.433-60.543-11.351,5.3-35.568,8.325-42.379,18.163" fill="#ff0" stroke="#fff" stroke-miterlimit="10" stroke-width="1.514"/><path d="M326.9,298.576c-.757,21.947,13.622,43.136,18.162,63.569,6.811-9.081,9.082-22.7,15.893-32.541,8.324,3.784,16.649,7.568,24.973,12.865-1.513-18.919-9.081-40.866-17.406-58.272-12.865,6.054-26.487,8.325-40.109,12.865" fill="#50a800" stroke="#fff" stroke-miterlimit="10" stroke-width="1.514"/><path d="M236.84,327.334c4.54,18.162,13.622,35.568,15.892,54.488,6.811-6.811,6.811-18.92,14.379-24.974h0c7.568,7.568,17.406,11.352,24.974,18.919.756-21.189-5.3-42.379-9.838-62.812-17.406,2.27-32.542,9.838-49.191,12.865" fill="#ffa800" stroke="#fff" stroke-miterlimit="10" stroke-width="1.514"/><path d="M149.053,346.253c2.271,18.92,5.3,41.623,11.352,59.786,6.054-9.839,12.109-17.406,18.92-25.731,8.324,4.541,19.676,10.6,27.244,16.649-.757-11.351-.757-52.218-10.6-59.785-6.054-3.784-40.866,4.54-48.434,7.567" fill="#ff5900" stroke="#fff" stroke-miterlimit="10" stroke-width="1.514"/><path d="M77.916,348.523c3.027,21.19,6.054,43.894,5.3,65.083a123.929,123.929,0,0,1,20.433-24.217c6.811,6.055,12.108,13.622,20.433,18.163.757-19.676-1.514-40.866,1.513-60.542-10.6-4.541-35.568-2.271-46.92,0" fill="#50a800" stroke="#fff" stroke-miterlimit="10" stroke-width="1.514"/><path d="M10.563,342.469c.757,22.7-5.3,46.164-4.541,69.624,9.082-3.027,18.92-18.92,25.731-26.487,7.568,7.567,13.622,18.919,19.676,27.244,3.784-21.947,3.784-46.164,3.027-68.867-12.865,0-30.271.756-41.623-3.784" fill="#ff5900" stroke="#fff" stroke-miterlimit="10" stroke-width="1.514"/><path d="M10.737,339.893c87.258,11.746,176.192,0,260.094-25.17,130.886-38.6,263.45-88.935,365.81-179.549C656.777,118.394,736.484,40.365,753.263,11" fill="none" stroke="#fff" stroke-linecap="round" stroke-linejoin="round" stroke-width="4.541"/><path d="M613.148,158.666c9.229,15.942,24.332,27.688,34.4,43.629,3.357-9.229,5.035-21.814,5.874-31.882,10.068,3.356,20.976-1.678,31.043,0-10.907-15.942-25.17-30.205-36.917-45.307" fill="none" stroke="#fff" stroke-linecap="round" stroke-linejoin="round" stroke-width="4.541"/><path d="M508.271,223.271c10.069,18.458,17.62,39.433,26.01,58.73,4.2-8.39,6.712-18.458,11.746-26.848,8.39,3.356,15.942,4.195,24.331,5.034-7.551-15.1-18.458-44.468-29.365-53.7" fill="none" stroke="#fff" stroke-linecap="round" stroke-linejoin="round" stroke-width="4.541"/><path d="M426.049,261.865c5.873,18.458,16.78,35.239,20.974,54.536,6.713-7.552,11.747-19.3,16.781-28.526a70.823,70.823,0,0,0,26.849,11.745c-.84-12.585-13.425-52.019-20.976-57.052" fill="none" stroke="#fff" stroke-linecap="round" stroke-linejoin="round" stroke-width="4.541"/><path d="M333.757,296.264c2.517,17.62,12.585,45.307,20.975,60.41,7.551-8.391,10.069-21.815,15.942-31.883,6.712,5.873,14.262,9.229,22.653,12.585l1.678-.839c-.839-13.424-10.069-45.306-16.781-54.536" fill="none" stroke="#fff" stroke-linecap="round" stroke-linejoin="round" stroke-width="4.541"/><path d="M244.821,322.274c4.2,18.458,9.23,37.756,14.264,55.375,7.551-6.713,10.907-19.3,17.619-26.849,7.551,7.551,17.619,12.585,27.687,17.62,4.2-15.1-7.551-45.307-10.907-60.409" fill="none" stroke="#fff" stroke-linecap="round" stroke-linejoin="round" stroke-width="4.541"/><path d="M157.564,339.893c.839,18.458,6.712,41.112,10.068,59.57,8.391-5.034,16.781-16.78,20.976-26.009,8.39,8.39,18.458,12.585,27.687,18.458,4.2-16.78-10.068-42.79-11.746-60.409" fill="none" stroke="#fff" stroke-linecap="round" stroke-linejoin="round" stroke-width="4.541"/><path d="M77.019,346.605c7.551,20.136,0,45.307,7.551,65.443,8.39-5.034,13.425-15.941,19.3-22.653,6.712,7.551,14.262,14.263,22.653,18.458,5.873-17.619,0-48.662-3.356-67.121" fill="none" stroke="#fff" stroke-linecap="round" stroke-linejoin="round" stroke-width="4.541"/><path d="M10.737,340.732c0,21.815-3.356,46.985-.839,68.8,10.907-4.2,13.424-16.78,21.814-22.653,5.873,7.551,11.746,15.941,18.458,22.653,4.2-19.3,2.518-45.307,2.518-65.443" fill="none" stroke="#fff" stroke-linecap="round" stroke-linejoin="round" stroke-width="4.541"/><path d="M676.075,102.453c11.746,14.263,20.975,29.365,33.559,42.789,4.2-6.712,1.678-18.458,5.874-25.17,5.033-8.39,11.747-5.874,22.653-5.874-1.677-11.745-20.975-35.238-28.527-43.628" fill="none" stroke="#fff" stroke-linecap="round" stroke-linejoin="round" stroke-width="4.541"/><path d="M728.932,49.594C736.484,63.858,747.391,79.8,758.3,91.545c2.518-8.39-.839-20.975-2.517-29.365,8.39,0,20.136,1.678,27.688-2.517-8.39-14.264-23.493-26.01-35.239-37.756" fill="none" stroke="#fff" stroke-linecap="round" stroke-linejoin="round" stroke-width="4.541"/><path d="M1759.138,250.1c8.732,23.577,18.338,46.281,23.577,70.731,15.718-22.7,27.943-50.647,42.788-74.224-20.957,0-42.788,3.493-63.745,1.746" fill="#a56cff" stroke="#fff" stroke-miterlimit="10" stroke-width="1.746"/><path d="M1636.886,240.5c1.747,20.085,20.085,55.887,31.437,73.351,7.859-24.45,29.689-43.661,39.3-68.111-23.577,0-46.281.873-69.858-3.493" fill="#50a8ff" stroke="#fff" stroke-miterlimit="10" stroke-width="1.746"/><path d="M1527.733,225.653c6.113,24.45,20.085,53.266,19.211,78.59,14.845-22.7,34.929-42.788,50.647-65.492-21.83-8.732-48.027-6.986-69.858-13.972" fill="#a7e500" stroke="#fff" stroke-miterlimit="10" stroke-width="1.746"/><path d="M1427.313,198.583c5.239,23.577,7.859,53.266,16.591,75.97,18.338-14.845,34.929-39.3,48.9-58.506-17.464-6.986-48.027-16.591-65.491-18.338" fill="#50a8ff" stroke="#fff" stroke-miterlimit="10" stroke-width="1.746"/><path d="M1339.99,166.273c1.747,24.451,8.732,53.267,14.845,76.844,18.338-15.718,38.422-34.056,51.52-55.013-20.084-8.732-43.661-13.972-63.745-20.958" fill="#ff0" stroke="#fff" stroke-miterlimit="10" stroke-width="1.746"/><path d="M1254.414,129.6c6.113,21.83-1.746,48.9,2.62,70.731,20.084-13.972,46.281-26.2,62.872-42.788-20.084-10.479-41.042-20.957-62-27.943" fill="#a56cff" stroke="#fff" stroke-miterlimit="10" stroke-width="1.746"/><path d="M1186.3,86.81c4.366,20.957-10.479,45.408-2.62,65.492,17.464-5.24,37.549-24.451,53.267-34.929-14.845-8.733-32.31-21.831-48.028-27.943" fill="#50a8ff" stroke="#fff" stroke-miterlimit="10" stroke-width="1.746"/><path d="M1134.782,20.445c-3.493,19.211-11.352,36.675-15.718,55.886,13.972,4.366,39.3-6.986,51.521-14.845a358.806,358.806,0,0,0-33.183-39.3" fill="#a56cff" stroke="#fff" stroke-miterlimit="10" stroke-width="1.746"/><path d="M1126.765,6.394c40.661,73.576,152.962,121.982,226.538,152.962,180.069,73.576,362.075,100.683,555.7,73.576" fill="none" stroke="#fff" stroke-linecap="round" stroke-linejoin="round" stroke-width="5.239"/><path d="M1766.687,245.518c9.682,21.3,22.267,46.469,28.076,69.7,13.552-24.2,29.043-48.4,39.692-72.608" fill="none" stroke="#fff" stroke-linecap="round" stroke-linejoin="round" stroke-width="5.239"/><path d="M1642.769,234.868c14.521,22.267,21.3,48.405,35.819,70.673,8.714-21.3,26.141-42.6,32.917-60.991" fill="none" stroke="#fff" stroke-linecap="round" stroke-linejoin="round" stroke-width="5.239"/><path d="M1537.245,218.41c5.807,27.108,13.552,54.214,20.33,80.354,22.265-17.426,39.692-44.534,55.182-66.8" fill="none" stroke="#fff" stroke-linecap="round" stroke-linejoin="round" stroke-width="5.239"/><path d="M1437.529,191.3c6.777,25.171,10.649,51.31,18.394,76.481,10.649-9.681,46.47-44.533,46.47-57.119" fill="none" stroke="#fff" stroke-linecap="round" stroke-linejoin="round" stroke-width="5.239"/><path d="M1349.43,157.419c5.809,26.139,8.714,54.214,16.458,80.354,15.49-10.649,40.662-35.82,47.438-54.215" fill="none" stroke="#fff" stroke-linecap="round" stroke-linejoin="round" stroke-width="5.239"/><path d="M1264.236,123.536c2.905,22.266,0,46.469,4.842,68.735,10.649-1.936,60.991-32.915,59.054-40.66" fill="none" stroke="#fff" stroke-linecap="round" stroke-linejoin="round" stroke-width="5.239"/><path d="M1197.437,81.907c0,10.649-10.649,59.055-1.937,65.831,5.809,4.841,56.151-31.948,56.151-34.852" fill="none" stroke="#fff" stroke-linecap="round" stroke-linejoin="round" stroke-width="5.239"/><path d="M1132.574,14.139c0,21.3-8.714,45.5-14.522,65.831,14.522.969,43.565-11.617,54.214-18.394" fill="none" stroke="#fff" stroke-linecap="round" stroke-linejoin="round" stroke-width="5.239"/><g opacity="0.6"><path d="M1590.687,497.245s11.6,36.716-56.5,67.837c-85.274,38.968-175.459,52.686-158.213,114.192s64.242,101.359,18.71,120.894-93.872,64.524-40.491,120.953,169.929,126.015,275.643,84.086,237.978-2.053,233.842-82.129-43.423-52.915-9.515-135.221,78.513-79.267,38.87-126.687-85.377-34.459-96.332-97.315S1563.7,371.72,1590.687,497.245Z" fill="#eaf4c9" opacity="0.1"/><g opacity="0.1"><path d="M1571.316,471.689a73.13,73.13,0,0,1-.533,43.409c-7.688,23.112-38.4,33.807-49.69,24.138s8.036-22.449,25.531-35.038,2.891-22.55,3.66-33.638S1567.5,457.593,1571.316,471.689Z" fill="#eaf4c9"/><path d="M1817.117,560.759s-8.4,40.872,19.059,50.455,49.63-27.624,32.206-44.536S1819.019,527.217,1817.117,560.759Z" fill="#eaf4c9"/><path d="M1805.223,529.472s-39.97-21.987-33.054-29.316,33.823,1.128,48.236,12.685S1820.212,534.545,1805.223,529.472Z" fill="#eaf4c9"/><path d="M1318.406,765.829s48.42,21.164,20.111,46.162-42.1,15.878-38.275-.606,9.958-34.825,3.813-40.126S1302.563,756.3,1318.406,765.829Z" fill="#eaf4c9"/><path d="M1483.323,1018.024s52.536,28.27,91.253,10.546,86.856,9.325,57.8,21.245-171.39,14.763-192.46-19.355S1454.688,1006.8,1483.323,1018.024Z" fill="#eaf4c9"/></g></g><g opacity="0.5"><path d="M1604.79,620.826l6.705-5.417,9.453,4.088,19.194-27.239-54.723,19.893,14.44-.788Z" fill="#df0031" style="mix-blend-mode:multiply;isolation:isolate"/><path d="M1599.524,618.63c-.014.017-.357.432-.888,1.214l.961.651c.493-.73.815-1.12.82-1.123Z" fill="#df0031" style="mix-blend-mode:multiply;isolation:isolate"/><path d="M1597.093,622.393c-.468.855-.908,1.753-1.314,2.668l1.061.469c.391-.885.821-1.755,1.27-2.582Z" fill="#df0031" style="mix-blend-mode:multiply;isolation:isolate"/><path d="M1601.562,663.678l.786-.852c-.707-.655-1.388-1.341-2.021-2.042l-.859.778C1600.123,662.288,1600.828,663,1601.562,663.678Z" fill="#df0031" style="mix-blend-mode:multiply;isolation:isolate"/><path d="M1611.485,670.138l.465-1.062c-.878-.386-1.748-.809-2.587-1.262l-.55,1.021C1609.681,669.3,1610.578,669.74,1611.485,670.138Z" fill="#df0031" style="mix-blend-mode:multiply;isolation:isolate"/><path d="M1592.467,642.409l1.158-.039c-.032-.963-.03-1.932.006-2.882l-1.158-.044C1592.435,640.42,1592.434,641.418,1592.467,642.409Z" fill="#df0031" style="mix-blend-mode:multiply;isolation:isolate"/><path d="M1617.088,672.088l.294-1.122c-.928-.244-1.854-.525-2.754-.838l-.38,1.1C1615.176,671.546,1616.132,671.837,1617.088,672.088Z" fill="#df0031" style="mix-blend-mode:multiply;isolation:isolate"/><path d="M1603.833,665.6c.778.6,1.593,1.182,2.425,1.722l.632-.973c-.805-.521-1.594-1.081-2.345-1.666Z" fill="#df0031" style="mix-blend-mode:multiply;isolation:isolate"/><path d="M1598.511,658.566a25.11,25.11,0,0,1-1.573-2.389l-1.005.583a27.442,27.442,0,0,0,1.646,2.5Z" fill="#df0031" style="mix-blend-mode:multiply;isolation:isolate"/><path d="M1594.278,633.766l-1.137-.215c-.184.965-.331,1.952-.445,2.933l1.154.131C1593.958,635.661,1594.1,634.7,1594.278,633.766Z" fill="#df0031" style="mix-blend-mode:multiply;isolation:isolate"/><path d="M1594.6,654.071l1.072-.441a16.834,16.834,0,0,1-.754-2.257l-.107-.442-1.128.271.111.453A18,18,0,0,0,1594.6,654.071Z" fill="#df0031" style="mix-blend-mode:multiply;isolation:isolate"/><path d="M1594.684,627.821c-.327.924-.624,1.88-.88,2.836l1.119.3c.25-.929.537-1.855.855-2.753Z" fill="#df0031" style="mix-blend-mode:multiply;isolation:isolate"/><path d="M1594.222,648.1c-.165-.948-.3-1.91-.4-2.856l-1.154.12c.1.974.239,1.961.409,2.936Z" fill="#df0031" style="mix-blend-mode:multiply;isolation:isolate"/><path d="M1779.6,679.574l6.7,5.418,4.933-9.464,14.438.789-54.722-19.893,19.194,27.239Z" fill="#df0031" style="mix-blend-mode:multiply;isolation:isolate"/><path d="M1791.571,682.795l-.892.742s.325.394.82,1.124l.96-.651C1791.928,683.227,1791.584,682.812,1791.571,682.795Z" fill="#df0031" style="mix-blend-mode:multiply;isolation:isolate"/><path d="M1794,686.559l-1.018.554c.451.828.88,1.7,1.27,2.582l1.061-.468C1794.911,688.312,1794.469,687.414,1794,686.559Z" fill="#df0031" style="mix-blend-mode:multiply;isolation:isolate"/><path d="M1792.585,722.732l.932.69a27.011,27.011,0,0,0,1.643-2.5l-1-.582A25.894,25.894,0,0,1,1792.585,722.732Z" fill="#df0031" style="mix-blend-mode:multiply;isolation:isolate"/><path d="M1788.746,726.992l.785.85c.736-.677,1.44-1.389,2.1-2.114l-.86-.778C1790.135,725.65,1789.455,726.337,1788.746,726.992Z" fill="#df0031" style="mix-blend-mode:multiply;isolation:isolate"/><path d="M1784.836,731.485c.831-.54,1.647-1.12,2.425-1.722l-.711-.916c-.752.584-1.539,1.144-2.344,1.666Z" fill="#df0031" style="mix-blend-mode:multiply;isolation:isolate"/><path d="M1779.611,734.3c.907-.4,1.8-.835,2.67-1.3l-.55-1.021c-.839.453-1.708.877-2.585,1.263Z" fill="#df0031" style="mix-blend-mode:multiply;isolation:isolate"/><path d="M1795.318,692.372c.317.9.6,1.824.855,2.753l1.118-.3c-.257-.958-.554-1.912-.879-2.837Z" fill="#df0031" style="mix-blend-mode:multiply;isolation:isolate"/><path d="M1798.4,700.65c-.112-.982-.261-1.969-.443-2.934l-1.14.215c.18.938.323,1.9.431,2.85Z" fill="#df0031" style="mix-blend-mode:multiply;isolation:isolate"/><path d="M1798.425,709.533l-1.154-.121c-.1.947-.234,1.908-.4,2.857l1.144.2C1798.184,711.493,1798.322,710.506,1798.425,709.533Z" fill="#df0031" style="mix-blend-mode:multiply;isolation:isolate"/><path d="M1797.3,715.82l.112-.452-1.127-.272-.109.442a16.684,16.684,0,0,1-.754,2.256l1.073.442A17.544,17.544,0,0,0,1797.3,715.82Z" fill="#df0031" style="mix-blend-mode:multiply;isolation:isolate"/><path d="M1798.621,703.609l-1.157.044c.036.951.038,1.919.005,2.882l1.158.04C1798.662,705.584,1798.66,704.586,1798.621,703.609Z" fill="#df0031" style="mix-blend-mode:multiply;isolation:isolate"/><path d="M1774.007,736.253c.957-.252,1.911-.542,2.841-.864l-.382-1.1c-.9.313-1.825.595-2.755.838Z" fill="#df0031" style="mix-blend-mode:multiply;isolation:isolate"/><path d="M1737.618,728.81c-.83-.466-1.674-.959-2.507-1.464l-.6.99c.844.514,1.7,1.014,2.543,1.485Z" fill="#df0031" style="mix-blend-mode:multiply;isolation:isolate"/><path d="M1732.02,726.761l.637-.968c-.8-.524-1.6-1.075-2.4-1.635l-.667.948C1730.4,725.674,1731.214,726.232,1732.02,726.761Z" fill="#df0031" style="mix-blend-mode:multiply;isolation:isolate"/><path d="M1742.791,731.436c-.864-.394-1.743-.817-2.613-1.26l-.525,1.033c.883.451,1.777.882,2.656,1.282Z" fill="#df0031" style="mix-blend-mode:multiply;isolation:isolate"/><path d="M1727.207,723.376l.694-.927c-.767-.574-1.541-1.172-2.3-1.778l-.721.909C1725.648,722.192,1726.43,722.8,1727.207,723.376Z" fill="#df0031" style="mix-blend-mode:multiply;isolation:isolate"/><path d="M1759.3,737.3l.12-1.154c-.943-.1-1.906-.226-2.86-.387l-.192,1.144C1757.346,737.07,1758.333,737.2,1759.3,737.3Z" fill="#df0031" style="mix-blend-mode:multiply;isolation:isolate"/><path d="M1768.173,737.315c.983-.1,1.97-.245,2.938-.421l-.208-1.14c-.938.17-1.9.308-2.85.408Z" fill="#df0031" style="mix-blend-mode:multiply;isolation:isolate"/><path d="M1762.3,736.354l-.044,1.158c.99.036,1.987.039,2.964.006l-.038-1.16C1764.228,736.391,1763.258,736.389,1762.3,736.354Z" fill="#df0031" style="mix-blend-mode:multiply;isolation:isolate"/><path d="M1748.166,733.6c-.9-.311-1.812-.653-2.713-1.016l-.433,1.076c.919.369,1.849.717,2.767,1.036Z" fill="#df0031" style="mix-blend-mode:multiply;isolation:isolate"/><path d="M1753.722,735.2c-.924-.214-1.865-.458-2.8-.726l-.322,1.113c.952.275,1.916.525,2.861.741Z" fill="#df0031" style="mix-blend-mode:multiply;isolation:isolate"/><path d="M1738.538,884.648v-21.5c0-1.334-1.505-2.416-3.361-2.416h-26.163v-5.054h-.42a5.071,5.071,0,0,1-5.054-5.055V836.279a4.955,4.955,0,0,1,.094-.944,5.07,5.07,0,0,1,4.96-4.11h.42v-5.054h10.854a22.093,22.093,0,0,0,9.693-41.947h7.686c1.763,0,3.308-1.244,3.308-2.312,0-1.422-1.545-2.666-3.308-2.666h-.661V749.729h.661c1.763,0,3.308-1.243,3.308-2.667s-1.545-2.667-3.308-2.667h-12.911a3.129,3.129,0,0,0,.256-1.237v-31.3a3.13,3.13,0,0,0-3.129-3.129h-17.15c1.855,0,3.36-1.081,3.36-2.415V682.166c0-1.333-1.505-2.415-3.36-2.415h25.35v-.274a2.788,2.788,0,0,0-2.788-2.789V659.039a2.789,2.789,0,0,0,2.788-2.79v-.273h-22.841l-.252-23.176,21.3-7.988-50.8-17.209-14.951,5.606c-.016-.006-2.537-.516-2.645-.537a4.057,4.057,0,0,0-3.314.732,4.21,4.21,0,0,0-1.348,2.545l-28.089,10.53,21.469,7.273.241,22.224h-23.86a3.514,3.514,0,0,0-3.514,3.512V671.73c-.291-.046-.581-.09-.869-.141l-.207,1.14c.355.065.716.119,1.076.175v3.333a3.514,3.514,0,0,0,3.514,3.514h-44.567v28.981h13.145v37.553h.357c-8.382,3.181-14.167,10.042-14.167,18.025,0,11.024,11.026,19.914,24.7,19.914h27.732a3.686,3.686,0,0,0,3.391,5.121h.051V818.8h-.051a3.683,3.683,0,0,0,0,7.366h-49.552a17.273,17.273,0,0,0-8.539,32.293q-1.439,1.652-2.8,3.468H1563.5a47.716,47.716,0,0,0-6.292-1.751c-11.572-2.937-21.883-2.413-33.96,1.751h-12.325a4.291,4.291,0,0,0-4.292,4.289v81.5a4.291,4.291,0,0,0,4.292,4.292h51.916a8.383,8.383,0,0,0,8.093,6.211h.308a8.382,8.382,0,0,0,8.091-6.211h51.916a4.291,4.291,0,0,0,4.291-4.292V926.493H1733.6a21.214,21.214,0,0,0,4.937-41.845ZM1606.4,839.756c.052-.16.116-.313.173-.47-.057.153-.107.309-.157.465Zm.3-.808c.1-.261.22-.516.341-.768C1606.918,838.431,1606.8,838.687,1606.7,838.948Zm.45-.992c.139-.275.289-.542.447-.8C1607.437,837.413,1607.287,837.682,1607.148,837.956Zm.526-.933q.261-.422.556-.819C1608.034,836.469,1607.848,836.743,1607.674,837.023Zm.6-.875c.211-.28.43-.551.663-.812C1608.7,835.6,1608.482,835.868,1608.271,836.148Zm.666-.816q.414-.46.868-.878C1609.5,834.732,1609.211,835.025,1608.937,835.332Zm.907-.914c.289-.263.589-.512.9-.747C1610.435,833.906,1610.132,834.155,1609.844,834.418Zm1-.817q.441-.326.911-.608C1611.441,833.183,1611.136,833.384,1610.842,833.6Zm1.076-.708c.293-.171.593-.327.9-.473C1612.511,832.567,1612.209,832.722,1611.918,832.893Zm1.14-.59c.288-.129.581-.243.88-.35C1613.641,832.061,1613.346,832.174,1613.058,832.3Zm1.191-.464c.286-.094.577-.17.87-.244C1614.827,831.669,1614.535,831.745,1614.249,831.839Zm1.235-.337c.3-.065.6-.11.911-.152C1616.089,831.392,1615.782,831.437,1615.484,831.5Zm1.27-.206a12.409,12.409,0,0,1,1.3-.071A12.409,12.409,0,0,0,1616.754,831.3Zm40.311-216.623a2.906,2.906,0,0,1,2.378-.46l-2.862,1.073A2.274,2.274,0,0,1,1657.065,614.673Z" fill="#df0031" style="mix-blend-mode:multiply;isolation:isolate"/><path d="M1799.056,901.529l-.332-2.865h0l-13.486-116.235h0l-.4-3.478-.633-5.462h0l-.519-4.47h0l-2.076-17.883-43.472,5.045,7.78,67.057,7.262,62.588,1.038,8.94h0l.347,2.981,1.068,9.217.142,1.215h0l1.556,13.411c.286,2.47,2.14,4.282,4.14,4.051l36.228-4.2c2-.234,3.391-2.423,3.1-4.893Z" fill="#df0031" style="mix-blend-mode:multiply;isolation:isolate"/><path d="M1852.75,908.113l-4.7-13.04-.119-.334h0l-30.725-85.313-.715-1.988h0l-4.554-12.646-23.468,8.454,3.461,9.607.352.979h0l.742,2.058h0l.021.06,31.418,87.243h0l.465,1.292,4.351,12.081,11.968-4.311,0,0Z" fill="#df0031" style="mix-blend-mode:multiply;isolation:isolate"/></g><path d="M1626.12,595.1l-40.283,19.1,4.933,9.465Z" fill="#d8d8d8"/><path d="M1626.12,595.1l-40.283,19.1-14.439.789Z" fill="#e8e8e8"/><path d="M1626.12,595.1l-36.336,19.825.985,8.744Z" fill="#c6c6c6"/><path d="M1626.12,595.1l-36.336,19.825,17.141,7.415Z" fill="#e8e8e8"/><path d="M1585.574,623.333c.495-.731.817-1.121.82-1.123l-.892-.742c-.013.017-.357.43-.888,1.214Z" fill="#f4f4f4"/><path d="M1617.774,675.976l-.12-1.154c.943-.1,1.906-.227,2.86-.388l.192,1.144C1619.727,675.742,1618.74,675.875,1617.774,675.976Zm5.577-2.1c.924-.214,1.866-.458,2.8-.726l.322,1.112c-.952.276-1.915.527-2.861.742Zm-11.494,2.319.038-1.16c.95.032,1.92.03,2.882-.006l.044,1.159C1613.831,676.219,1612.835,676.223,1611.857,676.191Zm17.051-3.923c.9-.311,1.811-.653,2.712-1.016l.434,1.076c-.919.369-1.85.718-2.768,1.036Zm-22.946,3.3.208-1.139c.938.169,1.9.307,2.851.406l-.121,1.154C1607.917,675.883,1606.93,675.742,1605.962,675.566Zm28.32-5.457c.864-.4,1.743-.818,2.614-1.262l.524,1.034c-.883.451-1.777.882-2.655,1.282Zm5.174-2.627c.829-.466,1.673-.959,2.506-1.464l.6.989c-.844.515-1.7,1.014-2.543,1.485Zm-39.231,6.578.382-1.095c.9.313,1.826.595,2.755.837l-.3,1.123C1602.109,674.673,1601.155,674.383,1600.225,674.06Zm44.191-9.595c.8-.523,1.6-1.075,2.4-1.635l.667.948c-.808.568-1.627,1.125-2.433,1.655Zm-49.623,7.208.55-1.021c.839.453,1.708.877,2.584,1.261l-.465,1.062C1596.556,672.577,1595.658,672.14,1594.793,671.673Zm54.379-10.552c.767-.574,1.542-1.173,2.3-1.777l.721.908c-.77.611-1.552,1.216-2.328,1.8Zm-59.36,7.314.711-.917c.753.585,1.54,1.144,2.344,1.666l-.63.973C1591.406,669.618,1590.59,669.038,1589.812,668.435Zm-4.365-4.035.86-.778c.632.7,1.311,1.386,2.02,2.042l-.785.851C1586.806,665.838,1586.1,665.126,1585.447,664.4Zm-3.534-4.8,1-.581a25.894,25.894,0,0,0,1.573,2.389l-.932.689A27.149,27.149,0,0,1,1581.913,659.6Zm-2.141-5.1-.111-.453,1.127-.271.108.442a16.918,16.918,0,0,0,.754,2.256l-1.073.442A17.763,17.763,0,0,1,1579.772,654.492Zm-.715-3.352c-.168-.975-.306-1.962-.408-2.935l1.153-.121c.1.947.234,1.907.4,2.857Zm-.611-5.893c-.035-.991-.033-1.989.006-2.967l1.157.046c-.036.949-.038,1.919-.005,2.881Zm.23-5.926c.111-.98.261-1.968.442-2.934l1.14.216c-.179.939-.322,1.9-.431,2.85Zm1.106-5.827c.257-.956.555-1.911.88-2.836l1.094.386c-.318.9-.6,1.823-.855,2.752Zm1.977-5.6c.4-.914.845-1.812,1.312-2.667l1.018.554c-.451.828-.88,1.7-1.27,2.582Z" fill="#f4f4f4"/><path d="M1654.5,658.372c.369-.309.738-.624,1.111-.943l-.756-.879c-.368.315-.734.626-1.1.933Z" fill="#f4f4f4"/><path d="M1736.931,659.262l40.283,19.1-4.931,9.464Z" fill="#d8d8d8"/><path d="M1736.931,659.262l40.283,19.1,14.44.788Z" fill="#e8e8e8"/><path d="M1736.931,659.262l36.336,19.824-.984,8.744Z" fill="#c6c6c6"/><path d="M1736.931,659.262l36.336,19.824-17.142,7.414Z" fill="#e8e8e8"/><path d="M1777.477,687.5c-.494-.731-.816-1.12-.82-1.124l.892-.741c.014.017.357.431.888,1.215Z" fill="#f4f4f4"/><path d="M1742.345,739.743l.192-1.144c.955.161,1.917.291,2.859.388l-.119,1.154C1744.313,740.04,1743.324,739.907,1742.345,739.743Zm-2.9-.577c-.947-.216-1.908-.466-2.862-.742l.322-1.113c.932.269,1.873.513,2.8.726Zm8.789,1.182.044-1.158c.96.037,1.929.039,2.88.006l.038,1.16C1750.217,740.387,1749.22,740.385,1748.232,740.348Zm-14.468-2.819c-.916-.318-1.846-.666-2.767-1.035l.435-1.077c.9.363,1.814.706,2.713,1.017Zm20.388,2.623L1754.03,739c.954-.1,1.915-.238,2.851-.407l.207,1.14C1756.122,739.907,1755.134,740.049,1754.152,740.152Zm-25.864-4.823c-.879-.4-1.773-.831-2.657-1.282l.526-1.034c.869.444,1.749.867,2.612,1.262Zm-5.257-2.671c-.842-.472-1.7-.972-2.544-1.485l.6-.991c.832.507,1.676,1,2.507,1.465Zm36.954,6.432-.294-1.122c.929-.242,1.854-.524,2.755-.837l.38,1.1C1761.9,738.549,1760.942,738.839,1759.985,739.09ZM1718,729.6c-.806-.529-1.625-1.087-2.433-1.655l.668-.947c.8.56,1.606,1.111,2.4,1.634Zm47.591,7.542-.465-1.061c.878-.386,1.747-.81,2.586-1.262l.55,1.021C1767.393,736.3,1766.495,736.743,1765.589,737.14Zm-52.405-10.926c-.774-.581-1.558-1.185-2.328-1.8l.721-.91c.762.6,1.537,1.2,2.3,1.778Zm57.632,8.108-.632-.972c.8-.522,1.593-1.082,2.344-1.667l.712.918C1772.462,733.2,1771.647,733.783,1770.816,734.322Zm4.695-3.642-.786-.851c.707-.655,1.388-1.341,2.021-2.041l.86.777C1776.95,729.291,1776.245,730,1775.511,730.68Zm3.984-4.422-.933-.69a25.175,25.175,0,0,0,1.574-2.388l1,.582A27.1,27.1,0,0,1,1779.495,726.258Zm2.979-5.184-1.072-.442a16.776,16.776,0,0,0,.754-2.256l.108-.442,1.128.271-.112.452A17.919,17.919,0,0,1,1782.474,721.074Zm.377-5.968c.165-.949.3-1.91.4-2.857l1.153.121c-.1.974-.239,1.961-.408,2.935Zm.6-5.733c.032-.963.03-1.933-.006-2.882l1.158-.045c.038.977.04,1.975.007,2.966Zm-.225-5.755c-.108-.954-.251-1.911-.428-2.849l1.137-.216c.184.966.332,1.953.445,2.933Zm-1.073-5.657c-.25-.929-.537-1.854-.854-2.752l1.093-.385c.327.924.624,1.88.88,2.835Zm-1.917-5.428c-.391-.885-.82-1.755-1.27-2.583l1.017-.553c.468.854.908,1.752,1.314,2.666Z" fill="#f4f4f4"/><path d="M1708.552,722.537q-.555-.463-1.111-.942l.754-.879q.555.473,1.1.933Z" fill="#f4f4f4"/><path d="M1663.507,646.526l-50.8-17.21,50.347-18.876,50.8,17.209Z" fill="#0b3856"/><path d="M1692.8,658.92l-.333-30.731c-.031-2.46-13.124-4.238-29.244-3.971s-29.162,2.475-29.131,4.932l.321,29.77Z" fill="#124570"/><path d="M1691.17,658.92l-.448-32.215a18.913,18.913,0,0,0-2.884-.839l.41,33.054Z" fill="#1c548c"/><path d="M1687.1,658.92l-.446-33.292a78.86,78.86,0,0,0-8.522-1.033l.541,34.325Z" fill="#1c548c"/><path d="M1642.056,640.768l-1.4-.142,0-20.272a5.116,5.116,0,0,1,1.489-4.113,4.062,4.062,0,0,1,3.315-.731c.107.021,2.631.531,2.645.536l-2.669,1.006a2.929,2.929,0,0,0-2.386.458,3.775,3.775,0,0,0-.992,2.985Z" fill="#ffb41f"/><path d="M1642.991,641.136a1.528,1.528,0,0,1-1.636,1.63,1.948,1.948,0,0,1-1.635-1.962,1.527,1.527,0,0,1,1.635-1.631A1.95,1.95,0,0,1,1642.991,641.136Z" fill="#ffb41f"/><path d="M1643.192,653.441v-9.822a2.186,2.186,0,0,0-1.836-2.2,1.711,1.711,0,0,0-1.833,1.828v9.822Z" fill="#ffb41f"/><path d="M1605.75,889.555h113.831a18.372,18.372,0,0,1,0,36.744H1605.75Z" fill="#fff"/><path d="M1605.182,929.33h114.4a21.212,21.212,0,0,0,0-42.425h-114.4a2.841,2.841,0,1,0,0,5.683h114.4a15.719,15.719,0,0,1,0,31.439h-114.4a2.913,2.913,0,0,0-2.842,2.841A2.6,2.6,0,0,0,1605.182,929.33Z" fill="#ee9f0c"/><path d="M1608.1,898.518h112.844a.5.5,0,0,0,0-1.006H1608.1a.5.5,0,0,0,0,1.006Z" fill="#ccc"/><path d="M1608.1,905.723h112.844a.5.5,0,0,0,0-1.006H1608.1a.5.5,0,0,0,0,1.006Z" fill="#ccc"/><path d="M1608.1,912.928h112.844a.5.5,0,0,0,0-1.006H1608.1a.5.5,0,0,0,0,1.006Z" fill="#ccc"/><path d="M1608.1,920.133h112.844a.5.5,0,0,0,0-1.006H1608.1a.5.5,0,0,0,0,1.006Z" fill="#ccc"/><path d="M1630.94,898.1v27.083l-7.953-8.523-8.524,9.47V898.1Z" fill="#fd7058"/><path d="M1565.985,711.57V682.587h124.308c1.854,0,3.358,1.083,3.358,2.415v24.153c0,1.333-1.5,2.415-3.358,2.415Z" fill="#ee9f0c"/><path d="M1572.7,687.419v16.9c0,1.334,1.506,2.416,3.36,2.416h107.507c3.711,0,6.721,2.163,6.721,4.83H1565.985V682.587h0C1569.7,682.587,1572.7,684.75,1572.7,687.419Z" fill="#ee9f0c" style="mix-blend-mode:multiply;isolation:isolate"/><rect width="3.359" height="28.983" transform="translate(1676.854 682.587)" fill="#ee9f0c" style="mix-blend-mode:multiply;isolation:isolate"/><rect width="3.36" height="28.983" transform="translate(1670.134 682.587)" fill="#ee9f0c" style="mix-blend-mode:multiply;isolation:isolate"/><rect width="3.358" height="28.983" transform="translate(1586.145 682.587)" fill="#ee9f0c" style="mix-blend-mode:multiply;isolation:isolate"/><rect width="3.36" height="28.983" transform="translate(1579.425 682.587)" fill="#ee9f0c" style="mix-blend-mode:multiply;isolation:isolate"/><path d="M1613.02,699.192v-4.227c0-.167.19-.3.421-.3h36.116c.231,0,.42.134.42.3v4.227c0,.166-.189.3-.42.3h-36.116C1613.21,699.494,1613.02,699.358,1613.02,699.192Z" fill="#ee9f0c" style="mix-blend-mode:multiply;isolation:isolate"/><path d="M1596.851,892.553V863.571h124.306c1.855,0,3.36,1.081,3.36,2.415v24.152c0,1.334-1.505,2.415-3.36,2.415Z" fill="#ee9f0c"/><path d="M1603.571,868.4v16.906c0,1.335,1.5,2.415,3.359,2.415h107.507c3.712,0,6.72,2.162,6.72,4.831H1596.851V863.571h0C1600.561,863.571,1603.571,865.733,1603.571,868.4Z" fill="#ee9f0c" style="mix-blend-mode:multiply;isolation:isolate"/><rect width="3.36" height="28.982" transform="translate(1707.719 863.571)" fill="#ee9f0c" style="mix-blend-mode:multiply;isolation:isolate"/><rect width="3.359" height="28.982" transform="translate(1700.999 863.571)" fill="#ee9f0c" style="mix-blend-mode:multiply;isolation:isolate"/><rect width="3.36" height="28.982" transform="translate(1617.008 863.571)" fill="#ee9f0c" style="mix-blend-mode:multiply;isolation:isolate"/><rect width="3.358" height="28.982" transform="translate(1610.291 863.571)" fill="#ee9f0c" style="mix-blend-mode:multiply;isolation:isolate"/><path d="M1643.885,880.175v-4.226c0-.167.189-.3.422-.3h36.114c.232,0,.421.135.421.3v4.226c0,.167-.189.3-.421.3h-36.114C1644.074,880.477,1643.885,880.342,1643.885,880.175Z" fill="#ee9f0c" style="mix-blend-mode:multiply;isolation:isolate"/><path d="M1579.131,749.123V711.57h128.31a3.13,3.13,0,0,1,3.13,3.129v31.3a3.13,3.13,0,0,1-3.13,3.128Z" fill="#d82e66"/><path d="M1707.441,711.57h-.6v30.135a3.129,3.129,0,0,1-3.129,3.127H1579.131v4.291h128.31a3.13,3.13,0,0,0,3.13-3.128V714.7A3.13,3.13,0,0,0,1707.441,711.57Z" fill="#d82e66" opacity="0.4" style="mix-blend-mode:multiply;isolation:isolate"/><rect width="3.129" height="37.554" transform="translate(1688.665 711.57)" fill="#b32025"/><rect width="3.129" height="37.554" transform="translate(1682.405 711.57)" fill="#b32025"/><rect width="3.13" height="37.554" transform="translate(1601.037 711.57)" fill="#b32025"/><rect width="3.13" height="37.554" transform="translate(1594.779 711.57)" fill="#b32025"/><path d="M1671.826,741.81h-56.794a3.625,3.625,0,0,1-3.621-3.621v-14.08a3.625,3.625,0,0,1,3.621-3.621h56.794a3.625,3.625,0,0,1,3.621,3.621v14.08A3.625,3.625,0,0,1,1671.826,741.81Zm-56.794-20.518a2.82,2.82,0,0,0-2.816,2.817v14.08a2.819,2.819,0,0,0,2.816,2.816h56.794a2.82,2.82,0,0,0,2.817-2.816v-14.08a2.821,2.821,0,0,0-2.817-2.817Z" fill="#fff"/><path d="M1586.753,846.289a17.28,17.28,0,0,1,17.28-17.281h-32.44a17.281,17.281,0,0,0,0,34.563h32.44A17.28,17.28,0,0,1,1586.753,846.289Z" fill="#ffe175"/><path d="M1604.033,834.062h90.96v-5.054h-90.96a17.281,17.281,0,0,0,0,34.563h90.96v-5.055h-90.96a12.227,12.227,0,0,1,0-24.454Z" fill="#f0d46e"/><path d="M1689.518,853.462V839.117a4.82,4.82,0,0,1,.1-.945h-94.7a12.208,12.208,0,0,0,9.12,20.344h90.54A5.071,5.071,0,0,1,1689.518,853.462Z" fill="#fff"/><path d="M1694.573,834.062h-90.54a12.187,12.187,0,0,0-9.12,4.11h94.7A5.071,5.071,0,0,1,1694.573,834.062Z" fill="#e6e7e8"/><path d="M1624,852a1.54,1.54,0,0,1-1.54,1.538h-17.9a1.537,1.537,0,0,1-1.537-1.538h0a1.537,1.537,0,0,1,1.537-1.538h17.9A1.54,1.54,0,0,1,1624,852Z" fill="#d1d3d4"/><path d="M1606.2,850.459v17.7l7.3-5.7,7.3,5.7v-17.7Z" fill="#ff6954"/><path d="M3.511,0H57.79a0,0,0,0,1,0,0V23.774a0,0,0,0,1,0,0H3.514A3.514,3.514,0,0,1,0,20.26V3.511A3.511,3.511,0,0,1,3.511,0Z" transform="translate(1607.04 658.814)" fill="#b80b5a"/><path d="M1715.642,682.587h-54.277a3.511,3.511,0,0,1-3.512-3.512v-16.75a3.511,3.511,0,0,1,3.512-3.511h54.277v.274a2.788,2.788,0,0,1-2.789,2.787h0v17.651h0a2.788,2.788,0,0,1,2.789,2.788Z" fill="#ff4181"/><rect width="51.421" height="17.65" transform="translate(1661.432 661.875)" fill="#fff"/><rect width="2.123" height="17.65" transform="translate(1661.432 661.875)" fill="#940044"/><rect width="51.421" height="1.62" transform="translate(1661.432 661.875)" fill="#87afb9" opacity="0.15"/><rect width="15.459" height="2.073" transform="translate(1675.764 667.578)" fill="#87afb9" opacity="0.15"/><path d="M1680.326,682.587l-4.562-3.062-4.563,3.062V667.578h9.125Z" fill="#e69632"/><path d="M1621.2,788.5h86.313a16.8,16.8,0,0,1,16.8,16.8v3.222a16.8,16.8,0,0,1-16.8,16.8H1621.2Z" fill="#fff"/><path d="M1617.462,825.325a3.685,3.685,0,0,1,3.684-3.683h84.7a14.73,14.73,0,1,0,0-29.46h-84.7a3.682,3.682,0,1,1,0-7.365h84.7a22.1,22.1,0,1,1,0,44.191h-84.7A3.684,3.684,0,0,1,1617.462,825.325Z" fill="#d82e66"/><path d="M1622.846,796.857h80.863a1.006,1.006,0,0,0,0-2.011h-80.863a1.006,1.006,0,0,0,0,2.011Z" fill="#ccc"/><path d="M1622.846,804.436h80.863a1.006,1.006,0,0,0,0-2.011h-80.863a1.006,1.006,0,0,0,0,2.011Z" fill="#ccc"/><path d="M1622.846,812.015h80.863a1.006,1.006,0,0,0,0-2.011h-80.863a1.006,1.006,0,0,0,0,2.011Z" fill="#ccc"/><path d="M1622.846,819.594h80.863a1.007,1.007,0,0,0,0-2.012h-80.863a1.007,1.007,0,0,0,0,2.012Z" fill="#ccc"/><path d="M1722.565,749.723H1590.021c-11.908,0-19.68,6.112-19.68,15.536a19.471,19.471,0,0,0,19.68,18.958h132.544Z" fill="#fff"/><path d="M1592.206,758.061h127.978a1.007,1.007,0,0,0,0-2.012H1592.206a1.007,1.007,0,0,0,0,2.012Z" fill="#ccc"/><path d="M1592.206,765.64h127.978a1.007,1.007,0,0,0,0-2.012H1592.206a1.007,1.007,0,0,0,0,2.012Z" fill="#ccc"/><path d="M1592.206,773.218h127.978a1.007,1.007,0,0,0,0-2.012H1592.206a1.007,1.007,0,0,0,0,2.012Z" fill="#ccc"/><path d="M1592.206,780.8h127.978a1.007,1.007,0,0,0,0-2.012H1592.206a1.007,1.007,0,0,0,0,2.012Z" fill="#ccc"/><path d="M1724.31,781.516H1587.993c-9.011,0-15.526-7.461-15.244-16.249.261-8.039,7.713-14,15.391-14h136.17c2.595,0,2.595-4.023,0-4.023H1587.993c-16.479,0-24.545,18.991-14.758,31.519,5.269,6.745,13.232,6.773,20.867,6.773H1724.31c2.595,0,2.595-4.023,0-4.023Z" fill="#ee9f0c"/><path d="M1695.66,760.746v25.427l-9.264-8-10.144,8.89V760.746Z" fill="#b80b5a"/><path d="M1724.111,759.018l43.473-5.045,19.193,165.41c.286,2.469-1.1,4.658-3.1,4.892l-36.227,4.2c-2,.232-3.857-1.581-4.141-4.051Z" fill="#ee9f0c"/><path d="M1761.377,763.756l-25.359,2.942c-2,.232-3.391,2.422-3.1,4.891l16.6,143.057c.574,4.938-2.206,9.317-6.207,9.781h0l-4.15-35.764-7.263-62.587-7.781-67.058,43.473-5.045h0C1768.156,758.912,1765.379,763.292,1761.377,763.756Z" fill="#ee9f0c" style="mix-blend-mode:multiply;isolation:isolate"/><rect width="43.764" height="4.5" transform="matrix(0.993, -0.115, 0.115, 0.993, 1741.23, 906.546)" fill="#ee9f0c" style="mix-blend-mode:multiply;isolation:isolate"/><rect width="43.765" height="4.501" transform="translate(1740.192 897.604) rotate(-6.618)" fill="#ee9f0c" style="mix-blend-mode:multiply;isolation:isolate"/><rect width="43.764" height="4.501" transform="translate(1727.224 785.841) rotate(-6.619)" fill="#ee9f0c" style="mix-blend-mode:multiply;isolation:isolate"/><rect width="43.765" height="4.5" transform="translate(1726.187 776.9) rotate(-6.618)" fill="#ee9f0c" style="mix-blend-mode:multiply;isolation:isolate"/><path d="M1749.94,819.451l6.341-.736a.52.52,0,0,1,.517.507l5.575,48.058a.517.517,0,0,1-.386.611l-6.341.736a.517.517,0,0,1-.517-.507l-5.577-48.058A.518.518,0,0,1,1749.94,819.451Z" fill="#ee9f0c" style="mix-blend-mode:multiply;isolation:isolate"/><path d="M4.292,0H65.6a4.29,4.29,0,0,1,4.29,4.29v81.5a4.29,4.29,0,0,1-4.29,4.29H4.292A4.292,4.292,0,0,1,0,85.789V4.292A4.292,4.292,0,0,1,4.292,0Z" transform="translate(1492.609 864.769)" fill="#d6412a"/><path d="M4.292,0H65.6a4.292,4.292,0,0,1,4.292,4.292v81.5a4.29,4.29,0,0,1-4.29,4.29H4.29A4.29,4.29,0,0,1,0,85.79V4.292A4.292,4.292,0,0,1,4.292,0Z" transform="translate(1551.626 864.769)" fill="#d6412a"/><path d="M8.389,0h.306a8.39,8.39,0,0,1,8.39,8.39v8.069a8.39,8.39,0,0,1-8.39,8.39H8.389A8.389,8.389,0,0,1,0,16.461V8.389A8.389,8.389,0,0,1,8.389,0Z" transform="translate(1548.519 936.211)" fill="#ba2c28"/><rect width="119.586" height="82.313" transform="translate(1497.268 869.428)" fill="#ffeca5" opacity="0.5"/><path d="M1557.508,946.776c-20.918-5.975-35.6-5.975-56.517,0V868.031c20.934-9.292,35.544-9.039,56.517,0Q1557.508,907.406,1557.508,946.776Z" fill="#fff"/><path d="M1557.838,947.082h56.985l-.157-78.889-56.828.082Z" fill="#ba2c28"/><path d="M1557.2,946.776c20.921-5.975,35.6-5.975,56.516,0V868.031c-20.93-9.292-35.54-9.039-56.516,0Z" fill="#fff6d2"/><path d="M1557.838,946.665s18.637-23.723,54.359-32.109v-75.5s-35.722,0-54.359,29.215Z" fill="#fff"/><path d="M1557.838,946.665v-78.1a50.023,50.023,0,0,0-17.935-6.075S1551.626,864.226,1557.838,946.665Z" fill="#fff6d2"/><rect width="120.445" height="24.946" transform="translate(1815.258 919.403) rotate(-109.806)" fill="#df0031"/><rect width="2.841" height="24.948" transform="translate(1811.404 908.705) rotate(-109.816)" fill="#542c37"/><rect width="2.844" height="24.945" transform="translate(1779.965 821.403) rotate(-109.808)" fill="#542c37"/><rect width="1.583" height="24.945" transform="translate(1778.263 816.677) rotate(-109.85)" fill="#542c37"/><rect width="72.632" height="9.543" transform="translate(1814.709 895.153) rotate(-109.806)" fill="#542c37"/><rect width="12.225" height="120.446" transform="translate(1786.405 801.777) rotate(-19.816)" fill="#df0031" style="mix-blend-mode:multiply;isolation:isolate"/><path d="M1678.914,883.159c.03.024.063.044.094.068a3,3,0,0,0,.38.233c.049.024.1.048.146.071a3.083,3.083,0,0,0,.406.139c.053.014.1.033.158.044a2.938,2.938,0,0,0,.6.066c.063,0,.129,0,.2,0a2.775,2.775,0,0,0,1.949-.948,2.53,2.53,0,0,0,.632-1.843c-.027-.354-.5-8.851,8.544-14.719a2.593,2.593,0,0,0,1.164-1.716,2.488,2.488,0,0,0-.458-1.944,2.865,2.865,0,0,0-2.288-1.109,2.906,2.906,0,0,0-1.572.457c-11.734,7.611-10.972,18.932-10.934,19.416A2.536,2.536,0,0,0,1678.914,883.159Z" fill="#899293" opacity="0.5" style="mix-blend-mode:multiply;isolation:isolate"/><path d="M1711.764,890.2c-.52-.383-1.053-.737-1.59-1.072-.2-.124-.4-.235-.6-.353-.336-.2-.674-.388-1.017-.567-.258-.136-.519-.265-.78-.39s-.548-.253-.823-.372c-.314-.136-.627-.272-.944-.4-.148-.056-.3-.1-.446-.157a24.165,24.165,0,0,0-4.273-1.122l-.041-.007a28.263,28.263,0,0,0-20.434,4.919h-.007c-9.746-6.623-21.762-7.249-30.945-.484-12.9,9.52-15.421,30.932-6.542,46.5a90.236,90.236,0,0,0,6.873,10.49h0q1.162,1.5,2.306,2.794h0q1.143,1.29,2.268,2.377l.007.007q1.124,1.08,2.227,1.967l.025.02q.544.434,1.084.823l.013.01c.363.26.723.5,1.083.733l.05.032q.5.318,1,.6l.1.055q.519.286,1.035.533l.071.032c.313.147.626.281.936.406l.165.066c.334.129.665.247,1,.352.027.007.053.014.08.023.3.092.6.172.9.245l.214.051c.322.072.644.136.964.186.023,0,.046.005.068.009.3.045.594.078.89.1.081.007.162.014.242.019.317.021.633.036.949.036,7.728,0,10-3.407,12.9-3.576s5.27,3.576,12.993,3.576,15.666-6.4,24.549-21.965S1724.663,899.721,1711.764,890.2Z" fill="#899293" opacity="0.5" style="mix-blend-mode:multiply;isolation:isolate"/><path d="M1643.425,866.79a1.574,1.574,0,0,0,.162.38c.236.37,5.8,9.3,14.63,10.906a16.953,16.953,0,0,0,2.9.251c7.695,0,14.344-5.121,14.623-5.338a1.6,1.6,0,0,0,.381-2.107c-.009-.017-.033-.054-.061-.1-.006-.009-.009-.015-.016-.024-.717-1.133-6.152-9.259-14.55-10.782a16.53,16.53,0,0,0-2.9-.254c-7.692,0-14.341,5.113-14.619,5.332a1.624,1.624,0,0,0-.568,1.654Z" fill="#899293" opacity="0.5" style="mix-blend-mode:multiply;isolation:isolate"/><path d="M1678.644,862.606a2.866,2.866,0,0,0-2.289-1.109,2.9,2.9,0,0,0-1.571.457c-11.735,7.611-10.972,18.932-10.934,19.416a2.716,2.716,0,0,0,2.767,2.41c.063,0,.129,0,.2,0a2.779,2.779,0,0,0,1.949-.948,2.535,2.535,0,0,0,.632-1.843c-.027-.354-.5-8.851,8.544-14.719a2.593,2.593,0,0,0,1.164-1.716A2.493,2.493,0,0,0,1678.644,862.606Z" fill="#e9573f"/><path d="M1678.644,862.606a2.866,2.866,0,0,0-2.289-1.109c-.028,0-.056.005-.086.006.03.034.068.061.094.1a2.493,2.493,0,0,1,.459,1.944,2.594,2.594,0,0,1-1.164,1.716c-9.043,5.868-8.571,14.365-8.545,14.719a2.529,2.529,0,0,1-.631,1.843,2.778,2.778,0,0,1-1.949.948c-.035,0-.066,0-.1,0a2.845,2.845,0,0,0,2.183,1.008c.063,0,.129,0,.2,0a2.779,2.779,0,0,0,1.949-.948,2.535,2.535,0,0,0,.632-1.843c-.027-.354-.5-8.851,8.544-14.719a2.593,2.593,0,0,0,1.164-1.716A2.493,2.493,0,0,0,1678.644,862.606Z" fill="#e9573f" opacity="0.5" style="mix-blend-mode:multiply;isolation:isolate"/><path d="M1697.687,890.2c-9.183-6.765-21.212-6.139-30.948.484h-.006c-9.746-6.623-21.762-7.249-30.946-.484-12.9,9.52-15.42,30.932-6.541,46.5s16.816,21.965,24.541,21.965,10-3.407,12.9-3.576,5.27,3.576,12.992,3.576,15.666-6.4,24.55-21.965S1710.585,899.721,1697.687,890.2Z" fill="#e9573f"/><path d="M1697.687,890.2a24.283,24.283,0,0,0-12.093-4.643c7.084,10.853,7.323,27.161.185,39.687-8.883,15.566-16.822,21.966-24.549,21.966s-10.1-3.752-12.993-3.577c-2.794.163-5.024,3.332-12.118,3.555,6.2,8.012,11.99,11.475,17.668,11.475,7.729,0,10-3.407,12.9-3.576s5.27,3.576,12.992,3.576,15.666-6.4,24.55-21.965S1710.585,899.721,1697.687,890.2Z" fill="#e9573f" opacity="0.3" style="mix-blend-mode:multiply;isolation:isolate"/><path d="M1648.121,896.143a13.64,13.64,0,0,0-6.066,2.556c-3.429,2.53-5.9,6.827-6.948,12.1-.149.708-.265,1.435-.344,2.165a2.45,2.45,0,0,1-2.418,2.147,2.163,2.163,0,0,1-.293-.019,2.423,2.423,0,0,1-2.123-2.7c.093-.866.229-1.722.4-2.555,1.294-6.462,4.43-11.808,8.838-15.059a18.6,18.6,0,0,1,8.206-3.446,2.436,2.436,0,0,1,.75,4.814Z" fill="#f58b76"/><path d="M1662.039,870.882c-.229-.379-5.789-9.3-14.627-10.906a16.538,16.538,0,0,0-2.9-.254v.81h0v-.81h0c-7.693,0-14.341,5.113-14.619,5.332a1.622,1.622,0,0,0-.383,2.116c.236.37,5.8,9.3,14.631,10.906a16.936,16.936,0,0,0,2.9.251c7.695,0,14.344-5.121,14.623-5.338A1.6,1.6,0,0,0,1662.039,870.882Z" fill="#e9573f"/><path d="M1662.039,870.882a26.921,26.921,0,0,0-2.578-3.4,1.6,1.6,0,0,1-.62,1.251c-.278.217-6.927,5.339-14.622,5.339a16.832,16.832,0,0,1-2.9-.252c-5.392-.98-9.562-4.688-12.049-7.514a1.614,1.614,0,0,0,.234.863c.236.37,5.8,9.3,14.631,10.906a16.936,16.936,0,0,0,2.9.251c7.695,0,14.344-5.121,14.623-5.338A1.6,1.6,0,0,0,1662.039,870.882Z" fill="#e9573f" opacity="0.5" style="mix-blend-mode:multiply;isolation:isolate"/><path d="M1772.289,714.807c-1.966-3.957-2-4-5.963-5.962,3.958-1.964,4-2,5.963-5.962,1.968,3.958,2.006,4,5.963,5.962C1774.3,710.811,1774.257,710.85,1772.289,714.807Z" fill="#fff"/><path d="M1725.539,607.354c-1.967-3.958-2-4-5.962-5.964,3.957-1.964,3.995-2,5.962-5.96,1.965,3.957,2,4,5.963,5.96C1727.543,603.358,1727.5,603.4,1725.539,607.354Z" fill="#ffc100"/><circle cx="3.972" cy="3.972" r="3.972" transform="translate(1642.822 603.381)" fill="#00d6ce"/><path d="M1787.261,634.931c-1.311-2.638-1.336-2.663-3.973-3.974,2.637-1.31,2.662-1.335,3.973-3.972,1.31,2.637,1.335,2.662,3.973,3.972C1788.6,632.268,1788.571,632.293,1787.261,634.931Z" fill="#fd394f"/><path d="M1670.134,598.606c-1.311-2.639-1.336-2.664-3.973-3.975,2.637-1.31,2.662-1.335,3.973-3.971,1.311,2.637,1.335,2.661,3.973,3.971C1671.469,595.942,1671.445,595.967,1670.134,598.606Z" fill="#fd394f"/><path d="M1734.453,651.021c-1.438-2.889-1.466-2.917-4.353-4.353,2.887-1.435,2.915-1.463,4.351-4.352,1.435,2.889,1.465,2.917,4.352,4.352C1735.916,648.1,1735.886,648.132,1734.453,651.021Z" fill="#fff"/></g></svg>