<svg xmlns="http://www.w3.org/2000/svg" xmlns:xlink="http://www.w3.org/1999/xlink" width="1920" height="1080.499" viewBox="0 0 1920 1080.499"><defs><clipPath id="a"><rect width="1920" height="1080.499" fill="none"/></clipPath><clipPath id="b"><path d="M171.515,909.46l82.639-.033,56.952-.021s-3.214-4.95-3.217-15.248c0-11.9,3.2-15.25,3.2-15.25l-56.955.027-82.636.03,0,15.248Z" fill="#fff"/></clipPath><clipPath id="c"><path d="M186.522,833.3h108.3s-2.1-3.245-2.1-9.994c0-7.8,2.1-9.991,2.1-9.991h-108.3V833.3Z" fill="#fff"/></clipPath></defs><g clip-path="url(#a)"><rect width="1920" height="1080" fill="#dedef3"/><path d="M74.49,820.733s0,9.25-10.207,8.264C64.283,829,62.811,820.4,74.49,820.733Z" fill="#6f94bb"/><path d="M47.249,823.2s-1.381,9.431-8.826,6.171C38.423,829.374,40.027,820.833,47.249,823.2Z" fill="#6f94bb"/><path d="M34.4,813.793s-8.186,11.333-13.607-.069C20.8,813.724,24.946,808.3,34.4,813.793Z" fill="#6f94bb"/><path d="M26.846,804.852s-4.613-9.65,2.254-10.266S26.846,804.852,26.846,804.852Z" fill="#6f94bb"/><path d="M21.2,792.642S9.22,786.277,14.923,781.68,21.2,792.642,21.2,792.642Z" fill="#6f94bb"/><path d="M21.882,761.89s-10.206,2.976-9.95-6.885C11.932,755.005,18.7,751.812,21.882,761.89Z" fill="#6f94bb"/><path d="M29.613,770.344s-6.351-5.641.495-11.423C30.108,758.921,35.992,764.574,29.613,770.344Z" fill="#6f94bb"/><path d="M23.286,777.873s1.944,9.146,12.042,5.106C35.328,782.979,30.5,774.757,23.286,777.873Z" fill="#6f94bb"/><path d="M42.49,795.653s-10.762,2.38-11.359-5.814C31.131,789.839,38.323,787.33,42.49,795.653Z" fill="#6f94bb"/><path d="M47.186,811.933s-13.447.77-11.009-9.046C36.177,802.887,44,801.4,47.186,811.933Z" fill="#6f94bb"/><path d="M48.274,811.261s.561-10.425,8.453-11.964C56.727,799.3,58.369,810.232,48.274,811.261Z" fill="#6f94bb"/><path d="M46.084,791.152s8.71,5.2,11.892-4.788C57.976,786.364,53.1,782.625,46.084,791.152Z" fill="#6f94bb"/><path d="M46.225,784.278s-8.5-1.379-6.563-9.753C39.662,774.525,48.308,776.005,46.225,784.278Z" fill="#6f94bb"/><path d="M47.869,778.17s-5.528-6.448,3.671-11.627C51.54,766.543,56.218,773.14,47.869,778.17Z" fill="#6f94bb"/><path d="M64.775,819.887s-11.184-6.294-3.26-13.972C61.515,805.915,69.09,810.5,64.775,819.887Z" fill="#6f94bb"/><path d="M68.967,807.286s-3.153-9.423,7.243-12.995C76.21,794.291,78.925,804.955,68.967,807.286Z" fill="#6f94bb"/><path d="M68.967,807.286l-.18.389a.407.407,0,0,0,.388-.086c-.283.336-1.628,3.229-6.957,26.539a49.818,49.818,0,0,0-1.082,7.47c-.071.064-.152.11-.222.179l-.8.807a50.308,50.308,0,0,1,1.179-8.671c6.221-27.25,7.078-27.2,7.635-27.184a.554.554,0,0,1,.515.488l-.946.143Z" fill="#6f94bb"/><path d="M22.2,761.537c8.439,7.722,18.483,27.751,20.707,32.692,2.847,6.3,10.4,36.139,12.447,49.121.172,1.071.4,2.19.666,3.323l-.792.793c-.329-1.355-.627-2.688-.825-3.966-2.139-13.579-9.828-43.25-12.365-48.869-3.276-7.283-12.989-25.527-20.486-32.384Z" fill="#6f94bb"/><path d="M52.251,827.728l-.835.474c-2.474-4.416-6.481-7.2-12.029-11.03-1.826-1.262-3.885-2.686-6.092-4.314-8.928-6.579-12.417-19.544-12.559-20.091l.927-.246c.036.131,3.543,13.19,12.2,19.564,2.2,1.622,4.25,3.046,6.062,4.293C45.581,820.292,49.674,823.12,52.251,827.728Z" fill="#6f94bb"/><path d="M44.223,797.98l-.938-.2,4.11-19.714.945.195Z" fill="#6f94bb"/><path d="M109.63,820.21s0,9.247-10.208,8.263C99.422,828.473,97.952,819.875,109.63,820.21Z" fill="#6f94bb"/><path d="M82.39,822.68s-1.387,9.431-8.829,6.171C73.561,828.851,75.163,820.31,82.39,822.68Z" fill="#6f94bb"/><path d="M69.546,813.274s-8.192,11.33-13.616-.081C55.93,813.193,60.082,807.772,69.546,813.274Z" fill="#6f94bb"/><path d="M61.979,804.331s-4.607-9.652,2.26-10.269S61.979,804.331,61.979,804.331Z" fill="#6f94bb"/><path d="M56.339,792.119s-11.981-6.365-6.279-10.963S56.339,792.119,56.339,792.119Z" fill="#6f94bb"/><path d="M57.02,761.367s-10.206,2.975-9.951-6.888C47.069,754.479,53.837,751.292,57.02,761.367Z" fill="#6f94bb"/><path d="M64.751,769.816s-6.351-5.637.492-11.419C65.243,758.4,71.129,764.052,64.751,769.816Z" fill="#6f94bb"/><path d="M58.428,777.349s1.937,9.143,12.036,5.106C70.464,782.455,65.636,774.227,58.428,777.349Z" fill="#6f94bb"/><path d="M77.627,795.129s-10.761,2.381-11.357-5.813C66.27,789.316,73.458,786.8,77.627,795.129Z" fill="#6f94bb"/><path d="M82.327,811.41s-13.449.769-11.011-9.043C71.316,802.367,79.139,800.877,82.327,811.41Z" fill="#6f94bb"/><path d="M83.411,810.734s.567-10.418,8.454-11.959C91.865,798.775,93.507,809.708,83.411,810.734Z" fill="#6f94bb"/><path d="M81.222,790.625s8.712,5.2,11.893-4.784C93.115,785.841,88.241,782.1,81.222,790.625Z" fill="#6f94bb"/><path d="M81.36,783.756s-8.5-1.384-6.561-9.753C74.8,774,83.447,775.481,81.36,783.756Z" fill="#6f94bb"/><path d="M83.006,777.643s-5.527-6.444,3.672-11.623C86.678,766.02,91.355,772.616,83.006,777.643Z" fill="#6f94bb"/><path d="M99.917,819.361s-11.188-6.3-3.264-13.973C96.653,805.388,104.234,809.983,99.917,819.361Z" fill="#6f94bb"/><path d="M104.109,806.764s-3.16-9.425,7.238-13C111.347,793.765,114.066,804.428,104.109,806.764Z" fill="#6f94bb"/><path d="M104.109,806.764l-.184.387a.416.416,0,0,0,.392-.089c-.287.335-1.632,3.229-6.956,26.542a48.4,48.4,0,0,0-1.084,7.469c-.074.063-.15.109-.225.182l-.8.806a50.271,50.271,0,0,1,1.175-8.672c6.226-27.249,7.077-27.2,7.635-27.184a.546.546,0,0,1,.517.49l-.946.141Z" fill="#6f94bb"/><path d="M57.34,761.01c8.44,7.723,18.484,27.755,20.712,32.7,2.84,6.3,10.4,36.14,12.438,49.122.173,1.07.409,2.19.671,3.322l-.792.795c-.333-1.355-.628-2.69-.825-3.971C87.4,829.4,79.714,799.727,77.179,794.1,73.9,786.825,64.193,768.58,56.7,761.721Z" fill="#6f94bb"/><path d="M87.387,827.206l-.826.474c-2.481-4.421-6.491-7.2-12.035-11.032-1.827-1.261-3.885-2.685-6.093-4.31-8.929-6.579-12.416-19.551-12.558-20.1l.932-.243c.03.135,3.542,13.187,12.192,19.564,2.2,1.622,4.256,3.044,6.07,4.294C80.72,819.766,84.808,822.6,87.387,827.206Z" fill="#6f94bb"/><path d="M79.361,797.458l-.938-.2,4.11-19.714.941.194Z" fill="#6f94bb"/><path d="M58.56,820.21s0,9.247,10.206,8.263C68.766,828.473,70.239,819.875,58.56,820.21Z" fill="#6f94bb"/><path d="M85.8,822.68s1.376,9.431,8.822,6.171C94.626,828.851,93.029,820.31,85.8,822.68Z" fill="#6f94bb"/><path d="M98.649,813.274s8.187,11.33,13.611-.081C112.26,813.193,108.111,807.772,98.649,813.274Z" fill="#6f94bb"/><path d="M106.208,804.331s4.613-9.652-2.258-10.269S106.208,804.331,106.208,804.331Z" fill="#6f94bb"/><path d="M111.853,792.119s11.976-6.365,6.277-10.963S111.853,792.119,111.853,792.119Z" fill="#6f94bb"/><path d="M111.174,761.367s10.2,2.975,9.947-6.888C121.121,754.479,114.356,751.292,111.174,761.367Z" fill="#6f94bb"/><path d="M103.446,769.816s6.345-5.637-.5-11.419C102.945,758.4,97.059,764.052,103.446,769.816Z" fill="#6f94bb"/><path d="M109.766,777.349s-1.942,9.143-12.038,5.106C97.728,782.455,102.556,774.227,109.766,777.349Z" fill="#6f94bb"/><path d="M90.567,795.129s10.76,2.381,11.356-5.813C101.923,789.316,94.731,786.8,90.567,795.129Z" fill="#6f94bb"/><path d="M85.865,811.41s13.45.769,11.009-9.043C96.874,802.367,89.051,800.877,85.865,811.41Z" fill="#6f94bb"/><path d="M84.781,810.734s-.565-10.418-8.455-11.959C76.326,798.775,74.683,809.708,84.781,810.734Z" fill="#6f94bb"/><path d="M86.97,790.625s-8.71,5.2-11.893-4.784C75.077,785.841,79.95,782.1,86.97,790.625Z" fill="#6f94bb"/><path d="M86.832,783.756s8.494-1.384,6.561-9.753C93.393,774,84.746,775.481,86.832,783.756Z" fill="#6f94bb"/><path d="M85.185,777.643s5.528-6.444-3.671-11.623C81.514,766.02,76.832,772.616,85.185,777.643Z" fill="#6f94bb"/><path d="M68.276,819.361s11.187-6.3,3.262-13.973C71.538,805.388,63.959,809.983,68.276,819.361Z" fill="#6f94bb"/><path d="M64.086,806.764s3.156-9.425-7.244-13C56.842,793.765,54.126,804.428,64.086,806.764Z" fill="#6f94bb"/><path d="M64.086,806.764l.183.387a.407.407,0,0,1-.391-.089c.284.335,1.626,3.229,6.954,26.542a48.274,48.274,0,0,1,1.083,7.469c.073.063.149.109.222.182l.8.806a50.469,50.469,0,0,0-1.176-8.672c-6.228-27.249-7.077-27.2-7.637-27.184a.544.544,0,0,0-.515.49l.944.141Z" fill="#6f94bb"/><path d="M110.847,761.01c-8.441,7.723-18.48,27.755-20.708,32.7-2.843,6.3-10.4,36.14-12.444,49.122-.167,1.07-.4,2.19-.662,3.322l.789.795c.332-1.355.625-2.69.825-3.971,2.138-13.575,9.834-43.246,12.365-48.869C94.291,786.825,104,768.58,111.5,761.721Z" fill="#6f94bb"/><path d="M80.8,827.206l.838.474c2.473-4.421,6.482-7.2,12.026-11.032,1.829-1.261,3.886-2.685,6.093-4.31,8.928-6.579,12.417-19.551,12.557-20.1l-.926-.243c-.031.135-3.544,13.187-12.2,19.564-2.2,1.622-4.254,3.044-6.067,4.294C87.469,819.766,83.384,822.6,80.8,827.206Z" fill="#6f94bb"/><path d="M88.83,797.458l.935-.2L85.66,777.546l-.938.194Z" fill="#6f94bb"/><path d="M112.15,917.386H41.664L36.4,838.354h79.032Z" fill="#8181cd"/><path d="M31.814,838.354v13.782l91.373-.929,1-12.854Z" fill="#9d9de4"/><rect width="185.758" height="118.886" rx="11.889" transform="translate(1707 745.424)" fill="#8181cd"/><path d="M1868.982,841.139c0,4.393-3.961,7.953-8.847,7.953H1739.621c-4.884,0-8.844-3.56-8.844-7.953V777.511c0-4.392,3.96-7.953,8.844-7.953h120.514c4.886,0,8.847,3.561,8.847,7.953Z" fill="#a5a5df"/><rect width="138.205" height="7.431" transform="translate(1730.777 827.16)" fill="#6666ae"/><path d="M1860.065,791.874c0,.77-3.321,1.395-7.419,1.395H1751.57c-4.1,0-7.418-.625-7.418-1.395V780.71c0-.77,3.32-1.4,7.418-1.4h101.076c4.1,0,7.419.625,7.419,1.4Z" fill="#fff"/><path d="M1829.026,756.57a4.628,4.628,0,1,1-4.628-4.627A4.628,4.628,0,0,1,1829.026,756.57Z" fill="#fff"/><path d="M1843.6,756.57a4.628,4.628,0,1,1-4.628-4.627A4.628,4.628,0,0,1,1843.6,756.57Z" fill="#fff"/><path d="M1858.17,756.57a4.628,4.628,0,1,1-4.628-4.627A4.628,4.628,0,0,1,1858.17,756.57Z" fill="#fff"/><path d="M1773.737,827.561c2.282-5.736,3.615-11.6,3.615-14.343,0-6.3-7.6-11.418-16.978-11.418s-16.977,5.113-16.977,11.418c0,2.747,1.556,8.607,4.088,14.343Z" fill="#4c4c92"/><path d="M1815.349,827.561c2.282-5.736,3.615-11.6,3.615-14.343,0-6.3-7.6-11.418-16.977-11.418s-16.978,5.113-16.978,11.418c0,2.747,1.556,8.607,4.088,14.343Z" fill="#4c4c92"/><path d="M1856.961,827.561c2.282-5.736,3.615-11.6,3.615-14.343,0-6.3-7.6-11.418-16.978-11.418s-16.977,5.113-16.977,11.418c0,2.747,1.556,8.607,4.088,14.343Z" fill="#6666ae"/><rect width="1180.881" height="164.476" transform="translate(-119.074 916.524)" fill="#a5a5df"/><rect width="1180.881" height="2.394" transform="translate(-115.074 1130.932)" fill="#7272a9"/><rect width="1180.881" height="2.392" transform="translate(-115.074 1235.137)" fill="#7272a9"/><rect width="1180.881" height="2.394" transform="translate(-115.074 1339.34)" fill="#7272a9"/><rect width="526.327" height="436.322" transform="translate(-226.327 -1.391)" fill="#4c4c92"/><rect width="504.741" height="411.48" transform="translate(-215.133 11.267)" fill="#fff"/><g opacity="0.8"><rect width="12.101" height="67.418" transform="translate(184.661 163.487)" fill="#efdd2e"/><rect width="8.065" height="67.418" transform="translate(198.056 165.478) rotate(-14.065)" fill="#592b2c"/><rect width="12.101" height="51.759" transform="translate(160.028 179.146)" fill="#fff"/><rect width="12.101" height="67.418" transform="translate(112.92 168.673)" fill="#723837"/><rect width="67.419" height="8.065" transform="matrix(0.243, -0.97, 0.97, 0.243, 49.464, 233.797)" fill="#ba74fb"/><rect width="67.418" height="8.064" transform="matrix(0.001, -1, 1, 0.001, 259.299, 233.43)" fill="#ba74fb"/><rect width="67.418" height="8.064" transform="matrix(0.001, -1, 1, 0.001, 235.962, 233.43)" fill="#ba74fb"/><rect width="18.151" height="63.961" transform="translate(73.16 172.13)" fill="#ed732f"/><rect width="18.151" height="63.961" transform="translate(23.895 170.834)" fill="#fff"/><rect width="7.563" height="59.639" transform="translate(94.375 176.452)" fill="#495ec0"/><rect width="7.563" height="59.639" transform="translate(41.651 174.723)" fill="#495ec0"/><rect width="7.563" height="59.639" transform="translate(226.619 172.995)" fill="#592b2c"/><rect width="7.563" height="59.639" transform="translate(219.704 174.147)" fill="#fff"/><rect width="12.101" height="51.759" transform="translate(101.251 184.332)" fill="#fff"/><rect width="12.101" height="67.418" transform="translate(-49.738 167.676) rotate(-5.476)" fill="#723837"/><rect width="12.101" height="67.418" transform="translate(-18.823 166.608)" fill="#edc459"/><rect width="12.101" height="67.418" transform="translate(133.301 167.473)" fill="#edc459"/><rect width="13.399" height="78.222" transform="translate(-70.413 155.276)" fill="#592b2c"/><rect width="13.399" height="78.222" transform="translate(147.4 158.734)" fill="#723837"/><rect width="13.399" height="78.222" transform="translate(244.206 155.276)" fill="#723837"/><rect width="7.563" height="59.639" transform="translate(-57.176 173.427)" fill="#fff"/><rect width="7.563" height="59.639" transform="translate(-78.783 173.427)" fill="#592b2c"/><rect width="12.101" height="51.759" transform="translate(-30.991 182.171)" fill="#fff"/><rect width="12.101" height="51.759" transform="translate(171.264 180.443)" fill="#fff"/><rect width="51.759" height="12.101" transform="translate(-2.47 232.31) rotate(-77.11)" fill="#fff"/></g><g opacity="0.8"><rect width="18.509" height="103.121" transform="translate(23.906 166.801)" fill="#efdd2e"/><rect width="12.336" height="103.121" transform="translate(44.393 169.846) rotate(-14.065)" fill="#592b2c"/><rect width="103.121" height="12.335" transform="matrix(0.001, -1, 1, 0.001, 138.069, 273.784)" fill="#ba74fb"/><rect width="103.121" height="12.335" transform="matrix(0.001, -1, 1, 0.001, 102.374, 273.784)" fill="#ba74fb"/><rect width="11.568" height="91.223" transform="translate(88.083 181.344)" fill="#592b2c"/><rect width="11.568" height="91.223" transform="translate(77.506 183.106)" fill="#fff"/><rect width="20.495" height="119.646" transform="translate(114.984 154.243)" fill="#723837"/><rect width="18.509" height="79.169" transform="translate(3.414 192.736)" fill="#fff"/></g><g opacity="0.8"><rect width="12.101" height="67.418" transform="translate(-92.01 257.857) rotate(-0.404)" fill="#592b2c"/><rect width="12.1" height="67.418" transform="translate(-0.034 259.007) rotate(-0.404)" fill="#efdd2e"/><rect width="67.418" height="8.065" transform="translate(-156.793 323.942) rotate(-76.345)" fill="#edc459"/><rect width="67.418" height="8.065" transform="matrix(0.236, -0.972, 0.972, 0.236, -22.046, 325.911)" fill="#ba74fb"/><rect width="8.065" height="67.419" transform="translate(-64.583 260.91) rotate(-11.69)" fill="#edc459"/><rect width="18.151" height="63.961" transform="matrix(1, -0.007, 0.007, 1, -133.102, 262.539)" fill="#5c3a4b"/><rect width="18.151" height="63.961" transform="matrix(1, -0.007, 0.007, 1, -183.616, 262.2)" fill="#723837"/><rect width="7.563" height="59.64" transform="matrix(1, -0.007, 0.007, 1, -111.857, 267.576)" fill="#5c3a4b"/><rect width="7.563" height="59.64" transform="translate(-164.593 265.787) rotate(-0.403)" fill="#edc459"/><rect width="12.101" height="51.759" transform="matrix(1, -0.007, 0.007, 1, -104.927, 274.543)" fill="#fff"/><rect width="12.101" height="51.759" transform="translate(24.709 274.061) rotate(-0.404)" fill="#fff"/><rect width="12.1" height="67.418" transform="translate(71.743 258.933) rotate(-0.404)" fill="#723837"/><rect width="8.065" height="67.418" transform="translate(123.104 260.257) rotate(-14.465)" fill="#723837"/><rect width="18.151" height="63.961" transform="translate(105.476 262.152) rotate(-0.402)" fill="#ed732f"/><rect width="18.152" height="63.961" transform="translate(154.729 260.509) rotate(-0.405)" fill="#edc459"/><rect width="7.563" height="59.64" transform="matrix(1, -0.007, 0.007, 1, 94.876, 266.55)" fill="#495ec0"/><rect width="7.563" height="59.639" transform="translate(147.591 264.449) rotate(-0.403)" fill="#5c3a4b"/><rect width="7.563" height="59.639" transform="matrix(1, -0.007, 0.007, 1, -37.385, 267.483)" fill="#592b2c"/><rect width="7.563" height="59.639" transform="translate(-30.446 267.002) rotate(-0.403)" fill="#fff"/><rect width="12.101" height="51.759" transform="translate(83.521 274.51) rotate(-0.404)" fill="#fff"/><rect width="67.418" height="12.101" transform="translate(228.476 324.948) rotate(-84.93)" fill="#723837"/><rect width="12.101" height="67.418" transform="translate(203.467 258.1) rotate(-0.404)" fill="#edc459"/><rect width="12.101" height="67.418" transform="translate(51.353 257.877) rotate(-0.404)" fill="#edc459"/><rect width="13.4" height="78.222" transform="matrix(1, -0.007, 0.007, 1, 253.677, 246.413)" fill="#592b2c"/><rect width="13.4" height="78.222" transform="translate(35.893 249.247) rotate(-0.404)" fill="#723837"/><rect width="13.4" height="78.222" transform="translate(-78.221 248.335) rotate(-0.404)" fill="#5c3a4b"/><rect width="7.563" height="59.64" transform="translate(246.405 264.615) rotate(-0.403)" fill="#fff"/><rect width="7.563" height="59.64" transform="translate(268.011 264.463) rotate(-0.403)" fill="#592b2c"/><rect width="12.101" height="51.759" transform="translate(215.743 273.577) rotate(-0.408)" fill="#fff"/><rect width="12.101" height="51.759" transform="translate(13.481 274.572) rotate(-0.404)" fill="#fff"/><rect width="12.101" height="51.759" transform="matrix(0.973, -0.23, 0.23, 0.973, 176.001, 276.24)" fill="#fff"/></g><g opacity="0.8"><rect width="12.101" height="67.418" transform="translate(173.175 356.09)" fill="#592b2c"/><rect width="12.101" height="67.418" transform="translate(79.827 355.226)" fill="#efdd2e"/><rect width="8.066" height="67.418" transform="matrix(0.97, -0.243, 0.243, 0.97, 224.525, 357.777)" fill="#edc459"/><rect width="8.066" height="67.418" transform="translate(93.222 352.03) rotate(-14.062)" fill="#592b2c"/><rect width="67.419" height="8.065" transform="matrix(0.196, -0.981, 0.981, 0.196, 136.26, 417.746)" fill="#edc459"/><rect width="18.151" height="63.961" transform="translate(206.884 359.547)" fill="#5c3a4b"/><rect width="18.151" height="63.961" transform="translate(256.148 358.251)" fill="#7839ce"/><rect width="7.563" height="59.639" transform="translate(196.257 363.869)" fill="#5c3a4b"/><rect width="7.563" height="59.639" transform="translate(248.982 362.14)" fill="#495ec0"/><rect width="12.101" height="51.759" transform="translate(184.844 371.749)" fill="#fff"/><rect width="12.101" height="51.759" transform="translate(55.193 365.699)" fill="#fff"/><rect width="12.101" height="67.418" transform="translate(8.083 355.226)" fill="#723837"/><rect width="67.418" height="8.065" transform="translate(-55.371 420.35) rotate(-75.938)" fill="#ba74fb"/><rect width="18.151" height="63.961" transform="translate(-31.676 358.683)" fill="#ed732f"/><rect width="18.151" height="63.961" transform="translate(-80.94 357.386)" fill="#fff"/><rect width="7.563" height="59.639" transform="translate(-10.461 363.005)" fill="#495ec0"/><rect width="7.563" height="59.639" transform="translate(-63.186 361.276)" fill="#495ec0"/><rect width="7.563" height="59.639" transform="translate(121.783 359.547)" fill="#592b2c"/><rect width="7.563" height="59.639" transform="translate(114.868 360.699)" fill="#fff"/><rect width="12.101" height="51.759" transform="translate(-3.585 370.885)" fill="#fff"/><rect width="12.101" height="67.418" transform="translate(-154.573 354.228) rotate(-5.475)" fill="#723837"/><rect width="12.101" height="67.418" transform="translate(-123.657 353.161)" fill="#edc459"/><rect width="12.101" height="67.418" transform="translate(28.466 354.89)" fill="#edc459"/><rect width="13.401" height="78.222" transform="translate(-175.249 341.829)" fill="#592b2c"/><rect width="13.401" height="78.222" transform="translate(42.564 345.287)" fill="#723837"/><rect width="13.401" height="78.222" transform="translate(158.385 346.151)" fill="#42296b"/><rect width="7.563" height="59.639" transform="translate(-162.011 359.979)" fill="#fff"/><rect width="7.563" height="59.639" transform="translate(-183.618 359.979)" fill="#592b2c"/><rect width="12.101" height="51.759" transform="translate(-135.826 368.724)" fill="#fff"/><rect width="12.101" height="51.759" transform="translate(66.43 366.995)" fill="#fff"/><rect width="51.759" height="12.101" transform="matrix(0.223, -0.975, 0.975, 0.223, -107.305, 418.863)" fill="#fff"/></g><g opacity="0.8"><rect width="12.101" height="67.418" transform="translate(-88.864 76.38)" fill="#592b2c"/><rect width="12.101" height="67.418" transform="translate(4.484 75.516)" fill="#efdd2e"/><rect width="67.418" height="8.066" transform="matrix(0.243, -0.97, 0.97, 0.243, -152.319, 141.505)" fill="#edc459"/><rect width="67.418" height="8.066" transform="matrix(0.243, -0.97, 0.97, 0.243, -21.015, 135.758)" fill="#592b2c"/><rect width="8.065" height="67.419" transform="matrix(0.981, -0.196, 0.196, 0.981, -60.952, 73.5)" fill="#edc459"/><rect width="18.151" height="63.961" transform="translate(-128.624 79.838)" fill="#5c3a4b"/><rect width="18.151" height="63.961" transform="translate(-177.888 78.541)" fill="#7839ce"/><rect width="7.563" height="59.639" transform="translate(-107.409 84.159)" fill="#5c3a4b"/><rect width="7.563" height="59.639" transform="translate(-160.134 82.431)" fill="#495ec0"/><rect width="12.101" height="51.759" transform="translate(-100.533 92.04)" fill="#fff"/><rect width="12.101" height="51.759" transform="translate(29.118 85.989)" fill="#fff"/><rect width="12.101" height="67.418" transform="translate(76.228 75.516)" fill="#723837"/><rect width="8.065" height="67.419" transform="matrix(0.97, -0.243, 0.243, 0.97, 127.577, 77.202)" fill="#ba74fb"/><rect width="18.151" height="63.961" transform="translate(109.937 78.973)" fill="#ed732f"/><rect width="18.151" height="63.961" transform="translate(159.201 77.677)" fill="#fff"/><rect width="7.563" height="59.639" transform="translate(99.31 83.295)" fill="#495ec0"/><rect width="7.563" height="59.639" transform="translate(152.034 81.566)" fill="#495ec0"/><rect width="7.563" height="59.639" transform="translate(-32.934 79.838)" fill="#592b2c"/><rect width="7.563" height="59.639" transform="translate(-26.019 80.99)" fill="#fff"/><rect width="12.101" height="51.759" transform="translate(87.896 91.175)" fill="#fff"/><rect width="67.418" height="12.101" transform="translate(232.506 140.475) rotate(-84.525)" fill="#723837"/><rect width="12.101" height="67.418" transform="translate(207.968 73.451)" fill="#edc459"/><rect width="12.101" height="67.418" transform="translate(55.845 75.18)" fill="#edc459"/><rect width="13.401" height="78.222" transform="translate(258.26 62.119)" fill="#592b2c"/><rect width="13.401" height="78.222" transform="translate(40.447 65.577)" fill="#723837"/><rect width="13.401" height="78.222" transform="translate(-75.374 66.441)" fill="#42296b"/><rect width="7.563" height="59.639" transform="translate(250.859 80.27)" fill="#fff"/><rect width="7.563" height="59.639" transform="translate(272.466 80.27)" fill="#592b2c"/><rect width="12.101" height="51.759" transform="translate(220.137 89.014)" fill="#fff"/><rect width="12.101" height="51.759" transform="translate(17.881 87.286)" fill="#fff"/><rect width="12.101" height="51.759" transform="translate(180.375 91.398) rotate(-12.888)" fill="#fff"/></g><rect width="526.327" height="10.962" transform="translate(-226.327 321.088)" fill="#4c4c92"/><rect width="526.327" height="10.962" transform="translate(-226.327 231.197)" fill="#4c4c92"/><rect width="10.962" height="93.554" transform="translate(10.613 144.645)" fill="#4c4c92"/><rect width="10.962" height="93.554" transform="translate(-90.51 332.63)" fill="#4c4c92"/><rect width="10.963" height="93.554" transform="translate(186.929 235.397)" fill="#4c4c92"/><rect width="10.963" height="93.554" transform="translate(19.688 234.1)" fill="#4c4c92"/><rect width="10.962" height="93.554" transform="translate(22.281 52.506)" fill="#4c4c92"/><rect width="10.962" height="93.554" transform="translate(177.853 52.506)" fill="#4c4c92"/><rect width="526.327" height="10.962" transform="translate(-226.327 141.306)" fill="#4c4c92"/><rect width="25.314" height="130.455" transform="translate(103.113 1230.641)" fill="#4f4f83"/><rect width="25.314" height="196.042" transform="translate(175.897 1165.054)" fill="#4f4f83"/><path d="M151.79,1227.722a20.443,20.443,0,0,1-20.443,20.443H-73.1a20.447,20.447,0,0,1-20.446-20.443h0A20.448,20.448,0,0,1-73.1,1207.274H131.347a20.445,20.445,0,0,1,20.443,20.448Z" fill="#2e2e59"/><rect width="129.491" height="334.499" transform="translate(1791 0.188)" fill="#8181cd"/><rect width="119.432" height="24.652" transform="translate(1801.059 274.824)" fill="#e2f2ff"/><rect width="119.432" height="24.654" transform="translate(1801.059 126.942)" fill="#e2f2ff"/><path d="M1920.491,258.785h-1.283c-3.143,0-5.692,4.32-5.692,9.65s2.549,9.65,5.692,9.65h1.283Z" fill="#f2f9ff"/><path d="M1920.491,237.332h-1.283c-3.143,0-5.692,4.323-5.692,9.653s2.549,9.652,5.692,9.652h1.283Z" fill="#f2f9ff"/><path d="M1920.491,215.884h-1.283c-3.143,0-5.692,4.32-5.692,9.65s2.549,9.65,5.692,9.65h1.283Z" fill="#f2f9ff"/><path d="M1920.491,192.41h-1.283c-3.143,0-5.692,4.322-5.692,9.65s2.549,9.65,5.692,9.65h1.283Z" fill="#f2f9ff"/><path d="M1905.094,268.435c0,5.33-2.468,9.65-5.514,9.65h-79.664c-3.045,0-5.515-4.32-5.515-9.65h0c0-5.33,2.47-9.65,5.515-9.65h79.664c3.046,0,5.514,4.32,5.514,9.65Z" fill="#f2f9ff"/><path d="M1905.094,246.985c0,5.329-2.468,9.652-5.514,9.652h-79.664c-3.045,0-5.515-4.323-5.515-9.652h0c0-5.33,2.47-9.653,5.515-9.653h79.664c3.046,0,5.514,4.323,5.514,9.653Z" fill="#f2f9ff"/><path d="M1905.094,225.534c0,5.331-2.468,9.65-5.514,9.65h-79.664c-3.045,0-5.515-4.319-5.515-9.65h0c0-5.33,2.47-9.65,5.515-9.65h79.664c3.046,0,5.514,4.32,5.514,9.65Z" fill="#f2f9ff"/><path d="M1905.094,202.06c0,5.33-2.468,9.65-5.514,9.65h-79.664c-3.045,0-5.515-4.32-5.515-9.65h0c0-5.328,2.47-9.65,5.515-9.65h79.664c3.046,0,5.514,4.322,5.514,9.65Z" fill="#f2f9ff"/><path d="M1920.491,110.9h-1.283c-3.143,0-5.692,4.32-5.692,9.652s2.549,9.65,5.692,9.65h1.283Z" fill="#f2f9ff"/><path d="M1920.491,89.452h-1.283c-3.143,0-5.692,4.323-5.692,9.65s2.549,9.655,5.692,9.655h1.283Z" fill="#f2f9ff"/><path d="M1920.491,68h-1.283c-3.143,0-5.692,4.319-5.692,9.652s2.549,9.653,5.692,9.653h1.283Z" fill="#f2f9ff"/><path d="M1920.491,44.529h-1.283c-3.143,0-5.692,4.319-5.692,9.651s2.549,9.653,5.692,9.653h1.283Z" fill="#f2f9ff"/><path d="M1905.094,120.555c0,5.331-2.468,9.65-5.514,9.65h-79.664c-3.045,0-5.515-4.319-5.515-9.65h0c0-5.332,2.47-9.652,5.515-9.652h79.664c3.046,0,5.514,4.32,5.514,9.652Z" fill="#f2f9ff"/><path d="M1905.094,99.1c0,5.332-2.468,9.655-5.514,9.655h-79.664c-3.045,0-5.515-4.323-5.515-9.655h0c0-5.327,2.47-9.65,5.515-9.65h79.664c3.046,0,5.514,4.323,5.514,9.65Z" fill="#f2f9ff"/><path d="M1905.094,77.655c0,5.328-2.468,9.653-5.514,9.653h-79.664c-3.045,0-5.515-4.325-5.515-9.653h0c0-5.333,2.47-9.652,5.515-9.652h79.664c3.046,0,5.514,4.319,5.514,9.652Z" fill="#f2f9ff"/><path d="M1905.094,54.18c0,5.328-2.468,9.653-5.514,9.653h-79.664c-3.045,0-5.515-4.325-5.515-9.653h0c0-5.332,2.47-9.651,5.515-9.651h79.664c3.046,0,5.514,4.319,5.514,9.651Z" fill="#f2f9ff"/><rect width="25.313" height="196.042" transform="translate(750.816 1165.054)" fill="#4f4f83"/><rect width="25.314" height="196.042" transform="translate(240.576 1165.054)" fill="#2e2e59"/><rect width="25.313" height="196.042" transform="translate(693.324 1165.054)" fill="#2e2e59"/><rect width="890.756" height="163.409" transform="translate(1029 916.591)" fill="#a5a5df"/><rect width="890.756" height="14.434" transform="translate(1029.052 965.74)" fill="#7272a9"/><rect width="890.756" height="1.806" transform="translate(1029.052 1040.57)" fill="#7272a9"/><rect width="1.805" height="112.02" transform="translate(1706.011 967.98)" fill="#7272a9"/><rect width="1.805" height="112.02" transform="translate(1575.91 967.98)" fill="#7272a9"/><rect width="1.805" height="112.02" transform="translate(1445.81 967.98)" fill="#7272a9"/><rect width="1.805" height="112.02" transform="translate(1315.709 967.98)" fill="#7272a9"/><rect width="1.805" height="112.02" transform="translate(1185.608 967.98)" fill="#7272a9"/><rect width="464.018" height="15.586" transform="translate(1239.437 1064.414)" fill="#4c4c92"/><rect width="1116.735" height="1448.99" transform="translate(-115.074 -94.789)" fill="none"/><path d="M316.977,872.037l0,6.874-145.477.055.012,30.495L317,909.4l0,6.865-154.095.064-.018-44.228Z" fill="#4c4c92"/><path d="M171.515,909.46l82.639-.033,56.952-.021s-3.214-4.95-3.217-15.248c0-11.9,3.2-15.25,3.2-15.25l-56.955.027-82.636.03,0,15.248Z" fill="#fff"/><g clip-path="url(#b)"><rect width="142.852" height="1.609" transform="translate(169.044 882.168)" fill="#c6cfcd"/><rect width="142.854" height="1.606" transform="translate(311.9 888.339) rotate(179.977)" fill="#c6cfcd"/><path d="M169.051,892.992l142.849-.057,0-1.612-142.851.057Z" fill="#c6cfcd"/><rect width="142.855" height="1.604" transform="translate(169.05 895.946)" fill="#c6cfcd"/><path d="M169.053,902.169l142.852-.057,0-1.6-142.852.058Z" fill="#c6cfcd"/><path d="M169.053,906.759l142.855-.061,0-1.6-142.855.057Z" fill="#c6cfcd"/></g><path d="M171.509,893.616l.006,15.844h0l-.008-15.247,0-.6,136.392-.054c0,.2-.016.387-.012.6,0,10.3,3.217,15.248,3.217,15.248l5.889-.006,0,6.865-154.094.064-.009-22.71Z" fill="#cfd6d6" opacity="0.5" style="mix-blend-mode:multiply;isolation:isolate"/><path d="M204.132,918.01l5.935-4.281,5.941,4.278L216,902.42l0-15.581-5.939,0-5.94,0,.008,15.581Z" fill="#9d9de4"/><rect width="33.382" height="126.254" transform="translate(173.313 871.098) rotate(-89.392)" fill="#8181cd"/><rect width="1.445" height="33.384" transform="translate(290.966 872.348) rotate(-179.279)" fill="#a5a5df"/><rect width="1.445" height="33.385" transform="matrix(-1, -0.011, 0.011, -1, 287.904, 872.316)" fill="#a5a5df"/><rect width="1.443" height="33.382" transform="translate(239.009 871.795) rotate(-179.389)" fill="#a5a5df"/><rect width="1.445" height="33.384" transform="translate(235.884 871.764) rotate(-179.279)" fill="#a5a5df"/><rect width="1.443" height="33.383" transform="matrix(-1, -0.011, 0.011, -1, 187.021, 871.243)" fill="#a5a5df"/><rect width="1.446" height="33.383" transform="translate(183.939 871.21) rotate(-179.418)" fill="#a5a5df"/><rect width="126.255" height="17.397" transform="translate(299.561 872.437) rotate(-179.392)" fill="#2f6e84" opacity="0.35" style="mix-blend-mode:multiply;isolation:isolate"/><path d="M252.628,847.132l3.731,6.521-3.634,6.573,13.4-.1,13.393-.1-.045-6.544-.052-6.548-13.393.1Z" fill="#f1f1f1" opacity="0.16" style="mix-blend-mode:screen;isolation:isolate"/><path d="M298.679,808.819v4.5H186.522V833.3H298.679v4.5h-117.8V808.819Z" fill="#4c4c92"/><path d="M186.522,833.3h108.3s-2.1-3.245-2.1-9.994c0-7.8,2.1-9.991,2.1-9.991h-108.3V833.3Z" fill="#fff"/><g clip-path="url(#c)"><rect width="110.44" height="1.052" transform="translate(295.347 816.487) rotate(180)" fill="#c6cfcd"/><rect width="110.44" height="1.051" transform="translate(295.347 819.495) rotate(180)" fill="#c6cfcd"/><rect width="110.44" height="1.051" transform="translate(295.347 822.503) rotate(180)" fill="#c6cfcd"/><rect width="110.44" height="1.055" transform="translate(295.347 825.512) rotate(180)" fill="#c6cfcd"/><rect width="110.44" height="1.051" transform="translate(295.347 828.519) rotate(180)" fill="#c6cfcd"/><rect width="110.44" height="1.051" transform="translate(295.347 831.528) rotate(180)" fill="#c6cfcd"/></g><path d="M186.522,822.919V833.3h0V822.919h106.2c0,.131,0,.251,0,.387,0,6.749,2.1,9.994,2.1,9.994h3.86v4.5h-117.8V822.919Z" fill="#cfd6d6" opacity="0.5" style="mix-blend-mode:multiply;isolation:isolate"/><path d="M205.437,841.885l4.986-2.8,4.988,2.8v-20.42h-9.975v20.42Z" fill="#64649d"/><path d="M350.647,772.061a57.847,57.847,0,0,0,.936-6.492c.082-1.068.152-2.132.177-3.186s.032-2.1.005-3.138l-.047-1.554-.1-1.538c-.056-1.027-.189-2.029-.291-3.04-.151-.993-.258-2-.454-2.976q-.254-1.478-.578-2.922c-.193-.975-.454-1.918-.7-2.869s-.549-1.871-.82-2.807-.608-1.839-.91-2.76l-1.023-2.7c-.062-.164-.271-.208-.467-.1a.444.444,0,0,0-.243.5l0,.01,1.012,2.679c.3.914.62,1.817.9,2.74.249.939.542,1.856.755,2.811s.461,1.894.632,2.866l.275,1.45.213,1.475c.16.976.23,1.986.344,2.977.066,1.009.162,2.008.182,3.029l.043,1.528-.014,1.543q-.036,1.547-.157,3.112c-.075,1.042-.194,2.091-.324,3.141a58.714,58.714,0,0,1-1.206,6.335c-.261,1.058-.576,2.117-.909,3.172s-.709,2.107-1.122,3.152-.857,2.083-1.343,3.1a30.506,30.506,0,0,1-1.576,2.94l-.014.021-.047.085a29.7,29.7,0,0,1-6.358,7.979,26.089,26.089,0,0,1-4.1,2.953,27.445,27.445,0,0,1-4.464,2.094,31.81,31.81,0,0,1-9.26,1.849,43.6,43.6,0,0,1-8.98-.444c-1.449-.218-2.873-.5-4.251-.847-.685-.172-1.373-.362-2-.566l-1.989-.76c-1.489-.5-2.979-1.014-4.577-1.386a38.321,38.321,0,0,0-4.945-.943,36.252,36.252,0,0,0-5.416-.288c-.358.009-.723.029-1.087.049q1.095-3.212,2.192-6.936c.088-.06.177-.109.263-.173,0,0,7.21-4.786,3.168-14.567l-.188.737a132.2,132.2,0,0,0,1.774-19.929l7.735-.081a.9.9,0,0,0,.8-.631.449.449,0,0,0-.452-.618l-8.071.085q.006-2.364-.076-4.689l9.467-1.73a.894.894,0,0,0,.707-.731.458.458,0,0,0-.59-.5l-9.632,1.76q-.126-2.772-.378-5.454a17.661,17.661,0,0,0,4.648-7.555c0-.01.005-.02.008-.03,7.438-.055,16.3-3.031,24.643-8.869,16.03-11.213,24.085-28.71,17.989-39.08s-24.032-9.69-40.062,1.523c-9.536,6.67-16.249,15.565-18.839,23.86A12.089,12.089,0,0,0,274,708.153a17.131,17.131,0,0,0-7.157,1.766,25.96,25.96,0,0,0-5.436-22.21c-9.552-11.213-27.1-11.894-39.182-1.523s-14.142,27.868-4.591,39.08a25.656,25.656,0,0,0,19.974,8.876,10.829,10.829,0,0,0,.427,6.64q-1.583,2.539-3.108,5.171l-6.709-1.371a.861.861,0,0,0-.874.5.475.475,0,0,0,.283.731l6.608,1.35q-1.424,2.5-2.783,5.05l-6.165-.066h-.007a.9.9,0,0,0-.8.618.454.454,0,0,0,.436.631l5.881.062a199.592,199.592,0,0,0-8.889,19.387c-9.464,9.661-5.079,14.391-5.079,14.391.053.067.115.12.171.182-2.438,8.953-2.865,15.7-1.75,20.735-1.728.428-4.867,2.32-5.99,10.3a23.641,23.641,0,0,0-1.563,5.411s-5.3,1.04-6.761,3.954c0,0-1.826,4.161,2.636,3.121,0,0-3.131,2.913-1.919,5.2,0,0,1.868,1.456,5.059-1.665,0,0-1.022,3.538,2.816,2.5,0,0,2.142-.208,3.667-3.329a18.265,18.265,0,0,0,3.949-7.908s1.1-8.116,3.742-7.908c0,0-.04-.17-.114-.459,5.306,4.2,13.564,5.1,22.783,4.829,11.779-.343,20-1.131,26.24-4.181,1.393,1.2-1.491,7.719-1.491,7.719-1.711,5.2-.62,7.908-.62,7.908-.277,3.121,1.744,3.329,1.744,3.329,3.238,1.041,4.259-2.5,4.259-2.5a2.87,2.87,0,0,0,4.1,1.665,4.468,4.468,0,0,0,1.086-5.2c3.862,1.04,4.439-3.121,4.439-3.121.218-2.914-4.476-3.954-4.476-3.954a23.057,23.057,0,0,0,1.563-5.411c3.57-8.165,1.342-9.957-.143-10.327q1.107-1.794,2.139-3.909a20.377,20.377,0,0,1,3.542-1.155,24.908,24.908,0,0,1,4.306-.579,27.677,27.677,0,0,1,4.34.107,34.924,34.924,0,0,1,4.242.694l2.266.571c.83.175,1.626.307,2.44.426q2.428.35,4.923.479a52.717,52.717,0,0,0,10.294-.443,42.159,42.159,0,0,0,10.741-3,33.722,33.722,0,0,0,5.229-2.849,31.681,31.681,0,0,0,4.7-3.82,32.06,32.06,0,0,0,3.828-4.529,36.331,36.331,0,0,0,2.893-4.867l-.061.106a31.422,31.422,0,0,0,1.609-3.375c.458-1.107.872-2.213,1.232-3.318A54.053,54.053,0,0,0,350.647,772.061Zm-57.7-32.586c-.256-2.344-.589-4.615-1-6.8a23.148,23.148,0,0,0,4.55.606c0,.016-.007.032-.012.049A15.693,15.693,0,0,1,292.943,739.475ZM238.866,734.1a28.861,28.861,0,0,0,3.883-.476c-1.275,1.827-2.533,3.718-3.768,5.655A10.059,10.059,0,0,1,238.866,734.1Z" fill="#56537a" opacity="0.5" style="mix-blend-mode:multiply;isolation:isolate"/><path d="M257.928,801.366l.028-.026.078-.1.161-.2.21-.228.389-.389c.246-.237.489-.452.728-.654.479-.4.959-.755,1.432-1.086a22.279,22.279,0,0,1,2.886-1.687,25.977,25.977,0,0,1,5.868-2.034,30.528,30.528,0,0,1,5.767-.669,37.946,37.946,0,0,1,5.5.288,44.755,44.755,0,0,1,5.218.943c1.705.372,3.345.89,4.978,1.386l2.209.76c.683.2,1.426.394,2.161.566,1.477.345,2.983.629,4.5.847a45.47,45.47,0,0,0,9.107.444,26.848,26.848,0,0,0,8.726-1.849,19.4,19.4,0,0,0,3.86-2.094,17.1,17.1,0,0,0,3.242-2.953,20.142,20.142,0,0,0,4.053-7.979l.023-.085.007-.021a22.812,22.812,0,0,0,.728-2.94c.19-1.022.343-2.06.445-3.1s.176-2.1.211-3.152.038-2.114-.007-3.172a56.072,56.072,0,0,0-.624-6.335c-.173-1.05-.357-2.1-.583-3.141s-.468-2.081-.743-3.112l-.43-1.543-.485-1.528c-.316-1.021-.7-2.02-1.057-3.029-.4-.991-.763-2-1.2-2.977l-.639-1.475-.695-1.45c-.451-.972-.963-1.915-1.459-2.866s-1.047-1.872-1.567-2.811c-.547-.923-1.129-1.826-1.692-2.74l-1.786-2.679-.007-.01a.358.358,0,1,1,.6-.4l1.8,2.7c.568.921,1.153,1.831,1.707,2.76s1.12,1.853,1.631,2.807,1.049,1.894,1.523,2.869q.744,1.444,1.423,2.922c.477.974.876,1.983,1.314,2.976.394,1.011.815,2.013,1.169,3.04l.541,1.538.5,1.554c.327,1.037.63,2.084.9,3.138s.517,2.118.743,3.186a57.934,57.934,0,0,1,.939,6.492,49.165,49.165,0,0,1,.177,6.6c-.042,1.105-.136,2.211-.274,3.318a24.566,24.566,0,0,1-.634,3.375l.03-.106a26.391,26.391,0,0,1-1.487,4.867,21.475,21.475,0,0,1-2.52,4.529,20.632,20.632,0,0,1-3.6,3.82,23.138,23.138,0,0,1-4.406,2.849,33.473,33.473,0,0,1-9.874,3,50.8,50.8,0,0,1-10.166.443c-1.691-.087-3.375-.246-5.062-.479-.848-.119-1.682-.251-2.563-.426l-2.43-.571a40,40,0,0,0-4.444-.694,28.255,28.255,0,0,0-4.37-.107,22.2,22.2,0,0,0-4.14.579,15.476,15.476,0,0,0-3.65,1.373A11.009,11.009,0,0,0,270,806.507a7.593,7.593,0,0,0-.953,1.229,3.15,3.15,0,0,0-.3.6,1.364,1.364,0,0,0-.069.252.161.161,0,0,0,.014.083l.029.013.073-.077.036-.039-.015.035-.02.052a6.69,6.69,0,1,1-12.417-4.985A6.83,6.83,0,0,1,257.928,801.366Z" fill="#30303a"/><path d="M218.638,687.709c12.791,11.213,15.79,28.71,6.7,39.081s-26.831,9.689-39.622-1.524-15.79-28.709-6.7-39.08S205.847,676.5,218.638,687.709Z" fill="#373763"/><path d="M217.288,693.646c10.447,9.159,12.9,23.451,5.471,31.922s-21.916,7.915-32.363-1.244-12.9-23.451-5.472-31.922S206.839,684.487,217.288,693.646Z" fill="#ffbd55"/><path d="M257.3,686.877c-12.791,11.212-15.79,28.71-6.7,39.081s26.831,9.689,39.621-1.524,15.791-28.71,6.7-39.08S270.093,675.664,257.3,686.877Z" fill="#373763"/><path d="M258.652,692.814c-10.447,9.159-12.9,23.451-5.471,31.922s21.915,7.914,32.364-1.244,12.9-23.451,5.472-31.922S269.1,683.655,258.652,692.814Z" fill="#ffbd55"/><path d="M274.6,785.982c0,31.951-6.659,35.378-34.961,36.21-19.76.581-36.626-4.259-36.626-36.21s14.361-77.829,34.129-77.829S274.6,754.032,274.6,785.982Z" fill="#373763"/><path d="M270.85,794.515c0,18.963-14.68,24.347-31.919,24.347s-30.512-5.384-30.512-24.347,13.976-34.337,31.216-34.337S270.85,775.551,270.85,794.515Z" fill="#ffbd55"/><path d="M226.15,728.329a7.956,7.956,0,1,1-9.946,5.264A7.956,7.956,0,0,1,226.15,728.329Z" fill="#373763"/><path d="M225.429,730.67a5.508,5.508,0,1,1-6.885,3.643A5.507,5.507,0,0,1,225.429,730.67Z" fill="#fff"/><path d="M224.651,735.8a2.652,2.652,0,1,1-3.316,1.755A2.653,2.653,0,0,1,224.651,735.8Z" fill="#191919"/><path d="M255.284,728.329a7.956,7.956,0,1,1-9.946,5.264A7.956,7.956,0,0,1,255.284,728.329Z" fill="#373763"/><path d="M254.563,730.67a5.508,5.508,0,1,1-6.885,3.643A5.507,5.507,0,0,1,254.563,730.67Z" fill="#fff"/><path d="M253.786,735.8a2.652,2.652,0,1,1-3.316,1.755A2.654,2.654,0,0,1,253.786,735.8Z" fill="#191919"/><path d="M245.411,748.376a7.087,7.087,0,1,1-14.147.3c-.087-4.137,3.658-2.574,7.565-2.656S245.324,744.24,245.411,748.376Z" fill="#373763" opacity="0.5" style="mix-blend-mode:multiply;isolation:isolate"/><path d="M245.044,746.091a7.087,7.087,0,1,1-14.148.3c-.087-4.137,3.659-2.574,7.566-2.656S244.957,741.954,245.044,746.091Z" fill="#1a1a1c"/><path d="M239.057,770.5s6.37-10.966,19.324-11.052l.069,2.024,1.516-.125.047,1.373.2-.03a4.366,4.366,0,0,1,4.88,3.092c.009.031.019.061.027.091Z" fill="#fff"/><path d="M239.057,770.5s-6.086-11.128-19.033-11.549l-.121,2.022-1.512-.164-.083,1.371-.2-.034a4.367,4.367,0,0,0-4.959,2.963c-.01.031-.019.061-.028.091Z" fill="#fff"/><path d="M212.938,765.139l22.214,4.3.175,38.681-21.743-4.352A1.845,1.845,0,0,1,212.1,802l-.952-35.348A1.5,1.5,0,0,1,212.938,765.139Z" fill="#8181cd"/><path d="M265.323,765.74l-22.744,3.791L241.4,808.194l22.035-3.821a1.6,1.6,0,0,0,1.329-1.5l1.9-35.932A1.159,1.159,0,0,0,265.323,765.74Z" fill="#8181cd"/><path d="M235.152,769.435l.175,38.681a4.861,4.861,0,0,0,6.077.078l1.175-38.663h0a10.537,10.537,0,0,1-7.427-.1Z" fill="#4c4c92"/><path d="M221.114,746.235a12.9,12.9,0,1,1,12.9-12.9A12.917,12.917,0,0,1,221.114,746.235Zm0-24.556a11.654,11.654,0,1,0,11.654,11.654A11.667,11.667,0,0,0,221.114,721.679Z" fill="#191919"/><path d="M255.243,746.235a12.9,12.9,0,1,1,12.9-12.9A12.917,12.917,0,0,1,255.243,746.235Zm0-24.556A11.654,11.654,0,1,0,266.9,733.333,11.667,11.667,0,0,0,255.243,721.679Z" fill="#191919"/><path d="M242.315,735.647c-3.9-3.9-7.93-.529-8.1-.384l-.815-.946c.05-.044,5.072-4.279,9.8.447Z" fill="#191919"/><path d="M225.485,750.4a.683.683,0,0,1-.119-.011l-23.724-4.578a.624.624,0,0,1,.237-1.226L225.6,749.16a.624.624,0,0,1-.117,1.237Z" fill="#191919"/><path d="M225.287,753.647h-.008l-24.16-.256a.625.625,0,0,1,.007-1.249h.007l24.16.256a.625.625,0,0,1-.006,1.249Z" fill="#191919"/><path d="M253.151,750.4a.624.624,0,0,1-.117-1.237l23.723-4.578a.624.624,0,0,1,.237,1.226l-23.724,4.578A.692.692,0,0,1,253.151,750.4Z" fill="#191919"/><path d="M253.349,753.647a.625.625,0,0,1-.006-1.249l24.16-.256a.625.625,0,1,1,.013,1.249l-24.159.256Z" fill="#191919"/><path d="M266.688,777.866s-1.457-5.618-4.994-2.08c0,0-1.249,1.04,1.04,3.745a2.618,2.618,0,0,0-4.058.1s-1.56,1.976,2.185,3.641a1.766,1.766,0,0,0-2.5,1.665s0,2.393,2.913,1.873c0,0,1.457,2.705,6.035,1.456,0,0,4.579,1.665,7.492-1.04,0,0,5.826-4.786-1.04-14.567l.208,6.035s-2.706,2.289-4.371,1.665C269.6,780.364,267.728,777.866,266.688,777.866Z" fill="#373763"/><path d="M210.924,777.866s1.457-5.618,5-2.08c0,0,1.249,1.04-1.041,3.745a2.618,2.618,0,0,1,4.058.1s1.561,1.976-2.185,3.641a1.766,1.766,0,0,1,2.5,1.665s0,2.393-2.913,1.873c0,0-1.457,2.705-6.035,1.456,0,0-4.578,1.665-7.492-1.04,0,0-5.827-4.786,1.041-14.567l-.208,6.035s2.7,2.289,4.37,1.665C208.011,780.364,209.883,777.866,210.924,777.866Z" fill="#373763"/><path d="M208.419,808.041s-5.826-.832-4.161,10.4a20.7,20.7,0,0,0,0,5.411s-4.995,1.04-5.619,3.954c0,0-.624,4.161,3.538,3.121,0,0-2.289,2.913-.416,5.2,0,0,2.289,1.456,4.578-1.665a2.515,2.515,0,0,0,3.537,2.5s2.082-.208,2.706-3.329c0,0,1.873-2.706,1.664-7.908,0,0-1.248-8.116,1.457-7.908C215.7,817.822,211.333,809.5,208.419,808.041Z" fill="#373763"/><path d="M271.233,808.041s5.827-.832,4.162,10.4a20.749,20.749,0,0,1,0,5.411s4.994,1.04,5.618,3.954c0,0,.625,4.161-3.537,3.121,0,0,2.289,2.913.416,5.2,0,0-2.289,1.456-4.578-1.665a2.515,2.515,0,0,1-3.538,2.5s-2.081-.208-2.7-3.329c0,0-1.873-2.706-1.665-7.908,0,0,1.249-8.116-1.456-7.908C263.95,817.822,268.32,809.5,271.233,808.041Z" fill="#373763"/><rect width="758.845" height="22.109" transform="translate(-710.829 1280.585)" fill="#a7aaaf"/><rect width="899.09" height="165" transform="translate(-0.143 916)" fill="#a5a5df"/><rect width="899.09" height="14.574" transform="translate(-0.09 965.627)" fill="#7272a9"/><rect width="899.09" height="1.823" transform="translate(-0.09 1041.187)" fill="#7272a9"/><rect width="1.822" height="113.111" transform="translate(683.203 967.889)" fill="#7272a9"/><rect width="1.822" height="113.111" transform="translate(551.885 967.889)" fill="#7272a9"/><rect width="1.822" height="113.111" transform="translate(420.567 967.889)" fill="#7272a9"/><rect width="1.822" height="113.111" transform="translate(289.249 967.889)" fill="#7272a9"/><rect width="1.822" height="113.111" transform="translate(157.931 967.889)" fill="#7272a9"/><rect width="468.36" height="15.737" transform="translate(212.263 1065.263)" fill="#4c4c92"/><rect width="129.491" height="334.499" transform="translate(1791 361.188)" fill="#8181cd"/><rect width="119.432" height="24.652" transform="translate(1801.059 635.824)" fill="#e2f2ff"/><rect width="119.432" height="24.654" transform="translate(1801.059 487.942)" fill="#e2f2ff"/><path d="M1920.491,619.785h-1.283c-3.143,0-5.692,4.32-5.692,9.65s2.549,9.65,5.692,9.65h1.283Z" fill="#f2f9ff"/><path d="M1920.491,598.332h-1.283c-3.143,0-5.692,4.323-5.692,9.653s2.549,9.652,5.692,9.652h1.283Z" fill="#f2f9ff"/><path d="M1920.491,576.884h-1.283c-3.143,0-5.692,4.32-5.692,9.65s2.549,9.65,5.692,9.65h1.283Z" fill="#f2f9ff"/><path d="M1920.491,553.41h-1.283c-3.143,0-5.692,4.322-5.692,9.65s2.549,9.65,5.692,9.65h1.283Z" fill="#f2f9ff"/><path d="M1905.094,629.435c0,5.33-2.468,9.65-5.514,9.65h-79.664c-3.045,0-5.515-4.32-5.515-9.65h0c0-5.33,2.47-9.65,5.515-9.65h79.664c3.046,0,5.514,4.32,5.514,9.65Z" fill="#f2f9ff"/><path d="M1905.094,607.985c0,5.329-2.468,9.652-5.514,9.652h-79.664c-3.045,0-5.515-4.323-5.515-9.652h0c0-5.33,2.47-9.653,5.515-9.653h79.664c3.046,0,5.514,4.323,5.514,9.653Z" fill="#f2f9ff"/><path d="M1905.094,586.534c0,5.331-2.468,9.65-5.514,9.65h-79.664c-3.045,0-5.515-4.319-5.515-9.65h0c0-5.33,2.47-9.65,5.515-9.65h79.664c3.046,0,5.514,4.32,5.514,9.65Z" fill="#f2f9ff"/><path d="M1905.094,563.06c0,5.33-2.468,9.65-5.514,9.65h-79.664c-3.045,0-5.515-4.32-5.515-9.65h0c0-5.328,2.47-9.65,5.515-9.65h79.664c3.046,0,5.514,4.322,5.514,9.65Z" fill="#f2f9ff"/><path d="M1920.491,471.9h-1.283c-3.143,0-5.692,4.32-5.692,9.652s2.549,9.65,5.692,9.65h1.283Z" fill="#f2f9ff"/><path d="M1920.491,450.452h-1.283c-3.143,0-5.692,4.323-5.692,9.65s2.549,9.655,5.692,9.655h1.283Z" fill="#f2f9ff"/><path d="M1920.491,429h-1.283c-3.143,0-5.692,4.319-5.692,9.652s2.549,9.653,5.692,9.653h1.283Z" fill="#f2f9ff"/><path d="M1920.491,405.529h-1.283c-3.143,0-5.692,4.319-5.692,9.651s2.549,9.653,5.692,9.653h1.283Z" fill="#f2f9ff"/><path d="M1905.094,481.555c0,5.331-2.468,9.65-5.514,9.65h-79.664c-3.045,0-5.515-4.319-5.515-9.65h0c0-5.332,2.47-9.652,5.515-9.652h79.664c3.046,0,5.514,4.32,5.514,9.652Z" fill="#f2f9ff"/><path d="M1905.094,460.1c0,5.332-2.468,9.655-5.514,9.655h-79.664c-3.045,0-5.515-4.323-5.515-9.655h0c0-5.327,2.47-9.65,5.515-9.65h79.664c3.046,0,5.514,4.323,5.514,9.65Z" fill="#f2f9ff"/><path d="M1905.094,438.655c0,5.328-2.468,9.653-5.514,9.653h-79.664c-3.045,0-5.515-4.325-5.515-9.653h0c0-5.333,2.47-9.652,5.515-9.652h79.664c3.046,0,5.514,4.319,5.514,9.652Z" fill="#f2f9ff"/><path d="M1905.094,415.18c0,5.328-2.468,9.653-5.514,9.653h-79.664c-3.045,0-5.515-4.325-5.515-9.653h0c0-5.332,2.47-9.651,5.515-9.651h79.664c3.046,0,5.514,4.319,5.514,9.651Z" fill="#f2f9ff"/></g></svg>