<svg xmlns="http://www.w3.org/2000/svg" xmlns:xlink="http://www.w3.org/1999/xlink" width="1920" height="1078.021" viewBox="0 0 1920 1078.021"><defs><clipPath id="a"><rect width="1920" height="1078.021" transform="translate(0)" fill="none"/></clipPath></defs><g clip-path="url(#a)"><rect width="1920" height="1078.021" transform="translate(0)" fill="#fab44d"/><rect width="12.225" height="68.108" transform="matrix(1, -0.007, 0.007, 1, 1679.545, 562.502)" fill="#592b2c"/><rect width="12.224" height="68.108" transform="translate(1772.461 563.664) rotate(-0.404)" fill="#efdd2e"/><rect width="68.108" height="8.147" transform="translate(1614.1 629.263) rotate(-76.345)" fill="#edc459"/><rect width="68.108" height="8.148" transform="translate(1750.224 631.252) rotate(-76.34)" fill="#ba74fb"/><rect width="8.148" height="68.108" transform="translate(1707.253 565.587) rotate(-11.69)" fill="#edc459"/><rect width="18.337" height="64.616" transform="matrix(1, -0.007, 0.007, 1, 1638.031, 567.232)" fill="#5c3a4b"/><rect width="18.336" height="64.616" transform="matrix(1, -0.007, 0.007, 1, 1846.003, 568.889)" fill="#723837"/><rect width="7.64" height="60.25" transform="translate(1659.496 572.32) rotate(-0.401)" fill="#5c3a4b"/><rect width="7.64" height="60.25" transform="matrix(1, -0.007, 0.007, 1, 1837.22, 578.513)" fill="#edc459"/><rect width="12.225" height="52.288" transform="matrix(1, -0.007, 0.007, 1, 1666.496, 579.359)" fill="#fff"/><rect width="7.64" height="60.25" transform="translate(1734.727 572.226) rotate(-0.406)" fill="#592b2c"/><rect width="7.64" height="60.25" transform="translate(1741.736 571.74) rotate(-0.407)" fill="#fff"/><rect width="13.538" height="79.023" transform="matrix(1, -0.007, 0.007, 1, 1693.476, 552.883)" fill="#5c3a4b"/><rect width="1920" height="198.653" transform="translate(0 879.368)" fill="#fce9d4"/><path d="M22.218,977.007l214.045.141-4.132,11.3L16.3,990.731Z" fill="#c47d20" opacity="0.5" style="mix-blend-mode:multiply;isolation:isolate"/><rect width="248.315" height="248.952" transform="translate(1615.134 632.294)" fill="#c77d28"/><rect width="231.455" height="73.098" transform="translate(1622.887 797.217)" fill="#ffd69f"/><rect width="224.777" height="69.605" transform="translate(1626.226 800.018)" fill="#fcbf65"/><path d="M1622.887,797.217l3.339,2.8H1851l3.339-2.8Z" fill="#683e15"/><path d="M1854.342,870.451,1851,868.523H1626.226l-3.339,1.928Z" fill="#ffe3c2"/><rect width="231.455" height="73.098" transform="translate(1622.887 718.834)" fill="#ffd69f"/><rect width="224.777" height="69.605" transform="translate(1626.226 721.635)" fill="#fcbf65"/><path d="M1622.887,718.834l3.339,2.8H1851l3.339-2.8Z" fill="#683e15"/><path d="M1854.342,792.068,1851,790.14H1626.226l-3.339,1.928Z" fill="#ffe3c2"/><rect width="231.455" height="73.098" transform="translate(1622.887 640.098)" fill="#ffd69f"/><rect width="224.777" height="69.605" transform="translate(1626.226 642.898)" fill="#fcbf65"/><path d="M1622.887,640.1l3.339,2.8H1851l3.339-2.8Z" fill="#683e15"/><path d="M1854.342,713.332,1851,711.4H1626.226l-3.339,1.928Z" fill="#ffe3c2"/><path d="M1842.666,703.421H1633.554V649.472h209.112Zm-207.775-1.337h206.438V650.809H1634.891Z" fill="#ffe3c2"/><path d="M1735.881,683.8a6.911,6.911,0,1,1,6.911-6.91A6.919,6.919,0,0,1,1735.881,683.8Zm0-12.486a5.574,5.574,0,1,0,5.574,5.576A5.581,5.581,0,0,0,1735.881,671.317Z" fill="#ffe3c2"/><path d="M1842.666,783.231H1633.554v-53.95h209.112Zm-207.775-1.337h206.438V730.619H1634.891Z" fill="#ffe3c2"/><path d="M1735.881,763.613a6.911,6.911,0,1,1,6.911-6.911A6.919,6.919,0,0,1,1735.881,763.613Zm0-12.486a5.574,5.574,0,1,0,5.574,5.575A5.581,5.581,0,0,0,1735.881,751.127Z" fill="#ffe3c2"/><path d="M1842.666,863.041H1633.554v-53.95h209.112ZM1634.891,861.7h206.438V810.429H1634.891Z" fill="#ffe3c2"/><path d="M1735.881,843.422a6.911,6.911,0,1,1,6.911-6.91A6.918,6.918,0,0,1,1735.881,843.422Zm0-12.485a5.574,5.574,0,1,0,5.574,5.575A5.581,5.581,0,0,0,1735.881,830.937Z" fill="#ffe3c2"/><path d="M1839.719,633.816H1796.8l-3.2-46.908h48.12Z" fill="#ffc653"/><path d="M1794.74,603.6l46.43-3.766.34-7.981-47.616-.635Z" fill="#7f7f7f" opacity="0.5" style="mix-blend-mode:multiply;isolation:isolate"/><path d="M1815.716,576.62s0,5.4-5.958,4.827C1809.758,581.447,1808.9,576.428,1815.716,576.62Z" fill="#b2a500"/><path d="M1799.815,578.065s-.806,5.5-5.152,3.6C1794.663,581.666,1795.6,576.682,1799.815,578.065Z" fill="#fff"/><path d="M1792.315,572.573s-4.779,6.613-7.943-.043C1784.372,572.53,1786.8,569.365,1792.315,572.573Z" fill="#b2a500"/><path d="M1787.9,567.354s-2.693-5.634,1.317-5.994S1787.9,567.354,1787.9,567.354Z" fill="#b2a500"/><path d="M1784.611,560.226s-7-3.716-3.667-6.4S1784.611,560.226,1784.611,560.226Z" fill="#b2a500"/><path d="M1785.007,542.273s-5.957,1.739-5.808-4.018C1779.2,538.255,1783.148,536.393,1785.007,542.273Z" fill="#b2a500"/><path d="M1789.519,547.21a4.187,4.187,0,0,1,.291-6.669A4.378,4.378,0,0,1,1789.519,547.21Z" fill="#b2a500"/><path d="M1785.826,551.6s1.135,5.337,7.029,2.981C1792.855,554.585,1790.037,549.786,1785.826,551.6Z" fill="#b2a500"/><path d="M1797.037,561.983s-6.283,1.389-6.63-3.395C1790.407,558.588,1794.6,557.126,1797.037,561.983Z" fill="#b2a500"/><path d="M1799.779,571.486s-7.852.449-6.428-5.281C1793.351,566.205,1797.919,565.338,1799.779,571.486Z" fill="#b2a500"/><path d="M1800.412,571.093s.327-6.084,4.935-6.983C1805.347,564.11,1806.305,570.492,1800.412,571.093Z" fill="#b2a500"/><path d="M1799.134,559.355s5.084,3.036,6.942-2.795C1806.076,556.56,1803.23,554.38,1799.134,559.355Z" fill="#b2a500"/><path d="M1799.215,555.345s-4.96-.807-3.829-5.694C1795.386,549.651,1800.432,550.515,1799.215,555.345Z" fill="#b2a500"/><path d="M1800.175,551.776s-3.224-3.762,2.144-6.786C1802.319,544.99,1805.05,548.841,1800.175,551.776Z" fill="#b2a500"/><path d="M1810.044,576.13s-6.527-3.677-1.9-8.157C1808.141,567.973,1812.565,570.65,1810.044,576.13Z" fill="#b2a500"/><path d="M1812.492,568.773s-1.842-5.5,4.228-7.586C1816.72,561.187,1818.306,567.412,1812.492,568.773Z" fill="#b2a500"/><path d="M1812.492,568.773l-.1.229a.243.243,0,0,0,.226-.052c-.166.2-.951,1.885-4.061,15.489a29.291,29.291,0,0,0-.633,4.362c-.04.038-.087.065-.127.107l-.469.472a29.362,29.362,0,0,1,.686-5.063c3.632-15.907,4.133-15.879,4.457-15.869a.326.326,0,0,1,.3.286l-.553.084Z" fill="#b2a500"/><path d="M1785.195,542.068c4.924,4.509,10.788,16.2,12.087,19.085,1.66,3.677,6.07,21.093,7.265,28.672.1.626.234,1.278.388,1.939l-.462.463c-.192-.79-.366-1.569-.481-2.316-1.249-7.923-5.736-25.246-7.217-28.526-1.913-4.249-7.583-14.9-11.959-18.9Z" fill="#b2a500"/><path d="M1802.734,580.706l-.487.278c-1.444-2.581-3.783-4.2-7.021-6.441-1.068-.734-2.268-1.567-3.557-2.518-5.212-3.838-7.246-11.407-7.33-11.728l.541-.144c.021.079,2.068,7.7,7.122,11.424,1.283.943,2.482,1.775,3.54,2.5C1798.841,576.364,1801.228,578.016,1802.734,580.706Z" fill="#b2a500"/><path d="M1798.047,563.342l-.546-.117,2.4-11.5.551.112Z" fill="#b2a500"/><path d="M1836.227,576.317s0,5.4-5.957,4.824C1830.27,581.141,1829.412,576.12,1836.227,576.317Z" fill="#b2a500"/><path d="M1820.327,577.76s-.81,5.5-5.153,3.6C1815.174,581.36,1816.11,576.376,1820.327,577.76Z" fill="#fff"/><path d="M1812.829,572.269s-4.782,6.612-7.947-.047C1804.882,572.222,1807.306,569.057,1812.829,572.269Z" fill="#b2a500"/><path d="M1808.414,567.047s-2.691-5.633,1.318-5.992S1808.414,567.047,1808.414,567.047Z" fill="#b2a500"/><path d="M1805.121,559.92s-6.994-3.717-3.666-6.4S1805.121,559.92,1805.121,559.92Z" fill="#b2a500"/><path d="M1805.519,541.969s-5.959,1.739-5.809-4.021C1799.71,537.948,1803.66,536.087,1805.519,541.969Z" fill="#b2a500"/><path d="M1810.03,546.9s-3.706-3.292.288-6.667A4.374,4.374,0,0,1,1810.03,546.9Z" fill="#b2a500"/><path d="M1806.338,551.3s1.133,5.338,7.028,2.981C1813.366,554.279,1810.547,549.477,1806.338,551.3Z" fill="#b2a500"/><path d="M1817.546,561.678s-6.281,1.388-6.63-3.394C1810.916,558.284,1815.113,556.817,1817.546,561.678Z" fill="#b2a500"/><path d="M1820.289,571.18s-7.849.449-6.427-5.278C1813.862,565.9,1818.431,565.032,1820.289,571.18Z" fill="#b2a500"/><path d="M1820.924,570.786s.33-6.082,4.933-6.982C1825.857,563.8,1826.816,570.189,1820.924,570.786Z" fill="#b2a500"/><path d="M1819.645,559.048s5.086,3.036,6.943-2.791C1826.588,556.257,1823.741,554.071,1819.645,559.048Z" fill="#b2a500"/><path d="M1819.725,555.039s-4.958-.81-3.829-5.694C1815.9,549.345,1820.942,550.209,1819.725,555.039Z" fill="#b2a500"/><path d="M1820.686,551.471s-3.225-3.761,2.145-6.786C1822.831,544.685,1825.56,548.537,1820.686,551.471Z" fill="#b2a500"/><path d="M1830.556,575.821s-6.53-3.673-1.9-8.154C1828.652,567.667,1833.077,570.347,1830.556,575.821Z" fill="#b2a500"/><path d="M1833,568.468s-1.842-5.5,4.226-7.586C1837.23,560.882,1838.817,567.1,1833,568.468Z" fill="#b2a500"/><path d="M1833,568.468l-.106.227a.249.249,0,0,0,.227-.051c-.165.2-.95,1.884-4.061,15.491a28.583,28.583,0,0,0-.631,4.36c-.044.038-.087.064-.131.1l-.468.474a29.672,29.672,0,0,1,.684-5.063c3.636-15.906,4.133-15.878,4.459-15.869a.318.318,0,0,1,.3.287l-.551.081Z" fill="#b2a500"/><path d="M1805.7,541.761c4.926,4.509,10.789,16.2,12.091,19.086,1.659,3.677,6.068,21.093,7.26,28.674.1.624.238,1.277.392,1.938l-.462.464c-.195-.793-.367-1.57-.482-2.319-1.248-7.923-5.738-25.243-7.217-28.525-1.914-4.249-7.58-14.9-11.958-18.9Z" fill="#b2a500"/><path d="M1823.242,580.4l-.48.275c-1.449-2.578-3.789-4.2-7.027-6.438-1.064-.738-2.267-1.569-3.557-2.517-5.209-3.839-7.245-11.412-7.329-11.731l.543-.142c.02.08,2.069,7.7,7.118,11.422,1.284.944,2.485,1.774,3.543,2.5C1819.352,576.06,1821.739,577.711,1823.242,580.4Z" fill="#b2a500"/><path d="M1818.558,563.038l-.547-.118,2.4-11.507.553.114Z" fill="#b2a500"/><path d="M1806.416,576.317s0,5.4,5.958,4.824C1812.374,581.141,1813.234,576.12,1806.416,576.317Z" fill="#b2a500"/><path d="M1822.319,577.76s.806,5.5,5.15,3.6C1827.469,581.36,1826.537,576.376,1822.319,577.76Z" fill="#fff"/><path d="M1829.819,572.269s4.779,6.612,7.942-.047C1837.761,572.222,1835.338,569.057,1829.819,572.269Z" fill="#b2a500"/><path d="M1834.229,567.047s2.692-5.633-1.316-5.992S1834.229,567.047,1834.229,567.047Z" fill="#b2a500"/><path d="M1837.525,559.92s6.992-3.717,3.664-6.4S1837.525,559.92,1837.525,559.92Z" fill="#b2a500"/><path d="M1837.128,541.969s5.956,1.739,5.809-4.021C1842.937,537.948,1838.987,536.087,1837.128,541.969Z" fill="#b2a500"/><path d="M1832.617,546.9a4.185,4.185,0,0,0-.291-6.667A4.374,4.374,0,0,0,1832.617,546.9Z" fill="#b2a500"/><path d="M1836.308,551.3s-1.136,5.338-7.028,2.981C1829.28,554.279,1832.1,549.477,1836.308,551.3Z" fill="#b2a500"/><path d="M1825.1,561.678s6.28,1.388,6.628-3.394C1831.728,558.284,1827.529,556.817,1825.1,561.678Z" fill="#b2a500"/><path d="M1822.354,571.18s7.852.449,6.427-5.278C1828.781,565.9,1824.213,565.032,1822.354,571.18Z" fill="#b2a500"/><path d="M1821.722,570.786s-.328-6.082-4.934-6.982C1816.788,563.8,1815.828,570.189,1821.722,570.786Z" fill="#b2a500"/><path d="M1823,559.048s-5.082,3.036-6.94-2.791C1816.059,556.257,1818.9,554.071,1823,559.048Z" fill="#b2a500"/><path d="M1822.92,555.039s4.958-.81,3.83-5.694C1826.75,549.345,1821.7,550.209,1822.92,555.039Z" fill="#b2a500"/><path d="M1821.96,551.471s3.223-3.761-2.143-6.786C1819.817,544.685,1817.083,548.537,1821.96,551.471Z" fill="#b2a500"/><path d="M1812.088,575.821s6.532-3.673,1.9-8.154C1813.991,567.667,1809.568,570.347,1812.088,575.821Z" fill="#b2a500"/><path d="M1809.643,568.468s1.842-5.5-4.229-7.586C1805.414,560.882,1803.829,567.1,1809.643,568.468Z" fill="#b2a500"/><path d="M1809.643,568.468l.106.227a.248.248,0,0,1-.228-.051c.165.2.95,1.884,4.06,15.491a28.208,28.208,0,0,1,.631,4.36c.043.038.088.064.129.1l.469.474a29.183,29.183,0,0,0-.685-5.063c-3.634-15.906-4.132-15.878-4.46-15.869a.32.32,0,0,0-.3.287l.55.081Z" fill="#b2a500"/><path d="M1836.938,541.761c-4.927,4.509-10.787,16.2-12.086,19.086-1.661,3.677-6.071,21.093-7.266,28.674-.1.624-.235,1.277-.386,1.938l.462.464c.192-.793.362-1.57.479-2.319,1.249-7.923,5.741-25.243,7.219-28.525,1.913-4.249,7.579-14.9,11.959-18.9Z" fill="#b2a500"/><path d="M1819.4,580.4l.489.275c1.444-2.578,3.785-4.2,7.021-6.438,1.067-.738,2.27-1.569,3.558-2.517,5.211-3.839,7.247-11.412,7.328-11.731l-.541-.142c-.017.08-2.069,7.7-7.119,11.422-1.283.944-2.483,1.774-3.54,2.5C1823.292,576.06,1820.907,577.711,1819.4,580.4Z" fill="#b2a500"/><path d="M1824.086,563.038l.546-.118-2.4-11.507-.55.114Z" fill="#b2a500"/><path d="M1790.805,586.908v8.181l55.635-.551.611-7.63Z" fill="#ffc653"/><rect width="118.437" height="35.377" rx="7.178" transform="translate(1546.819 421.196)" fill="#ffc77d"/><rect width="44.609" height="35.377" rx="7.178" transform="translate(1717.552 421.196)" fill="#ea9a32"/><path d="M7.177,0H37.429a7.178,7.178,0,0,1,7.178,7.178V28.2a7.178,7.178,0,0,1-7.178,7.178H7.177A7.177,7.177,0,0,1,0,28.2V7.177A7.177,7.177,0,0,1,7.177,0Z" transform="translate(1583.736 466.832)" fill="#ea9a32"/><rect width="18.46" height="35.377" rx="7.178" transform="translate(1679.099 421.196)" fill="#ffc77d"/><rect width="118.439" height="35.377" rx="7.178" transform="translate(1599.115 375.052)" fill="#ea9a32"/><path d="M7.18,0H111.258a7.178,7.178,0,0,1,7.178,7.178V28.2a7.177,7.177,0,0,1-7.177,7.177H7.177A7.177,7.177,0,0,1,0,28.2V7.18A7.18,7.18,0,0,1,7.18,0Z" transform="translate(1642.183 467.341)" fill="#ffc77d"/><rect width="41.021" height="35.377" rx="7.178" transform="translate(1742.162 375.052)" fill="#ffc77d"/><rect width="118.437" height="35.377" rx="7.178" transform="translate(-77.154 100.028)" fill="#ffc77d"/><rect width="44.609" height="35.377" rx="7.178" transform="translate(93.579 100.028)" fill="#ea9a32"/><path d="M7.177,0H37.429a7.178,7.178,0,0,1,7.178,7.178V28.2a7.177,7.177,0,0,1-7.177,7.177H7.177A7.177,7.177,0,0,1,0,28.2V7.177A7.177,7.177,0,0,1,7.177,0Z" transform="translate(-40.236 145.664)" fill="#ea9a32"/><rect width="18.46" height="35.377" rx="7.178" transform="translate(55.127 100.028)" fill="#ffc77d"/><path d="M7.178,0H111.26a7.178,7.178,0,0,1,7.178,7.178V28.2a7.178,7.178,0,0,1-7.178,7.178H7.18A7.18,7.18,0,0,1,0,28.2V7.178A7.178,7.178,0,0,1,7.178,0Z" transform="translate(-24.858 53.884)" fill="#ea9a32"/><path d="M7.18,0H111.258a7.178,7.178,0,0,1,7.178,7.178V28.2a7.177,7.177,0,0,1-7.177,7.177H7.177A7.177,7.177,0,0,1,0,28.2V7.18A7.18,7.18,0,0,1,7.18,0Z" transform="translate(18.211 146.174)" fill="#ffc77d"/><rect width="41.02" height="35.377" rx="7.178" transform="translate(118.19 53.884)" fill="#ffc77d"/><rect width="373.591" height="220.239" transform="translate(1546.735 91.358)" fill="#ffdd92"/><rect width="305.911" height="163.688" transform="translate(1579.532 121.075)" fill="#fff"/><path d="M1842.578,284.763h39.1l-76.53-163.688h-42.318Z" fill="#f4f3e4"/><path d="M1740.607,284.763h39.1l-76.532-163.688H1660.86Z" fill="#f4f3e4"/><path d="M33.25,983.08,6.359,977.007l26.891-6.073,26.891,6.073Z" fill="#fdfaf3"/><rect width="443.775" height="375.149" transform="translate(78.035 181)" fill="#ffdd92"/><rect width="199.012" height="347.699" transform="translate(90.617 194.725)" fill="#fff"/><rect width="199.012" height="347.699" transform="translate(310.217 194.725)" fill="#fff"/><path d="M55.057,910.458l-32.7,77.986h9.225l42.766-76.309Z" fill="#c38120"/><path d="M162.3,910.458,195,988.444h-9.225l-42.766-76.309Z" fill="#c38120"/><rect width="141.278" height="14.715" transform="translate(38.061 901.262)" fill="#c38120"/><path d="M61.535,616.627s.891,2.589,2.363,7.138c.732,2.275,1.618,5.04,2.6,8.222s2.082,6.776,3.254,10.705,2.408,8.2,3.672,12.723c1.28,4.524,2.573,9.311,3.888,14.268q.96,3.728,1.953,7.567c.633,2.564,1.3,5.151,1.926,7.774s1.272,5.259,1.876,7.921q.459,2,.92,3.993.444,2.006.887,4.014c1.184,5.35,2.279,10.723,3.315,16.023.513,2.649.985,5.288,1.471,7.893q.667,3.917,1.321,7.728c.392,2.544.8,5.047,1.16,7.5.338,2.46.688,4.862,1,7.206q.423,3.525.826,6.842.341,3.328.655,6.418c.347,4.121.662,7.9.818,11.272.224,3.358.251,6.306.335,8.726.051,1.211.023,2.3.028,3.238s0,1.747,0,2.4c0,1.3,0,1.995,0,1.995a2.447,2.447,0,0,1-2.4,2.45A2.369,2.369,0,0,1,91,788.248c0-.013,0-.025,0-.035l0-.1s.014-.676.041-1.947c.013-.634.031-1.418.05-2.338s.064-1.98.036-3.169c-.035-2.375,0-5.261-.155-8.574-.085-3.311-.321-7.044-.582-11.121-.165-2.035-.338-4.156-.516-6.35q-.33-3.288-.681-6.788c-.257-2.328-.555-4.716-.841-7.159-.31-2.44-.661-4.93-1-7.464q-.568-3.8-1.154-7.7c-.432-2.594-.848-5.226-1.3-7.872-.922-5.291-1.9-10.661-2.974-16.013q-.4-2.007-.8-4.013-.418-2-.835-4c-.549-2.661-1.132-5.306-1.71-7.929s-1.183-5.219-1.762-7.79q-.908-3.845-1.792-7.585c-1.211-4.972-2.4-9.774-3.587-14.311s-2.33-8.825-3.407-12.773-2.1-7.56-3.029-10.753-1.746-5.974-2.432-8.261c-1.376-4.573-2.209-7.164-2.209-7.164a.635.635,0,0,1,.4-.795A.611.611,0,0,1,61.535,616.627Z" fill="#c38120"/><path d="M60.252,599.252a45.332,45.332,0,0,1,1.257,22.153,44.134,44.134,0,0,1-12.432-18.151A45.349,45.349,0,0,1,47.822,581.1,44.1,44.1,0,0,1,60.252,599.252Z" fill="#ffdc97"/><path d="M53.839,617.848C62.418,623.763,66,633.493,66,633.493s-10.328.141-18.905-5.771-12.157-15.643-12.157-15.643S45.261,611.935,53.839,617.848Z" fill="#ffdc97"/><path d="M55.607,636.513c9.659,5.009,14.735,14.375,14.735,14.375s-10.583,1.253-20.24-3.754-14.735-14.372-14.735-14.372S45.949,631.509,55.607,636.513Z" fill="#ffc533"/><path d="M77.658,617.646a41.71,41.71,0,0,1-10.811,18.2,41.176,41.176,0,0,1-.607-21.071,41.718,41.718,0,0,1,10.811-18.2A41.168,41.168,0,0,1,77.658,617.646Z" fill="#ffd066"/><path d="M90.025,653.145a41.5,41.5,0,0,1-14.906,14.98,37.974,37.974,0,0,1,19.5-35.617A41.536,41.536,0,0,1,90.025,653.145Z" fill="#ffdc97"/><path d="M83.562,635.533c-4.247,8.311-12.928,12.372-12.928,12.372s-1.8-9.412,2.449-17.722,12.928-12.372,12.928-12.372S87.808,627.224,83.562,635.533Z" fill="#ffd066"/><path d="M54.143,665.823A49.014,49.014,0,0,1,38.2,648.846a48.808,48.808,0,0,1,22.243,6.806,49,49,0,0,1,15.946,16.976A48.817,48.817,0,0,1,54.143,665.823Z" fill="#ffd066"/><path d="M55.522,682.713a64.506,64.506,0,0,1-19.17-18.982,64.257,64.257,0,0,1,25.468,8.814,64.494,64.494,0,0,1,19.171,18.982A64.287,64.287,0,0,1,55.522,682.713Z" fill="#ffdc97"/><path d="M58.4,701.4a64.522,64.522,0,0,1-19.169-18.986A64.269,64.269,0,0,1,64.7,691.231a64.518,64.518,0,0,1,19.172,18.981A64.308,64.308,0,0,1,58.4,701.4Z" fill="#ffdc97"/><path d="M87.854,661.1a67.235,67.235,0,0,1,17.581-20.974,67.192,67.192,0,0,1-7.15,26.416,67.208,67.208,0,0,1-17.58,20.975A67.187,67.187,0,0,1,87.854,661.1Z" fill="#ffc533"/><path d="M94.3,677.187a103.406,103.406,0,0,1,20.839-27.216,103.351,103.351,0,0,1-10.407,32.659A103.448,103.448,0,0,1,83.9,709.846,103.413,103.413,0,0,1,94.3,677.187Z" fill="#ffc533"/><path d="M65.361,708.73A98.973,98.973,0,0,1,90.42,731.362,98.741,98.741,0,0,1,59.068,718.9a99.009,99.009,0,0,1-25.059-22.63A98.688,98.688,0,0,1,65.361,708.73Z" fill="#ffc533"/><path d="M110.55,703.8a103.41,103.41,0,0,1-21.159,26.965,99.872,99.872,0,0,1,31.951-59.5A103.45,103.45,0,0,1,110.55,703.8Z" fill="#ffd066"/><path d="M184.765,626.241s-1.443,2.327-3.888,6.436c-1.219,2.057-2.7,4.555-4.362,7.439s-3.534,6.146-5.549,9.717-4.166,7.459-6.4,11.591-4.574,8.508-6.956,13.05q-1.763,3.422-3.583,6.944c-1.186,2.361-2.415,4.734-3.6,7.153s-2.406,4.846-3.587,7.306q-.891,1.848-1.783,3.692t-1.755,3.716c-2.342,4.954-4.6,9.949-6.789,14.888-1.087,2.468-2.133,4.937-3.185,7.369l-3,7.243c-.947,2.394-1.9,4.743-2.8,7.051-.876,2.324-1.75,4.59-2.568,6.806l-2.325,6.489c-.712,2.112-1.4,4.154-2.062,6.112-1.253,3.942-2.4,7.561-3.3,10.81-.963,3.226-1.643,6.094-2.263,8.434-.318,1.17-.532,2.237-.746,3.152s-.385,1.7-.53,2.338c-.286,1.269-.44,1.945-.44,1.945a2.448,2.448,0,0,0,1.8,2.923,2.37,2.37,0,0,0,2.865-1.8l.007-.034.019-.092s.136-.665.392-1.908c.129-.622.285-1.391.47-2.291s.377-1.945.668-3.1c.562-2.309,1.168-5.129,2.054-8.326.817-3.208,1.877-6.8,3.035-10.715l1.913-6.077,2.17-6.467c.767-2.213,1.587-4.477,2.409-6.795.843-2.309,1.737-4.659,2.632-7.056q1.394-3.571,2.833-7.254c1-2.435,1.986-4.908,3.018-7.387,2.073-4.955,4.222-9.974,6.454-14.954.558-1.245,1.114-2.493,1.672-3.734s1.136-2.48,1.7-3.716c1.125-2.473,2.282-4.923,3.427-7.352s2.312-4.826,3.446-7.2q1.74-3.549,3.432-7c2.283-4.577,4.511-9,6.672-13.158s4.23-8.087,6.156-11.7,3.728-6.905,5.339-9.813,3.029-5.437,4.205-7.515c2.357-4.154,3.744-6.495,3.744-6.495a.635.635,0,0,0-.214-.864A.611.611,0,0,0,184.765,626.241Z" fill="#c38120"/><path d="M189.871,609.585a45.331,45.331,0,0,0-6.141,21.322,44.129,44.129,0,0,0,16.149-14.942,45.328,45.328,0,0,0,6.14-21.322A44.109,44.109,0,0,0,189.871,609.585Z" fill="#ffdc97"/><path d="M192,629.14C182.321,633,176.672,641.7,176.672,641.7s10.04,2.43,19.715-1.433,15.324-12.555,15.324-12.555S201.675,625.278,192,629.14Z" fill="#ffdc97"/><path d="M186.133,646.948c-10.531,2.74-17.557,10.747-17.557,10.747s10.04,3.57,20.568.83S206.7,647.781,206.7,647.781,196.66,644.211,186.133,646.948Z" fill="#ffc533"/><path d="M168.817,623.658a41.718,41.718,0,0,0,6.5,20.14,41.182,41.182,0,0,0,5.269-20.412,41.72,41.72,0,0,0-6.5-20.141A41.185,41.185,0,0,0,168.817,623.658Z" fill="#ffd066"/><path d="M148.882,655.527a41.487,41.487,0,0,0,11.211,17.914,37.977,37.977,0,0,0-11.108-39.056A41.559,41.559,0,0,0,148.882,655.527Z" fill="#ffdc97"/><path d="M159.093,639.789c2.295,9.046,9.859,14.932,9.859,14.932s3.841-8.779,1.544-17.823-9.86-14.933-9.86-14.933S156.795,630.744,159.093,639.789Z" fill="#ffd066"/><path d="M181.056,675.85a48.986,48.986,0,0,0,19.315-13.014,45.293,45.293,0,0,0-42.513,14.715A48.8,48.8,0,0,0,181.056,675.85Z" fill="#ffd066"/><path d="M175.963,692.014a64.516,64.516,0,0,0,22.9-14.255,60.792,60.792,0,0,0-49.694,17.2A64.3,64.3,0,0,0,175.963,692.014Z" fill="#ffdc97"/><path d="M169.006,709.6a64.547,64.547,0,0,0,22.9-14.258,60.8,60.8,0,0,0-49.694,17.2A64.322,64.322,0,0,0,169.006,709.6Z" fill="#ffdc97"/><path d="M149.234,663.763a67.223,67.223,0,0,0-12.489-24.352,63.676,63.676,0,0,0,13.6,51.7A67.188,67.188,0,0,0,149.234,663.763Z" fill="#ffc533"/><path d="M139.374,678.021a103.413,103.413,0,0,0-14.28-31.162,99.853,99.853,0,0,0,17.18,65.316A103.371,103.371,0,0,0,139.374,678.021Z" fill="#ffc533"/><path d="M160.6,715.2a98.979,98.979,0,0,0-29.455,16.507,95.27,95.27,0,0,0,62.791-21.7A98.7,98.7,0,0,0,160.6,715.2Z" fill="#ffc533"/><path d="M117.628,700.365a103.376,103.376,0,0,0,14.648,30.987,103.423,103.423,0,0,0-3.3-34.12,103.349,103.349,0,0,0-14.647-30.989A103.448,103.448,0,0,0,117.628,700.365Z" fill="#ffd066"/><path d="M130.551,581.124s-.73,3.047-1.9,8.39c-.584,2.672-1.287,5.918-2.058,9.651s-1.624,7.947-2.526,12.551-1.838,9.6-2.781,14.9-1.9,10.887-2.853,16.678q-.683,4.35-1.39,8.833c-.438,2.99-.917,6.01-1.336,9.064s-.868,6.132-1.264,9.229q-.3,2.325-.606,4.651-.285,2.331-.568,4.667c-.758,6.225-1.415,12.464-2.01,18.616-.291,3.072-.538,6.13-.805,9.15q-.328,4.535-.651,8.947c-.166,2.941-.352,5.835-.5,8.666-.114,2.838-.247,5.613-.338,8.316-.063,2.707-.126,5.34-.187,7.885-.013,2.551-.025,5.016-.037,7.381.058,4.732.116,9.075.31,12.928.117,3.851.411,7.21.582,9.974.075,1.386.227,2.621.325,3.693s.194,1.989.267,2.73c.146,1.48.222,2.271.222,2.271a2.8,2.8,0,0,0,3.006,2.526,2.711,2.711,0,0,0,2.464-2.985l0-.04-.014-.107-.261-2.214c-.083-.721-.192-1.613-.315-2.657s-.291-2.248-.391-3.606c-.221-2.71-.579-5.991-.767-9.783-.27-3.778-.411-8.057-.565-12.729-.035-2.336-.073-4.772-.112-7.289q.014-3.777.028-7.8c.035-2.682.111-5.434.168-8.248.084-2.811.209-5.685.317-8.61q.227-4.383.463-8.9c.206-3,.389-6.044.617-9.11.467-6.129.993-12.353,1.622-18.565.158-1.554.312-3.109.471-4.658s.341-3.1.51-4.649c.331-3.091.705-6.167,1.074-9.218.353-3.055.773-6.074,1.148-9.066q.609-4.479,1.205-8.837c.83-5.8,1.657-11.4,2.506-16.694.831-5.306,1.681-10.307,2.472-14.923s1.561-8.842,2.263-12.58,1.331-7,1.86-9.677c1.063-5.36,1.726-8.4,1.726-8.4a.727.727,0,0,0-.544-.862A.7.7,0,0,0,130.551,581.124Z" fill="#c38120"/><path d="M130.1,561.2c-3.079,13.091,1.011,25.369,1.011,25.369a50.492,50.492,0,0,0,12.157-22.045c3.078-13.093-1.013-25.369-1.013-25.369A50.473,50.473,0,0,0,130.1,561.2Z" fill="#ffdc97"/><path d="M139.45,581.666c-9.118,7.682-12.121,19.158-12.121,19.158s11.779-.977,20.895-8.657,12.12-19.156,12.12-19.156S148.569,573.986,139.45,581.666Z" fill="#ffdc97"/><path d="M139.495,603.12c-10.449,6.768-15.2,17.995-15.2,17.995s12.19.26,22.637-6.508,15.2-17.992,15.2-17.992S149.943,596.355,139.495,603.12Z" fill="#ffc533"/><path d="M112.3,584.063c4.4,12.04,14.32,19.53,14.32,19.53s2.773-12.029-1.632-24.065S110.668,560,110.668,560,107.893,572.026,112.3,584.063Z" fill="#ffd066"/><path d="M102.13,625.856c7.215,10.608,18.629,15.417,18.629,15.417s-.287-12.39-7.5-23-18.629-15.418-18.629-15.418S94.913,615.247,102.13,625.856Z" fill="#ffdc97"/><path d="M107.55,605.085c5.752,9,16.087,12.665,16.087,12.665s1.008-10.918-4.744-19.913-16.087-12.666-16.087-12.666S101.8,596.09,107.55,605.085Z" fill="#ffd066"/><path d="M144.394,636.337a56.049,56.049,0,0,0,16.288-21.092,55.85,55.85,0,0,0-24.581,10.2,56.084,56.084,0,0,0-16.29,21.091A55.844,55.844,0,0,0,144.394,636.337Z" fill="#ffd066"/><path d="M144.685,655.727a73.841,73.841,0,0,0,19.74-23.733,69.553,69.553,0,0,0-47.774,36.578A73.578,73.578,0,0,0,144.685,655.727Z" fill="#ffdc97"/><path d="M143.463,677.328A73.838,73.838,0,0,0,163.2,653.594a69.556,69.556,0,0,0-47.774,36.576A73.564,73.564,0,0,0,143.463,677.328Z" fill="#ffdc97"/><path d="M105.479,634.673a76.911,76.911,0,0,0-22.335-21.948,72.84,72.84,0,0,0,33.391,51.247A76.9,76.9,0,0,0,105.479,634.673Z" fill="#ffc533"/><path d="M99.907,653.709a118.342,118.342,0,0,0-26.734-28.7,114.249,114.249,0,0,0,42.187,64.746A118.289,118.289,0,0,0,99.907,653.709Z" fill="#ffc533"/><path d="M136.348,686.442A113.25,113.25,0,0,0,110.3,714.979a112.985,112.985,0,0,0,34.333-17.649,113.3,113.3,0,0,0,26.044-28.535A112.926,112.926,0,0,0,136.348,686.442Z" fill="#ffc533"/><path d="M84.339,685.809a118.286,118.286,0,0,0,27.071,28.377A118.343,118.343,0,0,0,95.531,678.32,118.256,118.256,0,0,0,68.46,649.941,118.362,118.362,0,0,0,84.339,685.809Z" fill="#ffd066"/><rect width="71.317" height="140.752" transform="translate(72.091 758.18)" fill="#f9e8f5"/><path d="M1209.478,965.765H1795.4l27.358,15.959H1173Z" fill="#c47d20" opacity="0.5" style="mix-blend-mode:multiply;isolation:isolate"/><path d="M1246.186,971.558h-6.839l37.4-90.62h6.838Z" fill="#c38120"/><path d="M1753.892,971.558h6.84l-37.4-90.62h-6.839Z" fill="#c38120"/><rect width="560.818" height="200.047" rx="11.399" transform="translate(1217.012 749.284)" fill="#ffdd92"/><path d="M1777.83,940.646c0,4.795-5.124,8.684-11.444,8.684H1226.291c-6.32,0-11.443-3.889-11.443-8.684V885.067c0-4.8,5.123-8.684,11.443-8.684h540.095c6.32,0,11.444,3.889,11.444,8.684Z" fill="#ffc533"/><path d="M1541.133,869.1l-5.148,10.618a40.853,40.853,0,0,0-18.018,4.5,99.356,99.356,0,0,1-12.871,3.218s-5.791-.965-5.791,2.574c0,0,.322,1.609,5.791,1.609h39.254s3.862-6.757.645-11.9l4.182-8.366Z" fill="#ed9f80"/><path d="M1634.7,835.127s-39.11-43.742-62.728-59.613c0,0-24.346-7.509-32.63,13.041l-4.8,88.553,13.69,2.8,12.911-53.056s5.443-18.259,1.608-27.364c0,0,61.858,80.705,80.106,82.917a159.637,159.637,0,0,0,30.167-10.942l-25.231-40.944S1637.156,832.079,1634.7,835.127Z" fill="#2d2326"/><rect width="39.326" height="107.718" rx="11.399" transform="translate(1193.075 841.612)" fill="#ff9920"/><rect width="39.326" height="107.718" rx="11.399" transform="translate(1762.441 841.612)" fill="#ff9920"/><path d="M1744.066,931.018H1250.312V898.979h493.754Zm-492.609-1.145h491.465v-29.75H1251.457Z" fill="#ffe3c2"/><circle cx="9.119" cy="9.119" r="9.119" transform="translate(1203.778 850.632)" fill="#ffe3c2"/><circle cx="9.119" cy="9.119" r="9.119" transform="translate(1772.603 850.632)" fill="#ffe3c2"/><path d="M1680.649,746.519s-19.759,14.058-28.118-14.44c0,0-12.919-35.718,7.6-45.6,0,0,17.479-2.28,20.139,15.2C1680.27,701.681,1700.789,737.019,1680.649,746.519Z" fill="#3c0a1f"/><path d="M1664.263,689.6c-10.439,2.6-13.262,13.271-11.265,25.347a14.753,14.753,0,0,1-2.689,6.507l4,.438.24-.266c3.7,12.332,9.373,16.8,20.287,14.086,11.632-2.894,20.082-12.795,16.67-26.513S1675.9,686.708,1664.263,689.6Z" fill="#fdb08e"/><path d="M1674.569,732.459s15.959,19.38,1.14,28.879l31.918-12.54s-15.579-5.32-19-25.078Z" fill="#fdb08e"/><path d="M1656.33,697.881s11.02,17.1,26.219,11.4l3.419,4.181s-1.9-7.6,0-9.12c0,0,6.839-3.039,6.08,6.84,0,0-5.7,19.757-.38,25.837a19.3,19.3,0,0,0,23.939-.759s11.4-16.338-5.32-32.678c0,0-20.9-29.258-45.6-20.9C1664.69,682.682,1651.011,687.622,1656.33,697.881Z" fill="#3c0a1f"/><path d="M1632.77,831.252s-2.658,37.619,20.14,52.438c0,0,68.4-3.42,69.536-76.376,0,0,1.521-53.577-19-61.937,0,0-40.28,3.039-42.56,49.4,0,0-3.039,28.879-12.159,33.439C1648.729,828.213,1640.371,836.192,1632.77,831.252Z" fill="#c0504e"/><path d="M1504.655,872.143l-5.148,10.618a40.873,40.873,0,0,0-18.018,4.5,99.486,99.486,0,0,1-12.87,3.219s-5.792-.966-5.792,2.573c0,0,.322,1.609,5.792,1.609h39.253s3.862-6.757.645-11.905l4.182-8.366Z" fill="#fdb08e"/><path d="M1634.672,833.533s-52.056-41.038-75.615-57c0,0-24.319-7.6-32.679,12.919l-28.118,93.474,9.879,3.041,35.719-57.757s9.119-13.679,5.319-22.8c0,0,62.126,76,80.365,78.276,0,0,23.938,4.559,41.037-3.42l-28.5-46.737S1637.142,830.494,1634.672,833.533Z" fill="#3a2c30"/><path d="M1706.2,854.505c-3.451,6.923-2.071,18.9,4.85,22.345l28.117,2.28c6.92,3.451,8.709-2.958,12.16-9.88l33.729-62.01a14,14,0,0,0-6.284-18.78l-19.215-9.583a14,14,0,0,0-18.78,6.286Z" fill="#eaaa54"/><path d="M1623.842,791.355l-24.508-41.607L1582.8,762.287l29.068,31.918Z" fill="#f0a63d"/><path d="M1677.989,791.925l-12.539,23.939-52.437-25.649s2.659-10.639-5.32-17.1l-6.079-4.939s-1.14,3.04,1.14,4.56c0,0,3.04,3.8,2.279,6.459,0,0-6.84-6.078-8.739-8.739,0,0-2.659-4.179-5.319-4.56l1.9,4.179,1.52,3.04,1.9,1.9s-3.231,2.849-2.471,5.7c0,0-1.329,8.551,10.45,13.49l2.66.759s38.283,29.164,54.812,35.719c0,0,10.259,8.264,14.249,1.71l19.664-28.5Z" fill="#fdb08e"/></g></svg>